<svg xmlns="http://www.w3.org/2000/svg" xmlns:xlink="http://www.w3.org/1999/xlink" width="500" zoomAndPan="magnify" viewBox="0 0 375 374.999991" height="500" preserveAspectRatio="xMidYMid meet" version="1.0"><defs><clipPath id="eb803fbea9"><path d="M 0 22.492188 L 375 22.492188 L 375 352.773438 L 0 352.773438 Z M 0 22.492188 " clip-rule="nonzero"/></clipPath><clipPath id="ea8a64760a"><path d="M 295 22.265625 L 318 22.265625 L 318 76 L 295 76 Z M 295 22.265625 " clip-rule="nonzero"/></clipPath><clipPath id="06ae7406f4"><path d="M 41 44.472656 L 375 44.472656 L 375 352.773438 L 41 352.773438 Z M 41 44.472656 " clip-rule="nonzero"/></clipPath></defs><g clip-path="url(#eb803fbea9)"><path fill="#f27ec5" d="M 366.101562 80.675781 C 367.191406 88.4375 367.277344 95.019531 366.554688 100.664062 C 366.472656 101.339844 366.714844 102.011719 367.222656 102.441406 C 369.386719 104.304688 370.753906 107.042969 370.753906 110.109375 C 370.753906 115.6875 366.246094 120.203125 360.675781 120.203125 C 360.433594 120.203125 360.191406 120.191406 359.945312 120.167969 C 359.277344 120.117188 358.617188 120.390625 358.179688 120.914062 C 349.683594 131.054688 336.496094 135.261719 325.128906 140.378906 C 323.222656 141.238281 320.460938 142.652344 317.011719 144.507812 C 315.972656 145.070312 315.644531 146.390625 316.261719 147.398438 C 318.265625 150.722656 318.414062 155.3125 315.1875 159.730469 C 315.058594 159.90625 314.890625 160.078125 314.710938 160.207031 C 308.28125 164.867188 301.460938 162.394531 298.75 157.371094 C 298.203125 156.351562 296.929688 155.964844 295.929688 156.550781 C 289.210938 160.535156 281.765625 165.035156 273.902344 169.910156 C 273.019531 170.464844 272.671875 171.589844 273.136719 172.523438 C 274.769531 175.773438 274.699219 180.03125 271.664062 184.175781 C 271.527344 184.351562 271.355469 184.523438 271.175781 184.652344 C 265.402344 188.804688 259.335938 187.246094 256.191406 183.25 C 255.542969 182.421875 254.386719 182.210938 253.496094 182.773438 C 242.113281 190.089844 230.429688 197.8125 219.265625 205.488281 C 218.503906 206.019531 218.226562 206.984375 218.527344 207.867188 C 219.519531 210.914062 219.128906 214.589844 216.414062 218.199219 C 216.285156 218.382812 216.117188 218.550781 215.9375 218.679688 C 211.117188 222.109375 206.128906 221.570312 202.800781 218.984375 C 202.054688 218.414062 201.050781 218.359375 200.296875 218.914062 C 191.511719 225.316406 183.453125 231.496094 176.632812 237.199219 C 175.871094 237.835938 175.679688 238.929688 176.1875 239.78125 C 178.203125 243.105469 178.363281 247.679688 175.136719 252.097656 C 175.007812 252.28125 174.839844 252.449219 174.660156 252.585938 C 170.074219 255.910156 165.320312 255.613281 161.96875 253.375 C 161.121094 252.800781 159.953125 252.988281 159.292969 253.789062 C 158.625 254.59375 158.023438 255.382812 157.480469 256.132812 C 148.183594 269.15625 143.367188 281.769531 138.574219 293.441406 C 138.273438 294.164062 138.4375 294.992188 138.953125 295.574219 C 141.542969 298.433594 142.519531 302.777344 140.417969 307.183594 C 140.332031 307.363281 140.214844 307.542969 140.089844 307.691406 C 136.664062 311.601562 133.617188 312.578125 130.878906 312.394531 C 130.105469 312.34375 129.382812 312.707031 128.96875 313.363281 C 124.621094 320.417969 119.035156 326.886719 110.792969 332.597656 C 107.792969 334.675781 104.523438 336.464844 101.074219 337.949219 C 100.179688 338.332031 99.640625 339.296875 99.886719 340.242188 C 100.605469 343.152344 100.078125 346.550781 97.59375 349.886719 C 97.453125 350.066406 97.296875 350.226562 97.113281 350.351562 C 89.601562 355.726562 81.570312 351.40625 80.222656 344.671875 C 80.03125 343.714844 79.152344 343.039062 78.171875 343.070312 C 71.769531 343.269531 65.527344 342.429688 60.03125 340.457031 C 59.457031 340.242188 58.824219 340.285156 58.3125 340.605469 C 54.992188 342.699219 50.386719 342.929688 45.910156 339.679688 C 45.726562 339.550781 45.558594 339.382812 45.429688 339.203125 C 42.558594 335.316406 42.34375 331.335938 43.667969 328.167969 C 43.890625 327.640625 43.828125 327.042969 43.574219 326.53125 C 42.351562 324.058594 41.472656 321.289062 41.027344 318.207031 L 41.015625 318.207031 C 40.347656 313.734375 40.546875 308.640625 41.824219 302.863281 C 41.855469 302.734375 41.664062 302.574219 41.28125 302.394531 C 39.542969 301.523438 33.800781 299.992188 27.125 297.328125 C 26.277344 296.988281 25.335938 297.285156 24.761719 297.996094 C 21.609375 301.949219 15.582031 303.480469 9.855469 299.355469 C 9.671875 299.230469 9.5 299.058594 9.363281 298.878906 C 6.425781 294.90625 6.242188 290.832031 7.675781 287.632812 C 8.027344 286.835938 7.929688 285.902344 7.316406 285.285156 C 6.40625 284.371094 5.554688 283.40625 4.78125 282.386719 C -0.046875 276.070312 -1.957031 267.859375 2.5625 257.195312 C 5.132812 251.144531 7.890625 246.015625 10.902344 241.710938 C 11.519531 240.832031 11.316406 239.652344 10.488281 238.972656 C 6.617188 235.789062 5.152344 229.753906 9.300781 224.050781 C 9.4375 223.871094 9.597656 223.710938 9.789062 223.570312 C 16.050781 219.027344 22.671875 221.238281 25.511719 225.984375 C 26.046875 226.855469 27.136719 227.195312 28.0625 226.773438 C 34.746094 223.691406 42.4375 222.480469 51.425781 222.691406 C 52.496094 222.722656 53.347656 221.894531 53.476562 220.855469 C 53.484375 220.761719 53.492188 220.675781 53.492188 220.578125 L 53.492188 220.558594 C 53.492188 212.753906 62.355469 207.019531 70.558594 212.871094 C 70.738281 212.996094 70.90625 213.15625 71.035156 213.335938 C 73.570312 216.703125 74.089844 220.121094 73.347656 223.042969 C 73.050781 224.1875 73.742188 225.359375 74.898438 225.582031 C 75.976562 225.78125 77.0625 226.003906 78.164062 226.226562 C 78.675781 226.335938 79.203125 226.25 79.636719 225.972656 C 82.855469 223.988281 96.957031 215.195312 113.53125 204.246094 C 114.539062 203.578125 114.710938 202.207031 113.964844 201.25 C 111.34375 197.875 110.824219 192.796875 114.347656 187.957031 C 114.488281 187.777344 114.644531 187.605469 114.824219 187.476562 C 121.128906 182.890625 127.832031 185.160156 130.644531 190.003906 C 131.261719 191.042969 132.597656 191.386719 133.582031 190.703125 C 141.078125 185.511719 148.417969 180.257812 154.902344 175.320312 C 155.316406 175 155.570312 174.550781 155.65625 174.074219 C 155.757812 173.535156 155.621094 172.941406 155.265625 172.449219 C 152.726562 169.085938 152.238281 164.082031 155.742188 159.285156 C 155.867188 159.089844 156.035156 158.921875 156.230469 158.792969 C 161.640625 154.863281 167.308594 155.988281 170.585938 159.421875 C 171.0625 159.917969 171.730469 160.132812 172.355469 160.023438 C 172.792969 159.984375 173.203125 159.78125 173.523438 159.441406 C 173.851562 159.101562 174.160156 158.761719 174.457031 158.429688 C 177.121094 155.457031 180.515625 151.976562 184.367188 148.164062 C 184.984375 147.558594 185.132812 146.65625 184.792969 145.871094 C 183.464844 142.707031 183.675781 138.734375 186.554688 134.824219 C 186.691406 134.65625 186.851562 134.484375 187.03125 134.355469 C 191.019531 131.460938 195.128906 131.328125 198.324219 132.816406 C 199.09375 133.175781 200.011719 133.070312 200.625 132.476562 C 207.539062 125.871094 214.726562 119 221.21875 112.457031 C 221.863281 111.8125 222.015625 110.8125 221.546875 110.039062 C 219.519531 106.703125 219.375 102.125 222.558594 97.71875 C 222.683594 97.539062 222.851562 97.367188 223.035156 97.242188 C 227.148438 94.226562 231.386719 94.148438 234.628906 95.765625 C 235.492188 96.191406 236.542969 95.90625 237.160156 95.148438 C 241.6875 89.550781 244.488281 84.933594 244.488281 81.96875 C 244.488281 73.0625 246.566406 50.683594 258.316406 37.644531 C 258.800781 37.089844 258.980469 36.335938 258.757812 35.644531 C 257.785156 32.609375 258.195312 28.953125 260.9375 25.34375 C 261.0625 25.164062 261.230469 25.003906 261.414062 24.878906 C 267.429688 20.617188 273.753906 22.550781 276.710938 26.949219 C 277.128906 27.554688 277.804688 27.914062 278.527344 27.863281 C 278.847656 27.839844 279.175781 27.820312 279.503906 27.808594 C 285.871094 27.585938 291.164062 28.328125 295.601562 29.636719 L 295.609375 29.636719 C 295.71875 29.667969 295.820312 29.699219 295.929688 29.730469 C 296.894531 30.015625 297.957031 29.570312 298.347656 28.636719 C 300.726562 23.0625 307.949219 20.054688 314.730469 24.980469 C 314.914062 25.121094 315.082031 25.289062 315.207031 25.472656 C 319.253906 31.039062 317.96875 36.878906 314.320312 40.117188 C 313.574219 40.773438 313.449219 41.902344 313.988281 42.726562 C 314.867188 44.078125 315.496094 45.269531 315.921875 46.183594 C 316.195312 46.785156 316.726562 47.179688 317.320312 47.308594 C 317.691406 47.394531 318.082031 47.371094 318.46875 47.230469 C 322.289062 45.777344 331.519531 42.910156 340.929688 44.898438 C 347.519531 46.277344 354.179688 50.046875 359.128906 58.339844 C 359.613281 59.15625 360.613281 59.527344 361.515625 59.203125 C 364.601562 58.085938 368.390625 58.433594 372.082031 61.152344 C 372.265625 61.292969 372.421875 61.460938 372.558594 61.644531 C 377.792969 68.925781 373.90625 76.726562 367.53125 78.433594 C 366.554688 78.699219 365.949219 79.675781 366.101562 80.675781 " fill-opacity="1" fill-rule="nonzero"/></g><path fill="#f06b9d" d="M 31.503906 271.800781 C 30.019531 271.800781 28.480469 271.542969 26.96875 270.988281 C 20.914062 268.765625 17.5625 262.726562 19.476562 257.496094 C 20.910156 253.574219 24.894531 251.222656 29.355469 251.222656 C 30.84375 251.222656 32.386719 251.484375 33.90625 252.042969 C 35.046875 252.460938 36.089844 253.015625 37.019531 253.671875 C 36.679688 253.644531 36.34375 253.632812 36.007812 253.632812 C 32.46875 253.632812 29.25 255.179688 27.492188 257.847656 C 26.125 259.0625 25.453125 260.710938 25.785156 262.945312 C 25.867188 263.507812 26.105469 264.171875 26.464844 264.828125 C 27.257812 267.65625 29.40625 270.238281 32.449219 271.765625 C 32.136719 271.789062 31.824219 271.800781 31.503906 271.800781 " fill-opacity="1" fill-rule="nonzero"/><path fill="#f06b9d" d="M 72.484375 318.203125 C 70.722656 317.972656 68.9375 317.359375 67.277344 316.324219 C 61.804688 312.917969 59.746094 306.320312 62.6875 301.589844 C 64.464844 298.722656 67.667969 297.199219 71.136719 297.199219 C 73.390625 297.199219 75.761719 297.84375 77.917969 299.1875 C 78.953125 299.828125 79.859375 300.585938 80.640625 301.421875 C 79.515625 301.085938 78.378906 300.921875 77.265625 300.921875 C 73.984375 300.921875 70.953125 302.359375 69.273438 305.0625 C 66.71875 309.179688 68.1875 314.792969 72.484375 318.203125 " fill-opacity="1" fill-rule="nonzero"/><path fill="#f06b9d" d="M 92.851562 275.539062 C 87.03125 275.535156 82.128906 271.757812 81.601562 266.621094 C 81.035156 261.078125 85.769531 256.050781 92.1875 255.390625 C 92.652344 255.347656 93.117188 255.320312 93.570312 255.320312 C 94.300781 255.320312 95.011719 255.382812 95.703125 255.492188 C 92.5 256.738281 90.101562 259.199219 89.242188 262.113281 C 87.152344 265.246094 87.554688 269.820312 90.597656 272.390625 C 91.917969 273.503906 93.492188 273.953125 95.128906 273.953125 C 95.988281 273.953125 96.859375 273.832031 97.722656 273.613281 C 98.304688 273.707031 98.902344 273.753906 99.511719 273.761719 C 97.976562 274.65625 96.1875 275.265625 94.242188 275.464844 C 93.773438 275.511719 93.3125 275.539062 92.851562 275.539062 " fill-opacity="1" fill-rule="nonzero"/><path fill="#f06b9d" d="M 116.191406 229.695312 C 115.457031 228.074219 115.035156 226.234375 115.035156 224.273438 C 115.035156 217.824219 119.550781 212.59375 125.117188 212.59375 C 130.6875 212.59375 135.199219 217.824219 135.199219 224.273438 C 135.199219 225.492188 135.035156 226.664062 134.738281 227.765625 C 133.503906 223.277344 129.902344 220.027344 125.648438 220.027344 C 120.808594 220.027344 116.816406 224.238281 116.191406 229.695312 " fill-opacity="1" fill-rule="nonzero"/><path fill="#f06b9d" d="M 128.726562 260.480469 C 127.972656 260.335938 127.1875 260.261719 126.390625 260.261719 C 126.257812 260.261719 126.121094 260.261719 125.984375 260.269531 C 126.921875 259.664062 127.960938 259.175781 129.082031 258.820312 C 128.964844 259.359375 128.847656 259.914062 128.726562 260.480469 " fill-opacity="1" fill-rule="nonzero"/><path fill="#f06b9d" d="M 160.125 222.25 C 159.996094 221.113281 160.078125 219.953125 160.402344 218.8125 C 161.621094 214.507812 165.894531 211.78125 170.738281 211.78125 C 171.152344 211.78125 171.566406 211.800781 171.984375 211.839844 C 167.839844 215.351562 163.867188 218.859375 160.125 222.25 " fill-opacity="1" fill-rule="nonzero"/><path fill="#f06b9d" d="M 225.933594 171.050781 C 224.46875 170.246094 222.757812 169.828125 220.964844 169.828125 C 219.410156 169.828125 217.792969 170.144531 216.226562 170.800781 C 217.28125 169.367188 218.679688 168.097656 220.386719 167.144531 C 222.425781 166 224.617188 165.453125 226.710938 165.453125 C 228.515625 165.453125 230.25 165.859375 231.75 166.644531 C 229.789062 168.125 227.847656 169.597656 225.933594 171.050781 " fill-opacity="1" fill-rule="nonzero"/><path fill="#f06b9d" d="M 289.40625 126.789062 C 289.421875 126.753906 289.441406 126.71875 289.457031 126.683594 C 290.011719 125.601562 290.6875 124.628906 291.457031 123.78125 C 291.3125 124.472656 291.230469 125.160156 291.207031 125.835938 C 290.617188 126.140625 290.015625 126.457031 289.40625 126.789062 " fill-opacity="1" fill-rule="nonzero"/><path fill="#f06b9d" d="M 283.011719 111.476562 C 282.160156 111.476562 281.332031 111.394531 280.53125 111.246094 C 284.273438 109.902344 286.984375 106.898438 287.492188 103.40625 C 287.925781 102.0625 287.859375 100.542969 287.144531 99.097656 C 286.894531 98.59375 286.605469 98.140625 286.277344 97.746094 C 284.503906 94.925781 281.105469 93.03125 277.203125 92.882812 C 278.761719 92.027344 280.566406 91.46875 282.519531 91.320312 C 282.867188 91.292969 283.210938 91.277344 283.558594 91.277344 C 289.53125 91.277344 294.519531 95.238281 294.917969 100.492188 C 295.34375 106.046875 290.472656 110.945312 284.046875 111.4375 C 283.699219 111.464844 283.351562 111.476562 283.011719 111.476562 " fill-opacity="1" fill-rule="nonzero"/><path fill="#f06b9d" d="M 338.425781 106.304688 C 338.140625 106.261719 337.855469 106.214844 337.570312 106.15625 C 336.378906 105.917969 335.257812 105.523438 334.238281 105.011719 C 338.882812 104.695312 342.78125 101.808594 343.628906 97.632812 C 344.589844 92.886719 341.257812 88.132812 336.039062 86.4375 C 336.960938 86.226562 337.925781 86.113281 338.917969 86.113281 C 339.789062 86.113281 340.679688 86.203125 341.578125 86.382812 C 345.8125 87.242188 349.101562 89.980469 350.480469 93.335938 C 347.046875 98.421875 343.007812 102.699219 338.425781 106.304688 " fill-opacity="1" fill-rule="nonzero"/><path fill="#f06b9d" d="M 245.867188 131.695312 C 244.308594 131.695312 242.691406 131.410156 241.109375 130.796875 C 235.097656 128.460938 231.859375 122.359375 233.871094 117.164062 C 235.351562 113.34375 239.265625 111.074219 243.625 111.074219 C 245.191406 111.074219 246.808594 111.367188 248.398438 111.980469 C 249.527344 112.421875 250.566406 112.996094 251.484375 113.671875 C 251.066406 113.632812 250.652344 113.609375 250.242188 113.609375 C 246.101562 113.609375 242.386719 115.742188 240.988281 119.359375 C 239.238281 123.875 241.71875 129.121094 246.574219 131.675781 C 246.339844 131.6875 246.105469 131.695312 245.867188 131.695312 " fill-opacity="1" fill-rule="nonzero"/><path fill="#f06b9d" d="M 307.183594 77.832031 C 306.449219 76.210938 306.03125 74.371094 306.03125 72.414062 C 306.03125 65.960938 310.542969 60.730469 316.109375 60.730469 C 321.679688 60.730469 326.191406 65.960938 326.191406 72.414062 C 326.191406 73.628906 326.03125 74.800781 325.730469 75.902344 C 324.496094 71.414062 320.894531 68.164062 316.640625 68.164062 C 311.796875 68.164062 307.808594 72.378906 307.183594 77.832031 " fill-opacity="1" fill-rule="nonzero"/><path fill="#f06b9d" d="M 279.042969 58.914062 C 277.8125 54.425781 274.207031 51.171875 269.953125 51.171875 C 269.445312 51.171875 268.945312 51.21875 268.457031 51.308594 C 268.300781 50.269531 267.480469 49.277344 266.453125 49.035156 C 266.03125 48.9375 265.621094 48.886719 265.230469 48.886719 C 262.273438 48.886719 260.207031 51.546875 259.375 54.464844 C 259.796875 48.460938 264.136719 43.738281 269.421875 43.738281 C 274.992188 43.738281 279.503906 48.96875 279.503906 55.421875 C 279.503906 56.636719 279.34375 57.808594 279.042969 58.914062 " fill-opacity="1" fill-rule="nonzero"/><path fill="#f06b9d" d="M 187.109375 190.761719 C 185.34375 190.53125 183.558594 189.921875 181.894531 188.890625 C 176.414062 185.5 174.34375 178.90625 177.273438 174.167969 C 179.050781 171.289062 182.261719 169.757812 185.738281 169.757812 C 187.984375 169.757812 190.347656 170.398438 192.5 171.730469 C 193.535156 172.375 194.445312 173.128906 195.226562 173.960938 C 194.109375 173.632812 192.976562 173.472656 191.875 173.472656 C 188.582031 173.472656 185.546875 174.910156 183.867188 177.628906 C 181.320312 181.75 182.800781 187.363281 187.109375 190.761719 " fill-opacity="1" fill-rule="nonzero"/><g clip-path="url(#ea8a64760a)"><path fill="#f06b9d" d="M 295.429688 75.578125 C 297.15625 67.777344 298.183594 67.066406 298.496094 67.066406 C 298.566406 67.066406 298.601562 67.101562 298.601562 67.101562 C 306.210938 51.171875 301.191406 37.507812 295.609375 29.636719 C 295.71875 29.667969 295.820312 29.699219 295.929688 29.730469 C 296.125 29.789062 296.324219 29.816406 296.519531 29.816406 C 297.296875 29.816406 298.035156 29.382812 298.347656 28.636719 C 299.886719 25.027344 303.457031 22.496094 307.625 22.496094 C 309.894531 22.496094 312.34375 23.246094 314.730469 24.980469 C 314.914062 25.121094 315.082031 25.289062 315.207031 25.472656 C 316.949219 27.871094 317.703125 30.316406 317.707031 32.585938 C 317.707031 35.585938 316.398438 38.273438 314.320312 40.117188 C 313.878906 40.503906 313.65625 41.058594 313.65625 41.613281 C 313.65625 42 313.765625 42.390625 313.988281 42.726562 C 314.867188 44.078125 315.496094 45.269531 315.921875 46.183594 C 316.195312 46.785156 316.726562 47.179688 317.320312 47.308594 C 303.316406 58.417969 295.738281 74.886719 295.429688 75.578125 " fill-opacity="1" fill-rule="nonzero"/></g><g clip-path="url(#06ae7406f4)"><path fill="#f06b9d" d="M 90.105469 352.773438 C 85.214844 352.773438 81.148438 349.289062 80.222656 344.671875 C 80.035156 343.738281 79.191406 343.066406 78.242188 343.066406 C 78.21875 343.066406 78.195312 343.066406 78.171875 343.070312 C 77.558594 343.089844 76.9375 343.097656 76.324219 343.097656 C 70.570312 343.097656 64.996094 342.238281 60.03125 340.457031 C 59.792969 340.371094 59.550781 340.324219 59.308594 340.324219 C 58.957031 340.324219 58.613281 340.414062 58.3125 340.605469 C 56.761719 341.582031 54.925781 342.152344 52.957031 342.152344 C 50.714844 342.152344 48.292969 341.414062 45.910156 339.679688 C 45.726562 339.550781 45.558594 339.382812 45.429688 339.203125 C 43.644531 336.789062 42.886719 334.335938 42.882812 332.070312 C 42.882812 330.6875 43.167969 329.371094 43.667969 328.167969 C 43.761719 327.949219 43.804688 327.710938 43.804688 327.480469 C 43.804688 327.15625 43.722656 326.832031 43.574219 326.53125 C 42.351562 324.058594 41.472656 321.289062 41.027344 318.207031 C 55.328125 324.398438 67.167969 327.023438 77.003906 327.023438 C 108.382812 327.023438 119.367188 300.34375 124.960938 277.808594 C 125.796875 278.433594 126.785156 278.722656 127.773438 278.722656 C 129.589844 278.722656 131.417969 277.761719 132.371094 276.183594 C 132.558594 275.878906 132.300781 275.601562 132.019531 275.601562 C 131.925781 275.601562 131.828125 275.628906 131.746094 275.699219 C 130.773438 276.515625 129.652344 276.875 128.570312 276.875 C 127.417969 276.875 126.308594 276.476562 125.445312 275.796875 C 126.773438 270.210938 127.789062 264.941406 128.726562 260.480469 C 132.976562 261.285156 136.328125 264.261719 136.910156 268.234375 C 137.523438 272.449219 134.828125 276.484375 130.570312 278.355469 C 131.082031 278.417969 131.605469 278.449219 132.132812 278.449219 C 132.777344 278.449219 133.429688 278.402344 134.089844 278.308594 C 140.464844 277.375 144.984375 272.148438 144.179688 266.636719 C 143.460938 261.695312 138.707031 258.199219 133.136719 258.199219 C 132.492188 258.199219 131.839844 258.242188 131.179688 258.339844 C 130.449219 258.445312 129.75 258.609375 129.082031 258.820312 C 130.308594 253.1875 131.453125 249.082031 133.074219 247.640625 C 138.207031 243.074219 147.941406 233.292969 160.125 222.25 C 160.609375 226.445312 164 230.316406 168.878906 231.703125 C 170.097656 232.050781 171.316406 232.214844 172.503906 232.214844 C 173.148438 232.214844 173.785156 232.164062 174.40625 232.074219 C 169.332031 229.984375 166.371094 224.992188 167.691406 220.328125 C 168.84375 216.261719 172.90625 213.6875 177.515625 213.6875 C 177.546875 213.6875 177.578125 213.6875 177.613281 213.6875 C 176.636719 213.101562 175.550781 212.625 174.382812 212.292969 C 173.578125 212.066406 172.777344 211.917969 171.984375 211.839844 C 179.453125 205.507812 187.472656 199.164062 195.679688 193.476562 C 203.710938 187.914062 214.355469 179.820312 225.933594 171.050781 C 227.316406 171.808594 228.480469 172.914062 229.273438 174.335938 C 231.351562 178.050781 230.277344 182.78125 226.96875 186.054688 C 228.078125 185.773438 229.175781 185.34375 230.238281 184.75 C 235.863281 181.597656 238.214844 175.101562 235.496094 170.238281 C 234.617188 168.664062 233.308594 167.449219 231.75 166.644531 C 251.808594 151.476562 273.746094 135.214844 289.40625 126.789062 C 286.546875 132.507812 288.195312 139.15625 293.125 141.679688 C 294.410156 142.335938 295.796875 142.648438 297.195312 142.648438 C 301.171875 142.648438 305.242188 140.117188 307.410156 135.863281 C 308.304688 134.121094 308.765625 132.289062 308.847656 130.511719 C 306.664062 133.804688 303.222656 135.726562 299.855469 135.726562 C 298.542969 135.726562 297.242188 135.433594 296.03125 134.816406 C 292.816406 133.171875 291.082031 129.652344 291.207031 125.835938 C 295.753906 123.496094 299.707031 121.890625 302.847656 121.265625 C 316.71875 118.488281 328.777344 113.894531 338.425781 106.304688 C 339.039062 106.386719 339.648438 106.429688 340.246094 106.429688 C 345.507812 106.429688 350.0625 103.273438 351.011719 98.59375 C 351.378906 96.792969 351.160156 94.988281 350.480469 93.335938 C 350.882812 92.742188 351.273438 92.140625 351.65625 91.527344 C 360.230469 77.796875 347.316406 53.644531 340.929688 44.898438 C 347.519531 46.277344 354.179688 50.046875 359.128906 58.339844 C 359.492188 58.957031 360.152344 59.320312 360.839844 59.320312 C 361.066406 59.320312 361.292969 59.28125 361.515625 59.203125 C 362.574219 58.816406 363.722656 58.605469 364.917969 58.605469 C 367.195312 58.605469 369.660156 59.375 372.082031 61.152344 C 372.265625 61.292969 372.421875 61.460938 372.558594 61.644531 C 374.261719 64.011719 375 66.4375 375 68.683594 C 375.003906 73.355469 371.835938 77.28125 367.53125 78.433594 C 366.652344 78.671875 366.078125 79.484375 366.078125 80.371094 C 366.078125 80.472656 366.082031 80.574219 366.101562 80.675781 C 366.726562 85.132812 367.019531 89.199219 367.019531 92.925781 C 367.023438 95.6875 366.863281 98.257812 366.554688 100.664062 C 366.542969 100.75 366.539062 100.839844 366.539062 100.929688 C 366.539062 101.515625 366.78125 102.066406 367.222656 102.441406 C 369.386719 104.304688 370.753906 107.042969 370.753906 110.109375 C 370.753906 115.6875 366.246094 120.203125 360.675781 120.203125 C 360.433594 120.203125 360.191406 120.191406 359.945312 120.167969 C 359.890625 120.164062 359.835938 120.164062 359.78125 120.164062 C 359.167969 120.164062 358.582031 120.433594 358.179688 120.914062 C 349.683594 131.054688 336.496094 135.261719 325.128906 140.378906 C 323.222656 141.238281 320.460938 142.652344 317.011719 144.507812 C 316.328125 144.878906 315.949219 145.578125 315.949219 146.304688 C 315.953125 146.675781 316.050781 147.054688 316.261719 147.398438 C 317.171875 148.910156 317.699219 150.683594 317.699219 152.585938 C 317.703125 154.863281 316.945312 157.320312 315.1875 159.730469 C 315.058594 159.90625 314.890625 160.078125 314.710938 160.207031 C 312.328125 161.9375 309.886719 162.683594 307.625 162.683594 C 303.785156 162.683594 300.453125 160.53125 298.75 157.371094 C 298.375 156.675781 297.667969 156.277344 296.9375 156.277344 C 296.59375 156.277344 296.246094 156.367188 295.929688 156.550781 C 289.210938 160.535156 281.765625 165.035156 273.902344 169.910156 C 273.285156 170.300781 272.929688 170.964844 272.929688 171.652344 C 272.929688 171.945312 272.996094 172.242188 273.136719 172.523438 C 273.816406 173.878906 274.203125 175.40625 274.199219 177.023438 C 274.195312 179.296875 273.433594 181.753906 271.664062 184.175781 C 271.527344 184.351562 271.355469 184.523438 271.175781 184.652344 C 268.792969 186.363281 266.367188 187.105469 264.109375 187.105469 C 260.898438 187.105469 258.039062 185.597656 256.191406 183.25 C 255.789062 182.734375 255.191406 182.457031 254.582031 182.457031 C 254.210938 182.457031 253.835938 182.558594 253.496094 182.773438 C 242.113281 190.089844 230.429688 197.8125 219.265625 205.488281 C 218.707031 205.878906 218.40625 206.503906 218.40625 207.15625 C 218.40625 207.394531 218.445312 207.632812 218.527344 207.867188 C 218.847656 208.855469 219.023438 209.910156 219.023438 211.007812 C 219.023438 213.289062 218.25 215.761719 216.414062 218.199219 C 216.285156 218.382812 216.117188 218.550781 215.9375 218.679688 C 213.574219 220.359375 211.167969 221.089844 208.941406 221.089844 C 206.625 221.089844 204.496094 220.304688 202.800781 218.984375 C 202.40625 218.683594 201.941406 218.523438 201.476562 218.523438 C 201.0625 218.523438 200.648438 218.652344 200.296875 218.914062 C 191.511719 225.316406 183.453125 231.496094 176.632812 237.199219 C 176.15625 237.597656 175.902344 238.175781 175.902344 238.757812 C 175.902344 239.109375 175.996094 239.460938 176.1875 239.78125 C 177.109375 241.300781 177.644531 243.078125 177.644531 244.988281 C 177.644531 247.253906 176.886719 249.699219 175.136719 252.097656 C 175.007812 252.28125 174.839844 252.449219 174.660156 252.585938 C 172.265625 254.320312 169.828125 255.074219 167.5625 255.074219 C 165.492188 255.074219 163.570312 254.441406 161.96875 253.375 C 161.636719 253.148438 161.257812 253.042969 160.875 253.042969 C 160.285156 253.042969 159.695312 253.304688 159.292969 253.789062 C 158.625 254.59375 158.023438 255.382812 157.480469 256.132812 C 148.183594 269.15625 143.367188 281.769531 138.574219 293.441406 C 138.46875 293.683594 138.421875 293.9375 138.421875 294.191406 C 138.421875 294.691406 138.605469 295.1875 138.953125 295.574219 C 140.570312 297.359375 141.558594 299.730469 141.558594 302.328125 C 141.5625 303.890625 141.207031 305.53125 140.417969 307.183594 C 140.332031 307.363281 140.214844 307.542969 140.089844 307.691406 C 136.914062 311.3125 134.066406 312.417969 131.488281 312.417969 C 131.285156 312.417969 131.082031 312.414062 130.878906 312.394531 C 130.828125 312.394531 130.777344 312.394531 130.730469 312.394531 C 130.011719 312.394531 129.359375 312.75 128.96875 313.363281 C 124.621094 320.417969 119.035156 326.886719 110.792969 332.597656 C 107.792969 334.675781 104.523438 336.464844 101.074219 337.949219 C 100.328125 338.265625 99.828125 338.996094 99.824219 339.777344 C 99.824219 339.929688 99.84375 340.089844 99.886719 340.242188 C 100.078125 341.023438 100.179688 341.835938 100.179688 342.671875 C 100.179688 344.96875 99.414062 347.441406 97.59375 349.886719 C 97.453125 350.066406 97.296875 350.226562 97.113281 350.351562 C 94.753906 352.042969 92.34375 352.773438 90.105469 352.773438 M 170.910156 223.605469 C 170.800781 223.605469 170.683594 223.65625 170.613281 223.773438 C 168.667969 226.652344 170.582031 229.441406 173.546875 230.640625 C 174.273438 230.929688 174.996094 231.0625 175.707031 231.0625 C 178.769531 231.0625 181.660156 228.6875 183.773438 226.6875 C 184.171875 226.308594 183.808594 225.765625 183.359375 225.765625 C 183.277344 225.765625 183.191406 225.785156 183.109375 225.828125 C 181.050781 226.824219 178.746094 228.070312 176.398438 228.070312 C 176.234375 228.070312 176.078125 228.0625 175.917969 228.050781 C 173.945312 227.902344 171.378906 226.203125 171.257812 223.949219 C 171.246094 223.730469 171.082031 223.605469 170.910156 223.605469 " fill-opacity="1" fill-rule="nonzero"/></g><path fill="#ec5c7a" d="M 132.132812 278.449219 C 131.605469 278.449219 131.082031 278.417969 130.570312 278.355469 C 134.828125 276.484375 137.523438 272.449219 136.910156 268.234375 C 136.328125 264.261719 132.976562 261.285156 128.726562 260.480469 C 128.847656 259.914062 128.964844 259.359375 129.082031 258.820312 C 129.75 258.609375 130.449219 258.445312 131.179688 258.339844 C 131.839844 258.242188 132.492188 258.199219 133.136719 258.199219 C 138.707031 258.199219 143.460938 261.695312 144.179688 266.636719 C 144.984375 272.148438 140.464844 277.375 134.089844 278.308594 C 133.429688 278.402344 132.777344 278.449219 132.132812 278.449219 " fill-opacity="1" fill-rule="nonzero"/><path fill="#ec5c7a" d="M 172.503906 232.214844 C 171.316406 232.214844 170.097656 232.050781 168.878906 231.703125 C 164 230.316406 160.609375 226.445312 160.125 222.25 C 163.867188 218.859375 167.839844 215.351562 171.984375 211.839844 C 172.777344 211.917969 173.578125 212.066406 174.382812 212.292969 C 175.550781 212.625 176.636719 213.101562 177.613281 213.6875 C 177.578125 213.6875 177.546875 213.6875 177.515625 213.6875 C 172.90625 213.6875 168.84375 216.261719 167.691406 220.328125 C 166.371094 224.992188 169.332031 229.984375 174.40625 232.074219 C 173.785156 232.164062 173.148438 232.214844 172.503906 232.214844 " fill-opacity="1" fill-rule="nonzero"/><path fill="#ec5c7a" d="M 226.96875 186.054688 C 230.277344 182.78125 231.351562 178.050781 229.273438 174.335938 C 228.480469 172.914062 227.316406 171.808594 225.933594 171.050781 C 227.847656 169.597656 229.789062 168.125 231.75 166.644531 C 233.308594 167.449219 234.617188 168.664062 235.496094 170.238281 C 238.214844 175.101562 235.863281 181.597656 230.238281 184.75 C 229.175781 185.34375 228.078125 185.773438 226.96875 186.054688 " fill-opacity="1" fill-rule="nonzero"/><path fill="#ec5c7a" d="M 297.195312 142.648438 C 295.796875 142.648438 294.410156 142.335938 293.125 141.679688 C 288.195312 139.15625 286.546875 132.507812 289.40625 126.789062 C 290.015625 126.457031 290.617188 126.140625 291.207031 125.835938 C 291.082031 129.652344 292.816406 133.171875 296.03125 134.816406 C 297.242188 135.433594 298.542969 135.726562 299.855469 135.726562 C 303.222656 135.726562 306.664062 133.804688 308.847656 130.511719 C 308.765625 132.289062 308.304688 134.121094 307.410156 135.863281 C 305.242188 140.117188 301.171875 142.648438 297.195312 142.648438 " fill-opacity="1" fill-rule="nonzero"/><path fill="#ec5c7a" d="M 340.246094 106.429688 C 339.648438 106.429688 339.039062 106.386719 338.425781 106.304688 C 343.007812 102.699219 347.046875 98.421875 350.480469 93.335938 C 351.160156 94.988281 351.378906 96.792969 351.011719 98.59375 C 350.0625 103.273438 345.507812 106.429688 340.246094 106.429688 " fill-opacity="1" fill-rule="nonzero"/><path fill="#f06b9d" d="M 41.28125 302.394531 C 39.542969 301.523438 33.800781 299.992188 27.125 297.328125 C 26.886719 297.234375 26.644531 297.1875 26.402344 297.1875 C 25.78125 297.1875 25.171875 297.484375 24.761719 297.996094 C 22.914062 300.316406 20.074219 301.800781 16.886719 301.800781 C 14.640625 301.800781 12.222656 301.0625 9.855469 299.355469 C 9.671875 299.230469 9.5 299.058594 9.363281 298.878906 C 7.574219 296.460938 6.804688 294 6.804688 291.726562 C 6.804688 290.265625 7.117188 288.882812 7.675781 287.632812 C 7.808594 287.328125 7.878906 287.007812 7.878906 286.695312 C 7.878906 286.171875 7.699219 285.667969 7.316406 285.285156 C 6.40625 284.371094 5.554688 283.40625 4.78125 282.386719 C 9.800781 284.242188 18.777344 286.855469 29.511719 286.855469 C 37.847656 286.855469 47.242188 285.28125 56.675781 280.558594 C 57.386719 280.207031 58.449219 280.089844 59.546875 280.089844 C 61.75 280.089844 64.105469 280.558594 64.105469 280.558594 C 64.105469 280.558594 49.644531 288.597656 41.28125 302.394531 " fill-opacity="1" fill-rule="nonzero"/><path fill="#f06b9d" d="M 155.65625 174.074219 C 155.679688 173.957031 155.691406 173.835938 155.691406 173.710938 C 155.691406 173.28125 155.542969 172.832031 155.265625 172.449219 C 153.996094 170.765625 153.238281 168.675781 153.238281 166.402344 C 153.238281 164.132812 153.988281 161.679688 155.742188 159.285156 C 155.867188 159.089844 156.035156 158.921875 156.230469 158.792969 C 158.621094 157.058594 161.058594 156.308594 163.320312 156.308594 C 166.179688 156.308594 168.753906 157.507812 170.585938 159.421875 C 170.984375 159.832031 171.511719 160.054688 172.039062 160.054688 C 172.144531 160.054688 172.25 160.042969 172.355469 160.023438 C 169.210938 165.105469 164.933594 168.691406 161.128906 171.117188 C 161.105469 171.058594 161.074219 170.996094 161.027344 170.941406 C 159.238281 168.851562 158.945312 164.925781 159.753906 162.371094 C 159.808594 162.195312 159.652344 161.988281 159.472656 161.988281 C 159.441406 161.988281 159.414062 161.992188 159.386719 162.003906 C 157.148438 162.882812 156.269531 164.726562 156.503906 167.074219 C 156.742188 169.414062 158 171.035156 160.210938 171.6875 C 158.519531 172.707031 156.949219 173.492188 155.65625 174.074219 " fill-opacity="1" fill-rule="nonzero"/><path fill="#f06b9d" d="M 76.039062 226.707031 C 71.144531 226.707031 60.09375 223.144531 53.476562 220.855469 C 53.484375 220.761719 53.492188 220.675781 53.492188 220.578125 L 53.492188 220.558594 C 53.492188 214.984375 58.007812 210.46875 63.574219 210.46875 C 65.808594 210.46875 68.207031 211.195312 70.558594 212.871094 C 70.738281 212.996094 70.90625 213.15625 71.035156 213.335938 C 72.882812 215.789062 73.660156 218.269531 73.660156 220.5625 C 73.660156 221.421875 73.550781 222.25 73.347656 223.042969 C 73.300781 223.222656 73.28125 223.402344 73.277344 223.578125 C 73.277344 224.53125 73.921875 225.394531 74.898438 225.582031 C 75.976562 225.78125 77.0625 226.003906 78.164062 226.226562 C 78.078125 226.292969 77.996094 226.355469 77.902344 226.398438 C 77.476562 226.613281 76.839844 226.707031 76.039062 226.707031 M 63.773438 212.234375 C 63.457031 212.234375 63.125 212.261719 62.769531 212.335938 C 61.726562 212.554688 60.558594 213.136719 59.792969 213.902344 C 58.277344 215.417969 56.988281 218.457031 58.375 220.402344 C 58.757812 220.9375 59.382812 221.324219 60.023438 221.324219 C 60.316406 221.324219 60.613281 221.242188 60.894531 221.058594 C 62.21875 220.207031 62.878906 218.640625 63.726562 217.363281 C 64.496094 216.210938 65.070312 214.511719 66.132812 213.601562 C 66.640625 213.167969 66.175781 212.472656 65.640625 212.414062 C 64.960938 212.339844 64.386719 212.234375 63.773438 212.234375 " fill-opacity="1" fill-rule="nonzero"/><path fill="#f391cd" d="M 30.324219 267.820312 C 28.746094 267.820312 27.292969 266.347656 26.464844 264.828125 C 25.980469 263.097656 26 261.28125 26.632812 259.554688 C 26.855469 258.941406 27.144531 258.375 27.492188 257.847656 C 28.144531 257.265625 28.953125 256.785156 29.886719 256.382812 C 29.984375 256.34375 30.089844 256.324219 30.191406 256.324219 C 30.742188 256.324219 31.328125 256.835938 30.90625 257.40625 C 29.992188 258.652344 30.429688 260.648438 30.515625 262.171875 C 30.566406 262.980469 30.671875 263.867188 30.820312 264.667969 C 30.96875 265.441406 31.492188 266.054688 31.609375 266.816406 C 31.671875 267.214844 31.507812 267.566406 31.109375 267.699219 C 30.84375 267.78125 30.582031 267.820312 30.324219 267.820312 " fill-opacity="1" fill-rule="nonzero"/><path fill="#f47eae" d="M 26.464844 264.828125 C 26.105469 264.171875 25.867188 263.507812 25.785156 262.945312 C 25.453125 260.710938 26.125 259.0625 27.492188 257.847656 C 27.144531 258.375 26.855469 258.941406 26.632812 259.554688 C 26 261.28125 25.980469 263.097656 26.464844 264.828125 " fill-opacity="1" fill-rule="nonzero"/><path fill="#f391cd" d="M 14.304688 237.585938 C 14.222656 237.585938 14.136719 237.570312 14.058594 237.53125 C 11.460938 236.253906 10.550781 233.878906 10.765625 231.050781 C 10.945312 228.675781 12.132812 226.199219 14.566406 225.585938 C 14.578125 225.582031 14.589844 225.578125 14.605469 225.578125 C 14.714844 225.578125 14.78125 225.699219 14.730469 225.804688 C 12.902344 229.542969 12.460938 233.101562 14.804688 236.78125 C 15.066406 237.191406 14.699219 237.585938 14.304688 237.585938 " fill-opacity="1" fill-rule="nonzero"/><path fill="#f391cd" d="M 55.007812 234.070312 C 54.941406 234.070312 54.871094 234.0625 54.796875 234.039062 C 50.910156 232.949219 46.542969 232.375 42.519531 232.175781 C 42.226562 232.160156 41.929688 232.152344 41.636719 232.152344 C 40.109375 232.152344 38.582031 232.332031 37.0625 232.519531 C 35.542969 232.699219 34.027344 232.882812 32.523438 232.882812 C 32.125 232.882812 31.730469 232.867188 31.332031 232.839844 C 31.222656 232.832031 31.148438 232.722656 31.207031 232.617188 C 33.226562 228.894531 38.539062 227.320312 42.519531 227.171875 C 42.773438 227.164062 43.027344 227.160156 43.273438 227.160156 C 48.289062 227.160156 52.097656 229.035156 55.519531 232.792969 C 55.960938 233.273438 55.621094 234.070312 55.007812 234.070312 " fill-opacity="1" fill-rule="nonzero"/><path fill="#f47eae" d="M 60.023438 221.324219 C 59.382812 221.324219 58.757812 220.9375 58.375 220.402344 C 56.988281 218.457031 58.277344 215.417969 59.792969 213.902344 C 60.558594 213.136719 61.726562 212.554688 62.769531 212.335938 C 63.125 212.261719 63.457031 212.234375 63.773438 212.234375 C 64.386719 212.234375 64.960938 212.339844 65.640625 212.414062 C 66.175781 212.472656 66.640625 213.167969 66.132812 213.601562 C 65.070312 214.511719 64.496094 216.210938 63.726562 217.363281 C 62.878906 218.640625 62.21875 220.207031 60.894531 221.058594 C 60.613281 221.242188 60.316406 221.324219 60.023438 221.324219 " fill-opacity="1" fill-rule="nonzero"/><path fill="#f391cd" d="M 51.519531 316.183594 C 51.292969 316.183594 51.054688 316.109375 50.867188 315.941406 C 48.296875 313.707031 46.414062 312.289062 45.800781 308.699219 C 45.28125 305.675781 46.132812 302.503906 47.371094 299.765625 C 49.8125 294.378906 54.480469 289.691406 60.542969 289.691406 C 60.828125 289.691406 61.109375 289.703125 61.394531 289.722656 C 61.90625 289.757812 62.179688 290.238281 61.957031 290.699219 C 60.09375 294.515625 56.984375 297.03125 54.785156 300.597656 C 52.675781 304.027344 51.179688 310.964844 52.445312 315.023438 C 52.660156 315.710938 52.101562 316.183594 51.519531 316.183594 " fill-opacity="1" fill-rule="nonzero"/><path fill="#f391cd" d="M 76.125 316.675781 C 73.199219 316.675781 70.414062 314.136719 70.785156 310.910156 C 70.800781 310.761719 70.9375 310.667969 71.0625 310.667969 C 71.15625 310.667969 71.242188 310.71875 71.273438 310.84375 C 71.855469 313.4375 74.605469 315.390625 77.253906 315.390625 C 77.699219 315.390625 78.144531 315.339844 78.574219 315.21875 C 78.609375 315.210938 78.644531 315.203125 78.675781 315.203125 C 79 315.203125 79.132812 315.664062 78.84375 315.855469 C 77.984375 316.421875 77.050781 316.679688 76.125 316.675781 " fill-opacity="1" fill-rule="nonzero"/><path fill="#f391cd" d="M 97.722656 273.613281 C 93.058594 272.894531 89.378906 269.617188 88.9375 265.332031 C 88.824219 264.226562 88.9375 263.140625 89.242188 262.113281 C 89.78125 261.300781 90.488281 260.582031 91.359375 260.027344 C 91.519531 259.925781 91.679688 259.882812 91.835938 259.882812 C 92.332031 259.882812 92.761719 260.339844 92.808594 260.859375 C 93.046875 263.476562 91.855469 267.203125 94.878906 268.59375 C 96.414062 269.300781 97.992188 269.457031 99.59375 269.457031 C 100.65625 269.457031 101.734375 269.386719 102.816406 269.367188 C 102.820312 269.367188 102.828125 269.367188 102.835938 269.367188 C 103.730469 269.367188 103.859375 270.480469 103.242188 270.945312 C 101.71875 272.078125 99.753906 273.105469 97.722656 273.613281 " fill-opacity="1" fill-rule="nonzero"/><path fill="#f47eae" d="M 95.128906 273.953125 C 93.492188 273.953125 91.917969 273.503906 90.597656 272.390625 C 87.554688 269.820312 87.152344 265.246094 89.242188 262.113281 C 88.9375 263.140625 88.824219 264.226562 88.9375 265.332031 C 89.378906 269.617188 93.058594 272.894531 97.722656 273.613281 C 96.859375 273.832031 95.988281 273.953125 95.128906 273.953125 " fill-opacity="1" fill-rule="nonzero"/><path fill="#f391cd" d="M 122.992188 234.195312 C 120.917969 234.195312 118.984375 233.460938 117.792969 231.40625 C 116.894531 229.851562 116.511719 227.703125 117.402344 226.078125 C 118.183594 224.660156 119.257812 224.316406 120.585938 224.316406 C 120.863281 224.316406 121.152344 224.328125 121.453125 224.351562 C 121.65625 224.371094 121.710938 224.609375 121.550781 224.722656 C 120.882812 225.210938 121.265625 226.25 121.34375 226.90625 C 121.445312 227.761719 121.40625 228.667969 121.929688 229.394531 C 123.210938 231.164062 125.507812 231.546875 127.601562 231.546875 C 128.015625 231.546875 128.421875 231.535156 128.8125 231.511719 C 128.824219 231.511719 128.832031 231.511719 128.84375 231.511719 C 129.359375 231.511719 129.554688 232.292969 129.089844 232.53125 C 127.328125 233.441406 125.089844 234.195312 122.992188 234.195312 " fill-opacity="1" fill-rule="nonzero"/><path fill="#f391cd" d="M 118.628906 203.195312 C 116.054688 203.191406 113.324219 201.21875 112.597656 198.75 C 111.507812 195.027344 114.074219 188.167969 118.46875 188.167969 C 118.6875 188.167969 118.910156 188.1875 119.136719 188.21875 C 119.878906 188.335938 120.355469 189.042969 120.59375 189.675781 C 121.492188 192.054688 119.273438 193.652344 118.917969 195.851562 C 118.609375 197.71875 119.320312 200.253906 121.292969 200.695312 C 121.871094 200.828125 122.070312 201.628906 121.644531 202.027344 C 120.773438 202.84375 119.71875 203.195312 118.628906 203.195312 " fill-opacity="1" fill-rule="nonzero"/><path fill="#f391cd" d="M 160.675781 171.789062 C 160.632812 171.789062 160.589844 171.785156 160.546875 171.773438 C 160.429688 171.746094 160.320312 171.714844 160.210938 171.6875 C 160.511719 171.503906 160.820312 171.316406 161.128906 171.117188 C 161.242188 171.433594 161.027344 171.789062 160.675781 171.789062 " fill-opacity="1" fill-rule="nonzero"/><path fill="#f47eae" d="M 160.210938 171.6875 C 158 171.035156 156.742188 169.414062 156.503906 167.074219 C 156.269531 164.726562 157.148438 162.882812 159.386719 162.003906 C 159.414062 161.992188 159.441406 161.988281 159.472656 161.988281 C 159.652344 161.988281 159.808594 162.195312 159.753906 162.371094 C 158.945312 164.925781 159.238281 168.851562 161.027344 170.941406 C 161.074219 170.996094 161.105469 171.058594 161.128906 171.117188 C 160.820312 171.316406 160.511719 171.503906 160.210938 171.6875 " fill-opacity="1" fill-rule="nonzero"/><path fill="#f391cd" d="M 191.351562 148.878906 C 188.621094 148.878906 186.105469 147.8125 184.875 144.765625 C 183.960938 142.5 184.050781 140.191406 185.695312 138.300781 C 186.664062 137.191406 187.78125 136.496094 189.167969 136.496094 C 189.339844 136.496094 189.511719 136.511719 189.6875 136.527344 C 189.976562 136.5625 190.203125 136.847656 190.035156 137.128906 C 189.09375 138.699219 189.808594 140.917969 190.652344 142.382812 C 191.988281 144.703125 194.320312 146.246094 196.945312 146.519531 C 197.585938 146.589844 197.660156 147.359375 197.09375 147.597656 C 195.324219 148.339844 193.28125 148.878906 191.351562 148.878906 " fill-opacity="1" fill-rule="nonzero"/><path fill="#fceaf2" d="M 221.816406 111.15625 C 220.960938 110.347656 220.3125 109.292969 219.96875 107.964844 C 219.574219 106.425781 219.691406 104.726562 220.210938 103.183594 C 219.820312 105.707031 220.363281 108.085938 221.546875 110.039062 C 221.757812 110.382812 221.84375 110.773438 221.816406 111.15625 " fill-opacity="1" fill-rule="nonzero"/><path fill="#f391cd" d="M 227.636719 113.222656 C 225.460938 113.222656 223.324219 112.578125 221.816406 111.15625 C 221.84375 110.773438 221.757812 110.382812 221.546875 110.039062 C 220.363281 108.085938 219.820312 105.707031 220.210938 103.183594 C 220.527344 102.253906 220.992188 101.375 221.574219 100.625 C 222.546875 99.378906 224.042969 98.433594 225.523438 98.433594 C 226.328125 98.433594 227.125 98.710938 227.839844 99.363281 C 228.214844 99.707031 228.320312 100.269531 228.199219 100.746094 C 227.707031 102.753906 225.707031 104.152344 225.984375 106.300781 C 226.347656 109.046875 228.796875 110.808594 231.402344 110.808594 C 231.511719 110.808594 231.621094 110.808594 231.726562 110.800781 C 231.742188 110.800781 231.753906 110.800781 231.765625 110.800781 C 232.496094 110.800781 232.84375 111.96875 232.128906 112.285156 C 230.757812 112.898438 229.1875 113.222656 227.636719 113.222656 " fill-opacity="1" fill-rule="nonzero"/><path fill="#f391cd" d="M 268.121094 64.894531 C 264.074219 64.894531 259.902344 63.042969 259.097656 58.691406 C 258.859375 57.40625 258.96875 55.902344 259.375 54.464844 C 259.355469 54.78125 259.34375 55.097656 259.34375 55.421875 C 259.34375 57.378906 259.761719 59.21875 260.496094 60.839844 C 261.058594 55.957031 264.308594 52.070312 268.457031 51.308594 C 268.480469 51.441406 268.488281 51.574219 268.484375 51.707031 C 268.441406 53.941406 266.660156 55.425781 266.460938 57.617188 C 266.257812 59.855469 266.695312 62.257812 268.820312 63.3125 C 269.601562 63.703125 269.183594 64.875 268.390625 64.890625 C 268.300781 64.894531 268.210938 64.894531 268.121094 64.894531 " fill-opacity="1" fill-rule="nonzero"/><path fill="#f47eae" d="M 260.496094 60.839844 C 259.761719 59.21875 259.34375 57.378906 259.34375 55.421875 C 259.34375 55.097656 259.355469 54.78125 259.375 54.464844 C 260.207031 51.546875 262.273438 48.886719 265.230469 48.886719 C 265.621094 48.886719 266.03125 48.9375 266.453125 49.035156 C 267.480469 49.277344 268.300781 50.269531 268.457031 51.308594 C 264.308594 52.070312 261.058594 55.957031 260.496094 60.839844 " fill-opacity="1" fill-rule="nonzero"/><path fill="#f391cd" d="M 282.824219 107.378906 C 282.441406 107.378906 282.203125 106.941406 282.484375 106.621094 C 283.824219 105.128906 284.269531 102.535156 283.382812 100.683594 C 283.011719 99.902344 282.261719 98.933594 281.667969 98.3125 C 281.171875 97.789062 280.671875 97.640625 280.441406 96.949219 C 280.152344 96.078125 281.445312 95.925781 282.292969 95.925781 C 282.5625 95.925781 282.789062 95.941406 282.894531 95.953125 C 284.332031 96.113281 285.4375 96.742188 286.277344 97.746094 C 287 98.890625 287.445312 100.1875 287.554688 101.585938 C 287.601562 102.203125 287.578125 102.8125 287.492188 103.40625 C 286.863281 105.359375 285.179688 106.941406 282.921875 107.371094 C 282.890625 107.375 282.855469 107.378906 282.824219 107.378906 " fill-opacity="1" fill-rule="nonzero"/><path fill="#f47eae" d="M 287.492188 103.40625 C 287.578125 102.8125 287.601562 102.203125 287.554688 101.585938 C 287.445312 100.1875 287 98.890625 286.277344 97.746094 C 286.605469 98.140625 286.894531 98.59375 287.144531 99.097656 C 287.859375 100.542969 287.925781 102.0625 287.492188 103.40625 " fill-opacity="1" fill-rule="nonzero"/><path fill="#f391cd" d="M 248.355469 127.160156 C 246.238281 127.160156 244.25 126.515625 243.324219 124.207031 C 242.835938 123 242.691406 121.507812 243.445312 120.390625 C 243.976562 119.609375 244.632812 119.09375 245.421875 119.09375 C 245.703125 119.09375 246 119.160156 246.3125 119.296875 C 246.441406 119.355469 246.5 119.511719 246.507812 119.640625 C 246.574219 120.707031 246.363281 121.78125 247.027344 122.726562 C 247.941406 124.03125 249.816406 124.828125 251.238281 125.414062 C 251.835938 125.664062 252.046875 126.707031 251.238281 126.855469 C 250.308594 127.027344 249.316406 127.160156 248.355469 127.160156 " fill-opacity="1" fill-rule="nonzero"/><path fill="#f391cd" d="M 193.457031 190.429688 C 193.410156 190.429688 193.359375 190.425781 193.304688 190.410156 C 189.484375 189.359375 186.015625 187.554688 185.210938 183.285156 C 184.839844 181.304688 185.703125 177.085938 188.21875 177.085938 C 188.511719 177.085938 188.835938 177.144531 189.179688 177.273438 C 189.347656 177.335938 189.417969 177.46875 189.386719 177.640625 C 189.0625 179.75 187.984375 181.574219 189.023438 183.703125 C 190.054688 185.808594 192.261719 187.773438 193.839844 189.496094 C 194.164062 189.851562 193.914062 190.429688 193.457031 190.429688 " fill-opacity="1" fill-rule="nonzero"/><path fill="#f391cd" d="M 124.960938 277.808594 C 124.886719 277.753906 124.816406 277.699219 124.75 277.644531 C 122.472656 275.722656 122.214844 272.226562 124.011719 269.917969 C 124.058594 269.859375 124.113281 269.835938 124.171875 269.835938 C 124.332031 269.835938 124.5 270.046875 124.402344 270.21875 C 123.171875 272.503906 123.914062 274.589844 125.445312 275.796875 C 125.285156 276.464844 125.128906 277.132812 124.960938 277.808594 " fill-opacity="1" fill-rule="nonzero"/><path fill="#f47eae" d="M 127.773438 278.722656 C 126.785156 278.722656 125.796875 278.433594 124.960938 277.808594 C 125.128906 277.132812 125.285156 276.464844 125.445312 275.796875 C 126.308594 276.476562 127.417969 276.875 128.570312 276.875 C 129.652344 276.875 130.773438 276.515625 131.746094 275.699219 C 131.828125 275.628906 131.925781 275.601562 132.019531 275.601562 C 132.300781 275.601562 132.558594 275.878906 132.371094 276.183594 C 131.417969 277.761719 129.589844 278.722656 127.773438 278.722656 " fill-opacity="1" fill-rule="nonzero"/><path fill="#f47eae" d="M 175.707031 231.0625 C 174.996094 231.0625 174.273438 230.929688 173.546875 230.640625 C 170.582031 229.441406 168.667969 226.652344 170.613281 223.773438 C 170.683594 223.65625 170.800781 223.605469 170.910156 223.605469 C 171.082031 223.605469 171.246094 223.730469 171.257812 223.949219 C 171.378906 226.203125 173.945312 227.902344 175.917969 228.050781 C 176.078125 228.0625 176.234375 228.070312 176.398438 228.070312 C 178.746094 228.070312 181.050781 226.824219 183.109375 225.828125 C 183.191406 225.785156 183.277344 225.765625 183.359375 225.765625 C 183.808594 225.765625 184.171875 226.308594 183.773438 226.6875 C 181.660156 228.6875 178.769531 231.0625 175.707031 231.0625 " fill-opacity="1" fill-rule="nonzero"/><path fill="#f391cd" d="M 298.503906 77.867188 C 298.324219 77.867188 298.160156 77.773438 298.121094 77.550781 C 296.839844 70.355469 303.007812 62.484375 307.882812 57.820312 C 313.6875 52.269531 321.417969 49.039062 329.4375 48.757812 C 329.445312 48.757812 329.449219 48.757812 329.453125 48.757812 C 329.894531 48.757812 329.96875 49.425781 329.542969 49.539062 C 322.238281 51.476562 315.824219 55.0625 310.324219 60.265625 C 307.71875 62.730469 305.53125 65.535156 303.726562 68.632812 C 302 71.585938 301 74.929688 298.9375 77.660156 C 298.839844 77.785156 298.667969 77.867188 298.503906 77.867188 " fill-opacity="1" fill-rule="nonzero"/><path fill="#f391cd" d="M 310.261719 74.859375 C 310.128906 74.859375 309.988281 74.746094 309.976562 74.605469 C 309.847656 72.828125 310.386719 71.3125 311.789062 70.1875 C 312.820312 69.363281 313.875 68.902344 315.050781 68.902344 C 315.492188 68.902344 315.953125 68.964844 316.433594 69.101562 C 316.890625 69.230469 316.921875 69.949219 316.433594 70.0625 C 313.984375 70.625 311.449219 72.375 310.441406 74.734375 C 310.402344 74.824219 310.332031 74.859375 310.261719 74.859375 " fill-opacity="1" fill-rule="nonzero"/></svg>