<svg xmlns="http://www.w3.org/2000/svg" xmlns:xlink="http://www.w3.org/1999/xlink" width="500" zoomAndPan="magnify" viewBox="0 0 375 374.999991" height="500" preserveAspectRatio="xMidYMid meet" version="1.0"><defs><clipPath id="95733d5da7"><path d="M 64.535156 194.21875 L 238 194.21875 L 238 374.972656 L 64.535156 374.972656 Z M 64.535156 194.21875 " clip-rule="nonzero"/></clipPath><clipPath id="3566256f0f"><path d="M 265.375 64.375 L 310.371094 64.375 L 310.371094 111.757812 L 265.375 111.757812 Z M 265.375 64.375 " clip-rule="nonzero"/></clipPath><clipPath id="bf555def69"><path d="M 275 22.460938 L 310.371094 22.460938 L 310.371094 76.675781 L 275 76.675781 Z M 275 22.460938 " clip-rule="nonzero"/></clipPath></defs><g clip-path="url(#95733d5da7)"><path fill="#498f77" d="M 171.613281 207.191406 C 187.34375 201.589844 207.1875 211.371094 208.542969 224.167969 C 219.261719 228.765625 226.851562 235.871094 224.910156 250.117188 C 236.316406 255.359375 242.996094 267.3125 231.3125 282.011719 C 238.011719 294.632812 243.972656 313.164062 223.71875 335.773438 C 214.9375 362.003906 200.710938 367.96875 179.269531 366.667969 C 162.285156 382.878906 147.050781 370.941406 142.664062 367.609375 C 133.90625 377.359375 107.835938 373.972656 100.972656 352.394531 C 85.046875 351.980469 77.621094 341.660156 79.394531 330.628906 C 70.625 328.242188 55.867188 314.550781 73.363281 293.640625 C 56.835938 270.90625 65.136719 242.808594 84.859375 228.511719 C 89.96875 213.09375 104.675781 196.824219 126.429688 199.582031 C 136.226562 192.570312 155.136719 190.078125 171.613281 207.191406 " fill-opacity="1" fill-rule="nonzero"/></g><path fill="#61bf9f" d="M 192.113281 222.789062 C 188.691406 216.871094 171.304688 215.328125 158.660156 221.292969 C 143.578125 228.414062 138.898438 239.316406 142.417969 244.308594 C 147.507812 251.523438 156.0625 240.523438 168.765625 234.507812 C 184.136719 227.222656 195.136719 228.003906 192.113281 222.789062 " fill-opacity="1" fill-rule="nonzero"/><path fill="#61bf9f" d="M 221.507812 265.300781 C 218.066406 258.214844 201.117188 259.546875 189.457031 266.988281 C 175.546875 275.871094 173.261719 284.410156 178.765625 289.402344 C 187.9375 297.71875 190.984375 289.773438 202.695312 282.273438 C 216.871094 273.199219 225.257812 273.011719 221.507812 265.300781 " fill-opacity="1" fill-rule="nonzero"/><path fill="#61bf9f" d="M 210.820312 242.773438 C 204.699219 233.597656 188.101562 232.824219 174.269531 240.449219 C 157.769531 249.542969 150.964844 259.765625 157.585938 267.546875 C 166.191406 277.648438 173.234375 264.21875 187.128906 256.535156 C 203.941406 247.234375 214.601562 248.4375 210.820312 242.773438 " fill-opacity="1" fill-rule="nonzero"/><path fill="#61bf9f" d="M 178.972656 315.425781 C 189.195312 307.328125 167.820312 286.253906 156.542969 275.9375 C 135.808594 256.976562 139.097656 239.789062 130.75 236.007812 C 122.820312 232.417969 112.71875 238.027344 115.605469 253.28125 C 117.609375 263.878906 129.671875 281.578125 137.074219 290.023438 C 146.898438 301.222656 170.945312 321.78125 178.972656 315.425781 " fill-opacity="1" fill-rule="nonzero"/><path fill="#61bf9f" d="M 165.898438 334.199219 C 179.019531 326.78125 147.433594 314.425781 137.507812 302.828125 C 110.425781 271.191406 113.90625 260.054688 105.730469 253.242188 C 98.4375 247.164062 89.832031 249.421875 93.160156 266.765625 C 96.578125 284.566406 111.683594 301.382812 115.753906 305.886719 C 119.828125 310.390625 154.347656 340.734375 165.898438 334.199219 " fill-opacity="1" fill-rule="nonzero"/><path fill="#61bf9f" d="M 82.214844 267.679688 C 73.003906 274.371094 91.046875 309.367188 104.300781 322.554688 C 128.878906 347.015625 144.546875 354.910156 147.714844 348.019531 C 151.210938 340.414062 135.949219 337.347656 110.933594 314.003906 C 81.019531 286.089844 88.085938 263.417969 82.214844 267.679688 " fill-opacity="1" fill-rule="nonzero"/><path fill="#61bf9f" d="M 132.253906 226.503906 C 125.640625 219.859375 100.675781 224.691406 91.582031 232.414062 C 86.285156 236.914062 78.046875 248.917969 81.109375 250.0625 C 84.929688 251.492188 94.449219 244.058594 105.816406 238.039062 C 118.308594 231.414062 136.621094 230.898438 132.253906 226.503906 " fill-opacity="1" fill-rule="nonzero"/><path fill="#61bf9f" d="M 192.90625 300.0625 C 185.339844 303.105469 187.984375 322.210938 177.6875 336.269531 C 170.863281 345.589844 151.910156 355.359375 157.382812 361.578125 C 162.753906 367.683594 184.222656 355.742188 193.691406 340.996094 C 206.460938 321.109375 206.652344 294.535156 192.90625 300.0625 " fill-opacity="1" fill-rule="nonzero"/><path fill="#61bf9f" d="M 210.011719 297.875 C 215.46875 293.804688 223.75 310.054688 219.777344 326.566406 C 218.398438 332.296875 204.160156 360.488281 195.550781 354.964844 C 191.308594 352.242188 201.027344 343.882812 205.300781 330.804688 C 210.910156 313.632812 204.734375 301.8125 210.011719 297.875 " fill-opacity="1" fill-rule="nonzero"/><path fill="#61bf9f" d="M 227.371094 315.238281 C 229.867188 313.277344 230.628906 306.730469 229.8125 299.738281 C 229 292.746094 225.261719 286.25 221.273438 287.753906 C 216.09375 289.703125 221.203125 294.328125 223.207031 300.527344 C 225.210938 306.730469 224.785156 317.273438 227.371094 315.238281 " fill-opacity="1" fill-rule="nonzero"/><path fill="#61bf9f" d="M 133.273438 356.339844 C 127.265625 352.046875 121.355469 348.015625 116.710938 348.046875 C 110.542969 348.082031 113.199219 355.738281 118.253906 358.191406 C 128.425781 363.128906 138.621094 360.167969 133.273438 356.339844 " fill-opacity="1" fill-rule="nonzero"/><path fill="#61bf9f" d="M 105.835938 337.335938 C 99.875 332.277344 95.71875 325.558594 91.683594 325.664062 C 87.5 325.773438 87.535156 335.15625 92.34375 338.78125 C 101.90625 345.984375 111.144531 341.84375 105.835938 337.335938 " fill-opacity="1" fill-rule="nonzero"/><path fill="#61bf9f" d="M 85.988281 316.5625 C 82.335938 310.585938 80.996094 302.664062 77.382812 302.617188 C 74.289062 302.578125 71.480469 309.4375 74.070312 314.15625 C 78.730469 322.652344 88.824219 321.199219 85.988281 316.5625 " fill-opacity="1" fill-rule="nonzero"/><path fill="#61bf9f" d="M 146.855469 219.863281 C 156.277344 209.652344 109.949219 200.453125 102.226562 217.308594 C 100.007812 222.148438 113.777344 216.085938 123.707031 216.953125 C 136.765625 218.097656 141.453125 225.714844 146.855469 219.863281 " fill-opacity="1" fill-rule="nonzero"/><path fill="#61bf9f" d="M 139.757812 202.308594 C 140.050781 200.488281 146.464844 199.25 155.667969 203.480469 C 161.328125 206.082031 163.734375 209.648438 159.890625 210.726562 C 158.511719 211.113281 154.460938 208.902344 150.074219 207.175781 C 145.074219 205.199219 139.378906 204.652344 139.757812 202.308594 " fill-opacity="1" fill-rule="nonzero"/><path fill="#498f77" d="M 184.632812 74.257812 C 189.941406 62.695312 196.023438 52.835938 203.363281 45.394531 C 196.136719 40.621094 182.304688 36.875 171.789062 35.855469 C 164.320312 47.601562 158.429688 62.3125 154.539062 79.972656 C 163.199219 77.007812 175.332031 74.910156 184.152344 75.34375 C 184.3125 74.976562 184.46875 74.609375 184.632812 74.257812 " fill-opacity="1" fill-rule="nonzero"/><path fill="#61bf9f" d="M 176.328125 111.558594 C 178.117188 96.707031 180.625 83.652344 184.152344 75.34375 C 175.332031 74.910156 163.199219 77.007812 154.539062 79.972656 C 151.960938 91.675781 150.257812 104.671875 149.558594 118.964844 C 157.304688 115.429688 167.914062 112.34375 176.328125 111.558594 " fill-opacity="1" fill-rule="nonzero"/><path fill="#61bf9f" d="M 203.363281 45.394531 C 209.140625 39.539062 215.703125 35.199219 223.269531 32.703125 C 221.515625 23.960938 215.894531 12.15625 210.410156 4.273438 C 195.277344 9.191406 182.042969 19.734375 171.789062 35.855469 C 182.304688 36.875 196.136719 40.621094 203.363281 45.394531 " fill-opacity="1" fill-rule="nonzero"/><g clip-path="url(#3566256f0f)"><path fill="#61bf9f" d="M 281.773438 76.585938 C 280.15625 86.445312 275.214844 97.378906 265.742188 108.84375 C 274.699219 108.367188 285.421875 109.21875 292.738281 111.511719 C 295.304688 107.765625 297.875 103.757812 300.453125 99.449219 C 306.617188 89.148438 310.441406 76.929688 310.367188 64.589844 C 302.222656 65.625 290.320312 71.007812 281.773438 76.585938 " fill-opacity="1" fill-rule="nonzero"/></g><g clip-path="url(#bf555def69)"><path fill="#498f77" d="M 275.078125 46.351562 C 280.789062 54.179688 283.742188 64.585938 281.773438 76.585938 C 290.320312 71.007812 302.222656 65.625 310.367188 64.589844 C 310.28125 49.785156 304.585938 34.808594 290.582031 22.753906 C 285.128906 27.207031 279.085938 37.109375 275.078125 46.351562 " fill-opacity="1" fill-rule="nonzero"/></g><path fill="#61bf9f" d="M 275.078125 46.351562 C 279.085938 37.109375 285.128906 27.207031 290.582031 22.753906 C 281.839844 15.230469 269.871094 8.84375 254 4.351562 C 252.851562 4.023438 251.707031 3.734375 250.5625 3.457031 C 252.757812 12.113281 253.9375 23.507812 253.039062 31.835938 C 261.636719 33.742188 269.613281 38.867188 275.078125 46.351562 " fill-opacity="1" fill-rule="nonzero"/><path fill="#498f77" d="M 223.269531 32.703125 C 231.636719 29.941406 241.230469 29.433594 252.390625 31.691406 C 252.609375 31.738281 252.824219 31.789062 253.039062 31.835938 C 253.9375 23.507812 252.757812 12.113281 250.5625 3.457031 C 236.308594 -0.0078125 222.730469 0.269531 210.410156 4.273438 C 215.894531 12.15625 221.515625 23.960938 223.269531 32.703125 " fill-opacity="1" fill-rule="nonzero"/><path fill="#498f77" d="M 208.960938 153.296875 C 200.503906 160.679688 192.226562 169.589844 184.804688 181.109375 C 193.347656 180.320312 204.722656 180.996094 213.128906 183.15625 C 221.660156 175.308594 230.941406 169.226562 240.75 162.429688 C 233.355469 157.742188 219.433594 154.160156 208.960938 153.296875 " fill-opacity="1" fill-rule="nonzero"/><path fill="#61bf9f" d="M 237.972656 132.125 C 228.777344 138.257812 218.753906 144.757812 208.960938 153.296875 C 219.433594 154.160156 233.355469 157.742188 240.75 162.429688 C 250.328125 155.792969 260.414062 148.460938 270.792969 138.121094 C 262.539062 134.171875 248.199219 131.910156 237.972656 132.125 " fill-opacity="1" fill-rule="nonzero"/><path fill="#498f77" d="M 265.742188 108.84375 C 264.527344 110.3125 263.246094 111.789062 261.882812 113.277344 C 255.425781 120.300781 247.109375 126.035156 237.972656 132.125 C 248.199219 131.910156 262.539062 134.171875 270.792969 138.121094 C 277.988281 130.953125 285.328125 122.347656 292.738281 111.511719 C 285.421875 109.21875 274.699219 108.367188 265.742188 108.84375 " fill-opacity="1" fill-rule="nonzero"/><path fill="#498f77" d="M 173.289062 148.269531 C 173.960938 135.878906 174.925781 123.171875 176.328125 111.558594 C 167.914062 112.34375 157.304688 115.429688 149.558594 118.964844 C 149.550781 119.160156 149.535156 119.347656 149.527344 119.546875 C 149.023438 130.238281 148.777344 142.929688 148.730469 155.40625 C 156.203125 152.042969 165.671875 149.152344 173.289062 148.269531 " fill-opacity="1" fill-rule="nonzero"/><path fill="#61bf9f" d="M 171.953125 185.519531 C 172.179688 174.652344 172.5625 161.648438 173.289062 148.269531 C 165.671875 149.152344 156.203125 152.042969 148.730469 155.40625 C 148.683594 168.375 148.855469 181.109375 149.183594 191.121094 C 156.675781 188.199219 165.292969 185.921875 171.953125 185.519531 " fill-opacity="1" fill-rule="nonzero"/><path fill="#61bf9f" d="M 171.613281 207.191406 C 178.757812 204.648438 186.746094 205.285156 193.472656 207.925781 C 199.417969 197.472656 206.015625 189.699219 213.128906 183.15625 C 204.722656 180.996094 193.347656 180.320312 184.804688 181.109375 C 179.980469 188.601562 175.519531 197.191406 171.613281 207.191406 " fill-opacity="1" fill-rule="nonzero"/><path fill="#498f77" d="M 149.183594 191.121094 C 149.222656 192.351562 149.265625 193.542969 149.3125 194.6875 C 156.554688 195.890625 164.320312 199.617188 171.613281 207.191406 C 171.6875 202.140625 171.765625 194.570312 171.953125 185.519531 C 165.292969 185.921875 156.675781 188.199219 149.183594 191.121094 " fill-opacity="1" fill-rule="nonzero"/></svg>