<svg xmlns="http://www.w3.org/2000/svg" xmlns:xlink="http://www.w3.org/1999/xlink" width="500" zoomAndPan="magnify" viewBox="0 0 375 374.999991" height="500" preserveAspectRatio="xMidYMid meet" version="1.0"><defs><clipPath id="244fd7b9a6"><path d="M 287 176.296875 L 372 176.296875 L 372 324.578125 L 287 324.578125 Z M 287 176.296875 " clip-rule="nonzero"/></clipPath><clipPath id="0591610ff2"><path d="M 13.769531 38.546875 L 357.179688 38.546875 L 357.179688 364.710938 L 13.769531 364.710938 Z M 13.769531 38.546875 " clip-rule="nonzero"/></clipPath><clipPath id="dff60c9bc6"><path d="M 302.101562 177.105469 L 372 177.105469 L 372 324.578125 L 302.101562 324.578125 Z M 302.101562 177.105469 " clip-rule="nonzero"/></clipPath><clipPath id="d590b83635"><path d="M 66.414062 140 L 357.179688 140 L 357.179688 364.710938 L 66.414062 364.710938 Z M 66.414062 140 " clip-rule="nonzero"/></clipPath></defs><g clip-path="url(#244fd7b9a6)"><path fill="#a0dfdf" d="M 371.011719 198.523438 C 364.804688 218.714844 357.042969 223.375 357.042969 231.140625 C 357.042969 238.90625 352.382812 268.414062 339.964844 287.054688 C 339.964844 287.054688 335.835938 338.089844 302.859375 320.570312 C 300.855469 319.496094 298.730469 318.179688 296.492188 316.5625 C 257.683594 288.605469 352.382812 176.78125 352.382812 176.78125 C 352.382812 176.78125 353.453125 176.84375 355.101562 177.136719 C 361.375 178.222656 375.933594 182.527344 371.011719 198.523438 " fill-opacity="1" fill-rule="nonzero"/></g><path fill="#a0dfdf" d="M 215.363281 27.445312 C 215.082031 26.390625 214.679688 25.363281 214.152344 24.371094 C 212.664062 21.480469 210.179688 18.839844 206.453125 16.804688 C 189.375 7.488281 183.164062 19.914062 172.296875 24.574219 C 171.878906 24.742188 171.519531 24.914062 171.195312 25.054688 C 169.84375 24.460938 165.0625 24.011719 152.113281 24.574219 C 116.40625 26.125 99.332031 40.105469 88.464844 49.421875 C 83.847656 53.382812 78.667969 52.574219 73.046875 51.765625 C 65.441406 50.671875 57.027344 49.578125 48.101562 60.292969 C 42.496094 67.019531 43.570312 72.734375 47.214844 77.285156 C 51.097656 82.132812 57.898438 85.671875 62.726562 87.722656 C 65.941406 89.089844 68.285156 89.804688 68.285156 89.804688 C 68.285156 89.804688 73.160156 88.46875 81.074219 86.292969 C 114.109375 77.207031 200.199219 53.476562 206.453125 50.976562 C 207.988281 50.351562 209.585938 49.015625 211.035156 47.183594 C 212.195312 45.695312 213.25 43.894531 214.105469 41.890625 L 214.105469 41.859375 C 214.261719 41.546875 214.382812 41.222656 214.511719 40.878906 L 215.363281 27.445312 " fill-opacity="1" fill-rule="nonzero"/><g clip-path="url(#0591610ff2)"><path fill="#f27ec5" d="M 357.042969 201.628906 C 357.042969 248.535156 336.207031 290.828125 302.859375 320.570312 C 294.460938 328.074219 285.257812 334.765625 275.398438 340.542969 C 270.476562 343.433594 265.382812 346.089844 260.152344 348.496094 L 260.136719 348.511719 C 255.027344 350.859375 249.8125 352.96875 244.441406 354.835938 C 234.085938 358.421875 223.265625 361.105469 212.101562 362.769531 C 212.023438 362.785156 211.933594 362.785156 211.851562 362.800781 C 211.542969 362.847656 211.234375 362.890625 210.921875 362.925781 L 210.816406 362.941406 C 202.554688 364.105469 194.09375 364.710938 185.492188 364.710938 C 162.8125 364.710938 141.15625 360.535156 121.347656 352.921875 C 120.351562 352.550781 119.359375 352.164062 118.367188 351.757812 C 113.628906 349.847656 109.003906 347.722656 104.488281 345.40625 C 94.953125 340.558594 85.964844 334.875 77.628906 328.445312 C 73.855469 325.539062 70.222656 322.5 66.746094 319.3125 C 53.191406 306.96875 41.785156 292.519531 33.074219 276.523438 C 27.6875 266.644531 23.339844 256.179688 20.15625 245.242188 C 18.601562 239.929688 17.332031 234.507812 16.371094 228.984375 C 14.769531 220.097656 13.945312 210.953125 13.945312 201.628906 C 13.945312 200.902344 13.945312 200.171875 13.976562 199.457031 C 14.539062 157.148438 32.082031 118.738281 60.378906 90.050781 C 61.15625 89.257812 61.933594 88.484375 62.726562 87.722656 C 93.882812 57.390625 137.367188 38.550781 185.492188 38.550781 C 195.273438 38.550781 204.867188 39.324219 214.199219 40.832031 C 214.308594 40.832031 214.414062 40.847656 214.511719 40.878906 C 238.371094 44.730469 260.539062 53.289062 279.945312 65.5 C 292.8125 73.558594 304.460938 83.25 314.582031 94.230469 L 314.597656 94.230469 C 321.039062 101.234375 326.859375 108.753906 331.984375 116.738281 L 331.984375 116.753906 C 335.820312 122.699219 339.25 128.882812 342.246094 135.292969 C 343.023438 136.910156 343.75 138.558594 344.449219 140.21875 C 349.464844 151.898438 353.082031 164.277344 355.101562 177.136719 C 356.386719 185.121094 357.042969 193.289062 357.042969 201.628906 " fill-opacity="1" fill-rule="nonzero"/></g><path fill="#a0dfdf" d="M 215.765625 50.976562 C 215.765625 50.976562 228.1875 44.761719 235.949219 38.550781 C 243.710938 32.335938 248.371094 29.230469 260.789062 35.445312 C 273.207031 41.65625 275.335938 52.074219 273.496094 61.621094 C 271.65625 71.167969 284.074219 83.589844 265.445312 85.144531 C 246.816406 86.699219 240.605469 69.613281 239.050781 66.507812 C 237.5 63.398438 217.320312 78.929688 215.765625 50.976562 " fill-opacity="1" fill-rule="nonzero"/><path fill="#a0dfdf" d="M 342.246094 135.292969 C 337.742188 136.941406 311.773438 139.785156 293.203125 148.527344 C 289.199219 150.40625 285.550781 152.566406 282.523438 155.035156 C 265.445312 169.015625 256.128906 169.015625 240.605469 155.035156 C 237.003906 151.804688 235.328125 148.558594 234.875 145.5 C 233.339844 135.339844 245.261719 127.082031 245.261719 127.082031 C 234.394531 119.3125 231.277344 103.9375 245.261719 97.570312 C 262.339844 89.804688 262.339844 102.230469 280.96875 102.230469 C 283.285156 102.230469 285.535156 102.105469 287.722656 101.886719 C 303.09375 100.367188 314.582031 94.230469 314.582031 94.230469 L 314.597656 94.230469 C 324.59375 94.648438 331.582031 98.609375 336.300781 103.921875 C 346.671875 115.632812 346.019531 133.914062 342.246094 135.292969 " fill-opacity="1" fill-rule="nonzero"/><path fill="#a0dfdf" d="M 86.914062 151.929688 L 136.589844 102.230469 C 136.589844 102.230469 135.039062 78.929688 152.113281 75.828125 C 169.191406 72.71875 161.433594 96.015625 169.191406 102.230469 C 176.957031 108.441406 198.6875 109.996094 186.269531 123.972656 C 173.851562 137.953125 156.773438 128.632812 138.144531 148.824219 C 119.515625 169.015625 108.648438 173.675781 108.648438 184.546875 C 108.648438 195.417969 107.09375 212.503906 93.121094 214.054688 C 79.152344 215.609375 71.386719 195.417969 69.835938 187.652344 C 68.285156 179.886719 38.789062 178.335938 49.652344 161.25 C 60.519531 144.164062 86.914062 151.929688 86.914062 151.929688 " fill-opacity="1" fill-rule="nonzero"/><path fill="#a0dfdf" d="M 204.898438 210.953125 C 207.878906 210.074219 195.585938 187.652344 209.554688 184.546875 C 223.527344 181.4375 232.84375 181.4375 239.050781 204.738281 L 290.285156 231.140625 C 290.285156 231.140625 307.363281 220.269531 318.230469 228.035156 C 329.097656 235.800781 324.441406 255.992188 308.914062 259.097656 C 308.914062 259.097656 318.230469 287.054688 299.601562 287.054688 C 280.96875 287.054688 277.867188 268.414062 271.65625 265.308594 C 265.445312 262.203125 221.976562 242.015625 221.976562 242.015625 C 221.976562 242.015625 204.898438 251.328125 194.03125 243.566406 C 183.164062 235.800781 178.507812 218.714844 204.898438 210.953125 " fill-opacity="1" fill-rule="nonzero"/><path fill="#a0dfdf" d="M 69.167969 254.328125 C 69.757812 254.980469 70.566406 257.214844 71.386719 263.757812 C 71.621094 265.605469 71.371094 267.3125 70.71875 268.835938 C 67.121094 277.578125 50.910156 280.3125 40.339844 268.414062 C 27.921875 254.4375 35.679688 245.121094 20.15625 245.242188 C 4.632812 245.367188 -0.0234375 221.820312 7.734375 206.289062 C 8.699219 204.347656 9.816406 202.828125 11.027344 201.644531 L 11.027344 201.628906 C 11.960938 200.714844 12.953125 200 13.976562 199.457031 C 22.222656 195.046875 32.578125 201.628906 32.578125 201.628906 C 32.578125 201.628906 46.546875 224.929688 52.757812 229.585938 C 55.160156 231.390625 58.03125 230.402344 61.546875 229.414062 C 67.109375 227.847656 74.292969 226.28125 83.808594 235.800781 C 97.75 249.746094 74.121094 253.675781 69.167969 254.328125 " fill-opacity="1" fill-rule="nonzero"/><path fill="#a0dfdf" d="M 162.980469 305.691406 C 146.527344 313.925781 137.199219 319.484375 130.9375 327.09375 C 128.921875 329.53125 127.230469 332.191406 125.726562 335.199219 C 121.90625 342.839844 121.019531 348.726562 118.367188 351.757812 C 116.71875 353.652344 114.378906 354.429688 110.199219 353.839844 C 108.882812 353.652344 107.5 353.328125 106.070312 352.890625 C 95.792969 349.800781 83.808594 341.414062 83.808594 341.414062 C 83.808594 341.414062 71.417969 338.929688 77.628906 328.445312 C 78.375 327.1875 79.367188 325.820312 80.703125 324.328125 C 81.335938 323.617188 81.960938 322.882812 82.550781 322.15625 C 93.757812 308.457031 99.5625 290.765625 103.992188 273.074219 C 108.648438 254.4375 114.859375 249.777344 125.726562 252.882812 C 136.589844 255.992188 131.933594 279.289062 141.25 276.183594 C 148.75 273.683594 152.226562 272.191406 158.152344 274.148438 C 159.585938 274.613281 161.167969 275.28125 162.980469 276.183594 C 172.296875 280.839844 184.71875 294.820312 162.980469 305.691406 " fill-opacity="1" fill-rule="nonzero"/><path fill="#a0dfdf" d="M 260.152344 348.496094 L 260.136719 348.511719 C 256.238281 357.660156 249.46875 361.667969 242.097656 363.207031 C 235.375 364.625 228.136719 364.011719 222.085938 363.394531 C 218.070312 362.992188 214.582031 362.582031 212.101562 362.769531 C 212.023438 362.785156 211.933594 362.785156 211.851562 362.800781 C 211.53125 362.832031 211.21875 362.863281 210.921875 362.925781 L 210.816406 362.941406 C 207.308594 362.941406 174.132812 338.183594 198.6875 327.4375 C 212.765625 321.273438 221.355469 323.59375 225.878906 325.910156 C 229.335938 327.683594 230.410156 329.457031 229.738281 327.4375 C 228.417969 323.476562 229.335938 308.300781 241.085938 303.828125 C 243.167969 303.035156 245.574219 302.585938 248.371094 302.585938 C 266.996094 302.585938 270.382812 324.519531 260.152344 348.496094 " fill-opacity="1" fill-rule="nonzero"/><path fill="#91dada" d="M 62.726562 87.722656 C 57.898438 85.671875 51.097656 82.132812 47.214844 77.285156 C 48.164062 77.367188 49.191406 77.417969 50.300781 77.417969 C 59.128906 77.417969 72.996094 74.21875 88.464844 58.742188 C 113.070312 34.121094 201.097656 36.515625 214.152344 24.371094 L 215.363281 27.445312 C 214.992188 31.855469 214.542969 36.980469 214.199219 40.832031 C 204.867188 39.324219 195.273438 38.550781 185.492188 38.550781 C 137.367188 38.550781 93.882812 57.390625 62.726562 87.722656 " fill-opacity="1" fill-rule="nonzero"/><path fill="#d880c4" d="M 70.453125 94.765625 C 68.578125 94.765625 64.726562 92.753906 60.378906 90.050781 C 61.160156 89.257812 61.933594 88.484375 62.726562 87.722656 C 93.882812 57.390625 137.367188 38.550781 185.492188 38.550781 C 195.273438 38.550781 204.867188 39.324219 214.199219 40.832031 C 214.167969 41.191406 214.136719 41.53125 214.105469 41.859375 L 214.105469 41.890625 C 213.84375 44.761719 213.671875 46.703125 213.671875 46.703125 C 213.671875 46.703125 212.738281 46.875 211.035156 47.183594 C 204.769531 48.320312 188.152344 51.332031 170.171875 54.558594 C 163.804688 54.765625 157.503906 55.648438 151.746094 57.859375 C 130.441406 61.648438 111.523438 64.953125 110.199219 64.953125 C 108.054688 64.953125 91.925781 77.488281 81.074219 86.292969 C 76.167969 90.269531 72.347656 93.5 71.386719 94.464844 C 71.183594 94.667969 70.867188 94.765625 70.453125 94.765625 " fill-opacity="1" fill-rule="nonzero"/><path fill="#d880c4" d="M 83.808594 220.269531 C 63.625 220.269531 69.835938 187.652344 69.835938 187.652344 C 71.332031 195.132812 78.589844 214.136719 91.605469 214.136719 C 92.105469 214.136719 92.609375 214.113281 93.121094 214.054688 C 107.09375 212.503906 108.648438 195.417969 108.648438 184.546875 C 108.648438 173.675781 119.515625 169.015625 138.144531 148.824219 C 156.773438 128.632812 173.851562 137.953125 186.269531 123.972656 C 187.574219 122.503906 188.5 121.175781 189.109375 119.960938 C 192.710938 130.285156 176.054688 134.894531 164.535156 139.503906 C 149.011719 145.71875 119.515625 189.207031 117.960938 204.738281 C 116.40625 220.269531 103.992188 220.269531 83.808594 220.269531 " fill-opacity="1" fill-rule="nonzero"/><path fill="#91dada" d="M 91.605469 214.136719 C 78.589844 214.136719 71.332031 195.132812 69.835938 187.652344 C 69.835938 187.652344 76.042969 201.628906 88.464844 207.84375 C 89.585938 208.402344 90.601562 208.660156 91.527344 208.660156 C 100.882812 208.65625 100.882812 182.433594 100.882812 176.78125 C 100.882812 170.566406 113.304688 145.71875 152.113281 130.183594 C 185.105469 116.984375 179.960938 109.394531 177.671875 107.410156 C 184.40625 112.382812 187.898438 116.496094 189.109375 119.960938 C 188.5 121.175781 187.574219 122.503906 186.269531 123.972656 C 173.851562 137.953125 156.773438 128.632812 138.144531 148.824219 C 119.515625 169.015625 108.648438 173.675781 108.648438 184.546875 C 108.648438 195.417969 107.09375 212.503906 93.121094 214.054688 C 92.609375 214.113281 92.105469 214.136719 91.605469 214.136719 M 177.671875 107.410156 C 177.4375 107.238281 177.199219 107.0625 176.957031 106.890625 C 176.957031 106.890625 177.269531 107.0625 177.671875 107.410156 " fill-opacity="1" fill-rule="nonzero"/><path fill="#e7f7f8" d="M 329.886719 86.480469 C 321.910156 85.722656 317.871094 85.144531 324.441406 85.144531 C 326.550781 85.144531 328.367188 85.625 329.886719 86.480469 " fill-opacity="1" fill-rule="nonzero"/><path fill="#d880c4" d="M 263.410156 172.5625 C 261.671875 172.5625 259.777344 172.421875 257.683594 172.121094 C 235.949219 169.015625 218.871094 148.824219 234.394531 130.183594 C 234.394531 130.183594 230.964844 139.347656 234.875 145.5 C 235.328125 148.558594 237.003906 151.804688 240.605469 155.035156 C 248.371094 162.027344 254.578125 165.519531 260.984375 165.519531 C 267.386719 165.519531 273.984375 162.027344 282.523438 155.035156 C 285.550781 152.566406 289.199219 150.40625 293.203125 148.527344 C 293.382812 151.65625 293.523438 154.796875 293.617188 157.960938 C 280.222656 165.589844 275.644531 172.5625 263.410156 172.5625 " fill-opacity="1" fill-rule="nonzero"/><path fill="#91dada" d="M 260.984375 165.519531 C 254.578125 165.519531 248.371094 162.027344 240.605469 155.035156 C 237.003906 151.804688 235.328125 148.558594 234.875 145.5 C 236.84375 148.621094 240.695312 150.960938 247.8125 150.960938 C 249.800781 150.960938 252.046875 150.777344 254.578125 150.375 C 269.179688 148.070312 281.5 141.957031 292.289062 136.183594 C 292.660156 140.253906 292.96875 144.375 293.203125 148.527344 C 289.199219 150.40625 285.550781 152.566406 282.523438 155.035156 C 273.984375 162.027344 267.386719 165.519531 260.984375 165.519531 " fill-opacity="1" fill-rule="nonzero"/><path fill="#d880c4" d="M 268.472656 269.535156 C 267.46875 269.128906 266.460938 268.753906 265.445312 268.414062 C 246.816406 262.203125 220.421875 249.777344 220.421875 249.777344 C 220.421875 249.777344 212.25 251.929688 203.609375 251.929688 C 195.824219 251.929688 187.660156 250.1875 184.71875 243.566406 C 178.511719 229.597656 178.644531 216.875 195.617188 214.683594 C 179.925781 223.292969 184.679688 236.878906 194.03125 243.566406 C 197.230469 245.851562 200.960938 246.65625 204.640625 246.65625 C 213.464844 246.65625 221.976562 242.015625 221.976562 242.015625 C 221.976562 242.015625 263.683594 261.386719 271.226562 265.097656 C 270.339844 266.59375 269.425781 268.074219 268.472656 269.535156 " fill-opacity="1" fill-rule="nonzero"/><path fill="#91dada" d="M 271.226562 265.097656 C 263.683594 261.386719 221.976562 242.015625 221.976562 242.015625 C 221.976562 242.015625 213.464844 246.65625 204.640625 246.65625 C 200.960938 246.65625 197.230469 245.851562 194.03125 243.566406 C 184.679688 236.878906 179.925781 223.292969 195.617188 214.683594 C 195.628906 214.683594 195.640625 214.679688 195.65625 214.679688 C 195.65625 214.679688 186.84375 237.425781 208.890625 237.425781 C 209.601562 237.425781 210.335938 237.398438 211.109375 237.351562 C 211.863281 237.308594 212.632812 237.28125 213.417969 237.28125 C 233.542969 237.28125 263.777344 252.277344 275.007812 258.242188 C 273.816406 260.5625 272.554688 262.855469 271.226562 265.097656 " fill-opacity="1" fill-rule="nonzero"/><path fill="#d880c4" d="M 49.746094 283.511719 C 47.6875 283.511719 45.582031 283.171875 43.445312 282.390625 C 39.515625 280.964844 36.085938 278.882812 33.074219 276.523438 C 27.6875 266.644531 23.339844 256.179688 20.15625 245.242188 C 20.261719 245.242188 20.363281 245.242188 20.460938 245.242188 C 35.578125 245.242188 28.003906 254.53125 40.339844 268.414062 C 45.332031 274.035156 51.582031 276.390625 57.167969 276.390625 C 63.410156 276.390625 68.820312 273.449219 70.71875 268.835938 C 70.917969 268.878906 71.125 268.894531 71.332031 268.894531 C 73.511719 268.894531 76.042969 266.859375 76.042969 266.859375 C 76.042969 266.859375 64.160156 283.511719 49.746094 283.511719 " fill-opacity="1" fill-rule="nonzero"/><path fill="#91dada" d="M 57.167969 276.390625 C 51.582031 276.390625 45.332031 274.035156 40.339844 268.414062 C 28.003906 254.53125 35.578125 245.242188 20.460938 245.242188 C 20.363281 245.242188 20.261719 245.242188 20.15625 245.242188 C 20.117188 245.242188 20.074219 245.242188 20.03125 245.242188 C 9.542969 245.242188 4.054688 234.390625 4.050781 222.570312 C 4.050781 217.015625 5.261719 211.246094 7.734375 206.289062 C 8.699219 204.347656 9.816406 202.828125 11.027344 201.644531 C 7.96875 215.890625 11.214844 222.878906 16.371094 228.984375 C 21.304688 234.835938 28.011719 239.882812 32.578125 249.777344 C 36.949219 259.257812 45.085938 260.863281 52.492188 260.863281 C 54.386719 260.863281 56.234375 260.757812 57.957031 260.652344 C 59.679688 260.546875 61.28125 260.441406 62.683594 260.441406 C 66.0625 260.441406 68.285156 261.054688 68.285156 263.757812 C 68.285156 267.234375 69.367188 268.554688 70.71875 268.835938 C 68.820312 273.449219 63.410156 276.390625 57.167969 276.390625 " fill-opacity="1" fill-rule="nonzero"/><path fill="#d880c4" d="M 138.886719 327.246094 C 136.28125 327.230469 133.628906 327.183594 130.9375 327.09375 C 137.199219 319.484375 146.527344 313.925781 162.980469 305.691406 C 184.71875 294.820312 172.296875 280.839844 162.980469 276.183594 C 161.167969 275.28125 159.585938 274.613281 158.152344 274.148438 C 154.132812 269.761719 149.621094 266.851562 150.449219 266.851562 C 150.476562 266.851562 150.515625 266.855469 150.5625 266.859375 C 192.480469 274.628906 181.613281 296.375 178.507812 305.691406 C 175.601562 314.410156 150.945312 319.050781 138.886719 327.246094 " fill-opacity="1" fill-rule="nonzero"/><path fill="#91dada" d="M 130.9375 327.09375 C 126.402344 326.945312 121.75 326.695312 116.972656 326.335938 C 126.910156 316.628906 141.394531 306.222656 155.222656 297.925781 C 168.742188 289.800781 163.960938 280.453125 158.152344 274.148438 C 159.585938 274.613281 161.167969 275.28125 162.980469 276.183594 C 172.296875 280.839844 184.71875 294.820312 162.980469 305.691406 C 146.527344 313.925781 137.199219 319.484375 130.9375 327.09375 " fill-opacity="1" fill-rule="nonzero"/><g clip-path="url(#dff60c9bc6)"><path fill="#91dada" d="M 315.570312 324.234375 C 311.902344 324.234375 307.695312 323.136719 302.859375 320.570312 C 336.207031 290.828125 357.042969 248.535156 357.042969 201.628906 C 357.042969 193.289062 356.386719 185.121094 355.101562 177.136719 C 360.492188 178.070312 372.015625 181.386719 372.011719 192.464844 C 372.011719 194.269531 371.703125 196.28125 371.011719 198.523438 C 364.804688 218.714844 357.042969 223.375 357.042969 231.140625 C 357.042969 238.90625 352.382812 268.414062 339.964844 287.054688 C 339.964844 287.054688 336.953125 324.234375 315.570312 324.234375 " fill-opacity="1" fill-rule="nonzero"/></g><g clip-path="url(#d590b83635)"><path fill="#d880c4" d="M 185.492188 364.710938 C 162.8125 364.710938 141.15625 360.535156 121.347656 352.921875 C 124.605469 345.3125 130.039062 334.613281 136.589844 328.988281 C 137.289062 328.390625 138.0625 327.808594 138.886719 327.246094 C 139.410156 327.25 139.9375 327.253906 140.460938 327.253906 C 207.085938 327.253906 246.375 303.527344 268.472656 269.535156 C 272.140625 271.015625 275.734375 272.910156 279.222656 274.917969 C 283.21875 280.789062 288.800781 287.054688 299.601562 287.054688 C 300.039062 287.054688 300.457031 287.039062 300.867188 287.007812 C 303.074219 287.824219 305.164062 288.304688 307.117188 288.304688 C 308.863281 288.304688 310.503906 287.921875 312.019531 287.054688 C 322.875 280.847656 311.71875 258.363281 311.699219 258.320312 C 324.960938 253.515625 328.417969 235.316406 318.230469 228.035156 C 315.367188 225.988281 312.078125 225.238281 308.785156 225.238281 C 299.554688 225.238281 290.285156 231.140625 290.285156 231.140625 L 286.234375 229.054688 C 292.511719 206.28125 294.328125 181.730469 293.617188 157.960938 C 298.0625 155.425781 303.480469 152.824219 310.46875 150.375 C 328.972656 143.898438 339.203125 141.277344 344.449219 140.21875 C 349.464844 151.898438 353.082031 164.277344 355.101562 177.136719 C 356.386719 185.121094 357.042969 193.289062 357.042969 201.628906 C 357.042969 248.535156 336.207031 290.828125 302.859375 320.570312 C 294.460938 328.074219 285.257812 334.765625 275.398438 340.542969 C 276.398438 323.085938 274.246094 299.175781 255.023438 299.175781 C 251.003906 299.175781 246.242188 300.21875 240.605469 302.585938 C 239.796875 302.925781 240.109375 303.296875 241.085938 303.828125 C 229.335938 308.300781 228.417969 323.476562 229.738281 327.4375 C 229.953125 328.074219 229.992188 328.335938 229.832031 328.335938 C 229.492188 328.335938 228.242188 327.121094 225.878906 325.910156 C 223.515625 324.699219 220.039062 323.484375 215.246094 323.484375 C 210.875 323.484375 205.40625 324.496094 198.6875 327.4375 C 174.132812 338.183594 207.308594 362.941406 210.816406 362.941406 C 202.554688 364.105469 194.09375 364.710938 185.492188 364.710938 M 210.921875 362.925781 C 211.21875 362.863281 211.53125 362.832031 211.851562 362.800781 C 211.542969 362.847656 211.234375 362.890625 210.921875 362.925781 M 77.628906 328.445312 C 73.855469 325.539062 70.222656 322.5 66.746094 319.3125 C 72.132812 320.382812 77.394531 321.332031 82.550781 322.15625 C 81.960938 322.882812 81.335938 323.617188 80.703125 324.328125 C 79.367188 325.820312 78.375 327.1875 77.628906 328.445312 M 310.464844 265.363281 C 309.789062 261.722656 308.914062 259.097656 308.914062 259.097656 C 309.886719 258.902344 310.8125 258.640625 311.699219 258.320312 C 311.695312 258.339844 311.496094 261.445312 310.464844 265.363281 " fill-opacity="1" fill-rule="nonzero"/></g><path fill="#91dada" d="M 299.601562 287.054688 C 288.800781 287.054688 283.21875 280.789062 279.222656 274.917969 C 287.136719 279.480469 294.492188 284.652344 300.867188 287.007812 C 300.457031 287.039062 300.039062 287.054688 299.601562 287.054688 M 295.792969 281.125 C 284.875 281.125 279.417969 260.652344 279.417969 260.652344 C 279.417969 260.652344 277.800781 259.726562 275.007812 258.242188 C 279.75 249.015625 283.433594 239.210938 286.234375 229.054688 L 290.285156 231.140625 C 290.285156 231.140625 299.554688 225.238281 308.785156 225.238281 C 312.078125 225.238281 315.367188 225.988281 318.230469 228.035156 C 328.417969 235.316406 324.960938 253.515625 311.699219 258.320312 C 310.8125 258.640625 309.886719 258.902344 308.914062 259.097656 C 308.914062 259.097656 309.789062 261.722656 310.464844 265.363281 C 308.917969 271.25 305.496094 278.976562 298.046875 280.839844 C 297.273438 281.035156 296.519531 281.125 295.792969 281.125 " fill-opacity="1" fill-rule="nonzero"/><path fill="#91dada" d="M 106.070312 352.890625 C 95.792969 349.800781 83.808594 341.414062 83.808594 341.414062 C 83.808594 341.414062 75.882812 339.824219 75.886719 333.824219 C 75.890625 332.324219 76.386719 330.542969 77.628906 328.445312 C 78.375 327.1875 79.367188 325.820312 80.703125 324.328125 C 81.335938 323.617188 81.960938 322.882812 82.550781 322.15625 C 94.671875 324.136719 106.136719 325.515625 116.972656 326.335938 C 110.167969 332.976562 105.492188 339.296875 104.609375 344.394531 C 104.550781 344.738281 104.503906 345.078125 104.488281 345.40625 C 104.175781 348.34375 104.859375 350.828125 106.070312 352.890625 " fill-opacity="1" fill-rule="nonzero"/><path fill="#91dada" d="M 232.851562 364.070312 C 229.09375 364.070312 225.410156 363.734375 222.085938 363.394531 C 218.757812 363.058594 215.792969 362.726562 213.464844 362.726562 C 212.984375 362.726562 212.527344 362.738281 212.101562 362.769531 C 212.023438 362.785156 211.933594 362.785156 211.851562 362.800781 C 211.53125 362.832031 211.21875 362.863281 210.921875 362.925781 L 210.816406 362.941406 C 207.308594 362.941406 174.132812 338.183594 198.6875 327.4375 C 205.40625 324.496094 210.875 323.484375 215.246094 323.484375 C 220.039062 323.484375 223.515625 324.699219 225.878906 325.910156 C 228.242188 327.121094 229.492188 328.335938 229.832031 328.335938 C 229.992188 328.335938 229.953125 328.074219 229.738281 327.4375 C 228.417969 323.476562 229.335938 308.300781 241.085938 303.828125 C 245.339844 306.066406 262.152344 311.019531 254.578125 327.4375 C 250.136719 337.050781 246.753906 347.019531 244.441406 354.835938 C 243.476562 358.050781 242.703125 360.890625 242.097656 363.207031 C 239.066406 363.84375 235.933594 364.070312 232.851562 364.070312 " fill-opacity="1" fill-rule="nonzero"/><path fill="#d880c4" d="M 287.722656 101.886719 C 285.363281 88.28125 282.585938 75.902344 279.945312 65.5 C 292.8125 73.558594 304.460938 83.25 314.582031 94.230469 C 314.582031 94.230469 303.09375 100.367188 287.722656 101.886719 " fill-opacity="1" fill-rule="nonzero"/><path fill="#91dada" d="M 292.289062 136.183594 C 291.203125 124.210938 289.589844 112.65625 287.722656 101.886719 C 303.09375 100.367188 314.582031 94.230469 314.582031 94.230469 L 314.597656 94.230469 C 324.59375 94.648438 331.582031 98.609375 336.300781 103.921875 C 335.835938 108.472656 334.34375 113.082031 331.984375 116.738281 L 331.984375 116.753906 C 329.40625 120.726562 325.789062 123.570312 321.332031 123.972656 C 312.710938 124.757812 303.296875 130.292969 292.289062 136.183594 " fill-opacity="1" fill-rule="nonzero"/><path fill="#bd81c0" d="M 293.617188 157.960938 C 293.523438 154.796875 293.382812 151.65625 293.203125 148.527344 C 311.773438 139.785156 337.742188 136.941406 342.246094 135.292969 C 343.023438 136.910156 343.75 138.558594 344.449219 140.21875 C 339.203125 141.277344 328.972656 143.898438 310.46875 150.375 C 303.480469 152.824219 298.0625 155.425781 293.617188 157.960938 " fill-opacity="1" fill-rule="nonzero"/><path fill="#83d6d6" d="M 293.203125 148.527344 C 292.96875 144.375 292.660156 140.253906 292.289062 136.183594 C 303.296875 130.292969 312.710938 124.757812 321.332031 123.972656 C 325.789062 123.570312 329.40625 120.726562 331.984375 116.753906 L 331.984375 116.738281 C 334.34375 113.082031 335.835938 108.472656 336.300781 103.921875 C 342.515625 110.9375 344.769531 120.3125 344.769531 126.996094 C 344.769531 131.46875 343.757812 134.738281 342.246094 135.292969 C 337.742188 136.941406 311.773438 139.785156 293.203125 148.527344 " fill-opacity="1" fill-rule="nonzero"/><path fill="#bd81c0" d="M 307.117188 288.304688 C 305.164062 288.304688 303.074219 287.824219 300.867188 287.007812 C 312.484375 286.148438 311.949219 273.328125 310.464844 265.363281 C 311.496094 261.445312 311.695312 258.339844 311.699219 258.320312 C 311.71875 258.363281 322.875 280.847656 312.019531 287.054688 C 310.503906 287.921875 308.863281 288.304688 307.117188 288.304688 M 279.222656 274.917969 C 275.734375 272.910156 272.140625 271.015625 268.472656 269.535156 C 269.425781 268.074219 270.339844 266.59375 271.226562 265.097656 C 271.386719 265.175781 271.527344 265.246094 271.65625 265.308594 C 274.265625 266.613281 276.328125 270.664062 279.222656 274.917969 " fill-opacity="1" fill-rule="nonzero"/><path fill="#83d6d6" d="M 300.867188 287.007812 C 294.492188 284.652344 287.136719 279.480469 279.222656 274.917969 C 276.328125 270.664062 274.265625 266.613281 271.65625 265.308594 C 271.527344 265.246094 271.386719 265.175781 271.226562 265.097656 C 272.554688 262.855469 273.816406 260.5625 275.007812 258.242188 C 277.800781 259.726562 279.417969 260.652344 279.417969 260.652344 C 279.417969 260.652344 284.875 281.125 295.792969 281.125 C 296.519531 281.125 297.273438 281.035156 298.046875 280.839844 C 305.496094 278.976562 308.917969 271.25 310.464844 265.363281 C 311.949219 273.328125 312.484375 286.148438 300.867188 287.007812 " fill-opacity="1" fill-rule="nonzero"/><path fill="#bd81c0" d="M 121.347656 352.921875 C 120.351562 352.550781 119.359375 352.164062 118.367188 351.757812 C 121.019531 348.726562 121.90625 342.839844 125.726562 335.199219 C 127.230469 332.191406 128.921875 329.53125 130.9375 327.09375 C 133.628906 327.183594 136.28125 327.230469 138.886719 327.246094 C 138.0625 327.808594 137.289062 328.390625 136.589844 328.988281 C 130.039062 334.613281 124.605469 345.3125 121.347656 352.921875 " fill-opacity="1" fill-rule="nonzero"/><path fill="#83d6d6" d="M 112.703125 354.035156 C 111.949219 354.035156 111.117188 353.96875 110.199219 353.839844 C 108.882812 353.652344 107.5 353.328125 106.070312 352.890625 C 104.859375 350.828125 104.175781 348.34375 104.488281 345.40625 C 104.503906 345.078125 104.550781 344.738281 104.609375 344.394531 C 105.492188 339.296875 110.167969 332.976562 116.972656 326.335938 C 121.75 326.695312 126.402344 326.945312 130.9375 327.09375 C 128.921875 329.53125 127.230469 332.191406 125.726562 335.199219 C 121.90625 342.839844 121.019531 348.726562 118.367188 351.757812 C 117.082031 353.234375 115.375 354.035156 112.703125 354.035156 " fill-opacity="1" fill-rule="nonzero"/><path fill="#bd81c0" d="M 260.152344 348.496094 C 270.382812 324.519531 266.996094 302.585938 248.371094 302.585938 C 245.574219 302.585938 243.167969 303.035156 241.085938 303.828125 C 240.109375 303.296875 239.796875 302.925781 240.605469 302.585938 C 246.242188 300.21875 251.003906 299.175781 255.023438 299.175781 C 274.246094 299.175781 276.398438 323.085938 275.398438 340.542969 C 270.476562 343.433594 265.382812 346.089844 260.152344 348.496094 " fill-opacity="1" fill-rule="nonzero"/><path fill="#83d6d6" d="M 242.097656 363.207031 C 242.703125 360.890625 243.476562 358.050781 244.441406 354.835938 C 246.753906 347.019531 250.136719 337.050781 254.578125 327.4375 C 262.152344 311.019531 245.339844 306.066406 241.085938 303.828125 C 243.167969 303.035156 245.574219 302.585938 248.371094 302.585938 C 266.996094 302.585938 270.382812 324.519531 260.152344 348.496094 L 260.136719 348.511719 C 256.238281 357.660156 249.46875 361.667969 242.097656 363.207031 " fill-opacity="1" fill-rule="nonzero"/><path fill="#b1e5e5" d="M 144.726562 106.496094 C 144.472656 106.496094 144.230469 106.367188 144.085938 106.050781 C 141.851562 101.125 141.269531 95.898438 143.597656 90.917969 C 145.242188 87.390625 148.574219 83.007812 152.753906 83.007812 C 153.375 83.007812 154.015625 83.105469 154.675781 83.320312 C 154.867188 83.378906 155.074219 83.585938 155.046875 83.808594 C 154.59375 87.316406 152.289062 89.898438 150.484375 92.84375 C 148.167969 96.632812 146.15625 101.164062 145.714844 105.609375 C 145.664062 106.09375 145.175781 106.496094 144.726562 106.496094 " fill-opacity="1" fill-rule="nonzero"/><path fill="#b1e5e5" d="M 95.695312 157.320312 C 94.996094 157.320312 94.386719 156.429688 94.800781 155.761719 C 100.480469 146.480469 106.054688 138.820312 113.875 131.210938 C 120.453125 124.808594 127.554688 116.269531 136.640625 113.632812 C 136.777344 113.589844 136.917969 113.570312 137.058594 113.570312 C 138.136719 113.570312 139.230469 114.660156 138.789062 115.78125 C 135.332031 124.59375 126.722656 130.964844 120.160156 137.5 C 112.578125 145.054688 104.882812 151.015625 96.195312 157.152344 C 96.03125 157.269531 95.859375 157.320312 95.695312 157.320312 " fill-opacity="1" fill-rule="nonzero"/><path fill="#b1e5e5" d="M 58.21875 174.105469 C 57.730469 174.105469 57.234375 173.871094 57.015625 173.425781 C 56.109375 171.605469 55.566406 169.742188 55.414062 167.710938 C 55.183594 164.71875 56.335938 162.664062 58.234375 160.476562 C 60.675781 157.664062 64.144531 155.589844 67.738281 155.589844 C 69.070312 155.589844 70.414062 155.875 71.734375 156.511719 C 73.328125 157.277344 73.964844 159.78125 72.96875 161.238281 C 71.105469 163.960938 68.414062 165.53125 66.148438 167.859375 C 64.859375 169.191406 63.777344 170.285156 62.171875 171.273438 C 61.023438 171.976562 60.089844 172.695312 59.183594 173.707031 C 58.941406 173.976562 58.582031 174.105469 58.21875 174.105469 " fill-opacity="1" fill-rule="nonzero"/><path fill="#b1e5e5" d="M 26.765625 230.78125 C 26.679688 230.78125 26.59375 230.773438 26.507812 230.753906 C 20.648438 229.566406 15.988281 225.558594 14.890625 219.550781 C 14.320312 216.417969 14.429688 213.53125 15.886719 210.65625 C 17.210938 208.058594 19.042969 208.082031 21.050781 206.5625 C 21.132812 206.5 21.214844 206.476562 21.296875 206.476562 C 21.601562 206.476562 21.878906 206.832031 21.796875 207.136719 C 21.472656 208.4375 22.414062 210.535156 22.519531 211.929688 C 22.648438 213.707031 22.691406 215.566406 22.96875 217.324219 C 23.59375 221.261719 24.867188 225.875 27.640625 228.808594 C 28.402344 229.617188 27.753906 230.78125 26.765625 230.78125 " fill-opacity="1" fill-rule="nonzero"/><path fill="#b1e5e5" d="M 252.394531 119.96875 C 252.210938 119.96875 252.015625 119.921875 251.820312 119.828125 C 249.304688 118.589844 246.726562 116.824219 245.757812 114.0625 C 244.507812 110.503906 245.367188 106.800781 247.730469 103.949219 C 249.695312 101.578125 252.390625 100.421875 255.078125 100.421875 C 258.046875 100.421875 261.003906 101.835938 262.949219 104.574219 C 263.25 105.003906 262.835938 105.542969 262.382812 105.558594 C 259.757812 105.667969 256.988281 107.835938 255.445312 109.902344 C 254.011719 111.824219 252.3125 115.980469 253.414062 118.238281 C 253.839844 119.105469 253.214844 119.96875 252.394531 119.96875 " fill-opacity="1" fill-rule="nonzero"/><path fill="#b1e5e5" d="M 253.511719 147.898438 C 253.449219 147.898438 253.382812 147.890625 253.3125 147.882812 C 247.007812 146.742188 242.878906 140.644531 246.066406 134.457031 C 247.425781 131.8125 250.242188 129.300781 253.273438 128.984375 C 253.515625 128.960938 253.746094 128.949219 253.976562 128.949219 C 256.1875 128.949219 257.976562 130.046875 259.792969 131.304688 C 260.042969 131.476562 259.9375 131.816406 259.648438 131.847656 C 257.335938 132.113281 254.15625 135.335938 253.25 137.484375 C 252.25 139.859375 252.484375 144.355469 254.230469 146.300781 C 254.84375 146.976562 254.324219 147.898438 253.511719 147.898438 " fill-opacity="1" fill-rule="nonzero"/><path fill="#b1e5e5" d="M 218.15625 209.464844 C 218.125 209.464844 218.09375 209.464844 218.066406 209.460938 C 210.535156 208.949219 205.300781 202.03125 207.320312 194.625 C 208.699219 189.5625 214.433594 184.039062 219.910156 184.039062 C 221.960938 184.039062 223.976562 184.8125 225.714844 186.675781 C 226.613281 187.644531 227.191406 189.160156 226.714844 190.472656 C 225.53125 193.734375 222.683594 195.953125 221.484375 199.058594 C 220.722656 201.023438 220.34375 203.164062 219.335938 205.046875 C 219.226562 205.199219 219.125 205.335938 219.035156 205.460938 C 219.011719 205.578125 218.980469 205.714844 218.929688 205.914062 C 219.167969 206.269531 219.351562 207.097656 219.46875 207.613281 C 219.660156 208.453125 219.089844 209.464844 218.15625 209.464844 " fill-opacity="1" fill-rule="nonzero"/><path fill="#b1e5e5" d="M 205.292969 236.707031 C 199.695312 236.707031 195.238281 230.777344 196.675781 225.265625 C 197.535156 221.984375 199.894531 219.777344 203.273438 219.332031 C 203.605469 219.289062 203.945312 219.265625 204.28125 219.265625 C 206.15625 219.265625 208.007812 219.96875 209.054688 221.613281 C 209.253906 221.921875 209.066406 222.390625 208.707031 222.46875 C 206.367188 223 204.894531 225.464844 204.890625 227.8125 C 204.882812 230.472656 206.425781 232.773438 207.792969 234.886719 C 208.167969 235.464844 207.808594 236.335938 207.140625 236.492188 C 206.515625 236.636719 205.898438 236.707031 205.292969 236.707031 " fill-opacity="1" fill-rule="nonzero"/><path fill="#b1e5e5" d="M 275.707031 254.277344 C 275.617188 254.277344 275.519531 254.265625 275.421875 254.246094 C 254.433594 249.84375 237.890625 239.78125 222.621094 224.910156 C 222.472656 224.761719 222.605469 224.535156 222.78125 224.535156 C 222.816406 224.535156 222.851562 224.546875 222.886719 224.566406 C 240.265625 234.351562 258.625 242.84375 276.484375 251.714844 C 277.867188 252.40625 277.007812 254.277344 275.707031 254.277344 " fill-opacity="1" fill-rule="nonzero"/><path fill="#b1e5e5" d="M 105.527344 301.511719 C 104.644531 301.511719 103.707031 300.8125 103.707031 299.835938 C 103.695312 286.304688 107.453125 266.308594 123.753906 263.488281 C 123.941406 263.457031 124.128906 263.441406 124.316406 263.441406 C 126.78125 263.441406 129.445312 266.039062 127.617188 268.515625 C 127.421875 269.136719 127.222656 269.757812 127.027344 270.375 C 126.984375 270.863281 126.628906 271.152344 126.230469 271.152344 C 126.039062 271.152344 125.835938 271.085938 125.660156 270.945312 C 125.554688 270.863281 125.433594 270.820312 125.296875 270.820312 C 123.050781 270.820312 116.261719 280.921875 115.109375 283.144531 C 112.136719 288.867188 109.527344 294.820312 106.824219 300.679688 C 106.554688 301.261719 106.054688 301.511719 105.527344 301.511719 " fill-opacity="1" fill-rule="nonzero"/><path fill="#f391cd" d="M 45.652344 157.09375 C 44.765625 157.09375 43.867188 156.390625 43.800781 155.355469 C 42.390625 132.996094 51.59375 115.710938 67.269531 100.207031 C 79.453125 88.15625 97.394531 71.355469 115.808594 71.355469 C 118.035156 71.355469 120.269531 71.605469 122.5 72.132812 C 123.46875 72.363281 124.457031 73.28125 124.648438 74.285156 L 124.691406 74.496094 C 125.707031 79.808594 112.335938 86.929688 108.960938 89.441406 C 100.621094 95.636719 92.335938 102.039062 84.78125 109.195312 C 77.519531 116.0625 71.0625 123.800781 64.800781 131.558594 C 58.535156 139.320312 51.960938 147.542969 47.058594 156.238281 C 46.71875 156.835938 46.191406 157.09375 45.652344 157.09375 " fill-opacity="1" fill-rule="nonzero"/><path fill="#f391cd" d="M 145.53125 67.460938 C 143.90625 67.460938 142.273438 67.382812 140.644531 67.203125 C 139.753906 67.109375 139.132812 66.058594 139.871094 65.339844 C 143.390625 61.917969 147.417969 59.515625 151.746094 57.859375 C 157.8125 56.773438 164.066406 55.65625 170.171875 54.558594 C 171.203125 54.527344 172.238281 54.511719 173.277344 54.511719 C 178.746094 54.511719 184.203125 54.9375 189.355469 55.382812 C 190.511719 55.480469 190.925781 57.257812 189.648438 57.523438 C 175.179688 60.554688 160.523438 67.464844 145.53125 67.460938 " fill-opacity="1" fill-rule="nonzero"/><path fill="#e191ce" d="M 151.746094 57.859375 C 157.503906 55.648438 163.804688 54.765625 170.171875 54.558594 C 164.066406 55.65625 157.8125 56.773438 151.746094 57.859375 " fill-opacity="1" fill-rule="nonzero"/><path fill="#f391cd" d="M 164.859375 254.28125 C 164.792969 254.28125 164.722656 254.28125 164.652344 254.265625 C 151.695312 251.996094 139.898438 244.953125 134.03125 232.824219 C 128.660156 221.710938 127.828125 203.164062 138.4375 194.800781 C 138.582031 194.683594 138.75 194.632812 138.914062 194.632812 C 139.238281 194.632812 139.53125 194.855469 139.554688 195.265625 C 140.21875 207.632812 137.773438 218.097656 143.441406 229.933594 C 148.101562 239.652344 155.722656 247.691406 165.605469 252.003906 C 166.914062 252.578125 166.027344 254.28125 164.859375 254.28125 " fill-opacity="1" fill-rule="nonzero"/></svg>