<svg xmlns="http://www.w3.org/2000/svg" xmlns:xlink="http://www.w3.org/1999/xlink" width="500" zoomAndPan="magnify" viewBox="0 0 375 374.999991" height="500" preserveAspectRatio="xMidYMid meet" version="1.0"><defs><clipPath id="9b1ecb842e"><path d="M 207 174.503906 L 374.347656 174.503906 L 374.347656 374.976562 L 207 374.976562 Z M 207 174.503906 " clip-rule="nonzero"/></clipPath><clipPath id="d10a66bc91"><path d="M 187.128906 160.707031 L 315 160.707031 L 315 374.976562 L 187.128906 374.976562 Z M 187.128906 160.707031 " clip-rule="nonzero"/></clipPath><clipPath id="c493ffb511"><path d="M 0.234375 53 L 128 53 L 128 268 L 0.234375 268 Z M 0.234375 53 " clip-rule="nonzero"/></clipPath></defs><g clip-path="url(#9b1ecb842e)"><path fill="#8fd02c" d="M 374.339844 327.996094 L 207.203125 374.976562 L 273.167969 190.296875 L 314.851562 174.90625 L 374.339844 327.996094 " fill-opacity="1" fill-rule="nonzero"/></g><g clip-path="url(#d10a66bc91)"><path fill="#83bc20" d="M 314.851562 174.90625 L 273.167969 190.296875 L 207.203125 374.976562 L 187.371094 365.257812 L 204.011719 318.640625 L 212.105469 295.976562 L 229.476562 247.320312 L 236.929688 226.4375 L 250.644531 188.042969 L 255.765625 173.691406 L 292.1875 160.730469 L 314.851562 174.90625 " fill-opacity="1" fill-rule="nonzero"/></g><g clip-path="url(#c493ffb511)"><path fill="#83bc20" d="M 127.882812 67.785156 L 86.199219 83.175781 L 20.234375 267.855469 L 0.402344 258.132812 L 68.796875 66.570312 L 105.21875 53.609375 L 127.882812 67.785156 " fill-opacity="1" fill-rule="nonzero"/></g><path fill="#ffd366" d="M 292.1875 160.730469 L 255.765625 173.691406 L 146.335938 115.273438 L 105.859375 93.671875 L 86.199219 83.175781 L 127.882812 67.785156 L 292.1875 160.730469 " fill-opacity="1" fill-rule="nonzero"/><path fill="#8fd02c" d="M 86.199219 83.175781 L 86.199219 249.3125 L 20.234375 267.855469 Z M 86.199219 83.175781 " fill-opacity="1" fill-rule="nonzero"/><path fill="#8fd02c" d="M 178.066406 196.929688 L 105.859375 160.730469 L 105.859375 107.675781 L 153.699219 134.238281 L 178.066406 196.929688 " fill-opacity="1" fill-rule="nonzero"/><path fill="#8fd02c" d="M 181.109375 222.628906 L 115.433594 241.089844 L 105.859375 235.65625 L 105.859375 184.222656 L 181.109375 222.628906 " fill-opacity="1" fill-rule="nonzero"/><path fill="#fcc939" d="M 105.859375 107.675781 L 105.859375 160.730469 L 178.066406 196.929688 L 236.929688 226.4375 L 229.476562 247.320312 L 181.113281 222.628906 L 181.109375 222.628906 L 105.859375 184.222656 L 105.859375 235.65625 L 115.433594 241.089844 L 212.105469 295.976562 L 204.011719 318.640625 L 86.199219 249.3125 L 86.199219 83.175781 L 105.859375 93.671875 L 146.335938 115.273438 L 255.765625 173.691406 L 250.644531 188.042969 L 153.699219 134.238281 L 105.859375 107.675781 " fill-opacity="1" fill-rule="nonzero"/><path fill="#231f20" d="M 29.777344 159.046875 C 26.933594 157.84375 24.417969 156.210938 23.195312 154.28125 C 22.269531 152.828125 22.691406 151.253906 24.203125 149.363281 C 25.035156 149.25 26.167969 149.339844 27.652344 149.953125 C 31.484375 151.527344 31.554688 152.464844 31.554688 153.890625 C 31.550781 154.878906 30.980469 157.375 29.777344 159.046875 " fill-opacity="1" fill-rule="nonzero"/><path fill="#d4c9c1" d="M 70.285156 177.917969 C 68.265625 179.011719 66.191406 180.171875 64.121094 181.519531 C 61.445312 179.589844 59.347656 176.96875 57.714844 174.230469 C 58.859375 175.0625 61.175781 175.636719 65.851562 174.738281 C 75.433594 172.894531 76.65625 174.460938 70.285156 177.917969 " fill-opacity="1" fill-rule="nonzero"/><path fill="#e5ded8" d="M 223.839844 80.085938 C 218.808594 82.609375 217.46875 83.164062 215.800781 88.453125 C 214.136719 93.742188 212.125 97.097656 212.316406 95.363281 C 212.511719 93.628906 211.152344 89.273438 211.03125 91.773438 C 210.910156 94.273438 208.007812 100.257812 208.671875 98.34375 C 209.332031 96.425781 207.699219 93.039062 207.699219 93.039062 C 207.699219 93.039062 208.007812 100.257812 206.617188 100.304688 C 205.226562 100.347656 205.175781 99.835938 196.316406 110.347656 C 187.453125 120.863281 159.929688 130.855469 149.992188 133.402344 C 140.054688 135.949219 143.96875 140.058594 134.675781 154.074219 C 125.386719 168.09375 101.585938 178.050781 96.632812 177.523438 C 91.679688 177 91.277344 183.058594 90.414062 186.332031 C 89.550781 189.601562 88.261719 187.269531 87.859375 189.976562 C 87.457031 192.6875 85.402344 192.128906 83.441406 193.472656 C 81.476562 194.820312 79.605469 198.945312 79.605469 198.945312 C 79.605469 198.945312 78.445312 195.75 78.023438 198.582031 C 77.601562 201.414062 75.523438 201.859375 75.523438 201.859375 C 75.523438 201.859375 72.984375 202.867188 73.167969 204.152344 C 73.355469 205.441406 71.527344 205.042969 65.554688 209.6875 C 59.578125 214.339844 55.085938 212.410156 55.085938 212.410156 C 55.085938 212.410156 54.636719 213.726562 48.933594 211.492188 C 45.410156 210.113281 45.164062 207.007812 46.769531 202.832031 C 47.765625 200.25 49.46875 197.253906 51.535156 194.003906 C 55.238281 188.191406 59.660156 184.425781 64.121094 181.519531 C 66.191406 180.171875 68.265625 179.011719 70.285156 177.917969 C 76.65625 174.460938 75.433594 172.894531 65.851562 174.738281 C 61.175781 175.636719 58.859375 175.0625 57.714844 174.230469 C 57.320312 173.5625 56.949219 172.886719 56.605469 172.21875 C 56.570312 172.148438 56.535156 172.082031 56.5 172.011719 C 54.589844 168.238281 53.503906 164.558594 52.957031 162.492188 C 51.664062 157.644531 50.21875 158.058594 45.238281 161.09375 C 40.257812 164.125 38.46875 163.480469 37.121094 162.398438 C 36.476562 161.878906 36.46875 161.546875 37.019531 161.136719 C 37.625 160.683594 38.917969 160.140625 40.785156 159.167969 C 44.371094 157.3125 56.183594 146.734375 55.324219 145.726562 C 54.46875 144.71875 52.851562 144.601562 50.082031 148.847656 C 47.589844 152.667969 39.695312 159.871094 35.058594 160.441406 L 35.050781 160.4375 C 34.539062 160.503906 34.070312 160.484375 33.648438 160.371094 C 32.351562 160.019531 31.03125 159.578125 29.777344 159.046875 C 30.980469 157.375 31.550781 154.878906 31.554688 153.890625 C 31.554688 152.464844 31.484375 151.527344 27.652344 149.953125 C 26.167969 149.339844 25.035156 149.25 24.203125 149.363281 C 25.582031 147.625 27.875 145.613281 30.882812 143.175781 C 37.179688 138.074219 37.40625 127.53125 38.308594 121.453125 C 39.214844 115.378906 40.152344 111.324219 49.097656 106.445312 C 49.117188 106.433594 49.148438 106.417969 49.167969 106.40625 C 49.199219 107.453125 48.867188 108.910156 47.226562 110.113281 C 44.289062 112.273438 40.550781 121.871094 40.824219 128.625 C 41.101562 135.382812 46.699219 140.578125 55.066406 140.148438 C 63.429688 139.71875 68.777344 136.488281 71.515625 133.875 C 73.199219 132.261719 72.847656 131.503906 73.621094 131.382812 C 74.105469 131.304688 75.023438 131.472656 77.140625 131.828125 C 77.421875 131.875 77.703125 131.917969 77.976562 131.953125 C 77.5625 134.074219 77.25 137.394531 76.058594 139.121094 C 74.507812 141.355469 77.464844 141.222656 75.398438 143.542969 C 73.332031 145.859375 73.78125 144.535156 74.21875 151.480469 C 74.652344 158.425781 75.460938 162.578125 80.148438 162.949219 C 84.84375 163.324219 79.261719 166.328125 82.097656 166.417969 C 84.9375 166.507812 85.277344 168.738281 86.011719 171.703125 C 86.742188 174.664062 89.226562 174.863281 98.316406 173.535156 C 107.398438 172.207031 113.507812 167.238281 120.882812 158.269531 C 128.253906 149.296875 131.28125 138 132.113281 135.773438 C 132.945312 133.546875 136.113281 133.6875 136.617188 131.410156 C 137.125 129.132812 141.578125 126.273438 144.902344 127.609375 C 148.222656 128.945312 170.457031 118.164062 183.988281 110.609375 C 197.527344 103.0625 197.769531 98.0625 199.644531 94.480469 C 201.515625 90.898438 201.257812 94.886719 202.425781 91.535156 C 203.601562 88.1875 204.492188 91.175781 205.855469 84.996094 C 206.820312 80.617188 203.84375 74.964844 202.03125 72.054688 C 202.09375 71.933594 202.144531 71.816406 202.195312 71.695312 C 203.539062 68.449219 205.410156 66.632812 208.089844 65.121094 C 210.101562 63.984375 212.574219 63.015625 215.628906 61.742188 C 222.734375 58.773438 227.484375 53.0625 231.078125 55.109375 C 234.675781 57.152344 234.320312 60.375 234.472656 64.425781 C 234.625 68.476562 228.871094 77.5625 223.839844 80.085938 " fill-opacity="1" fill-rule="nonzero"/><path fill="#b36b43" d="M 205.855469 84.996094 C 204.492188 91.175781 203.601562 88.1875 202.425781 91.535156 C 201.257812 94.886719 201.515625 90.898438 199.644531 94.480469 C 197.769531 98.0625 197.527344 103.0625 183.988281 110.609375 C 170.457031 118.164062 148.222656 128.945312 144.902344 127.609375 C 141.578125 126.273438 137.125 129.132812 136.617188 131.410156 C 136.113281 133.6875 132.945312 133.546875 132.113281 135.773438 C 131.28125 138 128.253906 149.296875 120.882812 158.269531 C 113.507812 167.238281 107.398438 172.207031 98.316406 173.535156 C 89.226562 174.863281 86.742188 174.664062 86.011719 171.703125 C 85.277344 168.738281 84.9375 166.507812 82.097656 166.417969 C 79.261719 166.328125 84.84375 163.324219 80.148438 162.949219 C 75.460938 162.578125 74.652344 158.425781 74.21875 151.480469 C 73.78125 144.535156 73.332031 145.859375 75.398438 143.542969 C 77.464844 141.222656 74.507812 141.355469 76.058594 139.121094 C 77.25 137.394531 77.5625 134.074219 77.976562 131.953125 C 83.058594 132.652344 86.726562 131.558594 89.109375 129.449219 C 91.625 127.21875 88.359375 129.417969 85.945312 128.726562 C 85.945312 128.726562 87.875 127.164062 90.222656 127.097656 C 92.574219 127.023438 93.421875 126.394531 94.195312 124.582031 C 94.96875 122.769531 96.570312 122.167969 98.289062 121.332031 C 100.003906 120.5 101.011719 118.800781 101.902344 117.339844 C 102.789062 115.878906 100.414062 118.292969 97.671875 118.136719 C 94.929688 117.980469 100.894531 116.769531 102.933594 114.894531 C 104.976562 113.011719 108.082031 109.890625 108.835938 106.789062 C 109.589844 103.6875 107.253906 106.726562 106.128906 106.386719 C 105.425781 106.175781 106.050781 106.097656 107.011719 105.113281 C 116.632812 100.285156 123.007812 92.152344 129.941406 78.804688 C 137.347656 64.550781 154.417969 63.949219 159.660156 60.828125 C 164.90625 57.707031 167.167969 53.511719 167.800781 47.5625 C 168.433594 41.617188 171.132812 34.464844 170.949219 35.695312 C 170.789062 36.777344 171.230469 40.253906 171.347656 41.105469 C 171.265625 40.253906 171.246094 36.535156 175.855469 30.636719 C 181.136719 23.871094 189.511719 20.839844 198.785156 15.171875 C 208.054688 9.503906 205.949219 0.00390625 209.113281 3.242188 C 212.28125 6.484375 212.128906 10.867188 209.722656 16.046875 C 207.316406 21.226562 205.5 30.902344 205.566406 34.6875 C 205.632812 38.472656 206.15625 41.699219 205.0625 42.292969 C 204.203125 42.753906 201.367188 45.15625 200.59375 45.820312 C 201.632812 45.078125 205.667969 44.144531 205.667969 44.144531 C 205.667969 44.144531 200.109375 49.359375 199.492188 52.664062 C 199.398438 53.179688 199.324219 53.707031 199.253906 54.234375 C 199.253906 54.242188 199.253906 54.242188 199.253906 54.242188 C 198.914062 57.121094 198.855469 60.074219 197.027344 61.613281 C 194.871094 63.433594 192.75 68.402344 192.75 68.402344 C 192.75 68.402344 187.507812 68.125 187.875 68.179688 C 188.246094 68.234375 191.863281 69.277344 191.863281 69.277344 C 187.449219 71.890625 181.296875 70.972656 175.691406 75.675781 C 170.085938 80.382812 175.347656 85.570312 181.039062 84.53125 C 186.609375 83.511719 199.296875 77.640625 202.03125 72.054688 C 203.84375 74.964844 206.820312 80.617188 205.855469 84.996094 " fill-opacity="1" fill-rule="nonzero"/><path fill="#d4c9c1" d="M 208.089844 65.121094 C 205.410156 66.632812 203.539062 68.449219 202.195312 71.695312 C 202.144531 71.816406 202.09375 71.933594 202.03125 72.054688 C 199.296875 77.640625 186.609375 83.511719 181.039062 84.53125 C 175.347656 85.570312 170.085938 80.382812 175.691406 75.675781 C 181.296875 70.972656 187.449219 71.890625 191.863281 69.277344 C 191.863281 69.277344 188.246094 68.234375 187.875 68.179688 C 187.507812 68.125 192.75 68.402344 192.75 68.402344 C 192.75 68.402344 194.871094 63.433594 197.027344 61.613281 C 198.855469 60.074219 198.914062 57.121094 199.253906 54.242188 C 199.253906 54.242188 199.253906 54.242188 199.253906 54.234375 C 200.726562 52.742188 203.28125 51.027344 206.445312 52.441406 C 210.75 54.367188 210.332031 59.394531 208.089844 65.121094 " fill-opacity="1" fill-rule="nonzero"/><path fill="#c6bcb5" d="M 64.121094 181.519531 C 59.660156 184.425781 55.238281 188.191406 51.535156 194.003906 C 49.46875 197.253906 47.765625 200.25 46.769531 202.832031 C 42.382812 202.777344 39.085938 199.617188 39.085938 199.617188 C 39.085938 199.617188 38.511719 199.53125 35.570312 196.746094 C 32.636719 193.957031 35.714844 186.777344 39.867188 180.851562 C 43.253906 176.011719 53.023438 172.96875 56.5 172.011719 C 56.535156 172.082031 56.570312 172.148438 56.605469 172.21875 C 56.605469 172.21875 56.515625 173.363281 57.714844 174.230469 C 59.347656 176.96875 61.445312 179.589844 64.121094 181.519531 " fill-opacity="1" fill-rule="nonzero"/><path fill="#231f20" d="M 40.785156 159.167969 C 38.917969 160.140625 37.625 160.683594 37.019531 161.136719 L 35.058594 160.441406 C 39.695312 159.871094 47.589844 152.667969 50.082031 148.847656 C 52.851562 144.601562 54.46875 144.71875 55.324219 145.726562 C 56.183594 146.734375 44.371094 157.3125 40.785156 159.167969 " fill-opacity="1" fill-rule="nonzero"/><path fill="#b36b43" d="M 51.722656 130.085938 C 50.769531 132.519531 46.605469 135.867188 45.402344 134.238281 C 44.195312 132.613281 44.625 127.640625 44.625 127.640625 C 44.671875 126.722656 52.671875 127.648438 51.722656 130.085938 Z M 91.507812 103.199219 C 82.167969 103.992188 71.898438 108.757812 66.234375 114.710938 C 60.566406 120.660156 59.871094 115.773438 61.898438 112.300781 C 63.21875 110.035156 64.644531 107.261719 67.914062 104.542969 C 66.976562 104.273438 57.632812 101.835938 49.167969 106.40625 C 49.199219 107.453125 48.867188 108.910156 47.226562 110.113281 C 44.289062 112.273438 40.550781 121.871094 40.824219 128.625 C 41.101562 135.382812 46.699219 140.578125 55.066406 140.148438 C 63.429688 139.71875 68.777344 136.488281 71.515625 133.875 C 73.199219 132.261719 72.847656 131.503906 73.621094 131.382812 C 74.546875 129.992188 76.136719 128.882812 79.121094 128.96875 C 84.632812 129.113281 86.375 124.171875 88.042969 123.664062 C 89.710938 123.160156 89.039062 122.050781 90.761719 121.71875 C 92.492188 121.394531 93 120.210938 95.007812 116.328125 C 97.007812 112.449219 98.21875 108.820312 99.886719 107.21875 C 101.546875 105.621094 99.40625 106.476562 101.128906 105.058594 C 102.847656 103.632812 100.851562 102.414062 91.507812 103.199219 " fill-opacity="1" fill-rule="nonzero"/><path fill="#754c29" d="M 51.722656 130.085938 C 50.769531 132.519531 46.605469 135.867188 45.402344 134.238281 C 44.195312 132.613281 44.625 127.640625 44.625 127.640625 C 44.671875 126.722656 52.671875 127.648438 51.722656 130.085938 " fill-opacity="1" fill-rule="nonzero"/><path fill="#9b5837" d="M 107.011719 105.113281 C 106.050781 106.097656 105.425781 106.175781 106.128906 106.386719 C 107.253906 106.726562 109.589844 103.6875 108.835938 106.789062 C 108.082031 109.890625 104.976562 113.011719 102.933594 114.894531 C 100.894531 116.769531 94.929688 117.980469 97.671875 118.136719 C 100.414062 118.292969 102.789062 115.878906 101.902344 117.339844 C 101.011719 118.800781 100.003906 120.5 98.289062 121.332031 C 96.570312 122.167969 94.96875 122.769531 94.195312 124.582031 C 93.421875 126.394531 92.574219 127.023438 90.222656 127.097656 C 87.875 127.164062 85.945312 128.726562 85.945312 128.726562 C 88.359375 129.417969 91.625 127.21875 89.109375 129.449219 C 86.726562 131.558594 83.058594 132.652344 77.976562 131.953125 C 77.703125 131.917969 77.421875 131.875 77.140625 131.828125 C 75.023438 131.472656 74.105469 131.304688 73.621094 131.382812 C 74.546875 129.992188 76.136719 128.882812 79.121094 128.96875 C 84.632812 129.113281 86.375 124.171875 88.042969 123.664062 C 89.710938 123.160156 89.039062 122.050781 90.761719 121.71875 C 92.492188 121.394531 93 120.210938 95.007812 116.328125 C 97.007812 112.449219 98.21875 108.820312 99.886719 107.21875 C 101.546875 105.621094 99.40625 106.476562 101.128906 105.058594 C 102.847656 103.632812 100.851562 102.414062 91.507812 103.199219 C 82.167969 103.992188 71.898438 108.757812 66.234375 114.710938 C 60.566406 120.660156 59.871094 115.773438 61.898438 112.300781 C 63.21875 110.035156 64.644531 107.261719 67.914062 104.542969 C 69.660156 103.089844 71.933594 101.65625 75 100.320312 C 77.835938 99.085938 81.265625 98.441406 84.859375 98.074219 C 92.417969 97.300781 100.679688 97.75 105.589844 96.488281 C 112.828125 94.632812 115.054688 86.992188 114.980469 89.75 C 114.90625 92.507812 114.246094 94.675781 111.714844 97.570312 C 109.191406 100.46875 110.433594 98.304688 108.851562 102.179688 C 108.257812 103.621094 107.578125 104.527344 107.011719 105.113281 " fill-opacity="1" fill-rule="nonzero"/><path fill="#87472b" d="M 87.023438 92.230469 C 86.257812 94.925781 85.671875 96.660156 84.859375 98.074219 C 81.265625 98.441406 77.835938 99.085938 75 100.320312 C 71.933594 101.65625 69.660156 103.089844 67.914062 104.542969 C 66.976562 104.273438 57.632812 101.835938 49.167969 106.40625 C 49.167969 106.183594 49.140625 105.976562 49.113281 105.800781 C 49.230469 103.898438 50.105469 98.148438 56.242188 94.503906 C 63.695312 90.074219 76.628906 86.550781 79.917969 81.921875 C 83.207031 77.289062 83.171875 76.953125 85.535156 75.457031 C 87.894531 73.960938 85.644531 77.824219 85.660156 78.832031 C 85.675781 79.84375 88.683594 74.832031 88.683594 73.15625 C 88.683594 71.480469 89.453125 74.191406 89.914062 75.605469 C 90.371094 77.019531 93.472656 77.058594 91.441406 79.445312 C 89.40625 81.824219 89.5 83.851562 91.527344 82.140625 C 93.558594 80.429688 88.777344 84.753906 91.222656 84.195312 C 93.664062 83.632812 88.261719 87.820312 87.023438 92.230469 " fill-opacity="1" fill-rule="nonzero"/><path fill="#231f20" d="M 49.046875 131.414062 C 48.894531 132.464844 47.914062 133.1875 46.859375 133.03125 C 45.804688 132.875 45.078125 131.898438 45.234375 130.847656 C 45.390625 129.796875 46.371094 129.074219 47.421875 129.234375 C 48.476562 129.390625 49.203125 130.371094 49.046875 131.414062 " fill-opacity="1" fill-rule="nonzero"/><path fill="#f1f2f2" d="M 49.71875 129.597656 C 49.644531 130.105469 49.179688 130.460938 48.6875 130.386719 C 48.195312 130.3125 47.859375 129.839844 47.933594 129.332031 C 48.007812 128.820312 48.472656 128.46875 48.960938 128.542969 C 49.457031 128.613281 49.792969 129.085938 49.71875 129.597656 " fill-opacity="1" fill-rule="nonzero"/></svg>