<svg xmlns="http://www.w3.org/2000/svg" xmlns:xlink="http://www.w3.org/1999/xlink" width="500" zoomAndPan="magnify" viewBox="0 0 375 374.999991" height="500" preserveAspectRatio="xMidYMid meet" version="1.0"><defs><clipPath id="3473005105"><path d="M 41.59375 285.125 L 333.136719 285.125 L 333.136719 375 L 41.59375 375 Z M 41.59375 285.125 " clip-rule="nonzero"/></clipPath><clipPath id="1b4a60c5be"><path d="M 43.765625 221.507812 L 333.136719 221.507812 L 333.136719 363.417969 L 43.765625 363.417969 Z M 43.765625 221.507812 " clip-rule="nonzero"/></clipPath></defs><g clip-path="url(#3473005105)"><path fill="#d8af05" d="M 333.136719 302.300781 C 332.949219 352.050781 303.9375 364.703125 260.144531 367.664062 C 213.5 370.808594 215.222656 358.746094 187.363281 362.9375 C 159.523438 367.136719 151.664062 375.003906 124.410156 375.003906 C 97.160156 375.003906 40.5625 375.527344 41.609375 301.566406 C 41.691406 296.234375 42.550781 290.714844 43.871094 285.242188 C 43.429688 310.820312 49.804688 352.152344 94.015625 360.484375 C 159 372.738281 167.386719 336.710938 199.519531 341.601562 C 231.675781 346.511719 238.488281 361.933594 276.035156 357.003906 C 303.789062 353.332031 324.6875 328.527344 333.136719 302.300781 " fill-opacity="1" fill-rule="nonzero"/></g><g clip-path="url(#1b4a60c5be)"><path fill="#ebbe00" d="M 308.566406 302.445312 C 306.28125 305.59375 303.285156 308.113281 299.804688 309.855469 C 284.542969 317.53125 263.707031 312.183594 247.941406 309.222656 C 222.347656 304.417969 196.1875 297.367188 169.964844 301.230469 C 151.808594 303.894531 134.011719 309.035156 116.027344 312.582031 C 64.667969 322.714844 54.183594 283.5625 76.554688 262.578125 C 92.484375 247.617188 115.4375 242.5625 136.671875 242.289062 C 156.839844 242.035156 176.503906 249.359375 196.730469 246.128906 C 220.839844 242.289062 223.984375 234.253906 244.945312 242.625 C 265.910156 251.019531 269.746094 245.4375 291.292969 245.4375 C 312.84375 245.4375 321.816406 284.253906 308.566406 302.445312 Z M 332.800781 292.121094 C 328.945312 233.894531 294.207031 228.648438 265.40625 223.929688 C 236.605469 219.207031 219.789062 223.929688 203.023438 230.222656 C 193.0625 233.957031 182.726562 232.910156 172.644531 230.246094 C 167.488281 228.882812 162.480469 227.054688 157.320312 225.628906 C 151.179688 223.929688 145.582031 221.976562 139.105469 221.890625 C 123.949219 221.664062 107.808594 222.457031 92.945312 225.628906 C 71.417969 230.246094 57.246094 247.828125 49.554688 267.511719 C 47.394531 273.027344 45.339844 279.09375 43.871094 285.242188 C 43.429688 310.820312 49.804688 352.152344 94.015625 360.484375 C 159 372.738281 167.386719 336.710938 199.519531 341.601562 C 231.675781 346.511719 238.488281 361.933594 276.035156 357.003906 C 303.789062 353.332031 324.6875 328.527344 333.136719 302.300781 C 333.136719 299.070312 333.03125 295.667969 332.800781 292.121094 " fill-opacity="1" fill-rule="nonzero"/></g><path fill="#fdd001" d="M 308.566406 302.445312 C 306.28125 305.59375 303.285156 308.113281 299.804688 309.855469 C 284.542969 317.53125 263.707031 312.183594 247.941406 309.222656 C 222.347656 304.417969 196.1875 297.367188 169.964844 301.230469 C 151.808594 303.894531 134.011719 309.035156 116.027344 312.582031 C 64.667969 322.714844 54.183594 283.5625 76.554688 262.578125 C 92.484375 247.617188 115.4375 242.5625 136.671875 242.289062 C 156.839844 242.035156 176.503906 249.359375 196.730469 246.128906 C 220.839844 242.289062 223.984375 234.253906 244.945312 242.625 C 265.910156 251.019531 269.746094 245.4375 291.292969 245.4375 C 312.84375 245.4375 321.816406 284.253906 308.566406 302.445312 " fill-opacity="1" fill-rule="nonzero"/><path fill="#fdd001" d="M 109.355469 230.125 C 102.367188 229.222656 95.089844 230.691406 89 234.242188 C 86.152344 235.902344 83.265625 238.734375 83.925781 241.964844 C 84.542969 244.96875 88.019531 246.550781 91.082031 246.5 C 98.644531 246.371094 104.363281 239.691406 111.453125 237.054688 C 121.570312 233.289062 132.789062 238.171875 143.558594 237.445312 C 146.910156 237.21875 150.828125 235.882812 151.628906 232.613281 C 152.484375 229.140625 149.09375 225.96875 145.667969 224.964844 C 140.550781 223.464844 135.058594 224.785156 130.023438 226.523438 C 124.988281 228.261719 119.96875 230.589844 114.644531 230.589844 L 109.355469 230.125 " fill-opacity="1" fill-rule="nonzero"/><path fill="#fdd001" d="M 258.355469 242.234375 C 267.339844 242.835938 276.3125 238.808594 285.191406 240.304688 C 286.707031 240.5625 288.214844 240.980469 289.75 240.933594 C 291.285156 240.890625 292.917969 240.28125 293.699219 238.960938 C 294.558594 237.507812 294.136719 235.542969 293.035156 234.265625 C 291.933594 232.988281 290.289062 232.300781 288.640625 231.941406 C 283.570312 230.824219 278.238281 232.402344 273.113281 231.554688 C 269.898438 231.023438 266.929688 229.566406 263.914062 228.34375 C 260.898438 227.113281 257.664062 226.089844 254.4375 226.488281 C 251.203125 226.890625 247.996094 229.0625 247.324219 232.25 C 246.742188 235.007812 248.203125 237.921875 250.4375 239.640625 C 252.671875 241.359375 255.542969 242.046875 258.355469 242.234375 " fill-opacity="1" fill-rule="nonzero"/><path fill="#fdd001" d="M 158.105469 328.011719 C 156.730469 325.769531 154.253906 324.425781 151.746094 323.636719 C 145.941406 321.808594 139.378906 322.539062 134.109375 325.59375 C 129.238281 328.417969 125.414062 333.125 120.042969 334.828125 C 116.050781 336.09375 111.730469 335.515625 107.605469 334.792969 C 103.484375 334.070312 99.269531 333.207031 95.144531 333.933594 C 91.019531 334.660156 86.9375 337.410156 86.03125 341.503906 C 85.097656 345.6875 87.8125 350.03125 91.492188 352.222656 C 95.171875 354.417969 99.605469 354.894531 103.886719 355.046875 C 119.4375 355.613281 135.257812 352.523438 148.925781 345.074219 C 152.113281 343.339844 155.261719 341.289062 157.296875 338.28125 C 159.328125 335.273438 160.003906 331.105469 158.105469 328.011719 " fill-opacity="1" fill-rule="nonzero"/><path fill="#ffd93b" d="M 142.847656 254.945312 C 142.574219 254.691406 142.28125 254.476562 141.976562 254.304688 C 138.074219 252.113281 130.96875 252.390625 126.625 252.445312 C 116.210938 252.578125 105.894531 255.3125 96.507812 259.765625 C 90.511719 262.613281 84.65625 266.3125 80.972656 271.835938 C 77.289062 277.363281 76.242188 285.058594 79.871094 290.621094 C 82.617188 294.835938 87.496094 297.179688 92.367188 298.40625 C 97.238281 299.632812 102.957031 299.742188 106.671875 296.363281 C 111.582031 291.898438 110.546875 284 112.910156 277.792969 C 114.835938 272.75 119.300781 268.753906 124.519531 267.398438 C 128.222656 266.4375 132.121094 266.753906 135.925781 266.367188 C 141.40625 265.8125 149.285156 260.859375 142.847656 254.945312 " fill-opacity="1" fill-rule="nonzero"/><path fill="#b77941" d="M 207.417969 112.660156 C 207.304688 113.816406 207.179688 114.839844 207.035156 115.683594 C 207.035156 115.679688 207.035156 115.660156 207.039062 115.640625 L 207.417969 112.660156 " fill-opacity="1" fill-rule="nonzero"/><path fill="#9b6a5c" d="M 204.816406 98.496094 C 203.421875 98.335938 202.671875 98.464844 201.90625 98.777344 C 201.339844 96.792969 200.597656 95.3125 200.597656 95.3125 C 199.21875 92.015625 196.960938 90.050781 198.730469 87.839844 C 201.5 84.382812 199.597656 82.488281 197.757812 75.855469 C 195.914062 69.21875 193.488281 63.625 187.921875 71.628906 C 183.808594 77.527344 183.214844 86.371094 183.191406 90.597656 C 180.304688 84.910156 181.84375 67.433594 186.476562 60.027344 C 191.410156 52.140625 195.585938 54.625 200.15625 68.078125 C 201.300781 71.441406 202.230469 74.34375 202.925781 76.898438 C 202.929688 76.914062 202.933594 76.917969 202.9375 76.933594 C 205.859375 86.199219 207.644531 98.824219 204.816406 98.496094 " fill-opacity="1" fill-rule="nonzero"/><path fill="#b77941" d="M 204.816406 98.5 C 203.421875 98.335938 202.667969 98.464844 201.90625 98.777344 C 201.117188 99.105469 200.3125 99.628906 198.769531 100.234375 C 195.738281 101.410156 193.246094 102.097656 193.246094 102.097656 C 191.417969 102.746094 189.734375 102.222656 188.496094 99.757812 C 188.496094 99.757812 187.515625 95.871094 183.816406 91.554688 C 183.585938 91.292969 183.382812 90.972656 183.191406 90.597656 C 180.304688 84.914062 181.847656 67.429688 186.480469 60.027344 C 191.410156 52.140625 195.582031 54.628906 200.15625 68.078125 C 201.304688 71.445312 202.230469 74.34375 202.925781 76.898438 C 202.925781 76.914062 202.933594 76.917969 202.9375 76.9375 C 205.859375 86.199219 207.644531 98.824219 204.816406 98.5 Z M 149.984375 96.734375 C 149.941406 97.152344 149.859375 97.527344 149.75 97.851562 C 147.828125 103.203125 148.300781 107.1875 148.300781 107.1875 C 148.023438 109.933594 146.640625 111.019531 144.695312 111.070312 C 144.695312 111.070312 142.125 111.316406 138.875 111.300781 C 137.21875 111.289062 136.277344 111.089844 135.421875 111.066406 C 134.597656 111.046875 133.847656 111.191406 132.609375 111.84375 C 130.082031 113.15625 127.246094 100.726562 126.667969 91.027344 L 126.667969 90.992188 C 126.402344 88.359375 126.238281 85.3125 126.109375 81.761719 C 125.582031 67.5625 128.589844 63.75 136.011719 69.355469 C 142.980469 74.613281 150.65625 90.390625 149.984375 96.734375 Z M 209.355469 138.101562 C 205.15625 131.085938 205.839844 122.730469 207.03125 115.703125 C 207.03125 115.703125 207.03125 115.699219 207.035156 115.683594 C 207.035156 115.679688 207.035156 115.660156 207.039062 115.640625 C 207.0625 115.371094 207.179688 114.152344 207.417969 112.660156 C 207.417969 112.648438 207.417969 112.640625 207.421875 112.625 C 207.832031 110.054688 208.589844 106.664062 209.820312 105.84375 C 211.863281 104.476562 210.753906 95.503906 205.265625 78.886719 C 205.261719 78.882812 205.261719 78.878906 205.257812 78.875 C 205.167969 78.535156 205.078125 78.207031 204.980469 77.882812 C 203.429688 72.570312 201.808594 67.019531 199.839844 62.414062 C 197.433594 56.78125 194.511719 52.566406 190.5625 51.949219 C 183.390625 50.832031 177.871094 73.589844 177.308594 80.441406 C 176.757812 87.28125 173.929688 94.199219 166.925781 95.492188 C 159.925781 96.785156 154.816406 91.339844 151.859375 85.140625 C 148.894531 78.945312 135.621094 59.664062 129.3125 63.269531 C 123.011719 66.875 124.109375 80.390625 125.09375 92.644531 C 125.121094 92.980469 125.15625 93.320312 125.191406 93.667969 C 125.191406 93.671875 125.195312 93.683594 125.191406 93.6875 C 125.988281 111.164062 128.15625 119.941406 130.554688 120.492188 C 131.992188 120.824219 133.910156 123.714844 135.210938 125.96875 C 135.21875 125.980469 135.21875 125.992188 135.230469 126 C 135.984375 127.316406 136.53125 128.402344 136.644531 128.652344 L 136.664062 128.691406 C 136.671875 128.699219 136.671875 128.703125 136.671875 128.703125 C 140.292969 134.84375 143.910156 142.410156 142.492188 150.453125 C 141.175781 157.945312 141.542969 158.785156 146.152344 162.796875 C 146.5 163.097656 146.875 163.414062 147.269531 163.757812 C 152.84375 168.5625 163.988281 170.890625 164.335938 170.964844 C 164.34375 170.964844 164.347656 170.964844 164.347656 170.964844 C 168.496094 172.429688 171.789062 172.203125 171.945312 172.191406 C 170.933594 170.960938 170.675781 169.777344 170.675781 169.777344 C 169.773438 169.878906 168.761719 169.742188 167.769531 169.34375 C 167.769531 169.34375 167.757812 169.339844 167.742188 169.339844 C 167.214844 169.207031 158.738281 167.054688 155.742188 161.191406 C 154.175781 158.125 153.996094 156.171875 154.230469 154.621094 C 154.390625 153.601562 154.730469 152.757812 154.972656 151.890625 C 154.984375 151.875 154.988281 151.855469 154.988281 151.839844 C 155.085938 151.410156 155.171875 150.988281 155.238281 150.578125 C 156.140625 145.417969 154.964844 141.769531 150.863281 137.867188 C 145.652344 132.902344 144.621094 127.746094 149.582031 120.632812 C 154.539062 113.511719 162.5625 110.867188 163.789062 115.449219 C 165.023438 120.023438 167.691406 128.210938 172.785156 127.269531 C 177.878906 126.324219 177.457031 117.726562 176.96875 113.011719 C 176.488281 108.292969 184.925781 107.894531 192.09375 112.773438 C 199.265625 117.644531 200.140625 122.832031 197.042969 129.332031 C 194.609375 134.441406 194.808594 138.273438 197.492188 142.769531 C 197.703125 143.128906 197.933594 143.492188 198.175781 143.859375 C 198.179688 143.871094 198.195312 143.886719 198.210938 143.898438 C 198.746094 144.621094 199.363281 145.289062 199.871094 146.1875 C 200.648438 147.550781 201.183594 149.4375 200.8125 152.863281 C 200.105469 159.410156 192.953125 164.449219 192.503906 164.761719 C 192.492188 164.769531 192.488281 164.777344 192.488281 164.777344 C 191.695312 165.507812 190.800781 165.992188 189.921875 166.21875 C 189.921875 166.21875 190.105469 167.417969 189.597656 168.929688 C 189.75 168.882812 192.90625 167.917969 196.257812 165.066406 C 196.257812 165.066406 196.261719 165.066406 196.265625 165.0625 C 196.558594 164.875 205.730469 158.976562 209.398438 152.652344 C 209.480469 152.511719 209.558594 152.367188 209.636719 152.226562 C 213.183594 145.648438 213.554688 145.117188 209.355469 138.101562 " fill-opacity="1" fill-rule="nonzero"/><path fill="#8e5f4e" d="M 200.597656 95.3125 C 200.597656 95.3125 201.339844 96.792969 201.90625 98.777344 C 201.117188 99.105469 200.3125 99.628906 198.769531 100.230469 C 195.734375 101.414062 193.246094 102.09375 193.246094 102.09375 C 191.414062 102.742188 189.734375 102.222656 188.496094 99.757812 C 188.496094 99.757812 187.515625 95.871094 183.816406 91.558594 C 183.589844 91.292969 183.382812 90.972656 183.191406 90.597656 C 183.214844 86.371094 183.808594 77.527344 187.921875 71.628906 C 193.488281 63.625 195.914062 69.21875 197.757812 75.855469 C 199.597656 82.488281 201.5 84.382812 198.730469 87.839844 C 196.960938 90.050781 199.21875 92.015625 200.597656 95.3125 " fill-opacity="1" fill-rule="nonzero"/><path fill="#2b2b2b" d="M 189.597656 168.929688 C 189.59375 168.929688 189.59375 168.929688 189.59375 168.929688 C 188.910156 170.988281 186.949219 173.628906 181.519531 174.632812 C 176.09375 175.636719 173.320312 173.867188 171.953125 172.191406 C 171.953125 172.191406 171.953125 172.191406 171.945312 172.191406 C 170.933594 170.960938 170.675781 169.777344 170.675781 169.777344 C 171.449219 169.699219 172.136719 169.449219 172.671875 169.058594 C 175.8125 166.769531 179.902344 165.863281 179.902344 165.863281 C 179.902344 165.863281 184.050781 165.25 187.804688 166.261719 C 188.441406 166.4375 189.175781 166.425781 189.921875 166.21875 C 189.921875 166.21875 190.105469 167.417969 189.597656 168.929688 " fill-opacity="1" fill-rule="nonzero"/><path fill="#b77941" d="M 136.667969 128.6875 C 136.230469 127.953125 135.746094 127.042969 135.230469 126 L 136.667969 128.6875 " fill-opacity="1" fill-rule="nonzero"/><path fill="#9b6a5c" d="M 149.984375 96.734375 C 148.457031 92.796875 144.746094 84.75 138.804688 80.703125 C 130.742188 75.21875 130.476562 81.3125 131.121094 88.167969 C 131.769531 95.023438 130.667969 97.472656 134.492188 99.710938 C 136.929688 101.140625 135.523438 103.789062 135.410156 107.359375 C 135.410156 107.359375 135.242188 109.007812 135.425781 111.066406 C 134.597656 111.046875 133.847656 111.191406 132.609375 111.839844 C 130.082031 113.160156 127.246094 100.726562 126.667969 91.027344 C 126.667969 91.015625 126.667969 91.003906 126.667969 90.992188 C 126.402344 88.355469 126.238281 85.316406 126.105469 81.765625 C 125.578125 67.5625 128.589844 63.75 136.011719 69.355469 C 142.980469 74.613281 150.65625 90.390625 149.984375 96.734375 " fill-opacity="1" fill-rule="nonzero"/><path fill="#343433" d="M 183.453125 123.242188 C 183.453125 123.242188 181.960938 117.277344 185.179688 115.832031 C 188.398438 114.382812 190.734375 115.734375 192.890625 118.59375 C 192.890625 118.59375 191.960938 124.882812 183.453125 123.242188 Z M 187.542969 151.039062 C 187.515625 155.078125 185.933594 156.996094 184.261719 155.058594 C 182.585938 153.121094 181.589844 153.148438 181.117188 155.640625 C 180.648438 158.128906 184.050781 156.03125 182.894531 158.566406 C 181.917969 160.707031 179.875 161.992188 179.253906 162.351562 C 179.25 162.351562 179.25 162.351562 179.25 162.351562 C 178.535156 162.238281 176.175781 161.761719 174.507812 160.117188 C 172.519531 158.160156 176.453125 158.902344 175.125 156.746094 C 173.800781 154.589844 172.851562 154.917969 171.980469 157.328125 C 171.105469 159.738281 168.945312 158.507812 167.480469 154.75 C 166.011719 150.996094 169.011719 147.953125 171.347656 147.601562 C 173.632812 147.261719 174.972656 147.828125 176.429688 147.589844 C 177.882812 147.289062 179.125 146.246094 181.386719 145.75 C 183.691406 145.242188 187.578125 147.007812 187.542969 151.039062 Z M 161.386719 127.320312 C 154.023438 131.894531 150.910156 126.351562 150.910156 126.351562 C 151.902344 122.914062 153.605469 120.8125 157.125 121.019531 C 160.648438 121.21875 161.386719 127.320312 161.386719 127.320312 Z M 198.207031 143.902344 C 198.195312 143.886719 198.183594 143.871094 198.175781 143.859375 C 197.921875 143.519531 197.691406 143.167969 197.492188 142.773438 C 194.808594 138.273438 194.609375 134.441406 197.042969 129.332031 C 200.140625 122.832031 199.265625 117.648438 192.09375 112.773438 C 184.925781 107.894531 176.488281 108.292969 176.972656 113.011719 C 177.457031 117.726562 177.882812 126.328125 172.789062 127.269531 C 167.691406 128.210938 165.023438 120.023438 163.792969 115.445312 C 162.5625 110.867188 154.539062 113.511719 149.582031 120.632812 C 144.621094 127.746094 145.652344 132.902344 150.863281 137.867188 C 154.960938 141.769531 156.140625 145.417969 155.238281 150.578125 C 155.195312 151.019531 155.105469 151.433594 154.988281 151.839844 C 154.988281 151.855469 154.980469 151.875 154.972656 151.886719 C 154.78125 152.753906 154.53125 153.660156 154.234375 154.621094 C 153.996094 156.171875 154.175781 158.125 155.738281 161.191406 C 158.734375 167.054688 167.214844 169.207031 167.742188 169.339844 C 167.757812 169.339844 167.765625 169.34375 167.765625 169.34375 C 168.761719 169.742188 169.777344 169.878906 170.675781 169.777344 C 171.449219 169.699219 172.136719 169.449219 172.671875 169.058594 C 175.8125 166.773438 179.90625 165.863281 179.90625 165.863281 C 179.90625 165.863281 184.050781 165.25 187.800781 166.261719 C 188.441406 166.4375 189.175781 166.425781 189.921875 166.21875 C 190.800781 165.992188 191.699219 165.503906 192.484375 164.773438 C 192.484375 164.773438 192.492188 164.769531 192.503906 164.761719 C 192.953125 164.449219 200.105469 159.410156 200.8125 152.859375 C 201.179688 149.4375 200.652344 147.550781 199.875 146.1875 C 199.253906 145.394531 198.695312 144.636719 198.207031 143.902344 " fill-opacity="1" fill-rule="nonzero"/><path fill="#212121" d="M 187.542969 151.039062 C 187.515625 155.078125 185.933594 156.996094 184.261719 155.058594 C 182.585938 153.121094 181.589844 153.148438 181.117188 155.640625 C 180.648438 158.128906 184.050781 156.03125 182.894531 158.566406 C 181.917969 160.707031 179.875 161.992188 179.253906 162.351562 C 179.25 162.351562 179.25 162.351562 179.25 162.351562 C 178.535156 162.238281 176.175781 161.761719 174.507812 160.117188 C 172.519531 158.160156 176.453125 158.902344 175.125 156.746094 C 173.800781 154.589844 172.851562 154.917969 171.980469 157.328125 C 171.105469 159.738281 168.945312 158.507812 167.480469 154.75 C 166.011719 150.996094 169.011719 147.953125 171.347656 147.601562 C 173.632812 147.261719 174.972656 147.828125 176.429688 147.589844 C 177.882812 147.289062 179.125 146.246094 181.386719 145.75 C 183.691406 145.242188 187.578125 147.007812 187.542969 151.039062 " fill-opacity="1" fill-rule="nonzero"/><path fill="#212121" d="M 161.386719 127.320312 C 154.023438 131.894531 150.910156 126.351562 150.910156 126.351562 C 151.082031 125.761719 151.273438 125.210938 151.488281 124.703125 C 152.539062 122.261719 154.210938 120.851562 157.125 121.019531 C 158.980469 121.125 160.066406 122.867188 160.675781 124.496094 C 161.222656 125.957031 161.386719 127.320312 161.386719 127.320312 " fill-opacity="1" fill-rule="nonzero"/><path fill="#212121" d="M 192.890625 118.59375 C 192.890625 118.59375 191.960938 124.882812 183.453125 123.242188 C 183.453125 123.242188 181.960938 117.277344 185.179688 115.832031 C 188.398438 114.382812 190.734375 115.734375 192.890625 118.59375 " fill-opacity="1" fill-rule="nonzero"/><path fill="#8e5f4e" d="M 149.984375 96.734375 C 149.941406 97.152344 149.863281 97.527344 149.746094 97.851562 C 147.832031 103.207031 148.300781 107.1875 148.300781 107.1875 C 148.019531 109.929688 146.636719 111.019531 144.695312 111.066406 C 144.695312 111.066406 142.125 111.316406 138.871094 111.300781 C 137.21875 111.289062 136.277344 111.089844 135.425781 111.066406 C 135.242188 109.007812 135.410156 107.359375 135.410156 107.359375 C 135.523438 103.789062 136.929688 101.140625 134.492188 99.710938 C 130.667969 97.472656 131.769531 95.023438 131.121094 88.167969 C 130.476562 81.3125 130.742188 75.21875 138.804688 80.703125 C 144.746094 84.75 148.457031 92.796875 149.984375 96.734375 " fill-opacity="1" fill-rule="nonzero"/><path fill="#603913" d="M 160.675781 124.496094 C 160.457031 126.46875 158.96875 128.160156 156.910156 128.539062 C 154.390625 129.003906 151.972656 127.335938 151.507812 124.816406 L 151.488281 124.703125 C 152.539062 122.261719 154.210938 120.851562 157.125 121.019531 C 158.980469 121.125 160.066406 122.867188 160.675781 124.496094 " fill-opacity="1" fill-rule="nonzero"/><path fill="#212121" d="M 154.425781 125.148438 C 154.246094 124.15625 154.898438 123.203125 155.894531 123.019531 C 156.882812 122.835938 157.839844 123.492188 158.023438 124.484375 C 158.203125 125.476562 157.546875 126.433594 156.554688 126.617188 C 155.5625 126.800781 154.613281 126.144531 154.425781 125.148438 " fill-opacity="1" fill-rule="nonzero"/><path fill="#f1f2f2" d="M 152.648438 124.316406 C 152.523438 123.632812 152.972656 122.976562 153.65625 122.851562 C 154.339844 122.726562 154.992188 123.175781 155.117188 123.859375 C 155.242188 124.542969 154.792969 125.199219 154.109375 125.324219 C 153.429688 125.449219 152.773438 124.996094 152.648438 124.316406 " fill-opacity="1" fill-rule="nonzero"/><path fill="#603913" d="M 183.089844 120.351562 C 184.003906 122.117188 185.992188 123.164062 188.050781 122.78125 C 190.570312 122.316406 192.230469 119.894531 191.769531 117.378906 L 191.75 117.265625 C 189.894531 115.359375 187.832031 114.636719 185.167969 115.835938 C 183.472656 116.601562 183.082031 118.617188 183.089844 120.351562 " fill-opacity="1" fill-rule="nonzero"/><path fill="#212121" d="M 189.160156 118.730469 C 188.980469 117.738281 188.027344 117.078125 187.035156 117.265625 C 186.039062 117.449219 185.386719 118.402344 185.566406 119.394531 C 185.75 120.390625 186.703125 121.046875 187.699219 120.859375 C 188.6875 120.679688 189.34375 119.722656 189.160156 118.730469 " fill-opacity="1" fill-rule="nonzero"/><path fill="#f1f2f2" d="M 190.527344 117.316406 C 190.402344 116.632812 189.746094 116.179688 189.0625 116.308594 C 188.378906 116.433594 187.929688 117.089844 188.054688 117.773438 C 188.179688 118.457031 188.835938 118.90625 189.519531 118.78125 C 190.203125 118.652344 190.652344 118 190.527344 117.316406 " fill-opacity="1" fill-rule="nonzero"/><path fill="#b77941" d="M 288.175781 295.457031 C 287.269531 297.855469 285.453125 303.625 280.503906 306.347656 C 276.855469 308.351562 271.644531 307.945312 269.0625 306.574219 C 268.132812 306.082031 267.539062 305.46875 267.484375 304.792969 C 267.28125 302.246094 269.71875 297.109375 269.71875 297.109375 C 270.378906 295.605469 269.671875 294.921875 267.050781 298.617188 C 265.363281 300.992188 264.019531 305.089844 263.273438 307.71875 C 261.664062 307.398438 259.921875 306.484375 258.546875 303.917969 C 258.175781 303.214844 257.949219 302.53125 257.835938 301.875 C 257.3125 298.777344 259.230469 296.332031 259.230469 296.332031 C 260.042969 294.902344 259.714844 294.535156 257.746094 295.605469 C 256.714844 296.171875 255.6875 297.5 254.945312 298.632812 C 254.886719 298.542969 254.820312 298.460938 254.761719 298.375 C 252.625 295.457031 254.953125 292.152344 259.421875 288.589844 C 263.890625 285.023438 263.308594 277.957031 260.003906 272.511719 C 256.703125 267.066406 239.800781 250.796875 228.402344 239.128906 C 217.007812 227.460938 213.121094 230.3125 207.226562 232.03125 C 201.328125 233.753906 189.546875 236.796875 180.316406 235.5 C 171.082031 234.203125 167.53125 230.054688 161.390625 233.164062 C 155.246094 236.277344 135.148438 255.980469 128.933594 262.980469 C 122.714844 269.984375 114.816406 278.539062 112.351562 278.023438 C 109.894531 277.503906 108.988281 277.890625 105.625 282.300781 C 102.261719 286.707031 98.238281 290.59375 92.539062 290.59375 C 86.839844 290.59375 80.878906 292.023438 76.996094 290.59375 C 76.34375 290.359375 75.949219 289.890625 75.742188 289.277344 C 74.691406 286.203125 78.292969 279.449219 78.292969 279.449219 C 79.148438 277.664062 77.675781 278.003906 75.550781 280.96875 C 74.082031 283.015625 72.832031 286.796875 72.199219 288.945312 C 70.886719 288.625 69.652344 288.03125 68.835938 286.96875 C 68.507812 286.542969 68.308594 286.066406 68.222656 285.554688 C 67.5625 282.003906 71.816406 276.855469 71.816406 276.855469 C 72.511719 275.121094 70.488281 275.964844 68.148438 279.121094 C 66.804688 280.941406 65.800781 283.023438 65.195312 284.453125 C 62.332031 282.535156 62.152344 278.714844 64.5625 275.558594 C 67.929688 271.148438 70.910156 263.761719 81.789062 267.390625 C 92.667969 271.019531 97.070312 261.6875 110.542969 248.203125 C 124.011719 234.722656 141.882812 209.308594 140.441406 201.273438 C 139.957031 198.570312 139.816406 195.808594 139.835938 193.148438 C 142.371094 194.964844 145.304688 196.558594 148.359375 197.253906 C 155.226562 198.808594 158.980469 196.605469 152.628906 189.996094 C 148.167969 185.355469 145.125 174.59375 143.707031 168.578125 C 144.25 167.226562 144.808594 165.890625 145.351562 164.644531 C 147.394531 167.414062 152.042969 173.238281 156.082031 174.925781 C 161.445312 177.160156 163.253906 175.734375 165.585938 177.550781 C 167.917969 179.359375 173.355469 183.511719 175.300781 182.082031 C 177.242188 180.660156 181.65625 178.714844 188 176.121094 C 194.339844 173.527344 197.253906 171.714844 199.488281 168.472656 C 201.644531 165.34375 208.863281 159.976562 209.585938 152.996094 C 212.03125 157.570312 214.058594 165.484375 212.398438 173.011719 C 210.257812 182.734375 212.988281 190.640625 217.007812 186.359375 C 221.019531 182.082031 224.003906 176.382812 225.554688 165.679688 C 227.109375 154.980469 229.957031 158.101562 233.972656 164.324219 C 237.988281 170.550781 239.800781 178.453125 239.800781 187.011719 C 239.800781 195.566406 236.175781 201.015625 241.617188 201.792969 C 242.726562 201.949219 243.710938 202.085938 244.601562 202.304688 C 248.0625 203.152344 250.128906 205.21875 253.011719 214.5 C 256.640625 226.164062 276.714844 266.484375 280.210938 269.335938 C 283.707031 272.1875 283.578125 272.449219 284.484375 276.855469 C 285.394531 281.261719 289.085938 293.0625 288.175781 295.457031 " fill-opacity="1" fill-rule="nonzero"/><path fill="#5c3d21" d="M 71.816406 276.855469 C 71.816406 276.855469 67.5625 282.003906 68.222656 285.554688 C 67 285.371094 65.992188 284.988281 65.195312 284.453125 C 65.800781 283.023438 66.804688 280.941406 68.148438 279.121094 C 70.488281 275.964844 72.511719 275.121094 71.816406 276.855469 " fill-opacity="1" fill-rule="nonzero"/><path fill="#343433" d="M 148.359375 197.253906 C 145.304688 196.558594 142.371094 194.964844 139.835938 193.148438 C 139.871094 187.890625 140.539062 183.019531 140.441406 179.75 C 140.375 177.550781 141.949219 172.972656 143.707031 168.578125 C 145.125 174.59375 148.167969 185.355469 152.628906 189.996094 C 158.980469 196.605469 155.226562 198.808594 148.359375 197.253906 " fill-opacity="1" fill-rule="nonzero"/><path fill="#895b31" d="M 209.585938 152.992188 L 209.585938 152.996094 C 208.863281 159.976562 201.644531 165.34375 199.488281 168.472656 C 197.253906 171.714844 194.339844 173.527344 188 176.121094 C 181.65625 178.714844 177.242188 180.660156 175.300781 182.082031 C 173.355469 183.511719 167.917969 179.359375 165.585938 177.550781 C 163.253906 175.734375 161.445312 177.160156 156.082031 174.925781 C 152.042969 173.238281 147.394531 167.414062 145.351562 164.644531 C 145.625 164 145.894531 163.378906 146.152344 162.796875 C 146.5 163.097656 146.875 163.414062 147.269531 163.757812 C 152.84375 168.5625 163.988281 170.890625 164.335938 170.964844 C 164.34375 170.964844 164.347656 170.964844 164.347656 170.964844 C 168.496094 172.429688 171.789062 172.203125 171.945312 172.191406 C 171.953125 172.191406 171.953125 172.191406 171.953125 172.191406 C 173.320312 173.867188 176.09375 175.636719 181.519531 174.632812 C 186.949219 173.628906 188.910156 170.988281 189.59375 168.929688 C 189.59375 168.929688 189.59375 168.929688 189.597656 168.929688 C 189.75 168.882812 192.90625 167.917969 196.257812 165.066406 C 196.257812 165.066406 196.261719 165.066406 196.265625 165.0625 C 196.558594 164.875 205.730469 158.976562 209.398438 152.652344 C 209.460938 152.761719 209.523438 152.878906 209.585938 152.992188 " fill-opacity="1" fill-rule="nonzero"/><path fill="#343433" d="M 248.910156 170.65625 C 251.378906 185.328125 247.4375 196.550781 244.601562 202.304688 C 243.710938 202.085938 242.726562 201.949219 241.617188 201.792969 C 236.175781 201.015625 239.800781 195.566406 239.800781 187.011719 C 239.800781 178.453125 237.988281 170.550781 233.972656 164.324219 C 229.957031 158.101562 227.109375 154.980469 225.554688 165.679688 C 224.003906 176.382812 221.019531 182.082031 217.007812 186.359375 C 212.988281 190.640625 210.257812 182.734375 212.398438 173.011719 C 214.058594 165.484375 212.03125 157.570312 209.585938 152.996094 L 209.585938 152.992188 C 209.523438 152.878906 209.460938 152.761719 209.398438 152.652344 C 209.480469 152.511719 209.558594 152.367188 209.636719 152.226562 C 213.183594 145.648438 213.554688 145.117188 209.355469 138.101562 C 205.15625 131.085938 205.839844 122.730469 207.03125 115.703125 C 207.03125 115.703125 207.03125 115.699219 207.035156 115.683594 C 207.179688 114.839844 207.304688 113.816406 207.417969 112.660156 C 207.417969 112.648438 207.417969 112.640625 207.421875 112.625 C 207.832031 110.054688 208.589844 106.664062 209.820312 105.84375 C 211.863281 104.476562 210.753906 95.503906 205.265625 78.886719 C 205.261719 78.882812 205.261719 78.878906 205.257812 78.875 C 205.167969 78.535156 205.078125 78.207031 204.980469 77.882812 C 203.429688 72.570312 201.808594 67.019531 199.839844 62.414062 C 202.742188 61.03125 222.925781 51.949219 237.859375 58.792969 C 241.957031 60.667969 245.578125 62.230469 248.824219 63.949219 C 251.261719 65.230469 253.488281 66.605469 255.546875 68.261719 C 243.707031 71.167969 242.625 77.074219 245.90625 87.960938 C 249.429688 99.628906 248.871094 109.742188 245.90625 125.347656 C 245.867188 125.574219 245.824219 125.800781 245.785156 126.023438 C 243.019531 141.179688 245.296875 149.214844 248.910156 170.65625 " fill-opacity="1" fill-rule="nonzero"/><path fill="#a36536" d="M 294.199219 184.675781 C 292.386719 190.640625 286.367188 189.082031 281.667969 188.5 C 284.777344 188.304688 287.035156 181.207031 286.097656 173.625 C 285.585938 169.453125 284.296875 164.964844 283.242188 161.761719 C 283.734375 161.484375 284.234375 161.167969 284.746094 160.824219 C 289.667969 157.453125 291.417969 154.339844 291.769531 159.914062 C 292.128906 165.492188 296.011719 178.714844 294.199219 184.675781 " fill-opacity="1" fill-rule="nonzero"/><path fill="#5c3d21" d="M 280.695312 198.226562 C 280.527344 199.460938 280.191406 201.347656 280.660156 202.8125 C 279.988281 202.851562 279.183594 202.867188 278.292969 202.816406 C 278.449219 201.65625 278.761719 199.988281 279.304688 198.9375 C 280.210938 197.1875 280.824219 197.265625 280.695312 198.226562 " fill-opacity="1" fill-rule="nonzero"/><path fill="#b77941" d="M 303.136719 193.945312 C 302.359375 202.113281 298.605469 203.863281 294.199219 204.125 C 292.167969 204.246094 290.765625 203.878906 289.910156 203.050781 C 288.914062 202.085938 288.664062 200.488281 289.042969 198.292969 C 289.296875 196.796875 288.015625 197.121094 287.335938 199.523438 C 286.933594 200.953125 286.859375 203.042969 286.867188 204.492188 C 285.953125 204.777344 284.953125 204.957031 283.902344 204.933594 C 281.949219 204.890625 281.039062 203.992188 280.660156 202.8125 C 280.191406 201.347656 280.527344 199.460938 280.695312 198.226562 C 280.824219 197.265625 280.210938 197.1875 279.304688 198.9375 C 278.761719 199.988281 278.449219 201.65625 278.292969 202.816406 C 277.507812 202.769531 276.648438 202.675781 275.742188 202.503906 C 275.742188 202.503906 272.925781 202.503906 274.480469 196.667969 C 276.035156 190.835938 278.558594 188.695312 281.667969 188.5 C 286.367188 189.082031 292.386719 190.640625 294.199219 184.675781 C 296.011719 178.714844 292.128906 165.492188 291.769531 159.914062 C 291.417969 154.339844 289.667969 157.453125 284.746094 160.824219 C 284.234375 161.167969 283.734375 161.484375 283.242188 161.761719 C 278.949219 164.179688 274.964844 163.960938 267.648438 160.824219 C 259.488281 157.324219 261.171875 153.5625 255.992188 141.632812 C 252.722656 134.113281 248.476562 128.871094 245.785156 126.023438 C 245.824219 125.800781 245.867188 125.574219 245.90625 125.347656 C 248.871094 109.742188 249.429688 99.628906 245.90625 87.960938 C 242.625 77.074219 243.707031 71.167969 255.546875 68.261719 C 256.777344 69.246094 257.945312 70.335938 259.066406 71.566406 C 259.921875 72.5 260.75 73.53125 261.550781 74.652344 C 264.851562 79.269531 267.734375 85.605469 270.496094 94.941406 C 276.4375 115.023438 281.925781 131.054688 284.089844 139.777344 C 284.761719 142.46875 285.113281 144.460938 285.066406 145.664062 C 284.875 150.773438 287.097656 150.191406 288.320312 146.882812 C 289.128906 144.691406 289.273438 141.980469 288.671875 139.238281 C 291.578125 139.285156 294.503906 140.246094 295.558594 143.578125 C 297.890625 150.96875 300.417969 170.609375 303.136719 176.445312 C 305.855469 182.277344 303.914062 185.777344 303.136719 193.945312 " fill-opacity="1" fill-rule="nonzero"/><path fill="#2d2d2d" d="M 324.25 23.011719 C 320.230469 33.773438 320.105469 33.121094 320.105469 35.066406 C 320.105469 37.011719 317.898438 35.476562 317.773438 38.125 C 317.644531 40.773438 315.3125 40.902344 315.179688 42.328125 C 315.050781 43.753906 312.71875 43.367188 312.332031 45.179688 C 311.945312 46.996094 305.078125 56.199219 292.777344 62.554688 C 280.472656 68.902344 276.066406 67.609375 275.808594 69.554688 C 275.546875 71.5 272.441406 70.460938 272.441406 70.847656 C 272.441406 71.152344 264.976562 72.015625 259.066406 71.566406 C 257.945312 70.335938 256.777344 69.246094 255.546875 68.261719 C 253.488281 66.605469 251.261719 65.230469 248.824219 63.949219 C 261.152344 61.160156 294.84375 51.816406 304.539062 31.175781 C 316.476562 5.769531 321.398438 3.695312 323.730469 0.585938 C 324.15625 0.0117188 324.597656 0.140625 325.050781 0.773438 C 325.96875 6.003906 327.019531 15.589844 324.25 23.011719 " fill-opacity="1" fill-rule="nonzero"/><path fill="#a36536" d="M 328.136719 32.550781 C 326.0625 35.589844 328.652344 35.84375 327.613281 37.398438 C 326.582031 38.957031 327.359375 40.773438 325.542969 42.589844 C 323.730469 44.402344 327.359375 46.734375 323.472656 48.292969 C 319.585938 49.847656 322.175781 54.539062 318.03125 55.5625 C 313.886719 56.589844 306.558594 64.371094 294.679688 70.332031 C 283.832031 75.777344 273.0625 77.546875 261.550781 74.652344 C 260.75 73.53125 259.921875 72.5 259.066406 71.566406 C 264.976562 72.015625 272.441406 71.152344 272.441406 70.847656 C 272.441406 70.460938 275.546875 71.5 275.808594 69.554688 C 276.066406 67.609375 280.472656 68.902344 292.777344 62.554688 C 305.078125 56.199219 311.945312 46.996094 312.332031 45.179688 C 312.71875 43.367188 315.050781 43.753906 315.179688 42.328125 C 315.3125 40.902344 317.644531 40.773438 317.773438 38.125 C 317.898438 35.476562 320.105469 37.011719 320.105469 35.066406 C 320.105469 33.121094 320.230469 33.773438 324.25 23.011719 C 327.019531 15.589844 325.96875 6.003906 325.050781 0.773438 C 327.027344 3.609375 329.011719 16.578125 329.429688 23.144531 C 329.945312 31.175781 330.207031 29.515625 328.136719 32.550781 " fill-opacity="1" fill-rule="nonzero"/><path fill="#5c3d21" d="M 78.292969 279.449219 C 78.292969 279.449219 74.691406 286.203125 75.742188 289.277344 C 74.679688 289.308594 73.410156 289.242188 72.199219 288.945312 C 72.832031 286.796875 74.082031 283.015625 75.550781 280.96875 C 77.675781 278.003906 79.148438 277.664062 78.292969 279.449219 " fill-opacity="1" fill-rule="nonzero"/><path fill="#5c3d21" d="M 259.230469 296.332031 C 259.230469 296.332031 257.3125 298.777344 257.835938 301.875 C 256.832031 301.296875 256.125 300.25 254.945312 298.632812 C 255.6875 297.5 256.714844 296.171875 257.746094 295.605469 C 259.714844 294.535156 260.042969 294.902344 259.230469 296.332031 " fill-opacity="1" fill-rule="nonzero"/><path fill="#5c3d21" d="M 269.71875 297.109375 C 269.71875 297.109375 267.28125 302.246094 267.484375 304.792969 C 267.539062 305.46875 268.132812 306.082031 269.0625 306.574219 C 267.976562 307.257812 266.695312 307.902344 265.738281 307.902344 C 265.011719 307.902344 264.164062 307.902344 263.273438 307.71875 C 264.019531 305.089844 265.363281 300.992188 267.050781 298.617188 C 269.671875 294.921875 270.378906 295.605469 269.71875 297.109375 " fill-opacity="1" fill-rule="nonzero"/><path fill="#5c3d21" d="M 289.910156 203.050781 C 289.097656 203.574219 288.054688 204.121094 286.867188 204.492188 C 286.859375 203.042969 286.933594 200.953125 287.335938 199.523438 C 288.015625 197.121094 289.296875 196.796875 289.042969 198.292969 C 288.664062 200.488281 288.914062 202.085938 289.910156 203.050781 " fill-opacity="1" fill-rule="nonzero"/><path fill="#a36536" d="M 288.320312 146.882812 C 287.097656 150.191406 284.875 150.773438 285.066406 145.664062 C 285.113281 144.460938 284.761719 142.46875 284.089844 139.777344 C 285.367188 139.480469 287.015625 139.210938 288.671875 139.238281 C 289.273438 141.980469 289.128906 144.691406 288.320312 146.882812 " fill-opacity="1" fill-rule="nonzero"/></svg>