<svg xmlns="http://www.w3.org/2000/svg" xmlns:xlink="http://www.w3.org/1999/xlink" width="500" zoomAndPan="magnify" viewBox="0 0 375 374.999991" height="500" preserveAspectRatio="xMidYMid meet" version="1.0"><defs><clipPath id="a2ff604e32"><path d="M 13 22.03125 L 293 22.03125 L 293 193 L 13 193 Z M 13 22.03125 " clip-rule="nonzero"/></clipPath><clipPath id="da5723925d"><path d="M 61 234 L 342 234 L 342 352.78125 L 61 352.78125 Z M 61 234 " clip-rule="nonzero"/></clipPath></defs><path fill="#e0bd82" d="M 350.792969 147.949219 C 357.222656 142.734375 364.042969 119.757812 358.445312 104.191406 C 350.597656 82.363281 326.128906 70.996094 310.421875 107.574219 C 307.945312 113.335938 312.335938 113.71875 313.71875 112.183594 C 318.28125 107.140625 324.941406 94.53125 335.175781 103.113281 C 345.945312 112.136719 330.027344 125.382812 323.886719 130.210938 C 309.222656 127.144531 295.277344 122.3125 280.519531 119.523438 C 259.261719 115.542969 236.976562 117.441406 215.660156 119.921875 C 179.535156 122.335938 146.050781 130.808594 121.796875 153.425781 C 101.230469 168.628906 106.65625 198.855469 109.324219 218.703125 C 111.601562 235.753906 111.226562 252.875 113.695312 269.929688 C 115.015625 279.105469 117.949219 303.074219 134.757812 303.308594 C 161.433594 303.675781 165.929688 269.589844 166.871094 254.441406 C 167.191406 244.597656 173.972656 252.800781 176.578125 257.09375 C 181.066406 264.550781 182.84375 273.195312 184.308594 281.308594 C 185.527344 288.3125 187.40625 301.125 198.078125 303.363281 C 208.855469 305.554688 218.316406 301.363281 222.363281 293.179688 C 225.230469 287.335938 226.367188 281.046875 229.535156 275.28125 C 234.265625 266.683594 242.90625 260.152344 251.90625 254.441406 C 265.660156 248.65625 279.203125 247.566406 289.304688 258.25 C 296.550781 265.992188 300.324219 275.753906 304.957031 284.613281 C 311.632812 297.226562 324.847656 310.785156 341.785156 298.542969 C 350.878906 291.972656 355.347656 281.113281 358.988281 272.011719 C 364.226562 258.929688 367.101562 245.222656 369.375 231.640625 C 374.480469 201.308594 371.136719 174.582031 350.792969 147.949219 " fill-opacity="1" fill-rule="nonzero"/><path fill="#311f16" d="M 72 32.671875 L 86.449219 52.652344 L 60.753906 75.355469 L 46.640625 43.015625 " fill-opacity="1" fill-rule="nonzero"/><path fill="#311f16" d="M 234.71875 32.671875 L 220.273438 52.652344 L 245.976562 75.355469 L 260.074219 43.015625 " fill-opacity="1" fill-rule="nonzero"/><g clip-path="url(#a2ff604e32)"><path fill="#e0bd82" d="M 153.082031 22 C 130.671875 22.492188 65.140625 28.085938 13.433594 74.144531 C 13.433594 74.144531 19.003906 106.101562 36.417969 139.449219 C 44.753906 158.191406 60.164062 178.007812 79.082031 192.175781 L 226.679688 192.175781 C 244.980469 177.65625 264.242188 154.277344 269.734375 139.449219 C 287.148438 106.101562 292.722656 74.144531 292.722656 74.144531 C 241.007812 28.085938 175.496094 22.492188 153.082031 22 " fill-opacity="1" fill-rule="nonzero"/></g><path fill="#5a3d2e" d="M 72 32.671875 C 72 32.671875 22.605469 46.265625 0.414062 83.46875 C 0.414062 83.46875 14.535156 161.480469 34.925781 156.777344 C 39.585938 155.707031 89.902344 107.441406 72 32.671875 " fill-opacity="1" fill-rule="nonzero"/><path fill="#c9a974" d="M 115.550781 78.167969 C 105.949219 75.007812 96.71875 88.003906 82.324219 105.214844 L 82.324219 117.804688 C 94.75 104.628906 106.246094 97.035156 106.246094 97.035156 C 128.542969 133.535156 128.222656 168.722656 122.84375 193.195312 C 138.398438 174.6875 138.9375 85.863281 115.550781 78.167969 " fill-opacity="1" fill-rule="nonzero"/><path fill="#c9a974" d="M 191.023438 78.167969 C 200.628906 75.007812 209.855469 88.003906 224.257812 105.214844 L 224.257812 117.804688 C 211.832031 104.628906 200.328125 97.035156 200.328125 97.035156 C 178.035156 133.535156 178.355469 168.722656 183.730469 193.195312 C 168.175781 174.6875 167.636719 85.863281 191.023438 78.167969 " fill-opacity="1" fill-rule="nonzero"/><path fill="#5a3d2e" d="M 234.78125 32.671875 C 234.78125 32.671875 284.171875 46.265625 306.367188 83.46875 C 306.367188 83.46875 292.238281 161.480469 271.851562 156.777344 C 267.199219 155.707031 216.886719 107.441406 234.78125 32.671875 " fill-opacity="1" fill-rule="nonzero"/><path fill="#503528" d="M 153.367188 130.285156 L 153.351562 129.457031 C 153.265625 129.597656 153.160156 129.726562 153.070312 129.859375 C 152.980469 129.726562 152.878906 129.597656 152.78125 129.457031 L 152.78125 130.285156 C 134.863281 156.601562 116.289062 178.269531 80.359375 192.210938 C 80.601562 192.117188 86.050781 194.652344 87.269531 194.902344 C 95.4375 196.5625 103.179688 199.46875 111.457031 200.726562 C 120.269531 202.070312 129.148438 202.871094 138.019531 203.722656 C 153.5625 205.195312 169.355469 203.894531 184.855469 202.449219 C 193.328125 201.65625 202.261719 201.398438 210.429688 198.84375 C 215.367188 197.300781 221.429688 195.300781 225.542969 192.113281 C 189.769531 178.171875 171.230469 156.546875 153.367188 130.285156 " fill-opacity="1" fill-rule="nonzero"/><path fill="#442c20" d="M 118.613281 114.175781 C 118.613281 101.527344 108.351562 91.269531 95.691406 91.269531 C 83.035156 91.269531 72.773438 101.527344 72.773438 114.175781 C 72.773438 126.828125 83.035156 137.082031 95.691406 137.082031 C 108.351562 137.082031 118.613281 126.828125 118.613281 114.175781 " fill-opacity="1" fill-rule="nonzero"/><path fill="#ffffff" d="M 105.648438 94.914062 C 111.171875 98.835938 114.785156 105.261719 114.785156 112.546875 C 114.785156 124.5 105.085938 134.183594 93.128906 134.183594 C 89.636719 134.183594 86.351562 133.339844 83.4375 131.875 C 86.972656 134.386719 91.289062 135.882812 95.960938 135.882812 C 107.914062 135.882812 117.613281 126.199219 117.613281 114.242188 C 117.613281 105.78125 112.734375 98.46875 105.648438 94.914062 " fill-opacity="1" fill-rule="nonzero"/><path fill="#ffffff" d="M 88.457031 108.847656 C 90.777344 104.097656 90.339844 99.109375 87.488281 97.710938 C 84.632812 96.324219 80.433594 99.050781 78.117188 103.804688 C 75.792969 108.558594 76.226562 113.539062 79.082031 114.9375 C 81.9375 116.328125 86.132812 113.601562 88.457031 108.847656 " fill-opacity="1" fill-rule="nonzero"/><path fill="#61483a" d="M 99.277344 131.71875 C 98.46875 131.71875 97.789062 131.457031 97.382812 130.917969 C 96.425781 129.660156 97.359375 127.351562 99.464844 125.761719 C 100.671875 124.851562 102.003906 124.375 103.097656 124.375 C 103.910156 124.375 104.59375 124.636719 104.996094 125.171875 C 105.949219 126.433594 105.015625 128.738281 102.910156 130.332031 C 101.703125 131.246094 100.375 131.71875 99.277344 131.71875 " fill-opacity="1" fill-rule="nonzero"/><path fill="#442c20" d="M 234.074219 113.859375 C 234.074219 101.378906 223.957031 91.269531 211.472656 91.269531 C 198.996094 91.269531 188.875 101.378906 188.875 113.859375 C 188.875 126.332031 198.996094 136.445312 211.472656 136.445312 C 223.957031 136.445312 234.074219 126.332031 234.074219 113.859375 " fill-opacity="1" fill-rule="nonzero"/><path fill="#ffffff" d="M 221.292969 94.863281 C 226.734375 98.730469 230.300781 105.066406 230.300781 112.253906 C 230.300781 124.035156 220.738281 133.589844 208.945312 133.589844 C 205.503906 133.589844 202.265625 132.753906 199.390625 131.308594 C 202.875 133.789062 207.132812 135.261719 211.734375 135.261719 C 223.523438 135.261719 233.089844 125.710938 233.089844 113.921875 C 233.089844 105.582031 228.277344 98.367188 221.292969 94.863281 " fill-opacity="1" fill-rule="nonzero"/><path fill="#ffffff" d="M 204.339844 108.605469 C 206.632812 103.914062 206.203125 99.003906 203.382812 97.625 C 200.566406 96.25 196.429688 98.941406 194.136719 103.632812 C 191.851562 108.320312 192.277344 113.226562 195.09375 114.605469 C 197.914062 115.984375 202.046875 113.292969 204.339844 108.605469 " fill-opacity="1" fill-rule="nonzero"/><path fill="#61483a" d="M 215.011719 131.15625 C 214.210938 131.15625 213.539062 130.902344 213.144531 130.371094 C 212.207031 129.125 213.121094 126.847656 215.191406 125.285156 C 216.382812 124.382812 217.695312 123.914062 218.773438 123.914062 C 219.578125 123.914062 220.25 124.175781 220.648438 124.703125 C 221.589844 125.949219 220.667969 128.226562 218.59375 129.792969 C 217.402344 130.691406 216.089844 131.15625 215.011719 131.15625 " fill-opacity="1" fill-rule="nonzero"/><path fill="#f4694a" d="M 165.851562 151.53125 L 168.449219 191.914062 C 169 200.515625 162.480469 207.929688 153.871094 208.484375 C 145.269531 209.035156 137.847656 202.511719 137.292969 193.917969 C 137.257812 193.273438 137.261719 192.542969 137.292969 191.914062 L 139.890625 151.53125 C 140.351562 144.367188 146.535156 138.929688 153.707031 139.390625 C 160.308594 139.816406 165.449219 145.09375 165.851562 151.53125 " fill-opacity="1" fill-rule="nonzero"/><path fill="#d65b40" d="M 152.601562 154.257812 L 152.601562 192.007812 C 152.601562 192.160156 152.71875 192.277344 152.875 192.277344 C 153.023438 192.277344 153.148438 192.160156 153.148438 192.007812 L 153.148438 154.257812 C 153.148438 154.105469 153.023438 153.984375 152.875 153.984375 C 152.71875 153.984375 152.601562 154.105469 152.601562 154.257812 " fill-opacity="1" fill-rule="nonzero"/><path fill="#5a3d2e" d="M 242.464844 153.183594 C 233.488281 151.875 224.8125 149.136719 215.917969 147.46875 C 209.9375 146.34375 204.035156 144.816406 198.234375 142.984375 C 192.609375 141.207031 187.140625 139.007812 181.648438 136.871094 C 175.546875 134.496094 169.070312 131.941406 162.707031 130.394531 C 159.488281 129.609375 156.175781 129.464844 152.875 129.460938 C 149.570312 129.464844 146.257812 129.609375 143.039062 130.394531 C 136.675781 131.941406 130.199219 134.496094 124.097656 136.871094 C 118.601562 139.007812 113.136719 141.207031 107.511719 142.984375 C 101.707031 144.816406 95.808594 146.34375 89.832031 147.46875 C 80.929688 149.136719 72.253906 151.875 63.28125 153.183594 C 58.644531 153.867188 51.875 156.003906 51.472656 161.582031 C 50.921875 169.070312 57.589844 176.273438 62.519531 180.96875 C 67.972656 186.167969 74.40625 190.320312 81.546875 192.78125 C 96.355469 197.894531 111.8125 194.429688 125.402344 187.507812 C 130.84375 184.738281 136.1875 181.558594 141.230469 178.121094 C 143.679688 176.4375 146.03125 174.625 148.121094 172.496094 C 149.144531 171.453125 151.53125 169.167969 152.875 167.136719 C 154.214844 169.167969 156.597656 171.453125 157.625 172.496094 C 159.710938 174.625 162.066406 176.4375 164.519531 178.121094 C 169.554688 181.558594 174.90625 184.738281 180.34375 187.507812 C 193.929688 194.429688 209.394531 197.894531 224.199219 192.78125 C 231.34375 190.320312 237.777344 186.167969 243.234375 180.96875 C 248.148438 176.273438 254.820312 169.070312 254.269531 161.582031 C 253.867188 156.003906 247.097656 153.867188 242.464844 153.183594 " fill-opacity="1" fill-rule="nonzero"/><path fill="#442c20" d="M 173 137.476562 C 173 127.949219 164.203125 126.335938 153.328125 126.335938 C 142.464844 126.335938 133.65625 127.949219 133.65625 137.476562 C 133.65625 146.988281 145.921875 158.105469 153.328125 158.105469 C 157.960938 158.105469 173 146.988281 173 137.476562 " fill-opacity="1" fill-rule="nonzero"/><path fill="#624232" d="M 156.105469 132.945312 C 157.3125 133.238281 158.578125 133.4375 159.730469 133.929688 C 161.761719 134.785156 163.425781 136.238281 163.953125 138.476562 C 164.257812 139.796875 164.980469 146.007812 168.375 143.539062 C 169.980469 142.378906 170.695312 140.253906 171.167969 138.332031 C 170.714844 130.386719 163.683594 128.367188 154.542969 128.046875 C 154.359375 128.125 154.167969 128.175781 153.941406 128.179688 C 152.4375 128.207031 152.859375 130.097656 153.191406 130.914062 C 153.804688 132.109375 154.773438 132.785156 156.105469 132.945312 " fill-opacity="1" fill-rule="nonzero"/><g clip-path="url(#da5723925d)"><path fill="#51c17d" d="M 339.820312 311.90625 L 304.761719 234.101562 L 303.558594 234.113281 C 304.679688 234.667969 305.296875 235.238281 305.296875 235.828125 C 305.296875 241.039062 258.804688 245.269531 201.457031 245.269531 C 144.109375 245.269531 97.625 241.042969 97.605469 235.835938 L 63.292969 312.15625 C 62.324219 314.542969 61.539062 316.9375 61.539062 319.023438 C 61.539062 337.617188 124.171875 352.699219 201.457031 352.699219 C 278.722656 352.699219 341.363281 337.617188 341.363281 319.023438 C 341.363281 316.960938 341.003906 314.714844 339.820312 311.90625 " fill-opacity="1" fill-rule="nonzero"/></g><path fill="#44a167" d="M 305.296875 235.828125 C 305.296875 241.039062 258.804688 245.269531 201.457031 245.269531 C 144.09375 245.269531 97.605469 241.039062 97.605469 235.828125 C 97.605469 230.617188 144.09375 226.382812 201.457031 226.382812 C 258.804688 226.382812 305.296875 230.617188 305.296875 235.828125 " fill-opacity="1" fill-rule="nonzero"/><path fill="#d5e1be" d="M 181.699219 318.996094 C 181.699219 318.136719 181.605469 317.296875 181.460938 316.484375 L 227.144531 316.484375 C 227 317.296875 226.90625 318.136719 226.90625 318.996094 C 226.90625 327.308594 233.65625 334.050781 241.976562 334.050781 C 250.292969 334.050781 257.042969 327.308594 257.042969 318.996094 C 257.042969 313.558594 254.140625 308.835938 249.824219 306.195312 C 254.140625 303.539062 257.042969 298.824219 257.042969 293.386719 C 257.042969 285.070312 250.292969 278.328125 241.976562 278.328125 C 233.65625 278.328125 226.90625 285.070312 226.90625 293.386719 C 226.90625 294.246094 227 295.085938 227.144531 295.898438 L 181.460938 295.898438 C 181.605469 295.085938 181.699219 294.246094 181.699219 293.386719 C 181.699219 285.070312 174.957031 278.328125 166.628906 278.328125 C 158.308594 278.328125 151.5625 285.070312 151.5625 293.386719 C 151.5625 298.824219 154.460938 303.539062 158.78125 306.195312 C 154.460938 308.835938 151.5625 313.558594 151.5625 318.996094 C 151.5625 327.308594 158.308594 334.050781 166.628906 334.050781 C 174.957031 334.050781 181.699219 327.308594 181.699219 318.996094 " fill-opacity="1" fill-rule="nonzero"/><path fill="#6eca78" d="M 201.457031 241.539062 C 149.277344 241.539062 106.984375 238.980469 106.984375 235.828125 C 106.984375 232.671875 149.277344 230.113281 201.457031 230.113281 C 253.625 230.113281 295.914062 232.671875 295.914062 235.828125 C 295.914062 238.980469 253.625 241.539062 201.457031 241.539062 Z M 201.457031 226.382812 C 144.09375 226.382812 97.605469 230.617188 97.605469 235.828125 C 97.605469 241.039062 144.09375 245.269531 201.457031 245.269531 C 258.804688 245.269531 305.296875 241.039062 305.296875 235.828125 C 305.296875 230.617188 258.804688 226.382812 201.457031 226.382812 " fill-opacity="1" fill-rule="nonzero"/><path fill="#d5e1be" d="M 120.21875 239.90625 C 125.648438 241.269531 131.242188 241.835938 136.875 242.085938 C 136.996094 241.761719 137.136719 241.433594 137.21875 241.109375 L 139.597656 242.203125 C 145.832031 242.375 152.089844 242.230469 158.226562 242.351562 C 170.753906 242.585938 183.28125 242.671875 195.804688 242.945312 C 195.328125 239.289062 193.078125 235.9375 189.476562 234.277344 C 183.917969 231.707031 177.320312 234.136719 174.746094 239.695312 C 174.484375 240.269531 174.289062 240.859375 174.128906 241.445312 L 143.589844 227.34375 C 143.933594 226.835938 144.253906 226.3125 144.523438 225.738281 C 147.089844 220.175781 144.664062 213.585938 139.097656 211.015625 C 133.535156 208.445312 126.941406 210.871094 124.367188 216.429688 C 122.683594 220.0625 123.171875 224.117188 125.234375 227.222656 C 121.535156 227.660156 118.132812 229.917969 116.453125 233.554688 C 115.566406 235.480469 115.308594 237.519531 115.542969 239.484375 C 117 239.367188 118.566406 239.492188 120.21875 239.90625 " fill-opacity="1" fill-rule="nonzero"/><path fill="#d5e1be" d="M 211.078125 209.464844 L 228.550781 238.203125 C 227.980469 238.421875 227.421875 238.683594 226.878906 239.015625 C 225.398438 239.914062 224.242188 241.121094 223.359375 242.488281 C 224.273438 242.503906 225.203125 242.59375 226.132812 242.75 C 237.089844 244.597656 248.390625 241.628906 259.492188 241.492188 C 260.226562 238.695312 259.882812 235.613281 258.25 232.9375 C 255.070312 227.699219 248.242188 226.035156 243.007812 229.21875 C 242.464844 229.542969 241.976562 229.925781 241.511719 230.328125 L 224.039062 201.589844 C 224.609375 201.363281 225.167969 201.109375 225.714844 200.773438 C 230.949219 197.597656 232.617188 190.773438 229.429688 185.535156 C 226.246094 180.300781 219.417969 178.640625 214.183594 181.820312 C 210.765625 183.894531 208.898438 187.53125 208.882812 191.257812 C 205.5625 189.554688 201.480469 189.535156 198.054688 191.613281 C 192.816406 194.796875 191.152344 201.613281 194.335938 206.855469 C 197.515625 212.09375 204.347656 213.753906 209.585938 210.574219 C 210.128906 210.246094 210.617188 209.863281 211.078125 209.464844 " fill-opacity="1" fill-rule="nonzero"/><path fill="#d5e1be" d="M 133.105469 191.558594 C 133.257812 190.941406 133.339844 190.328125 133.386719 189.722656 L 166 197.992188 C 165.75 198.546875 165.535156 199.132812 165.382812 199.738281 C 163.875 205.675781 167.46875 211.71875 173.410156 213.222656 C 179.351562 214.730469 185.390625 211.132812 186.894531 205.195312 C 187.882812 201.316406 186.660156 197.417969 184.066406 194.75 C 187.628906 193.640625 190.554688 190.792969 191.539062 186.914062 C 193.042969 180.972656 189.445312 174.9375 183.507812 173.433594 C 177.566406 171.929688 171.527344 175.519531 170.023438 181.460938 C 169.867188 182.070312 169.777344 182.6875 169.734375 183.296875 L 137.117188 175.023438 C 137.363281 174.46875 137.589844 173.886719 137.746094 173.277344 C 139.25 167.339844 135.660156 161.304688 129.714844 159.796875 C 123.773438 158.285156 117.734375 161.886719 116.230469 167.824219 C 115.25 171.699219 116.460938 175.59375 119.0625 178.269531 C 115.5 179.378906 112.574219 182.21875 111.589844 186.105469 C 110.082031 192.039062 113.667969 198.074219 119.613281 199.582031 C 125.5625 201.085938 131.597656 197.492188 133.105469 191.558594 " fill-opacity="1" fill-rule="nonzero"/><path fill="#6eca78" d="M 294.242188 231.585938 C 293.414062 232.550781 292.429688 233.386719 291.296875 234.0625 C 294.277344 234.617188 295.914062 235.207031 295.914062 235.828125 C 295.914062 238.980469 253.625 241.539062 201.457031 241.539062 C 149.277344 241.539062 106.984375 238.980469 106.984375 235.828125 C 106.984375 235.144531 108.964844 234.496094 112.570312 233.890625 C 111.472656 233.203125 110.523438 232.355469 109.726562 231.402344 C 102 232.71875 97.605469 234.226562 97.605469 235.828125 C 97.605469 241.039062 144.09375 245.269531 201.457031 245.269531 C 258.804688 245.269531 305.296875 241.039062 305.296875 235.828125 C 305.296875 234.300781 301.296875 232.863281 294.242188 231.585938 " fill-opacity="1" fill-rule="nonzero"/></svg>