<svg xmlns="http://www.w3.org/2000/svg" xmlns:xlink="http://www.w3.org/1999/xlink" width="500" zoomAndPan="magnify" viewBox="0 0 375 374.999991" height="500" preserveAspectRatio="xMidYMid meet" version="1.0"><defs><clipPath id="a307c4d17f"><path d="M 38.546875 1.535156 L 353.570312 1.535156 L 353.570312 342.726562 L 38.546875 342.726562 Z M 38.546875 1.535156 " clip-rule="nonzero"/></clipPath><clipPath id="b9a9d6cc76"><path d="M 140.042969 336.578125 L 203.863281 336.578125 L 203.863281 374.96875 L 140.042969 374.96875 Z M 140.042969 336.578125 " clip-rule="nonzero"/></clipPath><clipPath id="06bed8f37f"><path d="M 21.476562 314 L 30 314 L 30 323 L 21.476562 323 Z M 21.476562 314 " clip-rule="nonzero"/></clipPath></defs><path fill="#f4d8b0" d="M 275.523438 243.960938 C 279.335938 246.816406 284.09375 247.132812 288.546875 247.449219 C 286.832031 247.332031 285.539062 248.433594 284.386719 249.667969 C 282.542969 251.644531 281.042969 253.972656 278.699219 252.210938 C 278.382812 252.050781 274.730469 244.121094 274.253906 243.960938 C 274.730469 244.121094 275.207031 243.796875 275.523438 243.960938 " fill-opacity="1" fill-rule="nonzero"/><path fill="#f4d8b0" d="M 329.472656 250.132812 C 326.601562 253.265625 324.011719 255.769531 322.074219 257.53125 C 319.78125 259.621094 318.253906 262.417969 317.726562 265.476562 L 313.675781 289.234375 C 312.945312 293.507812 309.308594 295.449219 305.433594 297.390625 C 299.210938 300.492188 300.589844 295.859375 300.589844 295.859375 C 295.167969 300.339844 290.710938 296.78125 293.046875 293.617188 C 290.546875 293.484375 287.96875 292.910156 289.035156 289.726562 C 290.378906 285.6875 295.988281 286.195312 292.230469 265.820312 L 292.230469 265.8125 C 291.96875 265.726562 291.707031 265.636719 291.453125 265.546875 C 290.714844 264.023438 292.246094 258.230469 296.414062 251.835938 L 296.234375 251.980469 C 295.546875 252.511719 294.746094 252.878906 293.785156 252.851562 C 292.992188 252.851562 289.023438 247.609375 288.546875 247.449219 C 289.023438 247.609375 289.65625 248.402344 290.449219 248.402344 C 293.183594 248.492188 295.9375 248.523438 298.691406 248.523438 L 299.9375 248.523438 C 300.425781 248.523438 300.917969 248.523438 301.421875 248.515625 C 307.507812 248.5 313.621094 248.421875 319.671875 248.722656 C 319.835938 248.722656 320.152344 249.675781 320.3125 249.675781 C 323.394531 249.921875 326.429688 250.132812 329.472656 250.132812 " fill-opacity="1" fill-rule="nonzero"/><path fill="#f4d8b0" d="M 268.746094 261.960938 C 269.378906 264.726562 270.300781 267.488281 270.195312 270.320312 C 270.082031 273.167969 268.335938 275.671875 267.820312 278.46875 C 266.96875 283.0625 262.21875 289.445312 260.480469 290.671875 C 255.507812 294.175781 247.664062 293.128906 249.742188 291.070312 C 249.917969 290.894531 249.75 290.601562 249.511719 290.667969 C 243.898438 292.203125 241.402344 290.875 242.621094 288.511719 C 242.753906 288.257812 242.511719 287.96875 242.238281 288.0625 C 236.828125 289.914062 244.417969 279.628906 244.550781 275.34375 C 244.695312 270.738281 243.605469 270.890625 244.550781 266.382812 C 245.601562 261.386719 243.894531 256.949219 244.945312 251.949219 C 245.460938 249.5 245.984375 247.019531 247.117188 244.785156 C 249.089844 240.890625 252.695312 238.128906 256.183594 235.503906 C 274.003906 222.09375 266.886719 253.875 268.746094 261.960938 " fill-opacity="1" fill-rule="nonzero"/><path fill="#ea9923" d="M 270.339844 243.242188 L 271.074219 242.652344 C 270.808594 242.664062 270.546875 242.691406 270.277344 242.691406 L 270.339844 243.242188 " fill-opacity="1" fill-rule="nonzero"/><g clip-path="url(#a307c4d17f)"><path fill="#ea9923" d="M 329.472656 250.132812 C 326.429688 250.132812 323.394531 249.921875 320.3125 249.675781 C 320.152344 249.675781 315.382812 254.117188 315.226562 254.117188 C 309.300781 253.828125 305.257812 249.324219 301.421875 248.515625 C 301.148438 248.453125 300.882812 248.417969 300.613281 248.402344 C 300.375 248.382812 300.160156 248.433594 299.9375 248.523438 L 299.925781 248.523438 C 298.769531 248.984375 297.773438 250.714844 296.414062 251.835938 L 296.234375 251.980469 C 295.546875 252.511719 294.746094 252.878906 293.785156 252.851562 C 292.992188 252.851562 289.023438 247.609375 288.546875 247.449219 C 286.832031 247.332031 285.539062 248.433594 284.386719 249.667969 C 282.542969 251.644531 281.042969 253.972656 278.699219 252.210938 C 278.382812 252.050781 274.730469 244.121094 274.253906 243.960938 C 273.929688 243.796875 273.777344 243.320312 273.617188 243.320312 C 272.824219 243.320312 272.5 243.003906 272.1875 242.851562 C 272 242.753906 271.816406 242.707031 271.628906 242.675781 C 271.554688 242.4375 271.507812 242.304688 271.507812 242.304688 L 271.078125 242.652344 C 270.808594 242.660156 270.546875 242.691406 270.277344 242.691406 L 270.292969 242.808594 L 270.339844 243.246094 L 270.324219 243.25 L 268.648438 244.597656 L 244.890625 263.628906 L 227.554688 277.515625 C 227.554688 277.515625 227.402344 278.269531 227.125 279.621094 L 227.101562 279.714844 L 227.101562 279.722656 C 224.871094 290.160156 203.734375 342.6875 203.410156 342.6875 C 199.757812 342.210938 196.105469 342.527344 192.453125 342.527344 C 192.617188 341.097656 191.660156 341.414062 191.1875 341.261719 C 189.59375 341.097656 188.007812 341.574219 186.578125 341.097656 C 184.671875 340.621094 183.089844 340.785156 181.335938 340.621094 C 180.855469 340.460938 180.542969 340.144531 180.066406 339.984375 C 179.273438 339.828125 178.320312 340.144531 177.527344 339.828125 C 176.414062 339.355469 175.300781 339.667969 174.355469 339.191406 C 173.875 339.03125 173.398438 338.085938 172.925781 338.085938 C 169.746094 337.609375 166.089844 338.714844 163.386719 337.609375 C 162.304688 337.171875 161.667969 336.960938 161.011719 336.816406 C 160.710938 336.753906 160.40625 336.699219 160.050781 336.65625 C 159.734375 336.492188 159.734375 336.179688 159.421875 336.019531 C 159.3125 335.980469 159.199219 335.972656 159.082031 335.972656 C 158.921875 335.972656 158.75 335.996094 158.589844 336 C 158.90625 334.765625 160.335938 329.09375 161.6875 323.722656 C 163.042969 318.351562 164.320312 313.296875 164.320312 313.296875 L 164.324219 313.273438 C 164.359375 313.171875 164.386719 313.070312 164.414062 312.972656 C 164.449219 312.808594 164.480469 312.640625 164.496094 312.480469 C 164.78125 310.421875 163.257812 308.5 161.144531 308.332031 C 160.996094 308.316406 160.84375 308.308594 160.691406 308.308594 C 160.257812 308.316406 159.835938 308.316406 159.429688 308.308594 C 159.296875 308.308594 159.160156 308.308594 159.03125 308.300781 C 158.921875 308.300781 158.8125 308.300781 158.707031 308.292969 C 158.613281 308.292969 158.527344 308.292969 158.4375 308.285156 C 158.144531 308.277344 157.851562 308.269531 157.566406 308.253906 C 157.421875 308.238281 157.265625 308.234375 157.121094 308.222656 C 157 308.21875 156.867188 308.207031 156.742188 308.199219 L 156.605469 308.183594 C 156.484375 308.179688 156.359375 308.167969 156.246094 308.15625 C 156.007812 308.140625 155.777344 308.117188 155.546875 308.09375 L 155.390625 308.070312 C 155.246094 308.054688 155.105469 308.039062 154.960938 308.027344 C 154.722656 307.992188 154.476562 307.960938 154.246094 307.933594 C 154.085938 307.910156 153.9375 307.882812 153.785156 307.863281 C 153.578125 307.824219 153.367188 307.792969 153.160156 307.753906 L 153.03125 307.730469 C 152.933594 307.714844 152.832031 307.691406 152.730469 307.675781 L 152.609375 307.65625 C 152.5 307.632812 152.402344 307.617188 152.300781 307.59375 C 151.808594 307.492188 151.332031 307.386719 150.878906 307.273438 C 150.726562 307.234375 150.5625 307.183594 150.410156 307.148438 C 150.261719 307.101562 150.109375 307.066406 149.960938 307.015625 C 149.855469 306.988281 149.753906 306.957031 149.65625 306.921875 C 149.5625 306.902344 149.472656 306.871094 149.386719 306.839844 C 148.980469 306.714844 148.585938 306.585938 148.226562 306.449219 C 148.085938 306.394531 147.949219 306.347656 147.816406 306.296875 C 147.6875 306.242188 147.554688 306.195312 147.433594 306.140625 C 147.359375 306.109375 147.28125 306.082031 147.203125 306.042969 C 146.742188 305.847656 146.308594 305.648438 145.910156 305.449219 L 145.785156 305.386719 C 145.648438 305.316406 145.519531 305.25 145.386719 305.179688 L 145.25 305.105469 C 145.066406 305.003906 144.878906 304.898438 144.710938 304.796875 L 144.542969 304.695312 C 144.382812 304.597656 144.226562 304.496094 144.082031 304.394531 C 144.003906 304.351562 143.925781 304.296875 143.859375 304.253906 C 143.558594 304.042969 143.296875 303.859375 143.074219 303.683594 L 142.914062 303.542969 L 142.796875 303.449219 L 142.789062 303.449219 L 142.636719 303.320312 L 142.628906 303.308594 L 142.589844 303.28125 C 142.203125 302.9375 142.019531 302.722656 142.019531 302.722656 C 141.691406 302.652344 141.359375 302.574219 141.035156 302.5 C 140.703125 302.414062 140.375 302.335938 140.042969 302.253906 C 139.921875 302.214844 139.796875 302.183594 139.667969 302.152344 C 139.597656 302.128906 139.527344 302.105469 139.453125 302.089844 C 139.351562 302.0625 139.25 302.035156 139.152344 302.007812 C 138.96875 301.953125 138.78125 301.898438 138.605469 301.855469 C 138.519531 301.824219 138.429688 301.800781 138.34375 301.777344 C 138.175781 301.722656 138.007812 301.667969 137.835938 301.613281 C 137.707031 301.578125 137.574219 301.539062 137.453125 301.5 C 137.367188 301.46875 137.292969 301.445312 137.214844 301.421875 C 137.050781 301.371094 136.890625 301.316406 136.730469 301.261719 C 136.613281 301.222656 136.5 301.183594 136.382812 301.144531 L 136.199219 301.078125 C 136.089844 301.046875 135.992188 301.007812 135.894531 300.96875 C 135.542969 300.84375 135.199219 300.726562 134.863281 300.59375 C 134.730469 300.546875 134.605469 300.492188 134.484375 300.445312 C 134.335938 300.390625 134.191406 300.332031 134.046875 300.269531 C 133.902344 300.21875 133.753906 300.15625 133.605469 300.09375 C 133.492188 300.046875 133.375 300 133.261719 299.949219 L 133.125 299.894531 C 133.023438 299.847656 132.929688 299.808594 132.832031 299.765625 C 132.660156 299.691406 132.5 299.617188 132.332031 299.546875 C 132.164062 299.46875 131.984375 299.394531 131.816406 299.308594 C 131.695312 299.257812 131.578125 299.203125 131.453125 299.140625 C 131.191406 299.015625 130.941406 298.894531 130.683594 298.769531 C 130.546875 298.703125 130.417969 298.632812 130.277344 298.574219 C 130.160156 298.511719 130.039062 298.449219 129.925781 298.386719 C 129.625 298.234375 129.332031 298.082031 129.046875 297.917969 C 128.972656 297.878906 128.902344 297.84375 128.835938 297.804688 C 128.730469 297.75 128.640625 297.695312 128.539062 297.640625 C 128.339844 297.527344 128.140625 297.410156 127.949219 297.304688 C 127.855469 297.25 127.769531 297.199219 127.679688 297.148438 C 127.464844 297.019531 127.257812 296.898438 127.042969 296.765625 C 126.972656 296.722656 126.902344 296.683594 126.824219 296.636719 L 126.726562 296.574219 C 126.597656 296.488281 126.464844 296.410156 126.335938 296.328125 C 126.210938 296.242188 126.078125 296.164062 125.957031 296.082031 C 125.886719 296.035156 125.820312 295.996094 125.75 295.953125 L 125.3125 295.652344 C 125.15625 295.554688 125.003906 295.449219 124.847656 295.347656 C 124.6875 295.238281 124.53125 295.121094 124.375 295.011719 L 124.351562 294.996094 C 124.035156 294.777344 123.734375 294.554688 123.433594 294.332031 C 123.265625 294.207031 123.101562 294.085938 122.945312 293.96875 C 122.804688 293.855469 122.660156 293.746094 122.519531 293.636719 C 122.402344 293.546875 122.289062 293.453125 122.175781 293.363281 C 121.683594 292.972656 121.195312 292.578125 120.738281 292.171875 C 120.621094 292.082031 120.503906 291.976562 120.398438 291.878906 L 120.304688 291.800781 C 120.21875 291.726562 120.128906 291.648438 120.042969 291.574219 C 119.605469 291.179688 119.183594 290.785156 118.765625 290.386719 C 118.695312 290.316406 118.621094 290.25 118.554688 290.1875 L 118.238281 289.875 C 118.046875 289.6875 117.859375 289.496094 117.675781 289.304688 C 117.589844 289.230469 117.507812 289.144531 117.429688 289.058594 L 117.382812 289.007812 C 117.300781 288.929688 117.222656 288.84375 117.144531 288.765625 C 117.058594 288.671875 116.976562 288.582031 116.882812 288.488281 C 116.796875 288.398438 116.714844 288.3125 116.628906 288.21875 C 116.5625 288.144531 116.492188 288.0625 116.414062 287.984375 C 116.070312 287.609375 115.730469 287.222656 115.398438 286.84375 C 115.238281 286.660156 115.082031 286.476562 114.929688 286.292969 C 113.308594 284.355469 111.910156 282.410156 110.703125 280.53125 C 110.648438 280.453125 110.59375 280.367188 110.539062 280.285156 C 109.917969 279.300781 109.355469 278.332031 108.84375 277.402344 C 108.738281 277.238281 108.65625 277.070312 108.5625 276.902344 C 108.519531 276.816406 108.472656 276.742188 108.425781 276.65625 C 108.386719 276.570312 108.339844 276.496094 108.296875 276.410156 C 108.210938 276.25 108.125 276.085938 108.039062 275.925781 C 108 275.839844 107.957031 275.765625 107.917969 275.683594 C 107.84375 275.527344 107.757812 275.367188 107.679688 275.210938 C 107.640625 275.125 107.601562 275.050781 107.566406 274.972656 C 107.449219 274.742188 107.335938 274.511719 107.226562 274.28125 C 107.1875 274.214844 107.15625 274.136719 107.117188 274.058594 C 107.050781 273.914062 106.980469 273.761719 106.910156 273.621094 C 106.839844 273.476562 106.777344 273.328125 106.710938 273.183594 C 106.609375 272.960938 106.515625 272.746094 106.417969 272.53125 L 106.34375 272.351562 L 106.324219 272.3125 L 106.289062 272.222656 C 105.242188 269.800781 102.066406 269.226562 100.25 271.140625 L 100.152344 271.246094 C 99.574219 271.84375 99 272.460938 98.40625 273.082031 L 98.34375 273.144531 C 97.53125 274.011719 96.699219 274.894531 95.859375 275.78125 C 95.15625 276.539062 94.441406 277.300781 93.726562 278.070312 C 89.539062 277.5625 88.554688 274.574219 87.34375 272.34375 C 86.820312 271.390625 86.265625 270.578125 85.394531 270.15625 C 61.328125 258.367188 46.296875 263.839844 38.992188 269.101562 C 40.167969 258.496094 42.238281 242.875 45.175781 230.894531 C 48.585938 217.011719 60.804688 196.863281 67.949219 185.84375 C 71.101562 180.984375 73.269531 177.902344 73.269531 177.902344 C 73.269531 177.902344 74.085938 177.542969 75.59375 176.882812 C 75.921875 176.734375 76.292969 176.574219 76.683594 176.398438 C 77.460938 176.058594 78.359375 175.660156 79.367188 175.214844 C 80.285156 174.804688 81.296875 174.363281 82.398438 173.878906 C 89.476562 170.757812 100.171875 166.039062 112.703125 160.515625 C 113.816406 160.03125 114.945312 159.53125 116.082031 159.03125 C 120.636719 157.015625 125.394531 154.917969 130.285156 152.765625 C 133.0625 151.539062 135.882812 150.300781 138.726562 149.042969 L 138.753906 149.03125 C 139.40625 148.742188 140.066406 148.449219 140.730469 148.15625 C 142.875 147.210938 145.03125 146.257812 147.203125 145.308594 C 153.457031 142.550781 159.765625 139.757812 166.003906 137.015625 C 181.398438 130.230469 196.253906 123.675781 208.332031 118.347656 C 208.46875 118.289062 208.609375 118.226562 208.75 118.167969 C 210.386719 117.441406 211.976562 116.742188 213.5 116.074219 C 215.152344 115.34375 216.734375 114.644531 218.242188 113.976562 L 218.253906 113.976562 C 229.457031 109.035156 236.53125 105.914062 236.53125 105.914062 C 243.808594 102.703125 250.445312 101.757812 258.167969 100.613281 C 260.335938 100.289062 274.359375 98.839844 272.1875 94.289062 C 261.867188 72.695312 278.535156 32.085938 298.199219 13.835938 C 303.425781 8.984375 309.179688 5.203125 315.757812 2.890625 C 316.730469 2.550781 317.722656 2.246094 318.726562 1.976562 C 319.835938 5.101562 321.265625 8.859375 322.988281 12.789062 C 323.816406 14.6875 324.71875 16.625 325.6875 18.542969 C 325.75 18.667969 325.808594 18.789062 325.871094 18.914062 L 325.871094 18.917969 C 326.539062 20.242188 327.238281 21.550781 327.964844 22.832031 C 328.347656 23.507812 328.738281 24.183594 329.132812 24.84375 C 328.226562 26.097656 327.332031 27.386719 326.480469 28.742188 C 328.15625 28.910156 330.777344 28.648438 331.683594 28.765625 C 331.753906 28.863281 331.824219 28.964844 331.890625 29.058594 C 319.519531 38.859375 328.546875 36.371094 336.496094 34.574219 C 335.738281 36.363281 334.996094 37.816406 334.4375 38.515625 C 326.15625 48.828125 322.25 61.976562 323.585938 75.132812 L 324.117188 121.421875 C 334.738281 131.667969 347.125 151.675781 348.785156 163.648438 C 349.21875 166.730469 349.691406 169.804688 350.207031 172.871094 C 350.894531 176.957031 351.652344 181.03125 352.460938 185.09375 C 358.027344 213.128906 341.371094 237.117188 329.472656 250.132812 " fill-opacity="1" fill-rule="nonzero"/></g><path fill="#f4d8b0" d="M 92.277344 279.621094 C 82.589844 290.035156 73.269531 300.363281 73.269531 300.363281 C 72.59375 300.539062 71.925781 300.703125 71.261719 300.855469 C 50.15625 305.789062 41.980469 300.109375 38.984375 293.59375 C 36.261719 287.683594 37.800781 281.082031 37.800781 281.082031 C 37.800781 281.082031 38.199219 276.21875 38.992188 269.109375 L 38.992188 269.101562 C 39.011719 268.910156 39.390625 268.671875 39.792969 268.425781 C 40.195312 268.179688 40.636719 267.925781 40.773438 267.734375 C 41.304688 267.003906 41.375 265.398438 41.859375 264.5 C 43.050781 263.953125 44.257812 263.871094 45.667969 263.871094 C 46.425781 263.871094 47.75 264.300781 48.496094 264.078125 C 49.855469 263.679688 51.050781 261.863281 52.523438 261.34375 C 54.417969 260.671875 55.601562 261.082031 57.421875 261.34375 C 57.8125 261.394531 57.953125 262.078125 58.414062 262.101562 C 59.265625 262.140625 60.621094 261.101562 61.335938 260.589844 C 62.105469 260.035156 63.003906 258.628906 63.996094 258.421875 C 66.035156 258.007812 66.703125 260.304688 68.394531 260.605469 C 69.46875 260.789062 70.445312 260.332031 71.4375 259.867188 C 72.484375 259.386719 73.550781 258.894531 74.785156 259.175781 C 77.28125 259.726562 76.683594 261.386719 77.75 262.601562 C 78.734375 263.714844 80 263.523438 81.292969 263.332031 C 82.300781 263.1875 83.324219 263.035156 84.234375 263.507812 C 85.859375 264.347656 86.480469 267.957031 87.839844 269.640625 C 87.957031 269.785156 88.070312 269.933594 88.179688 270.070312 C 87.917969 270.769531 87.632812 271.53125 87.34375 272.34375 C 85.472656 277.457031 83.183594 284.355469 82.488281 287.914062 C 82.429688 288.269531 82.375 288.589844 82.335938 288.867188 L 82.328125 288.984375 C 82.273438 289.449219 82.273438 289.796875 82.34375 290.011719 C 82.363281 290.097656 82.398438 290.160156 82.441406 290.195312 L 82.480469 290.160156 L 83.066406 289.519531 L 83.132812 289.441406 L 83.710938 288.828125 L 92.242188 279.59375 L 92.277344 279.621094 " fill-opacity="1" fill-rule="nonzero"/><g clip-path="url(#b9a9d6cc76)"><path fill="#f4d8b0" d="M 203.410156 342.6875 C 203.734375 342.6875 193.039062 364.851562 187.773438 367.4375 C 185.695312 368.460938 183.710938 369.652344 181.828125 371 C 175.539062 375.472656 162.820312 377.066406 164.679688 370.964844 C 165.679688 367.695312 161.644531 375 154.417969 372.734375 C 150.578125 371.527344 152.347656 368.1875 152.617188 367.71875 C 151.164062 370.039062 146.949219 370.949219 142.980469 368.644531 C 138.269531 365.917969 140.890625 355.875 148.347656 347.675781 C 150.625 346.824219 152.722656 345.792969 153.59375 345.148438 C 156 343.351562 158.527344 340.429688 161.011719 336.816406 C 161.667969 336.960938 162.304688 337.171875 163.386719 337.609375 C 166.089844 338.714844 169.746094 337.609375 172.925781 338.085938 C 173.398438 338.085938 173.875 339.03125 174.355469 339.191406 C 175.300781 339.667969 176.414062 339.355469 177.527344 339.828125 C 178.320312 340.144531 179.273438 339.828125 180.066406 339.984375 C 180.542969 340.144531 180.855469 340.460938 181.335938 340.621094 C 183.089844 340.785156 184.671875 340.621094 186.578125 341.097656 C 188.007812 341.574219 189.59375 341.097656 191.1875 341.261719 C 191.660156 341.414062 192.617188 341.097656 192.453125 342.527344 C 196.105469 342.527344 199.757812 342.210938 203.410156 342.6875 " fill-opacity="1" fill-rule="nonzero"/></g><path fill="#f4d8b0" d="M 338.734375 28.925781 C 337.90625 31.007812 337.160156 33.023438 336.496094 34.574219 C 335.699219 33.78125 336.777344 31.730469 338.734375 28.925781 " fill-opacity="1" fill-rule="nonzero"/><path fill="#f4d8b0" d="M 345.601562 6.980469 C 340.566406 12.011719 334.4375 17.597656 329.140625 24.835938 L 329.132812 24.84375 C 328.226562 26.097656 327.332031 27.386719 326.480469 28.742188 C 325.78125 28.671875 325.242188 28.535156 325.070312 28.257812 C 324.402344 27.164062 327.796875 22.5625 326.5 22.703125 C 316.550781 23.753906 325.433594 20.226562 325.871094 18.917969 L 325.871094 18.726562 C 325.832031 18.660156 325.769531 18.605469 325.6875 18.542969 C 324.765625 17.953125 321.136719 18.039062 320.789062 17.308594 C 320.210938 16.09375 323.503906 13.980469 322.988281 12.789062 C 322.964844 12.75 322.902344 12.726562 322.804688 12.726562 C 321.59375 12.726562 314.964844 15.59375 314.753906 15.078125 C 314.261719 13.933594 318.097656 10.414062 316.921875 10.453125 C 306.808594 10.796875 319.351562 3.726562 318.726562 1.976562 C 319.164062 1.851562 319.605469 1.738281 320.050781 1.628906 C 323.503906 0.808594 323.527344 0.824219 326.976562 0.00390625 C 324.132812 1.398438 324.71875 1.960938 321.867188 3.359375 C 327.457031 2.066406 330 0.316406 336.867188 2.015625 C 336.144531 2.722656 335.421875 3.421875 334.699219 4.121094 C 336.113281 4.347656 341.898438 5.765625 345.601562 6.980469 " fill-opacity="1" fill-rule="nonzero"/><path fill="#e8cda7" d="M 95.078125 178.78125 C 95.078125 178.78125 75.1875 169.304688 68.472656 172.816406 C 61.761719 176.324219 63.402344 178.78125 63.402344 178.78125 C 64.894531 178.78125 65.675781 180.964844 66.960938 179.910156 L 64.640625 183.359375 L 74.851562 191.023438 C 73.863281 191.867188 71.441406 198.097656 72.703125 197.613281 C 74.765625 196.816406 77.554688 196.929688 77.699219 198.542969 C 77.867188 200.355469 74.644531 204.476562 76.195312 203.800781 C 82.074219 201.261719 81.234375 206.878906 81.753906 207.292969 C 83.652344 208.804688 78.769531 214.65625 79.375 217.609375 C 79.976562 220.566406 81.914062 214.277344 86 218.671875 C 84.640625 220.023438 84.933594 227.136719 84.933594 227.136719 C 84.933594 227.136719 90.175781 221.578125 96.367188 226.5 C 95.644531 226.691406 97.519531 236.535156 97.710938 237.539062 C 103.671875 230.785156 109.226562 246.457031 109.0625 247.832031 C 111.339844 248.261719 110.464844 240.757812 113.835938 248.5625 L 114.949219 254.117188 L 118.085938 253.253906 C 116.796875 256.136719 116.746094 259.570312 118.472656 263.789062 L 120.789062 263.585938 L 120.945312 268.140625 C 122.425781 269.4375 123.050781 263.324219 125.390625 266.308594 C 126.792969 268.113281 128.125 271.792969 129.878906 270.78125 C 132.421875 267.765625 131.917969 262.382812 133.191406 260.308594 C 136.707031 265.863281 138.648438 255.691406 139.058594 251.414062 L 142.585938 258.402344 C 142.652344 256.339844 145.285156 257.132812 144.925781 250.394531 C 144.847656 248.929688 148.851562 253.355469 150.207031 254.117188 C 153.703125 250.945312 150.53125 246.511719 152.4375 245.996094 C 154.34375 245.484375 155.847656 248.59375 157.671875 249.515625 C 159.71875 246.339844 160.359375 243.234375 159.046875 240.222656 C 165.613281 237.453125 165.933594 244.117188 165.933594 244.117188 C 165.933594 244.117188 170.648438 239.824219 170.792969 236.695312 C 173.472656 238.0625 175.9375 234.753906 179.207031 238.070312 C 179.191406 236.421875 178.941406 234.777344 178.476562 233.265625 C 181.246094 233.382812 182.128906 227.769531 186.628906 231.445312 L 186.121094 224.421875 C 186.109375 221.34375 187.765625 220.265625 191.386719 223.25 C 193.136719 224.691406 192.476562 217.527344 190.683594 216.816406 C 192.320312 216.058594 191.980469 210.152344 195.140625 213.328125 C 196.675781 214.871094 196.292969 208.171875 194.820312 206.910156 C 195.914062 206.351562 197.066406 205.738281 197.792969 204.453125 C 198.515625 203.164062 198.570312 200.984375 197.597656 200.085938 C 197.105469 199.636719 199.59375 187.195312 199.011719 187.210938 C 194.390625 187.351562 186.871094 202.136719 182.492188 204.222656 C 169.042969 210.625 154.527344 214.519531 140.65625 210.269531 C 131.386719 207.429688 122.871094 201.109375 114.488281 194.855469 C 107.65625 189.757812 102.808594 178.78125 95.078125 178.78125 " fill-opacity="1" fill-rule="nonzero"/><path fill="#f4d8b0" d="M 223.691406 166.636719 C 223.691406 166.636719 219.105469 162 216.691406 160.847656 L 223.625 158.898438 C 221.453125 153.53125 215.433594 149.691406 209.210938 149.703125 C 212.511719 147.992188 215.8125 146.28125 219.109375 144.570312 C 219.6875 144.269531 208.84375 137.398438 207.636719 137.097656 C 212.808594 137.496094 216.496094 134.042969 216.496094 134.042969 C 216.496094 134.042969 198.914062 99.96875 196.863281 97.242188 C 191.777344 90.476562 186.210938 83.355469 177.894531 80.355469 C 172.710938 78.488281 167.648438 81.824219 162.082031 81.800781 C 155.800781 81.777344 148.871094 78.367188 142.589844 78.339844 C 136.308594 78.367188 128.792969 81.195312 122.511719 81.222656 C 116.945312 81.246094 112.472656 78.488281 107.292969 80.355469 C 98.96875 83.355469 93.402344 90.476562 88.320312 97.242188 C 86.265625 99.96875 68.6875 134.042969 68.6875 134.042969 C 68.6875 134.042969 72.378906 137.496094 77.542969 137.097656 C 76.339844 137.398438 65.496094 144.269531 66.078125 144.570312 C 69.375 146.28125 72.671875 147.992188 75.96875 149.703125 C 69.75 149.691406 63.730469 153.53125 61.558594 158.898438 L 68.496094 160.847656 C 66.078125 162 61.488281 166.636719 61.488281 166.636719 C 61.488281 166.636719 73.300781 172.996094 75.148438 174.839844 C 81.027344 180.699219 86.429688 186.992188 91.835938 193.273438 C 93.988281 195.777344 97.496094 198.558594 99.007812 201.46875 C 99.730469 202.855469 99.933594 204.683594 100.523438 206.167969 C 100.757812 206.75 103.101562 210.867188 102.921875 211.160156 C 103.597656 210.074219 103.957031 208.796875 103.953125 207.519531 C 103.671875 211.101562 106.996094 215.246094 107.246094 215.183594 C 107.464844 215.132812 108.503906 213.21875 108.90625 212.472656 C 109.25 215.007812 111.613281 220.726562 112.09375 220.847656 C 113.046875 221.09375 113.617188 219.824219 113.773438 218.851562 C 114.382812 219.980469 114.992188 221.101562 115.601562 222.226562 C 115.871094 222.714844 116.214844 223.261719 116.765625 223.339844 C 118.257812 223.546875 118.167969 220.558594 119.640625 220.246094 C 120.335938 220.894531 120.449219 221.929688 120.683594 222.851562 C 120.917969 223.769531 122.21875 227.132812 122.257812 226.183594 C 122.414062 222.214844 124.292969 223.503906 124.605469 222.347656 C 125.152344 224.992188 126.453125 227.476562 128.316406 229.433594 C 129.722656 229.429688 129.464844 226.511719 130.871094 226.4375 C 131.410156 226.410156 131.835938 226.878906 132.171875 227.304688 C 132.773438 228.070312 133.375 228.835938 133.980469 229.601562 C 134.683594 230.5 135.839844 234.601562 136.074219 233.484375 C 136.707031 230.464844 139.074219 230.726562 138.585938 229.691406 C 139.324219 230.929688 140.261719 232.046875 141.351562 232.996094 C 141.644531 233.253906 142.007812 233.511719 142.394531 233.4375 C 142.820312 233.355469 143.054688 232.898438 143.210938 232.492188 C 143.640625 231.34375 143.542969 229.710938 144.082031 228.675781 C 144.539062 227.796875 147.03125 226.304688 146.527344 226.539062 C 147.835938 227.136719 148.847656 228.339844 149.207031 229.730469 C 150.886719 228.140625 151.964844 225.929688 152.183594 223.625 C 152.207031 223.386719 152.242188 223.113281 152.441406 222.984375 C 152.789062 222.757812 153.191406 223.167969 153.398438 223.53125 C 154.144531 224.824219 154.867188 226.128906 155.574219 227.445312 C 155.808594 227.886719 156.304688 228.402344 156.707031 228.105469 C 156.886719 227.972656 156.9375 227.730469 156.992188 227.511719 C 157.242188 226.429688 157.824219 225.421875 158.640625 224.667969 C 159.542969 225.777344 163.164062 227.75 163.535156 227.324219 C 163.738281 227.09375 164.386719 224.300781 165.070312 223.425781 C 165.203125 223.339844 165.335938 223.25 165.46875 223.15625 C 166.523438 222.964844 167.84375 223.582031 167.789062 224.632812 C 169.066406 222.945312 170.007812 221 170.539062 218.949219 C 170.59375 220.09375 170.921875 221.042969 171.660156 221.917969 C 173.382812 219.792969 174.433594 217.136719 174.644531 214.410156 C 174.839844 214.207031 175.035156 214 175.222656 213.796875 C 176.035156 214.261719 176.847656 214.730469 177.660156 215.195312 C 178.554688 213.363281 179.230469 211.421875 179.667969 209.425781 C 179.898438 209.222656 180.132812 209.019531 180.363281 208.808594 C 181.097656 209.21875 181.746094 209.785156 182.246094 210.464844 C 183.066406 208.488281 183.890625 206.511719 184.710938 204.539062 C 193.246094 195.527344 200.339844 184.511719 210.03125 174.839844 C 211.882812 172.996094 223.691406 166.636719 223.691406 166.636719 " fill-opacity="1" fill-rule="nonzero"/><path fill="#392026" d="M 157.953125 153.824219 C 157.527344 150.820312 155.652344 147.984375 152.617188 146.566406 C 150.542969 145.597656 148.152344 145.304688 145.804688 145.226562 C 141.691406 145.089844 137.34375 145.628906 134.050781 147.800781 C 131.679688 149.371094 128.785156 152.648438 131.113281 155.519531 C 131.734375 156.285156 132.558594 156.859375 133.269531 157.539062 C 135.894531 160.050781 137.976562 163.5 141.25 165.332031 C 147.753906 168.976562 151.105469 160.902344 154.867188 157.355469 C 155.769531 156.503906 158.167969 155.320312 157.953125 153.824219 " fill-opacity="1" fill-rule="nonzero"/><path fill="#f08577" d="M 161.339844 185.238281 C 161.242188 190.890625 159.417969 196.835938 157.277344 202.246094 C 153.210938 212.5 138.996094 212.539062 132.402344 203.371094 C 128.46875 197.886719 129.105469 190.945312 129.109375 184.964844 C 129.109375 184.855469 129.113281 184.746094 129.125 184.636719 C 129.296875 182.382812 130.40625 180.324219 131.332031 178.257812 L 131.378906 178.152344 C 131.566406 178.089844 131.75 178.03125 131.929688 177.96875 C 132.761719 177.691406 133.558594 177.417969 134.328125 177.097656 C 136.449219 176.753906 138.757812 176.371094 139.796875 175.691406 C 140.546875 175.195312 141.339844 174.648438 142.183594 174.238281 C 143.210938 174.335938 144.25 174.488281 145.277344 174.65625 L 150.699219 176.972656 C 151.910156 177.128906 160.070312 177.824219 160.902344 177.710938 C 160.917969 177.902344 160.941406 178.089844 160.957031 178.277344 C 161.175781 180.597656 161.378906 182.917969 161.339844 185.238281 " fill-opacity="1" fill-rule="nonzero"/><path fill="#ec9824" d="M 195.265625 50.835938 C 202.148438 45.296875 210.714844 41.394531 219.542969 41.679688 C 220.246094 41.703125 220.984375 41.761719 221.578125 42.132812 C 222.253906 42.550781 222.644531 43.296875 223 44.003906 C 235.253906 68.335938 225.339844 98.664062 214.558594 122.535156 C 213.550781 124.777344 214.195312 121.941406 211.792969 121.433594 C 210.5625 121.171875 209.960938 119.175781 208.996094 118.371094 C 202.089844 112.59375 195.179688 106.816406 188.277344 101.035156 C 184.820312 98.148438 181.367188 95.261719 177.914062 92.371094 C 175.445312 90.304688 170.015625 87.339844 168.976562 84.136719 C 167.238281 78.78125 188.796875 56.042969 195.265625 50.835938 " fill-opacity="1" fill-rule="nonzero"/><path fill="#ec9824" d="M 99.597656 55.496094 C 92.316406 47.707031 83.257812 39.257812 72.652344 40.382812 C 71.28125 40.53125 69.894531 40.855469 68.753906 41.632812 C 67.425781 42.539062 66.558594 43.972656 65.804688 45.398438 C 59.851562 56.683594 58.617188 70.078125 60.796875 82.648438 C 62.976562 95.214844 68.398438 107.035156 75.105469 117.890625 C 76.167969 119.609375 77.414062 121.429688 79.34375 122.042969 C 81.761719 122.8125 84.398438 121.34375 85.964844 119.351562 C 87.539062 117.359375 88.359375 114.894531 89.550781 112.65625 C 91.007812 109.910156 93.011719 107.5 95.054688 105.160156 C 98.640625 101.058594 102.386719 97.097656 106.28125 93.289062 C 109.640625 90.011719 122.609375 91.460938 124.324219 87.132812 C 127.253906 79.722656 104.183594 60.402344 99.597656 55.496094 " fill-opacity="1" fill-rule="nonzero"/><path fill="#411d27" d="M 140.214844 177.609375 C 140.214844 177.609375 144.902344 182.109375 143.730469 194.042969 C 143.730469 194.042969 144.28125 181.128906 149.160156 177.609375 C 154.039062 174.089844 141.304688 175.75 141.304688 175.75 C 141.304688 175.75 140.234375 177.808594 140.214844 177.609375 " fill-opacity="1" fill-rule="nonzero"/><path fill="#ea9923" d="M 142.625 117.449219 C 142.640625 117.375 142.652344 117.296875 142.667969 117.222656 C 143.882812 111.246094 139.402344 98.226562 146.527344 94.859375 C 147.765625 94.273438 149 95.710938 149.464844 96.996094 C 150.976562 101.148438 150.394531 105.746094 151.039062 110.117188 C 153.183594 124.675781 157.5625 134.914062 172.273438 139.714844 L 172.277344 139.71875 C 185.445312 144.003906 197.339844 132.132812 209.894531 132.8125 C 210.609375 132.851562 217.429688 135.296875 217.429688 133.878906 C 217.429688 124.636719 213.566406 113.894531 208.078125 106.453125 C 205.527344 103 202.492188 99.945312 199.339844 97.039062 C 158.746094 59.628906 91.230469 75.472656 72.675781 126.351562 C 75.640625 126.035156 80.101562 130.277344 81.792969 132.738281 L 81.800781 132.75 C 90.535156 145.414062 114.539062 145.960938 126.621094 138.53125 C 134.300781 133.804688 140.71875 126.433594 142.625 117.449219 " fill-opacity="1" fill-rule="nonzero"/><path fill="#efb467" d="M 135.160156 112.878906 C 134.859375 109.503906 132.613281 106.695312 130.464844 104.113281 C 129.886719 103.421875 129.277344 102.699219 128.457031 102.34375 C 127.875 102.089844 127.238281 102.039062 126.605469 102.019531 C 125.003906 101.960938 123.253906 102.128906 122.089844 103.257812 C 120.644531 104.652344 121.386719 106.066406 122.285156 107.886719 C 123.179688 109.703125 124.882812 109.933594 126.4375 111.203125 C 129.09375 113.378906 135.894531 121.082031 135.160156 112.878906 " fill-opacity="1" fill-rule="nonzero"/><path fill="#efb467" d="M 162.457031 106.304688 C 163.691406 104.652344 165.230469 102.839844 167.296875 102.820312 C 168.808594 102.808594 170.183594 103.957031 171.179688 104.984375 C 171.667969 105.484375 172.375 106.15625 172.628906 106.8125 C 173.101562 108.042969 173.003906 107.640625 172.082031 108.148438 C 170.75 108.886719 169.382812 109.195312 168.105469 110.167969 C 166.878906 111.097656 165.785156 112.191406 164.613281 113.1875 C 163.25 114.347656 160.265625 118.316406 158.472656 116.46875 C 155.542969 113.445312 160.808594 108.511719 162.457031 106.304688 " fill-opacity="1" fill-rule="nonzero"/><path fill="#392026" d="M 168.46875 115.351562 C 172.171875 115.070312 175.484375 117.84375 178.296875 121.363281 C 179.394531 122.730469 181.984375 123.207031 183.507812 124.078125 C 181.960938 123.871094 180.363281 124.117188 178.949219 124.777344 C 177.800781 125.308594 176.792969 126.101562 175.65625 126.648438 C 172.078125 128.367188 167.769531 127.429688 164.191406 125.710938 C 162.882812 125.085938 161.6875 125.523438 160.8125 126.421875 C 160.9375 126.296875 160.402344 122.507812 160.585938 121.808594 C 161.011719 120.175781 161.996094 118.867188 163.257812 117.777344 C 165.070312 116.21875 166.808594 115.480469 168.46875 115.351562 " fill-opacity="1" fill-rule="nonzero"/><path fill="#392026" d="M 123.386719 114.414062 C 119.757812 114.136719 116.515625 116.851562 113.761719 120.296875 C 112.6875 121.640625 110.152344 122.105469 108.660156 122.957031 C 110.167969 122.753906 111.742188 123 113.121094 123.640625 C 114.246094 124.164062 115.234375 124.941406 116.347656 125.476562 C 119.851562 127.15625 124.070312 126.238281 127.574219 124.558594 C 128.859375 123.941406 130.03125 124.371094 130.882812 125.253906 C 130.765625 125.132812 131.289062 121.421875 131.109375 120.734375 C 130.691406 119.136719 129.722656 117.851562 128.488281 116.785156 C 126.714844 115.261719 125.011719 114.535156 123.386719 114.414062 " fill-opacity="1" fill-rule="nonzero"/><path fill="#411d27" d="M 164.363281 176.796875 C 163.9375 176.457031 163.308594 177.605469 161.511719 177.683594 C 161.117188 177.699219 158.464844 178.808594 157.949219 178.859375 C 153.054688 179.308594 145.652344 179.863281 144.351562 179.898438 C 139.242188 180.054688 132.925781 178.386719 131.121094 177.371094 C 130.5625 177.058594 129.960938 176.332031 129.960938 176.3125 C 130.777344 175.953125 131.808594 176.019531 133.222656 175.71875 C 134.894531 175.355469 136.710938 175.445312 138.257812 174.632812 C 140.269531 173.578125 141.925781 171.035156 144.488281 171.535156 C 145.421875 171.726562 146.210938 172.335938 147.042969 172.804688 C 148.964844 173.925781 151.015625 174.890625 153.167969 175.488281 C 155.304688 176.089844 157.628906 176.074219 159.835938 176.039062 C 161.433594 176.015625 163.039062 175.734375 164.363281 176.796875 " fill-opacity="1" fill-rule="nonzero"/><path fill="#ffffff" d="M 119.890625 117.984375 C 119.890625 118.746094 119.75 118.445312 119.070312 118.445312 C 118.386719 118.445312 117.421875 118.746094 117.421875 117.984375 C 117.421875 117.226562 117.976562 116.609375 118.65625 116.609375 C 119.339844 116.609375 119.890625 117.226562 119.890625 117.984375 " fill-opacity="1" fill-rule="nonzero"/><path fill="#ffffff" d="M 121.785156 119.394531 L 121.730469 119.554688 C 121.507812 119.921875 119.890625 119.933594 119.890625 119.390625 C 119.890625 118.878906 120.308594 118.464844 120.820312 118.464844 C 121.179688 118.464844 121.535156 118.738281 121.707031 119.035156 C 121.765625 119.144531 121.800781 119.273438 121.785156 119.394531 " fill-opacity="1" fill-rule="nonzero"/><path fill="#ffffff" d="M 162.714844 119.554688 C 162.714844 120.332031 162.859375 120.023438 163.554688 120.023438 C 164.253906 120.023438 165.242188 120.332031 165.242188 119.554688 C 165.242188 118.777344 164.671875 118.152344 163.976562 118.152344 C 163.28125 118.152344 162.714844 118.777344 162.714844 119.554688 " fill-opacity="1" fill-rule="nonzero"/><path fill="#ffffff" d="M 165.023438 120.992188 L 165.078125 121.15625 C 165.308594 121.527344 166.957031 121.542969 166.957031 120.988281 C 166.957031 120.464844 166.53125 120.042969 166.011719 120.042969 C 165.648438 120.042969 165.277344 120.320312 165.101562 120.628906 C 165.039062 120.738281 165.007812 120.871094 165.023438 120.992188 " fill-opacity="1" fill-rule="nonzero"/><path fill="#ffffff" d="M 140.71875 147.796875 C 140.949219 148.511719 140.019531 148.617188 138.507812 149.109375 C 136.992188 149.59375 135.464844 150.277344 135.234375 149.5625 C 135.007812 148.847656 136.046875 147.871094 137.558594 147.386719 C 139.074219 146.894531 140.488281 147.082031 140.71875 147.796875 " fill-opacity="1" fill-rule="nonzero"/><path fill="#ffffff" d="M 142.4375 149.910156 C 142.4375 150.367188 142.066406 150.738281 141.605469 150.738281 C 141.148438 150.738281 140.777344 150.367188 140.777344 149.910156 C 140.777344 149.449219 141.148438 149.078125 141.605469 149.078125 C 142.066406 149.078125 142.4375 149.449219 142.4375 149.910156 " fill-opacity="1" fill-rule="nonzero"/><path fill="#efb467" d="M 183.667969 71.964844 C 192.761719 61.417969 213.78125 49.28125 219.660156 55.757812 C 227.363281 64.257812 223.089844 74.039062 219.535156 83.171875 C 216.878906 89.988281 218.234375 107.023438 211.859375 111.058594 C 206.984375 114.121094 200.460938 99.316406 198.957031 96.957031 C 196.917969 93.757812 195.019531 90.070312 191.503906 87.957031 C 187.5625 85.585938 181.105469 86.527344 179.589844 81.339844 C 178.882812 78.921875 180.59375 75.535156 183.667969 71.964844 " fill-opacity="1" fill-rule="nonzero"/><path fill="#efb467" d="M 107.351562 70.304688 C 98.261719 59.757812 77.238281 47.621094 71.363281 54.097656 C 63.660156 62.597656 67.933594 72.378906 71.484375 81.511719 C 74.140625 88.328125 72.785156 105.363281 79.167969 109.398438 C 84.035156 112.460938 90.5625 97.660156 92.0625 95.300781 C 94.101562 92.097656 96 88.410156 99.515625 86.296875 C 103.457031 83.925781 109.914062 84.867188 111.429688 79.679688 C 112.140625 77.261719 110.429688 73.875 107.351562 70.304688 " fill-opacity="1" fill-rule="nonzero"/><path fill="#411d27" d="M 178.421875 168.503906 C 179.125 166.640625 179.773438 164.605469 179.21875 162.695312 C 178.828125 161.335938 177.554688 160.175781 176.222656 159.972656 C 174.789062 167.273438 174.644531 172.566406 167.613281 175.304688 C 166.585938 175.707031 162.867188 176.917969 161.375 177.007812 L 168.28125 176.621094 C 172.589844 176.382812 176.375 173.667969 177.972656 169.65625 C 178.125 169.28125 178.273438 168.894531 178.421875 168.503906 " fill-opacity="1" fill-rule="nonzero"/><path fill="#411d27" d="M 118.8125 169.671875 C 116.921875 165.824219 116.308594 161.980469 115.964844 157.703125 C 112.71875 156.964844 112.324219 160.992188 112.589844 164.378906 C 112.722656 166.03125 113.183594 167.609375 113.859375 169.121094 L 113.886719 169.179688 C 115.46875 172.6875 118.8125 175.078125 122.640625 175.503906 L 129.875 176.304688 C 127.28125 175.160156 119.984375 172.070312 118.8125 169.671875 " fill-opacity="1" fill-rule="nonzero"/><path fill="#e6e6e6" d="M 163.503906 175.996094 L 157.695312 175.863281 C 158.417969 175.917969 159.136719 175.96875 159.851562 176.023438 C 160.414062 176.066406 161.90625 176.097656 163.503906 175.996094 " fill-opacity="1" fill-rule="nonzero"/><path fill="#ded9db" d="M 57.070312 302.722656 C 46.1875 302.722656 41.183594 298.386719 38.984375 293.597656 C 38.984375 293.59375 38.984375 293.59375 38.984375 293.59375 C 41.1875 298.382812 46.191406 302.722656 57.074219 302.722656 C 60.996094 302.722656 65.675781 302.160156 71.261719 300.855469 C 65.675781 302.160156 60.992188 302.722656 57.070312 302.722656 " fill-opacity="1" fill-rule="nonzero"/><path fill="#d4b999" d="M 57.074219 302.722656 C 46.191406 302.722656 41.1875 298.382812 38.984375 293.59375 C 39.179688 291.125 40.730469 288.726562 43.144531 288.488281 C 43.328125 288.46875 43.523438 288.460938 43.722656 288.460938 C 44.253906 288.460938 44.8125 288.515625 45.363281 288.574219 C 45.914062 288.632812 46.460938 288.691406 46.976562 288.691406 C 47.976562 288.691406 48.839844 288.46875 49.316406 287.59375 C 49.910156 286.507812 49.335938 285.042969 49.988281 283.992188 C 50.363281 283.382812 51.050781 283.117188 51.769531 283.117188 C 52.375 283.117188 53.011719 283.304688 53.511719 283.640625 C 54.609375 284.371094 55.289062 285.566406 56.121094 286.589844 C 58.8125 289.910156 63.113281 291.40625 66.578125 293.917969 C 68.855469 295.566406 70.820312 298.207031 71.261719 300.855469 C 65.675781 302.160156 60.996094 302.722656 57.074219 302.722656 " fill-opacity="1" fill-rule="nonzero"/><path fill="#e6cba6" d="M 161.011719 336.816406 C 158.527344 340.429688 156 343.351562 153.59375 345.148438 C 152.722656 345.792969 150.625 346.824219 148.347656 347.675781 C 149.492188 346.414062 150.753906 345.203125 152.109375 344.078125 C 156.460938 340.484375 158.121094 337.839844 158.589844 336 C 158.75 335.996094 158.921875 335.972656 159.082031 335.972656 C 159.199219 335.972656 159.3125 335.980469 159.421875 336.019531 C 159.734375 336.179688 159.734375 336.492188 160.050781 336.65625 C 160.40625 336.699219 160.710938 336.753906 161.011719 336.816406 " fill-opacity="1" fill-rule="nonzero"/><path fill="#e8cda7" d="M 93.726562 278.070312 C 93.238281 278.585938 92.761719 279.105469 92.277344 279.621094 L 92.242188 279.59375 L 83.710938 288.828125 L 83.132812 289.441406 L 83.066406 289.519531 L 82.480469 290.160156 L 82.441406 290.195312 C 82.398438 290.160156 82.363281 290.097656 82.34375 290.011719 C 82.273438 289.796875 82.273438 289.449219 82.328125 288.984375 L 82.335938 288.867188 C 82.375 288.589844 82.429688 288.269531 82.488281 287.914062 C 83.183594 284.355469 85.472656 277.457031 87.34375 272.34375 C 87.632812 271.53125 87.917969 270.769531 88.179688 270.070312 C 89.910156 272.230469 91.070312 273.859375 90.285156 276.480469 C 90.925781 274.351562 93.523438 277.632812 93.726562 278.070312 " fill-opacity="1" fill-rule="nonzero"/><path fill="#e09322" d="M 161.011719 336.816406 C 160.710938 336.753906 160.40625 336.699219 160.050781 336.65625 C 159.734375 336.492188 159.734375 336.179688 159.421875 336.019531 C 159.3125 335.980469 159.199219 335.972656 159.082031 335.972656 C 158.921875 335.972656 158.75 335.996094 158.589844 336 C 158.90625 334.765625 160.335938 329.09375 161.6875 323.722656 C 163.042969 318.351562 164.320312 313.296875 164.320312 313.296875 L 164.324219 313.273438 C 164.359375 313.171875 164.386719 313.070312 164.414062 312.972656 C 164.957031 310.75 163.402344 308.5625 161.144531 308.332031 C 160.996094 308.316406 160.84375 308.308594 160.691406 308.308594 C 160.257812 308.316406 159.835938 308.316406 159.429688 308.308594 C 159.296875 308.308594 159.160156 308.308594 159.03125 308.300781 C 158.921875 308.300781 158.8125 308.300781 158.707031 308.292969 C 158.613281 308.292969 158.527344 308.292969 158.4375 308.285156 C 158.144531 308.277344 157.851562 308.269531 157.566406 308.253906 C 157.421875 308.238281 157.265625 308.234375 157.121094 308.222656 C 157 308.21875 156.867188 308.207031 156.742188 308.199219 L 156.605469 308.183594 C 156.484375 308.179688 156.359375 308.167969 156.246094 308.15625 C 156.007812 308.140625 155.777344 308.117188 155.546875 308.09375 L 155.390625 308.070312 C 155.246094 308.054688 155.105469 308.039062 154.960938 308.027344 C 154.722656 307.992188 154.476562 307.960938 154.246094 307.933594 C 154.085938 307.910156 153.9375 307.882812 153.785156 307.863281 C 153.578125 307.824219 153.367188 307.792969 153.160156 307.753906 L 153.03125 307.730469 C 152.933594 307.714844 152.832031 307.691406 152.730469 307.675781 L 152.609375 307.65625 C 152.5 307.632812 152.402344 307.617188 152.300781 307.59375 C 151.808594 307.492188 151.332031 307.386719 150.878906 307.273438 C 150.726562 307.234375 150.5625 307.183594 150.410156 307.148438 C 150.261719 307.101562 150.109375 307.066406 149.960938 307.015625 C 149.855469 306.988281 149.753906 306.957031 149.65625 306.921875 C 149.5625 306.902344 149.472656 306.871094 149.386719 306.839844 C 148.980469 306.714844 148.585938 306.585938 148.226562 306.449219 C 148.085938 306.394531 147.949219 306.347656 147.816406 306.296875 C 147.6875 306.242188 147.554688 306.195312 147.433594 306.140625 C 147.359375 306.109375 147.28125 306.082031 147.203125 306.042969 C 146.742188 305.847656 146.308594 305.648438 145.910156 305.449219 L 145.785156 305.386719 C 145.648438 305.316406 145.519531 305.25 145.386719 305.179688 L 145.25 305.105469 C 145.066406 305.003906 144.878906 304.898438 144.710938 304.796875 L 144.542969 304.695312 C 144.382812 304.597656 144.226562 304.496094 144.082031 304.394531 C 144.003906 304.351562 143.925781 304.296875 143.859375 304.253906 C 143.558594 304.042969 143.296875 303.859375 143.074219 303.683594 L 142.914062 303.542969 L 142.796875 303.449219 L 142.789062 303.449219 L 142.636719 303.320312 L 142.628906 303.308594 L 142.589844 303.28125 C 142.144531 302.898438 141.613281 302.636719 141.035156 302.5 C 140.703125 302.414062 140.375 302.335938 140.042969 302.253906 C 139.921875 302.214844 139.796875 302.183594 139.667969 302.152344 C 139.597656 302.128906 139.527344 302.105469 139.453125 302.089844 C 139.351562 302.0625 139.25 302.035156 139.152344 302.007812 C 138.96875 301.953125 138.78125 301.898438 138.605469 301.855469 C 138.519531 301.824219 138.429688 301.800781 138.34375 301.777344 C 138.175781 301.722656 138.007812 301.667969 137.835938 301.613281 C 137.707031 301.578125 137.574219 301.539062 137.453125 301.5 C 137.367188 301.46875 137.292969 301.445312 137.214844 301.421875 C 137.050781 301.371094 136.890625 301.316406 136.730469 301.261719 C 136.613281 301.222656 136.5 301.183594 136.382812 301.144531 L 136.199219 301.078125 C 136.089844 301.046875 135.992188 301.007812 135.894531 300.96875 C 135.542969 300.84375 135.199219 300.726562 134.863281 300.59375 C 134.730469 300.546875 134.605469 300.492188 134.484375 300.445312 C 134.335938 300.390625 134.191406 300.332031 134.046875 300.269531 C 133.902344 300.21875 133.753906 300.15625 133.605469 300.09375 C 133.492188 300.046875 133.375 300 133.261719 299.949219 L 133.125 299.894531 C 133.023438 299.847656 132.929688 299.808594 132.832031 299.765625 C 132.660156 299.691406 132.5 299.617188 132.332031 299.546875 C 132.164062 299.46875 131.984375 299.394531 131.816406 299.308594 C 131.695312 299.257812 131.578125 299.203125 131.453125 299.140625 C 131.191406 299.015625 130.941406 298.894531 130.683594 298.769531 C 130.546875 298.703125 130.417969 298.632812 130.277344 298.574219 C 130.160156 298.511719 130.039062 298.449219 129.925781 298.386719 C 129.625 298.234375 129.332031 298.082031 129.046875 297.917969 C 128.972656 297.878906 128.902344 297.84375 128.835938 297.804688 C 128.730469 297.75 128.640625 297.695312 128.539062 297.640625 C 128.339844 297.527344 128.140625 297.410156 127.949219 297.304688 C 127.855469 297.25 127.769531 297.199219 127.679688 297.148438 C 127.464844 297.019531 127.257812 296.898438 127.042969 296.765625 C 126.972656 296.722656 126.902344 296.683594 126.824219 296.636719 L 126.726562 296.574219 C 126.597656 296.488281 126.464844 296.410156 126.335938 296.328125 C 126.210938 296.242188 126.078125 296.164062 125.957031 296.082031 C 125.886719 296.035156 125.820312 295.996094 125.75 295.953125 L 125.3125 295.652344 C 125.15625 295.554688 125.003906 295.449219 124.847656 295.347656 C 124.6875 295.238281 124.53125 295.121094 124.375 295.011719 L 124.351562 294.996094 C 124.035156 294.777344 123.734375 294.554688 123.433594 294.332031 C 123.265625 294.207031 123.101562 294.085938 122.945312 293.96875 C 122.804688 293.855469 122.660156 293.746094 122.519531 293.636719 C 122.402344 293.546875 122.289062 293.453125 122.175781 293.363281 C 121.683594 292.972656 121.195312 292.578125 120.738281 292.171875 C 120.621094 292.082031 120.503906 291.976562 120.398438 291.878906 L 120.304688 291.800781 C 120.21875 291.726562 120.128906 291.648438 120.042969 291.574219 C 119.605469 291.179688 119.183594 290.785156 118.765625 290.386719 C 118.695312 290.316406 118.621094 290.25 118.554688 290.1875 L 118.238281 289.875 C 118.046875 289.6875 117.859375 289.496094 117.675781 289.304688 C 117.589844 289.230469 117.507812 289.144531 117.429688 289.058594 L 117.382812 289.007812 C 117.300781 288.929688 117.222656 288.84375 117.144531 288.765625 C 117.058594 288.671875 116.976562 288.582031 116.882812 288.488281 C 116.796875 288.398438 116.714844 288.3125 116.628906 288.21875 C 116.5625 288.144531 116.492188 288.0625 116.414062 287.984375 C 116.070312 287.609375 115.730469 287.222656 115.398438 286.84375 C 115.238281 286.660156 115.082031 286.476562 114.929688 286.292969 C 113.308594 284.355469 111.910156 282.410156 110.703125 280.53125 C 110.648438 280.453125 110.59375 280.367188 110.539062 280.285156 C 109.917969 279.300781 109.355469 278.332031 108.84375 277.402344 C 108.738281 277.238281 108.65625 277.070312 108.5625 276.902344 C 108.519531 276.816406 108.472656 276.742188 108.425781 276.65625 C 108.386719 276.570312 108.339844 276.496094 108.296875 276.410156 C 108.210938 276.25 108.125 276.085938 108.039062 275.925781 C 108 275.839844 107.957031 275.765625 107.917969 275.683594 C 107.84375 275.527344 107.757812 275.367188 107.679688 275.210938 C 107.640625 275.125 107.601562 275.050781 107.566406 274.972656 C 107.449219 274.742188 107.335938 274.511719 107.226562 274.28125 C 107.1875 274.214844 107.15625 274.136719 107.117188 274.058594 C 107.050781 273.914062 106.980469 273.761719 106.910156 273.621094 C 106.839844 273.476562 106.777344 273.328125 106.710938 273.183594 C 106.609375 272.960938 106.515625 272.746094 106.417969 272.53125 L 106.34375 272.351562 L 106.324219 272.3125 C 105.242188 269.863281 102.003906 269.292969 100.152344 271.246094 C 99.574219 271.84375 99 272.460938 98.40625 273.082031 L 98.34375 273.144531 C 97.53125 274.011719 96.699219 274.894531 95.859375 275.78125 C 95.15625 276.539062 94.441406 277.300781 93.726562 278.070312 C 93.523438 277.632812 90.925781 274.351562 90.285156 276.480469 C 91.070312 273.859375 89.910156 272.230469 88.179688 270.070312 C 88.980469 267.964844 89.609375 266.453125 89.839844 266.078125 L 99.664062 250.421875 C 101.382812 247.695312 105.511719 248.238281 106.464844 251.3125 C 109.824219 262.125 116.578125 280.011719 124.582031 280.53125 C 136.074219 281.257812 146.679688 297.535156 169.808594 286.539062 C 185.957031 278.859375 174.207031 317.613281 161.011719 336.816406 " fill-opacity="1" fill-rule="nonzero"/><path fill="#e6cba6" d="M 291.453125 265.546875 C 278.210938 260.980469 272.601562 245.519531 271.652344 242.742188 L 271.628906 242.675781 C 271.816406 242.707031 272 242.753906 272.1875 242.851562 C 272.5 243.003906 272.824219 243.320312 273.617188 243.320312 C 273.777344 243.320312 273.929688 243.796875 274.253906 243.960938 C 274.730469 244.121094 278.382812 252.050781 278.699219 252.210938 C 281.042969 253.972656 282.542969 251.644531 284.386719 249.667969 C 285.539062 248.433594 286.832031 247.332031 288.546875 247.449219 C 289.023438 247.609375 292.992188 252.851562 293.785156 252.851562 C 294.746094 252.878906 295.546875 252.511719 296.234375 251.980469 L 296.414062 251.835938 C 292.246094 258.230469 290.714844 264.023438 291.453125 265.546875 " fill-opacity="1" fill-rule="nonzero"/><path fill="#e09322" d="M 292.214844 265.914062 L 292.199219 265.929688 L 292.214844 265.914062 " fill-opacity="1" fill-rule="nonzero"/><path fill="#e09322" d="M 299.957031 244.851562 C 299.746094 245.488281 299.820312 247.09375 298.773438 248.523438 L 298.691406 248.640625 C 297.859375 249.707031 297.097656 250.78125 296.414062 251.835938 L 296.234375 251.980469 C 295.546875 252.511719 294.746094 252.878906 293.785156 252.851562 C 292.992188 252.851562 289.023438 247.609375 288.546875 247.449219 C 286.832031 247.332031 285.539062 248.433594 284.386719 249.667969 C 282.542969 251.644531 281.042969 253.972656 278.699219 252.210938 C 278.382812 252.050781 274.730469 244.121094 274.253906 243.960938 C 273.929688 243.796875 273.777344 243.320312 273.617188 243.320312 C 272.824219 243.320312 272.5 243.003906 272.1875 242.851562 C 272 242.753906 271.816406 242.707031 271.628906 242.675781 L 271.652344 242.742188 C 272.601562 245.519531 272.589844 245.640625 271.652344 242.859375 L 271.628906 242.796875 C 271.554688 242.550781 271.507812 242.421875 271.507812 242.421875 L 271.078125 242.769531 L 270.925781 242.777344 C 270.71875 242.792969 270.511719 242.808594 270.292969 242.808594 L 270.277344 242.808594 L 270.324219 243.25 L 270.339844 243.359375 L 268.648438 244.714844 L 244.878906 263.753906 L 227.554688 277.632812 C 227.554688 277.632812 227.402344 278.390625 227.125 279.746094 L 227.101562 279.722656 L 227.101562 279.714844 C 226.03125 278.476562 225.496094 276.691406 225.640625 274.230469 C 226.105469 267.386719 219.699219 261.226562 221.796875 253.996094 C 224.089844 246.117188 226.015625 271.914062 232.867188 267.441406 C 238.535156 263.746094 241.289062 259.574219 244.59375 255.195312 C 248.90625 249.5 254.160156 243.453125 268 237.660156 C 268.691406 237.363281 269.417969 237.082031 270.15625 236.789062 C 271.476562 236.265625 277.644531 227.964844 279.152344 228.550781 C 283.859375 230.375 288.941406 233.207031 293.191406 234.730469 C 300.183594 237.226562 302.796875 236.566406 299.957031 244.851562 " fill-opacity="1" fill-rule="nonzero"/><path fill="#eb553f" d="M 97.914062 318.796875 C 97.914062 338.085938 82.960938 353.890625 64.003906 355.25 C 63.4375 355.300781 62.859375 355.328125 62.28125 355.335938 C 61.96875 355.34375 61.652344 355.355469 61.335938 355.355469 C 52.164062 355.355469 43.789062 351.980469 37.367188 346.410156 C 29.640625 339.707031 24.757812 329.824219 24.757812 318.796875 C 24.757812 298.613281 41.136719 282.242188 61.335938 282.242188 C 67.765625 282.242188 73.800781 283.902344 79.050781 286.804688 C 88.855469 292.238281 95.898438 302.050781 97.546875 313.597656 C 97.792969 315.292969 97.914062 317.03125 97.914062 318.796875 " fill-opacity="1" fill-rule="nonzero"/><path fill="#e3523d" d="M 73.613281 284.417969 C 81.273438 291.121094 86.109375 300.960938 86.109375 311.9375 C 86.109375 332.125 69.734375 348.488281 49.535156 348.488281 C 45.175781 348.488281 40.988281 347.726562 37.113281 346.324219 C 43.546875 351.953125 51.96875 355.363281 61.1875 355.363281 C 81.390625 355.363281 97.765625 338.996094 97.765625 318.808594 C 97.765625 302.980469 87.695312 289.503906 73.613281 284.417969 " fill-opacity="1" fill-rule="nonzero"/><path fill="#d64d3a" d="M 97.707031 318.246094 C 97.707031 318.472656 97.707031 318.699219 97.703125 318.925781 C 97.347656 339.109375 81.105469 355.363281 61.128906 355.363281 C 53.871094 355.363281 47.105469 353.214844 41.414062 349.519531 C 45.667969 351.265625 50.308594 352.230469 55.179688 352.230469 C 75.378906 352.230469 91.757812 335.613281 91.757812 315.117188 C 91.757812 304.019531 86.953125 294.066406 79.347656 287.269531 C 79.230469 287.160156 79.113281 287.058594 78.992188 286.960938 C 88.796875 292.472656 95.839844 302.4375 97.484375 314.15625 C 97.632812 315.5 97.707031 316.867188 97.707031 318.246094 " fill-opacity="1" fill-rule="nonzero"/><path fill="#f08577" d="M 68.78125 283.65625 C 68.78125 285.816406 67.027344 287.566406 64.863281 287.566406 C 62.699219 287.566406 60.945312 285.816406 60.945312 283.65625 C 60.945312 281.488281 62.699219 279.738281 64.863281 279.738281 C 67.027344 279.738281 68.78125 281.488281 68.78125 283.65625 " fill-opacity="1" fill-rule="nonzero"/><path fill="#f08577" d="M 53.742188 284.90625 C 53.742188 287.066406 51.984375 288.820312 49.824219 288.820312 C 47.660156 288.820312 45.90625 287.066406 45.90625 284.90625 C 45.90625 282.746094 47.660156 280.992188 49.824219 280.992188 C 51.984375 280.992188 53.742188 282.746094 53.742188 284.90625 " fill-opacity="1" fill-rule="nonzero"/><path fill="#f08577" d="M 41.835938 291.480469 C 41.835938 293.640625 40.082031 295.394531 37.921875 295.394531 C 35.757812 295.394531 34.003906 293.640625 34.003906 291.480469 C 34.003906 289.320312 35.757812 287.566406 37.921875 287.566406 C 40.082031 287.566406 41.835938 289.320312 41.835938 291.480469 " fill-opacity="1" fill-rule="nonzero"/><path fill="#f08577" d="M 52.488281 298.054688 C 52.488281 300.21875 50.734375 301.96875 48.570312 301.96875 C 46.410156 301.96875 44.65625 300.21875 44.65625 298.054688 C 44.65625 295.890625 46.410156 294.140625 48.570312 294.140625 C 50.734375 294.140625 52.488281 295.890625 52.488281 298.054688 " fill-opacity="1" fill-rule="nonzero"/><path fill="#f08577" d="M 69.5625 300.089844 C 69.5625 302.25 67.804688 304.003906 65.644531 304.003906 C 63.480469 304.003906 61.730469 302.25 61.730469 300.089844 C 61.730469 297.925781 63.480469 296.175781 65.644531 296.175781 C 67.804688 296.175781 69.5625 297.925781 69.5625 300.089844 " fill-opacity="1" fill-rule="nonzero"/><path fill="#f08577" d="M 82.25 301.183594 C 82.25 303.347656 80.496094 305.097656 78.335938 305.097656 C 76.171875 305.097656 74.417969 303.347656 74.417969 301.183594 C 74.417969 299.027344 76.171875 297.273438 78.335938 297.273438 C 80.496094 297.273438 82.25 299.027344 82.25 301.183594 " fill-opacity="1" fill-rule="nonzero"/><path fill="#f08577" d="M 75.984375 312.769531 C 75.984375 314.933594 74.230469 316.683594 72.070312 316.683594 C 69.90625 316.683594 68.152344 314.933594 68.152344 312.769531 C 68.152344 310.609375 69.90625 308.855469 72.070312 308.855469 C 74.230469 308.855469 75.984375 310.609375 75.984375 312.769531 " fill-opacity="1" fill-rule="nonzero"/><path fill="#f08577" d="M 50.921875 321.222656 C 50.921875 323.386719 49.167969 325.136719 47.007812 325.136719 C 44.839844 325.136719 43.089844 323.386719 43.089844 321.222656 C 43.089844 319.0625 44.839844 317.308594 47.007812 317.308594 C 49.167969 317.308594 50.921875 319.0625 50.921875 321.222656 " fill-opacity="1" fill-rule="nonzero"/><path fill="#f08577" d="M 59.222656 310.421875 C 59.222656 312.582031 57.472656 314.335938 55.304688 314.335938 C 53.144531 314.335938 51.390625 312.582031 51.390625 310.421875 C 51.390625 308.257812 53.144531 306.507812 55.304688 306.507812 C 57.472656 306.507812 59.222656 308.257812 59.222656 310.421875 " fill-opacity="1" fill-rule="nonzero"/><path fill="#f08577" d="M 70.816406 324.355469 C 70.816406 326.515625 69.0625 328.269531 66.898438 328.269531 C 64.738281 328.269531 62.984375 326.515625 62.984375 324.355469 C 62.984375 322.195312 64.738281 320.441406 66.898438 320.441406 C 69.0625 320.441406 70.816406 322.195312 70.816406 324.355469 " fill-opacity="1" fill-rule="nonzero"/><path fill="#f08577" d="M 85.695312 316.058594 C 85.695312 318.21875 83.941406 319.972656 81.78125 319.972656 C 79.617188 319.972656 77.863281 318.21875 77.863281 316.058594 C 77.863281 313.898438 79.617188 312.144531 81.78125 312.144531 C 83.941406 312.144531 85.695312 313.898438 85.695312 316.058594 " fill-opacity="1" fill-rule="nonzero"/><path fill="#f08577" d="M 86.792969 328.738281 C 86.792969 330.898438 85.039062 332.652344 82.875 332.652344 C 80.714844 332.652344 78.957031 330.898438 78.957031 328.738281 C 78.957031 326.574219 80.714844 324.824219 82.875 324.824219 C 85.039062 324.824219 86.792969 326.574219 86.792969 328.738281 " fill-opacity="1" fill-rule="nonzero"/><path fill="#f08577" d="M 61.257812 331.242188 C 61.257812 333.402344 59.507812 335.15625 57.34375 335.15625 C 55.179688 335.15625 53.429688 333.402344 53.429688 331.242188 C 53.429688 329.078125 55.179688 327.328125 57.34375 327.328125 C 59.507812 327.328125 61.257812 329.078125 61.257812 331.242188 " fill-opacity="1" fill-rule="nonzero"/><path fill="#f08577" d="M 79.742188 338.601562 C 79.742188 340.761719 77.988281 342.511719 75.824219 342.511719 C 73.664062 342.511719 71.914062 340.761719 71.914062 338.601562 C 71.914062 336.441406 73.664062 334.6875 75.824219 334.6875 C 77.988281 334.6875 79.742188 336.441406 79.742188 338.601562 " fill-opacity="1" fill-rule="nonzero"/><path fill="#f08577" d="M 57.65625 342.511719 C 57.65625 344.671875 55.902344 346.425781 53.742188 346.425781 C 51.578125 346.425781 49.824219 344.671875 49.824219 342.511719 C 49.824219 340.351562 51.578125 338.601562 53.742188 338.601562 C 55.902344 338.601562 57.65625 340.351562 57.65625 342.511719 " fill-opacity="1" fill-rule="nonzero"/><path fill="#f08577" d="M 69.5625 347.679688 C 69.5625 349.84375 67.804688 351.59375 65.644531 351.59375 C 63.480469 351.59375 61.730469 349.84375 61.730469 347.679688 C 61.730469 345.515625 63.480469 343.765625 65.644531 343.765625 C 67.804688 343.765625 69.5625 345.515625 69.5625 347.679688 " fill-opacity="1" fill-rule="nonzero"/><path fill="#f08577" d="M 41.835938 313.238281 C 41.835938 315.402344 40.082031 317.152344 37.921875 317.152344 C 35.757812 317.152344 34.003906 315.402344 34.003906 313.238281 C 34.003906 311.078125 35.757812 309.324219 37.921875 309.324219 C 40.082031 309.324219 41.835938 311.078125 41.835938 313.238281 " fill-opacity="1" fill-rule="nonzero"/><path fill="#f08577" d="M 47.164062 333.746094 C 47.164062 335.910156 45.410156 337.660156 43.246094 337.660156 C 41.082031 337.660156 39.328125 335.910156 39.328125 333.746094 C 39.328125 331.585938 41.082031 329.832031 43.246094 329.832031 C 45.410156 329.832031 47.164062 331.585938 47.164062 333.746094 " fill-opacity="1" fill-rule="nonzero"/><path fill="#f08577" d="M 33.0625 303.222656 C 33.0625 305.382812 31.308594 307.132812 29.148438 307.132812 C 26.984375 307.132812 25.234375 305.382812 25.234375 303.222656 C 25.234375 301.058594 26.984375 299.308594 29.148438 299.308594 C 31.308594 299.308594 33.0625 301.058594 33.0625 303.222656 " fill-opacity="1" fill-rule="nonzero"/><path fill="#f08577" d="M 33.0625 332.964844 C 33.0625 335.125 31.308594 336.878906 29.148438 336.878906 C 26.984375 336.878906 25.234375 335.125 25.234375 332.964844 C 25.234375 330.800781 26.984375 329.050781 29.148438 329.050781 C 31.308594 329.050781 33.0625 330.800781 33.0625 332.964844 " fill-opacity="1" fill-rule="nonzero"/><path fill="#f08577" d="M 55.304688 353.472656 C 55.304688 355.632812 53.554688 357.386719 51.390625 357.386719 C 49.230469 357.386719 47.476562 355.632812 47.476562 353.472656 C 47.476562 351.308594 49.230469 349.558594 51.390625 349.558594 C 53.554688 349.558594 55.304688 351.308594 55.304688 353.472656 " fill-opacity="1" fill-rule="nonzero"/><path fill="#f08577" d="M 42.773438 346.425781 C 42.773438 348.585938 41.023438 350.339844 38.859375 350.339844 C 36.699219 350.339844 34.945312 348.585938 34.945312 346.425781 C 34.945312 344.265625 36.699219 342.511719 38.859375 342.511719 C 41.023438 342.511719 42.773438 344.265625 42.773438 346.425781 " fill-opacity="1" fill-rule="nonzero"/><g clip-path="url(#06bed8f37f)"><path fill="#f08577" d="M 29.460938 318.875 C 29.460938 321.039062 27.707031 322.789062 25.546875 322.789062 C 23.382812 322.789062 21.628906 321.039062 21.628906 318.875 C 21.628906 316.710938 23.382812 314.960938 25.546875 314.960938 C 27.707031 314.960938 29.460938 316.710938 29.460938 318.875 " fill-opacity="1" fill-rule="nonzero"/></g><path fill="#f08577" d="M 82.25 287.566406 C 82.25 289.726562 80.496094 291.480469 78.335938 291.480469 C 76.171875 291.480469 74.417969 289.726562 74.417969 287.566406 C 74.417969 285.40625 76.171875 283.65625 78.335938 283.65625 C 80.496094 283.65625 82.25 285.40625 82.25 287.566406 " fill-opacity="1" fill-rule="nonzero"/><path fill="#f08577" d="M 94.9375 299.308594 C 94.9375 301.46875 93.183594 303.222656 91.023438 303.222656 C 88.859375 303.222656 87.105469 301.46875 87.105469 299.308594 C 87.105469 297.148438 88.859375 295.394531 91.023438 295.394531 C 93.183594 295.394531 94.9375 297.148438 94.9375 299.308594 " fill-opacity="1" fill-rule="nonzero"/><path fill="#f08577" d="M 100.730469 314.335938 C 100.730469 316.496094 98.980469 318.25 96.820312 318.25 C 94.652344 318.25 92.902344 316.496094 92.902344 314.335938 C 92.902344 312.171875 94.652344 310.421875 96.820312 310.421875 C 98.980469 310.421875 100.730469 312.171875 100.730469 314.335938 " fill-opacity="1" fill-rule="nonzero"/><path fill="#f08577" d="M 98.855469 330.148438 C 98.855469 332.304688 97.101562 334.058594 94.9375 334.058594 C 92.777344 334.058594 91.023438 332.304688 91.023438 330.148438 C 91.023438 327.984375 92.777344 326.234375 94.9375 326.234375 C 97.101562 326.234375 98.855469 327.984375 98.855469 330.148438 " fill-opacity="1" fill-rule="nonzero"/><path fill="#f08577" d="M 90.710938 342.828125 C 90.710938 344.988281 88.953125 346.742188 86.792969 346.742188 C 84.628906 346.742188 82.875 344.988281 82.875 342.828125 C 82.875 340.667969 84.628906 338.914062 86.792969 338.914062 C 88.953125 338.914062 90.710938 340.667969 90.710938 342.828125 " fill-opacity="1" fill-rule="nonzero"/><path fill="#f08577" d="M 79.585938 351.4375 C 79.585938 353.597656 77.832031 355.351562 75.671875 355.351562 C 73.507812 355.351562 71.753906 353.597656 71.753906 351.4375 C 71.753906 349.273438 73.507812 347.523438 75.671875 347.523438 C 77.832031 347.523438 79.585938 349.273438 79.585938 351.4375 " fill-opacity="1" fill-rule="nonzero"/><path fill="#e6cba6" d="M 348.738281 8.570312 C 349.109375 8.269531 347.683594 7.65625 345.601562 6.980469 C 340.566406 12.011719 334.4375 17.597656 329.140625 24.835938 L 329.132812 24.84375 C 328.226562 26.097656 327.332031 27.386719 326.480469 28.742188 C 328.15625 28.910156 330.777344 28.648438 331.683594 28.765625 C 332 28.800781 332.109375 28.886719 331.902344 29.046875 L 331.890625 29.058594 C 319.519531 38.859375 328.546875 36.371094 336.496094 34.574219 C 335.699219 33.78125 336.777344 31.730469 338.734375 28.925781 C 340.75 23.875 343.226562 18.390625 346.039062 17.9375 C 342.226562 14.289062 340.351562 15.71875 341.273438 14.761719 C 342.203125 13.8125 346.808594 10.128906 348.738281 8.570312 " fill-opacity="1" fill-rule="nonzero"/><path fill="#e09322" d="M 350.828125 182.515625 C 348.164062 182.023438 346.570312 180.179688 348.0625 178.742188 C 339.089844 171.132812 331.222656 156.878906 326.570312 146.152344 C 321.910156 135.417969 317.8125 129.589844 311.4375 119.984375 C 301.988281 105.746094 318.761719 88.488281 317.222656 71.734375 C 315.445312 52.523438 319.972656 39.039062 326.480469 28.742188 C 328.15625 28.910156 330.777344 28.648438 331.683594 28.765625 C 332 28.800781 332.109375 28.886719 331.902344 29.046875 L 331.890625 29.058594 C 319.519531 38.859375 328.546875 36.371094 336.496094 34.574219 C 335.738281 36.363281 334.996094 37.816406 334.4375 38.515625 C 326.15625 48.828125 322.25 61.976562 323.585938 75.132812 L 324.117188 121.421875 C 334.738281 131.667969 347.125 151.675781 348.785156 163.648438 C 349.21875 166.730469 349.691406 169.804688 350.207031 172.871094 C 350.167969 176.058594 350.277344 179.273438 350.828125 182.515625 " fill-opacity="1" fill-rule="nonzero"/></svg>