<svg xmlns="http://www.w3.org/2000/svg" xmlns:xlink="http://www.w3.org/1999/xlink" width="500" zoomAndPan="magnify" viewBox="0 0 375 374.999991" height="500" preserveAspectRatio="xMidYMid meet" version="1.0"><defs><clipPath id="0677c63835"><path d="M 102.214844 8 L 139.5625 8 L 139.5625 102 L 102.214844 102 Z M 102.214844 8 " clip-rule="nonzero"/></clipPath><clipPath id="8d6db3b53f"><path d="M 109.71875 101.417969 C 110.34375 98.867188 111.40625 96.292969 111.816406 94.167969 C 112.445312 90.925781 111.140625 88.140625 110.152344 84.996094 C 109.984375 84.464844 109.855469 83.945312 109.746094 83.441406 C 109.652344 82.730469 109.542969 82.03125 109.410156 81.335938 C 109.21875 79.757812 109.144531 78.1875 108.859375 76.429688 C 108.070312 71.503906 107.132812 66.136719 105.722656 61.445312 C 104.429688 57.140625 102.5625 52.320312 102.738281 47.6875 C 102.828125 45.125 103.914062 42.808594 104.265625 40.347656 C 104.703125 37.335938 104.371094 34.226562 104.566406 31.171875 C 104.714844 28.832031 104.855469 25.546875 105.46875 23.222656 C 106.246094 20.28125 108.285156 20.359375 108.859375 17.414062 C 109.515625 14.058594 108.539062 12.953125 111.898438 11.371094 C 114.433594 10.179688 117.609375 9.140625 120.257812 8.390625 C 117.757812 9.097656 114.789062 10.066406 112.335938 11.175781 C 113.160156 12.03125 113.933594 13.023438 114.691406 14.175781 C 115.992188 16.15625 117.382812 18.527344 119.867188 18.96875 C 121.863281 19.328125 124.097656 19.765625 125.210938 21.6875 C 127.210938 25.132812 126.882812 30.285156 126.738281 34.109375 C 126.578125 38.296875 126.164062 41.71875 123.714844 45.226562 C 122.054688 47.605469 120.089844 49.914062 118.863281 52.5625 C 118.582031 53.183594 118.304688 53.847656 118.214844 54.53125 C 118.234375 54.691406 118.242188 54.804688 118.242188 54.890625 C 118.9375 55.472656 119.675781 56.003906 120.316406 56.644531 C 124.148438 60.519531 123.933594 66.582031 124.347656 71.683594 C 124.796875 77.226562 125.492188 84.464844 122.242188 89.367188 C 119.25 93.882812 114.6875 96.582031 110.261719 99.488281 C 110.0625 100.125 109.878906 100.773438 109.71875 101.417969 M 132.386719 57.160156 C 134.570312 50.359375 137.03125 49.070312 138.339844 42.183594 C 139.480469 36.171875 139.035156 24.753906 139.34375 18.640625 C 139.035156 24.753906 139.480469 37.191406 138.339844 43.207031 C 137.03125 50.09375 134.570312 50.359375 132.386719 57.160156 M 120.261719 8.390625 C 120.269531 8.390625 120.277344 8.386719 120.285156 8.386719 C 120.277344 8.386719 120.269531 8.390625 120.261719 8.390625 M 120.296875 8.382812 C 120.304688 8.378906 120.304688 8.378906 120.308594 8.378906 C 120.304688 8.378906 120.304688 8.378906 120.296875 8.382812 " clip-rule="nonzero"/></clipPath></defs><path fill="#99673b" d="M 279.457031 305.441406 C 279.457031 305.441406 295.9375 326.144531 311.265625 328.066406 C 326.597656 329.980469 343.84375 333.433594 348.0625 333.816406 C 352.273438 334.203125 354.574219 348.769531 344.609375 348.386719 C 334.648438 348.003906 297.667969 348.386719 292.78125 344.9375 C 287.890625 341.488281 272.5625 334.203125 272.5625 334.203125 L 266.429688 311.957031 L 279.457031 305.441406 " fill-opacity="1" fill-rule="nonzero"/><path fill="#f4f4f4" d="M 348.0625 333.816406 C 346.128906 333.640625 341.46875 332.824219 335.515625 331.800781 C 336.210938 332.542969 336.582031 333.691406 336.226562 334.566406 C 336.171875 334.910156 336.121094 335.144531 336.066406 335.277344 C 336.429688 335.542969 336.8125 335.785156 337.226562 335.972656 C 338.816406 336.824219 339.09375 339.351562 337.75 340.523438 C 338.160156 341.96875 337.335938 343.871094 335.78125 344.21875 C 335.671875 344.246094 335.570312 344.273438 335.460938 344.300781 C 335.289062 345.414062 334.5625 346.519531 333.480469 346.90625 C 333.191406 347.007812 333.007812 347.109375 332.886719 347.1875 C 333 347.335938 333.109375 347.492188 333.136719 347.542969 C 333.304688 347.765625 333.496094 347.972656 333.683594 348.183594 C 338.324219 348.246094 342.238281 348.296875 344.609375 348.386719 C 354.574219 348.769531 352.273438 334.203125 348.0625 333.816406 " fill-opacity="1" fill-rule="nonzero"/><path fill="#6b4228" d="M 295.464844 342.007812 C 295.75 340.570312 295.355469 341.230469 293.863281 340.753906 C 292.480469 340.3125 290.933594 339.5625 290.523438 338.019531 C 290.230469 336.929688 290.078125 335.964844 290.269531 334.839844 C 290.367188 334.226562 290.183594 333.039062 290.523438 334.1875 C 290 332.441406 290.164062 330.757812 288.851562 329.804688 C 287.410156 328.757812 286.1875 327.699219 285.441406 326.046875 C 284.390625 323.707031 286.058594 321.503906 288.566406 321.871094 C 288.03125 320.535156 286.980469 319.410156 285.984375 318.242188 C 284.882812 316.960938 283.070312 315.40625 283.625 313.507812 C 283.886719 312.625 284.230469 311.878906 284.640625 311.234375 C 281.429688 307.917969 279.457031 305.441406 279.457031 305.441406 L 266.429688 311.957031 L 272.5625 334.203125 C 272.5625 334.203125 287.890625 341.488281 292.78125 344.9375 C 293.394531 345.375 294.527344 345.75 296.054688 346.074219 C 295.472656 344.738281 295.171875 343.488281 295.464844 342.007812 " fill-opacity="1" fill-rule="nonzero"/><path fill="#d3d2d2" d="M 130.480469 289.273438 C 130.480469 289.273438 132.714844 301.699219 139.335938 302.382812 C 155.800781 304.082031 144.679688 333.21875 163.445312 331.386719 C 146.054688 339.378906 127.53125 336.441406 128.410156 346.316406 C 128.523438 346.953125 129.363281 347.515625 130.703125 348.003906 C 131.480469 350.035156 138.90625 350.207031 146.210938 350.070312 C 148.183594 353.894531 195.546875 345 195.882812 342.976562 C 196.632812 338.371094 194.882812 335.664062 194.714844 324.320312 C 196.121094 317.089844 209.78125 302.890625 205.453125 284.984375 C 204.179688 279.714844 193.832031 263.410156 197.214844 254.484375 C 199.730469 247.847656 157.625 240.882812 137.550781 254.824219 C 132.992188 257.988281 135.730469 272.449219 130.796875 281.125 C 128.460938 285.234375 130.480469 289.273438 130.480469 289.273438 " fill-opacity="1" fill-rule="nonzero"/><path fill="#abaaaa" d="M 205.453125 284.984375 C 204.179688 279.714844 193.832031 263.410156 197.214844 254.484375 C 199.601562 248.195312 161.886719 241.609375 140.851562 252.820312 C 142.109375 253.261719 143.023438 254.449219 142.449219 256.082031 C 140.253906 262.3125 136.398438 264.238281 136.246094 270.925781 C 136.085938 277.953125 136.195312 288.179688 140.179688 293.859375 C 144.570312 300.105469 157.746094 313.261719 162.988281 318.832031 C 166.574219 322.636719 165.65625 324.300781 169.519531 327.800781 C 173.113281 331.070312 177.503906 329.722656 177.945312 334.828125 C 178.355469 339.519531 172.113281 339.003906 167.960938 340.957031 C 163.867188 342.875 162.035156 343.226562 157.660156 344.003906 C 153.589844 344.726562 150.386719 349.417969 146.300781 350.1875 C 149.226562 353.699219 195.550781 344.976562 195.882812 342.976562 C 196.632812 338.371094 194.882812 335.664062 194.714844 324.320312 C 196.121094 317.089844 209.78125 302.890625 205.453125 284.984375 " fill-opacity="1" fill-rule="nonzero"/><path fill="#99673b" d="M 107.808594 104.378906 C 107.808594 104.378906 107.234375 131.476562 105.535156 136.371094 C 103.839844 141.261719 95.003906 168.15625 94.039062 176.3125 C 93.078125 184.464844 95.488281 207.117188 95.757812 221.792969 C 95.800781 224.046875 120.828125 250.632812 128.003906 256.859375 C 141.570312 268.628906 142.644531 307.359375 176.058594 318.097656 C 183.410156 330.332031 218.4375 340.664062 246.3125 338.199219 C 251.757812 337.710938 256.515625 337.875 260.652344 338.03125 C 270.085938 338.394531 276.261719 338.757812 279.84375 331.519531 C 283.25 324.621094 272.503906 314.957031 275.246094 313.527344 C 285.59375 308.128906 297.191406 269.289062 291.085938 256.445312 C 288.308594 250.617188 276.558594 226.410156 265.53125 217.425781 C 260.890625 213.640625 238.429688 198.457031 238.429688 198.457031 C 238.429688 198.457031 221.214844 177.414062 220.542969 176.957031 C 217.484375 174.921875 211.75 162.773438 210.117188 158.695312 C 208.484375 154.617188 195.714844 129.648438 190.421875 124.753906 C 185.121094 119.859375 169.566406 90.328125 169.566406 90.328125 L 107.808594 104.378906 " fill-opacity="1" fill-rule="nonzero"/><path fill="#d3d2d2" d="M 248.519531 336.925781 C 247.785156 333.214844 244.808594 330.175781 242.042969 327.640625 C 240.390625 326.128906 238.667969 324.707031 236.988281 323.226562 C 235.34375 321.773438 234.457031 320.066406 233.273438 318.257812 C 231.859375 316.09375 228.976562 315.984375 226.835938 314.828125 C 224.464844 313.546875 222.304688 311.832031 220.207031 310.148438 C 215.964844 306.746094 211.296875 304.460938 206.621094 301.742188 C 204.53125 300.519531 202.035156 298.8125 199.492188 299.101562 C 197.03125 299.382812 194.585938 300.351562 192.273438 301.199219 C 187.269531 303.042969 182.707031 303.792969 177.363281 302.976562 C 174.445312 302.527344 171.324219 301.410156 168.363281 301.558594 C 165.871094 301.6875 163.628906 302.574219 161.496094 303.835938 C 160.023438 304.699219 158.601562 305.601562 157.171875 306.492188 C 162.050781 311.441406 168.148438 315.550781 176.058594 318.097656 C 183.410156 330.332031 218.4375 340.664062 246.3125 338.199219 C 246.609375 338.171875 246.894531 338.152344 247.183594 338.125 C 247.464844 337.597656 247.910156 337.160156 248.519531 336.925781 " fill-opacity="1" fill-rule="nonzero"/><path fill="#6b4228" d="M 234.234375 273.617188 C 236.488281 274.03125 241.535156 271.882812 243.820312 271.316406 C 245.496094 270.898438 251.140625 271.726562 252.667969 270.929688 C 253.542969 267.757812 253.988281 266.21875 256.039062 263.699219 C 257.355469 262.085938 258.707031 260.4375 260.628906 259.515625 C 261.871094 258.921875 263.285156 258.527344 264.582031 257.964844 C 264.730469 257.613281 264.878906 257.257812 265.042969 256.90625 C 265.679688 252.148438 267.148438 248.65625 271.675781 245.644531 C 273.519531 244.421875 275.429688 243.230469 277.421875 242.1875 C 278.769531 240.941406 280.300781 239.949219 282.144531 239.40625 C 277.355469 231.125 271.347656 222.164062 265.53125 217.425781 C 260.890625 213.640625 238.429688 198.457031 238.429688 198.457031 C 238.429688 198.457031 221.214844 177.414062 220.542969 176.957031 C 217.484375 174.921875 211.75 162.773438 210.117188 158.695312 C 209.855469 158.042969 209.308594 156.851562 208.550781 155.292969 C 208.394531 155.839844 208.253906 156.40625 208.089844 157.003906 C 207.488281 159.167969 206.816406 161.316406 206.066406 163.433594 C 204.503906 167.84375 203.039062 172.164062 203.882812 176.898438 C 204.722656 181.628906 205.234375 186.410156 205.328125 191.21875 C 205.417969 195.746094 205.660156 200.542969 204.828125 205.015625 C 204.367188 207.527344 203.492188 210.101562 203.40625 212.664062 C 203.320312 215.257812 203.640625 217.8125 203.792969 220.398438 C 204.058594 225.121094 203.191406 229.738281 202.351562 234.367188 C 201.890625 236.914062 201.484375 239.453125 201.128906 242.015625 C 200.863281 243.941406 200.03125 246.601562 201.785156 247.976562 C 203.132812 249.027344 204.515625 250.558594 204.78125 252.335938 C 204.882812 252.992188 204.910156 253.671875 204.9375 254.347656 C 206.070312 254.175781 207.394531 254.730469 207.871094 255.730469 C 208.523438 257.101562 209.414062 258.148438 210.601562 259.097656 C 211.242188 259.605469 212.808594 261.167969 213.679688 261.054688 C 216.027344 260.753906 217.507812 262.117188 218.5625 264.09375 C 219.84375 266.519531 222.929688 266.617188 224.789062 268.53125 C 225.675781 269.441406 226.320312 270.179688 226.699219 271.417969 C 226.734375 271.527344 223.410156 277.335938 223.429688 277.449219 C 224.09375 277.464844 220.140625 288.707031 220.140625 288.707031 C 220.140625 288.707031 231.953125 273.191406 234.234375 273.617188 " fill-opacity="1" fill-rule="nonzero"/><path fill="#f4f4f4" d="M 164.660156 293.957031 C 165.332031 291.421875 158.921875 283.714844 158.984375 281.117188 C 159.054688 278.449219 156.5625 278.921875 157.101562 276.308594 C 157.632812 273.753906 157.742188 271.496094 156.800781 269.019531 C 156.144531 267.289062 155.238281 265.507812 154.957031 263.660156 C 154.335938 259.578125 156.105469 255.535156 155.167969 251.570312 C 154.371094 248.203125 153.539062 244.757812 155.648438 241.699219 C 157.265625 239.367188 159.195312 237.261719 161.316406 235.378906 C 164.296875 232.726562 167.78125 230.507812 170.90625 228.03125 C 173.347656 226.097656 176.289062 226.6875 178.84375 225.230469 C 181.816406 223.535156 180.6875 219.601562 180.839844 216.714844 C 181.050781 212.617188 181.671875 208.585938 182.351562 204.546875 C 183.019531 200.535156 180.898438 197.789062 179.699219 194.171875 C 178.464844 190.457031 178.292969 186.449219 177.246094 182.675781 C 176.101562 178.523438 174.597656 174.703125 170.785156 172.457031 C 169.25 171.558594 170.042969 170.335938 169.3125 169.214844 C 168.574219 168.070312 167.804688 166.882812 166.792969 165.949219 C 166.710938 165.855469 166.621094 165.773438 166.53125 165.691406 C 166.191406 166.191406 165.835938 166.765625 165.410156 167.179688 C 164.222656 168.335938 162.902344 168.707031 161.421875 169.320312 C 158.078125 170.710938 153.980469 173.75 150.199219 173.371094 C 147.90625 173.140625 145.664062 172.558594 143.355469 172.488281 C 141.761719 172.4375 140.019531 172.480469 138.480469 172 C 134.210938 170.664062 130.289062 168.90625 125.757812 168.5625 C 125.074219 168.511719 124.519531 168.265625 124.089844 167.90625 C 121.601562 169.164062 120.234375 171.105469 119.304688 173.957031 C 118.324219 176.960938 117.085938 179.988281 115.308594 182.625 C 113.613281 185.132812 111.464844 187.394531 110.515625 190.332031 C 109.546875 193.3125 108.144531 195.683594 106.742188 198.453125 C 104.3125 203.261719 106.789062 205.613281 107.621094 210.375 C 108.027344 212.730469 103.265625 213.070312 105.535156 214.042969 C 106.777344 214.574219 109.460938 221.253906 109.28125 222.402344 C 109.191406 222.988281 112.742188 224.851562 113.925781 230.453125 C 114.113281 231.335938 116.882812 231.375 117.15625 232.230469 C 117.695312 233.941406 118.53125 236.222656 118.097656 238.039062 C 118.03125 238.3125 117.460938 240.277344 117.238281 239.742188 C 117.703125 240.875 117.789062 241.992188 117.949219 243.199219 C 118.097656 244.328125 118.109375 245.328125 117.953125 246.304688 C 122.261719 250.769531 126.046875 254.695312 128.003906 256.859375 C 134.964844 264.574219 146.898438 310.679688 165.90625 313.527344 C 167.5 312.800781 164.222656 295.613281 164.660156 293.957031 " fill-opacity="1" fill-rule="nonzero"/><path fill="#7a4b2b" d="M 181.574219 303.304688 C 181.285156 303.304688 180.996094 303.296875 180.707031 303.289062 C 183.902344 290.695312 190.828125 268.75 192.28125 263.277344 C 193.503906 258.6875 194.347656 250.972656 194.808594 245.847656 C 196.4375 250.851562 197.460938 257.054688 198.179688 259.304688 C 200.226562 265.675781 195.394531 272.816406 195.222656 279.492188 C 195.019531 287.511719 191.996094 290.886719 188.003906 297.835938 C 187.320312 299.03125 187.074219 300.867188 186.859375 302.769531 C 185.121094 303.117188 183.375 303.304688 181.574219 303.304688 " fill-opacity="1" fill-rule="nonzero"/><path fill="#a79693" d="M 183.796875 317.238281 C 182.46875 314.949219 180.917969 312.792969 179.121094 310.839844 C 179.273438 309.292969 179.863281 306.617188 180.707031 303.289062 C 180.996094 303.296875 181.285156 303.304688 181.574219 303.304688 C 183.375 303.304688 185.121094 303.117188 186.859375 302.769531 C 186.605469 305.058594 186.394531 307.429688 185.523438 308.847656 C 185.25 309.289062 184.609375 312.640625 183.796875 317.238281 " fill-opacity="1" fill-rule="nonzero"/><path fill="#7a4b2b" d="M 163.195312 289.5625 C 162.507812 288.308594 161.6875 286.964844 160.957031 285.703125 C 161.019531 277 160.652344 263.527344 162.285156 255.796875 C 163.269531 261.972656 164.089844 268.453125 163.355469 272.757812 C 162.761719 276.238281 162.910156 282.59375 163.195312 289.5625 " fill-opacity="1" fill-rule="nonzero"/><path fill="#c0aca9" d="M 163.8125 305.988281 C 162.890625 305.988281 161.914062 305.988281 160.894531 305.988281 C 161.078125 300.710938 160.664062 293.128906 160.8125 290.902344 C 160.902344 289.523438 160.945312 287.742188 160.957031 285.703125 C 161.6875 286.964844 162.507812 288.308594 163.195312 289.5625 C 163.414062 295.023438 163.71875 300.855469 163.8125 305.988281 " fill-opacity="1" fill-rule="nonzero"/><path fill="#99673b" d="M 174.453125 228.714844 C 174.453125 228.714844 161.109375 234.714844 160.273438 239.613281 C 159.4375 244.5 164.917969 263.582031 163.355469 272.757812 C 161.792969 281.933594 165.386719 311.039062 162.988281 318.832031 C 159.113281 331.433594 161.1875 333.589844 159.859375 344.355469 C 158.535156 355.117188 152.417969 356.34375 153.921875 364.089844 C 154.0625 364.582031 154.773438 364.964844 155.875 365.242188 C 156.65625 366.785156 162.550781 366.3125 168.320312 365.605469 C 170.199219 368.472656 180.886719 363.664062 180.984375 362.039062 C 181.203125 358.328125 177.132812 349.042969 176.074219 340.070312 C 174.835938 323.726562 180.042969 319.019531 179.101562 311.898438 C 178.527344 307.621094 190.335938 270.621094 192.28125 263.277344 C 194.234375 255.941406 195.222656 240.648438 195.222656 240.648438 L 174.453125 228.714844 " fill-opacity="1" fill-rule="nonzero"/><path fill="#f4f4f4" d="M 170.417969 340.085938 C 167.101562 338.113281 166.96875 334.105469 166.730469 330.660156 C 166.492188 327.113281 167.15625 323.472656 167.390625 319.941406 C 167.535156 317.769531 167.683594 315.570312 167.535156 313.398438 C 167.484375 312.625 167.433594 311.84375 167.195312 311.097656 C 167.105469 310.828125 167.058594 310.71875 167.066406 310.695312 C 165.78125 309.902344 164.847656 308.234375 165.894531 306.796875 C 169.152344 302.34375 167.335938 298.222656 164.660156 293.957031 C 164.210938 293.238281 163.75 292.519531 163.289062 291.804688 C 163.753906 302.621094 164.382812 314.308594 162.988281 318.832031 C 159.113281 331.433594 161.1875 333.589844 159.859375 344.355469 C 158.535156 355.117188 152.417969 356.34375 153.921875 364.089844 C 154.0625 364.582031 154.773438 364.964844 155.875 365.242188 C 156.65625 366.785156 162.550781 366.3125 168.320312 365.605469 C 170.199219 368.472656 180.886719 363.664062 180.984375 362.039062 C 181.191406 358.539062 177.578125 350.070312 176.277344 341.585938 C 174.167969 341.351562 172.058594 341.0625 170.417969 340.085938 " fill-opacity="1" fill-rule="nonzero"/><path fill="#99673b" d="M 100.878906 205.527344 C 100.878906 205.527344 96.59375 216.898438 95.757812 221.792969 C 94.925781 226.683594 99.75 253.796875 98.183594 262.976562 C 96.621094 272.148438 100.21875 301.253906 97.816406 309.046875 C 93.945312 321.648438 96.015625 323.804688 94.6875 334.570312 C 93.359375 345.335938 87.25 346.558594 88.746094 354.304688 C 88.894531 354.800781 89.601562 355.179688 90.707031 355.457031 C 91.488281 356.996094 97.382812 356.527344 103.152344 355.820312 C 105.023438 358.691406 115.714844 353.878906 115.8125 352.253906 C 116.03125 348.546875 111.964844 339.257812 110.898438 330.292969 C 109.660156 313.9375 117.683594 308.230469 113.925781 302.117188 C 113.082031 300.75 127.742188 266.242188 129.691406 258.898438 C 131.644531 251.5625 124.972656 236.710938 124.972656 236.710938 L 100.878906 205.527344 " fill-opacity="1" fill-rule="nonzero"/><path fill="#6b4228" d="M 169.015625 175.882812 C 170.207031 174.765625 171.890625 174.183594 172.433594 172.519531 C 173.5625 169.027344 174.480469 166.269531 177.488281 164.664062 C 177.890625 162.984375 178.710938 161.707031 179.75 160.015625 C 180.011719 159.585938 180.394531 159.269531 180.820312 159.039062 L 180.769531 159.019531 C 181.1875 158.746094 181.59375 158.453125 181.996094 158.152344 C 182.042969 158.054688 182.078125 157.945312 182.128906 157.847656 C 182.558594 156.933594 182.300781 157.089844 182.429688 157.828125 L 182.445312 157.816406 C 182.28125 156.425781 183.320312 154.820312 184.75 154.644531 L 184.75 154.621094 C 184.542969 154.636719 184.378906 154.667969 184.269531 154.703125 C 184.003906 154.867188 184.019531 154.785156 184.269531 154.703125 C 184.382812 154.636719 184.550781 154.523438 184.769531 154.34375 C 184.789062 153.582031 184.6875 152.878906 185.25 152.0625 C 185.90625 151.121094 186.847656 150.625 187.988281 150.554688 C 188.222656 150.539062 189.3125 150.519531 189.703125 150.574219 C 189.832031 150.242188 189.992188 149.917969 190.085938 149.734375 C 189.140625 149.902344 188.207031 150.164062 187.441406 150.285156 C 185.664062 150.574219 184 150.585938 182.230469 150.269531 C 180.078125 149.886719 178.054688 149.007812 175.941406 148.585938 C 174.605469 148.320312 173.246094 148.1875 171.964844 147.707031 C 165.027344 145.128906 169.9375 138.105469 170.195312 133.3125 C 170.265625 132.023438 171.027344 131.199219 171.96875 130.820312 C 170.300781 128.222656 168.785156 131.28125 167.855469 133.332031 C 166.304688 136.742188 164.027344 137.769531 161.511719 140.382812 C 158.726562 143.277344 157.957031 143.171875 157.777344 147.402344 C 157.589844 151.742188 157.035156 155.167969 155.628906 159.25 C 154.386719 162.863281 152.746094 168.046875 153.195312 171.882812 C 153.445312 174.011719 155.324219 181.113281 157.074219 182.570312 C 157.207031 182.671875 157.339844 182.773438 157.46875 182.875 L 161.136719 184.707031 C 164.550781 185.691406 166.117188 181.933594 167.632812 179.410156 C 167.660156 178.101562 167.988281 176.832031 169.015625 175.882812 " fill-opacity="1" fill-rule="nonzero"/><path fill="#6b4228" d="M 144.746094 142.1875 C 143.957031 137.90625 142.511719 135.578125 143 130.847656 C 143.289062 127.992188 143.617188 123.695312 140.75 125.882812 C 141.371094 126.792969 141.589844 128.125 140.957031 129.660156 C 138.585938 135.363281 139.089844 145.960938 131.609375 145.523438 C 130.21875 145.441406 130.359375 137.324219 129.039062 136.972656 C 128.007812 136.695312 126.746094 137.308594 125.484375 137.925781 C 124.199219 138.546875 122.910156 139.171875 121.851562 138.859375 C 121.054688 138.625 120.179688 139.285156 119.332031 139.953125 C 118.339844 140.726562 117.382812 141.5 116.628906 140.847656 C 116.023438 140.324219 115.347656 139.554688 114.605469 138.890625 C 114.589844 139.152344 114.550781 139.605469 114.488281 140.058594 C 114.859375 140.183594 115.804688 140.753906 116.003906 140.886719 C 116.964844 141.53125 117.519531 142.578125 117.585938 144 C 117.636719 145.222656 117.164062 145.992188 116.773438 146.882812 C 116.867188 147.203125 116.957031 147.421875 117.015625 147.554688 C 117.191406 147.773438 117.160156 147.871094 117.015625 147.554688 C 116.9375 147.457031 116.8125 147.339844 116.640625 147.21875 L 116.628906 147.246094 C 117.789062 148.164062 117.832031 150.539062 116.9375 152.085938 L 116.941406 152.101562 C 117.453125 151.304688 117.3125 150.996094 117.195312 152.269531 C 117.179688 152.410156 117.160156 152.554688 117.140625 152.691406 C 117.335938 153.238281 117.53125 153.78125 117.75 154.308594 L 117.695312 154.304688 C 117.953125 154.78125 118.105469 155.34375 118.105469 155.96875 C 118.101562 158.453125 118.128906 160.34375 117.574219 162.496094 C 118.6875 164.609375 118.828125 166.839844 118.554688 169.351562 C 118.722656 169.710938 118.824219 170.128906 118.808594 170.621094 C 118.773438 172.546875 119.382812 174.296875 120.203125 175.984375 C 121.136719 175.910156 122.089844 176.289062 122.703125 177.34375 C 124.089844 179.722656 125.207031 182.246094 126.578125 184.632812 C 127.289062 185.882812 128.003906 187.222656 128.960938 188.304688 C 129.203125 188.589844 129.460938 188.847656 129.722656 189.113281 C 130.007812 189.035156 130.296875 188.980469 130.59375 188.941406 C 132.488281 186.664062 134.28125 184.144531 134.984375 182.933594 C 137.457031 178.695312 138.820312 171.855469 139.6875 167.039062 C 140.667969 161.597656 142.035156 157.339844 144.222656 152.199219 C 146.355469 147.191406 145.621094 146.9375 144.746094 142.1875 " fill-opacity="1" fill-rule="nonzero"/><path fill="#f4f4f4" d="M 175.859375 177.453125 C 175.238281 175.230469 172.804688 171.679688 170.421875 171.074219 C 169.023438 170.722656 167.953125 170.425781 167.570312 169.398438 C 167.808594 169.292969 168.046875 169.191406 168.277344 169.082031 C 169.15625 168.246094 169.871094 168.078125 169.875 167.472656 C 169.867188 167.007812 169.519531 166.652344 169.046875 166.21875 C 168.835938 165.367188 168.535156 165.496094 168.21875 165.632812 C 167.921875 165.753906 167.613281 165.878906 167.371094 165.183594 C 167.207031 165.175781 167.050781 165.148438 166.90625 165.085938 C 166.832031 164.953125 166.742188 164.820312 166.648438 164.683594 C 165.554688 163.105469 165.089844 162.140625 165.722656 160.257812 C 165.980469 159.5 166.101562 158.855469 166.164062 158.171875 C 166.515625 157.78125 166.949219 157.472656 167.464844 157.226562 C 168.144531 156.457031 168.871094 156.125 169.644531 156.035156 C 170.382812 156.46875 171.253906 155.617188 172.128906 155.074219 C 171.972656 154.761719 172.203125 153.773438 172.757812 153.160156 C 171.953125 152.785156 171.410156 151.554688 171.089844 151.601562 C 170.800781 151.132812 170.824219 150.433594 171.238281 149.726562 C 170.988281 149.363281 170.714844 149.449219 170.4375 149.535156 C 170.152344 149.621094 169.867188 149.714844 169.609375 149.3125 C 168 149.519531 167.046875 148.800781 166.660156 147.480469 C 166.25 146.5 166.339844 146.113281 166.921875 145.285156 C 166.601562 145.507812 166.3125 145.265625 166.023438 145.027344 C 165.792969 144.835938 165.570312 144.648438 165.332031 144.683594 C 163.46875 143.933594 162.875 142.917969 163.132812 141.992188 C 163.386719 141.070312 164.496094 140.234375 166.035156 139.851562 C 165.921875 138.863281 166.765625 137.898438 168.148438 137.355469 C 168.78125 135.558594 168.894531 133.652344 169.238281 131.832031 C 169.757812 129.117188 170.316406 126.402344 170.808594 123.679688 C 170.945312 122.917969 171.078125 122.15625 171.203125 121.394531 C 164.53125 123.511719 157.070312 124.792969 149.171875 124.949219 C 139.328125 125.148438 130.117188 123.425781 121.015625 120.898438 C 117.761719 119.992188 114.511719 119.042969 111.234375 118.148438 C 111.660156 121.128906 112.347656 124.101562 113.636719 127.023438 C 114.871094 129.8125 116.796875 132.335938 118.949219 134.804688 C 120.777344 135.339844 121.589844 136.539062 121.535156 137.671875 C 122.71875 138.960938 123.917969 140.261719 125.070312 141.59375 C 125.3125 141.875 125.445312 142.148438 125.523438 142.421875 C 125.710938 142.539062 125.886719 142.664062 126.078125 142.777344 C 127.050781 143.351562 127.4375 144.167969 127.328125 144.949219 C 127.421875 145.078125 127.5 145.214844 127.5625 145.355469 C 127.828125 145.476562 128.089844 145.601562 128.359375 145.742188 C 130.410156 146.78125 130.859375 148.257812 130.042969 149.363281 C 130.304688 149.527344 130.554688 149.699219 130.804688 149.871094 L 130.738281 149.960938 C 129.875 151.488281 129.542969 153.382812 129.660156 155.28125 L 129.515625 155.464844 C 129.460938 155.542969 129.410156 155.636719 129.367188 155.726562 L 129.332031 155.757812 C 128.917969 156.042969 128.101562 156.042969 127.691406 156.453125 C 126.894531 157.253906 126.179688 157.816406 125.375 158.386719 C 125.136719 158.328125 124.890625 158.332031 124.636719 158.429688 C 120.769531 159.839844 118.851562 164.140625 119.234375 168.121094 C 119.050781 169.824219 119.183594 171.457031 119.542969 173.148438 C 119.023438 174.609375 119.023438 176.445312 119.550781 178.292969 C 119.855469 179.347656 120.371094 180.34375 121.011719 181.164062 L 120.910156 181.222656 C 119.75 181.964844 120.019531 183.585938 121.277344 184.023438 C 121.414062 184.074219 121.546875 184.125 121.679688 184.179688 L 121.523438 184.285156 C 120.609375 184.867188 120.558594 186.203125 121.359375 186.816406 L 121.28125 186.976562 C 120.929688 187.714844 121.101562 188.507812 121.699219 188.957031 L 121.523438 189.113281 C 120.675781 189.84375 121.109375 191.441406 122.191406 191.667969 L 122.3125 191.6875 C 122.183594 191.875 122.046875 192.0625 121.894531 192.238281 C 121.671875 192.496094 121.511719 192.867188 121.636719 193.207031 C 123.078125 197.152344 125.089844 200.144531 128.113281 202.863281 L 128.097656 203.035156 C 128.074219 203.464844 128.3125 203.933594 128.664062 204.226562 C 128.585938 204.507812 128.515625 204.789062 128.453125 205.074219 C 128.265625 205.980469 128.886719 207.101562 129.9375 207.015625 C 130.933594 206.9375 131.84375 206.730469 132.703125 206.421875 C 132.84375 206.964844 133.292969 207.476562 133.808594 207.578125 C 134.542969 207.71875 135.230469 207.734375 135.882812 207.652344 C 135.960938 207.84375 136.070312 208.027344 136.21875 208.167969 C 135.714844 208.023438 135.238281 207.917969 134.824219 207.917969 C 133.613281 207.929688 133.113281 209.609375 134.203125 210.21875 C 136.921875 211.746094 140.328125 213.703125 143.582031 213.496094 C 144.167969 214.195312 145.023438 214.550781 146.175781 214.902344 L 146.050781 215.132812 L 148.992188 215.304688 C 149.558594 214.972656 150.335938 214.730469 151.355469 214.632812 C 151.730469 214.59375 152.097656 214.554688 152.46875 214.519531 C 152.613281 214.738281 152.839844 214.902344 153.164062 214.933594 C 153.652344 214.976562 154.113281 214.964844 154.566406 214.925781 C 155.660156 215.257812 156.820312 214.746094 157.84375 213.9375 C 158.699219 213.480469 159.515625 212.894531 160.320312 212.222656 C 162.53125 210.390625 164.777344 208.488281 166.488281 206.171875 C 166.726562 205.921875 166.929688 205.628906 167.09375 205.285156 L 167.175781 205.167969 C 168.898438 202.453125 169.871094 199.238281 170.902344 196.214844 C 172.136719 192.589844 173.894531 189.296875 175.335938 185.773438 C 176.417969 183.121094 176.628906 180.207031 175.859375 177.453125 " fill-opacity="1" fill-rule="nonzero"/><path fill="#7a4b2b" d="M 168.667969 139.886719 C 169.195312 137.625 170.085938 135.28125 170.195312 133.3125 C 170.265625 132.023438 171.027344 131.199219 171.96875 130.820312 C 171.511719 130.109375 171.066406 129.820312 170.640625 129.820312 C 170.242188 129.820312 169.859375 130.078125 169.5 130.472656 C 169.53125 130.320312 169.5625 130.167969 169.589844 130.015625 C 174.324219 127.410156 177.671875 123.480469 179.269531 119.578125 C 179.527344 120.125 179.796875 120.664062 180.085938 121.199219 C 178.695312 126.757812 176.664062 132.113281 173.96875 137.058594 C 172.339844 138.21875 170.539062 139.136719 168.667969 139.886719 " fill-opacity="1" fill-rule="nonzero"/><path fill="#57311e" d="M 163.308594 141.574219 C 163.738281 140.824219 164.734375 140.175781 166.035156 139.851562 C 165.921875 138.863281 166.765625 137.898438 168.148438 137.355469 C 168.78125 135.558594 168.894531 133.652344 169.238281 131.832031 C 169.324219 131.378906 169.414062 130.925781 169.5 130.472656 C 169.859375 130.078125 170.242188 129.820312 170.640625 129.820312 C 171.066406 129.820312 171.511719 130.109375 171.96875 130.820312 C 171.027344 131.199219 170.265625 132.023438 170.195312 133.3125 C 170.085938 135.28125 169.195312 137.625 168.667969 139.886719 C 166.984375 140.554688 165.246094 141.089844 163.511719 141.527344 C 163.441406 141.542969 163.375 141.558594 163.308594 141.574219 " fill-opacity="1" fill-rule="nonzero"/><path fill="#c0aca9" d="M 150.90625 143.238281 C 149.328125 143.238281 147.777344 143.136719 146.292969 142.914062 C 142.515625 142.351562 138.855469 141.1875 135.214844 139.96875 C 132.3125 138.40625 129.410156 136.84375 126.496094 135.300781 C 124.558594 134.277344 122.371094 133.332031 120.257812 132.261719 C 122.335938 132.789062 124.582031 133.082031 126.964844 133.082031 C 131.578125 133.082031 136.707031 131.976562 142.207031 129.316406 C 147.707031 131.976562 152.789062 133.082031 157.332031 133.082031 C 162.046875 133.082031 166.179688 131.894531 169.589844 130.015625 C 169.5625 130.167969 169.53125 130.320312 169.5 130.472656 C 169.414062 130.925781 169.324219 131.378906 169.238281 131.832031 C 168.894531 133.652344 168.78125 135.558594 168.148438 137.355469 C 166.765625 137.898438 165.921875 138.863281 166.035156 139.851562 C 164.734375 140.175781 163.738281 140.824219 163.308594 141.574219 C 159.453125 142.539062 155.089844 143.238281 150.90625 143.238281 " fill-opacity="1" fill-rule="nonzero"/><path fill="#f4f4f4" d="M 129.796875 132.355469 C 130.957031 137.253906 137.203125 137.835938 141.007812 137.835938 C 144.8125 137.835938 152.265625 137.253906 152.515625 133.625 C 152.820312 129.320312 147.421875 125.8125 141.140625 125.8125 C 134.851562 125.8125 128.816406 128.191406 129.796875 132.355469 " fill-opacity="1" fill-rule="nonzero"/><path fill="#8f8c81" d="M 146.898438 130.902344 C 146.898438 132.109375 144.625 131.820312 141.683594 131.820312 C 138.742188 131.820312 136.246094 132.109375 136.246094 130.902344 C 136.246094 129.695312 138.625 128.714844 141.570312 128.714844 C 144.511719 128.714844 146.898438 129.695312 146.898438 130.902344 " fill-opacity="1" fill-rule="nonzero"/><path fill="#99673b" d="M 140.773438 6.679688 C 147.046875 -0.0195312 167.25 5.757812 182.195312 14.363281 C 186.753906 16.988281 200.457031 50.289062 197.859375 67.835938 C 193.554688 96.875 189.421875 89.378906 181.476562 113.109375 C 175.585938 130.71875 162.125 133.96875 142.207031 129.316406 C 139.191406 90.386719 140.304688 9.402344 140.773438 6.679688 " fill-opacity="1" fill-rule="nonzero"/><path fill="#a36d42" d="M 174.121094 101.992188 C 173.9375 101.160156 173.703125 100.320312 173.449219 99.488281 C 169.023438 96.582031 164.457031 93.882812 161.46875 89.367188 C 158.21875 84.464844 158.914062 77.226562 159.363281 71.683594 C 159.777344 66.582031 159.558594 60.519531 163.390625 56.644531 C 164.03125 56.003906 164.773438 55.472656 165.46875 54.890625 C 165.464844 54.804688 165.472656 54.691406 165.496094 54.53125 C 165.402344 53.847656 165.128906 53.183594 164.84375 52.5625 C 163.617188 49.914062 161.652344 47.605469 159.996094 45.226562 C 157.542969 41.71875 157.128906 38.296875 156.96875 34.109375 C 156.824219 30.285156 156.496094 25.132812 158.496094 21.6875 C 159.609375 19.765625 161.84375 19.328125 163.84375 18.96875 C 166.328125 18.527344 167.714844 16.15625 169.015625 14.175781 C 169.773438 13.023438 170.546875 12.03125 171.371094 11.175781 C 168.976562 10.09375 166.097656 9.148438 163.636719 8.445312 C 166.25 9.191406 169.339844 10.207031 171.8125 11.371094 C 175.167969 12.953125 174.1875 14.058594 174.847656 17.414062 C 175.421875 20.359375 177.464844 20.28125 178.242188 23.222656 C 178.855469 25.546875 178.992188 28.832031 179.140625 31.171875 C 179.335938 34.226562 179.003906 37.335938 179.441406 40.347656 C 179.792969 42.808594 180.878906 45.125 180.972656 47.6875 C 181.144531 52.320312 179.277344 57.140625 177.984375 61.445312 C 176.578125 66.136719 175.636719 71.503906 174.847656 76.429688 C 174.566406 78.179688 174.492188 79.742188 174.304688 81.3125 C 174.167969 82.015625 174.054688 82.730469 173.960938 83.449219 C 173.851562 83.953125 173.722656 84.46875 173.558594 84.996094 C 172.570312 88.140625 171.265625 90.925781 171.890625 94.167969 C 172.332031 96.449219 173.53125 99.257812 174.121094 101.992188 M 163.632812 8.445312 C 163.628906 8.441406 163.628906 8.441406 163.625 8.441406 C 163.628906 8.441406 163.628906 8.441406 163.632812 8.445312 " fill-opacity="1" fill-rule="nonzero"/><path fill="#a36d42" d="M 171.804688 110.070312 C 174.667969 108.054688 174.785156 105.074219 174.121094 101.992188 C 174.789062 105.074219 174.671875 108.054688 171.804688 110.070312 M 163.636719 8.445312 C 163.636719 8.445312 163.632812 8.445312 163.632812 8.445312 C 163.632812 8.445312 163.636719 8.445312 163.636719 8.445312 M 163.625 8.441406 C 163.476562 8.398438 163.324219 8.351562 163.179688 8.3125 C 163.324219 8.351562 163.476562 8.398438 163.625 8.441406 " fill-opacity="1" fill-rule="nonzero"/><path fill="#ab7449" d="M 172.417969 110.988281 C 169.917969 108.410156 167.273438 107.394531 165.46875 104.195312 C 163.945312 101.484375 163.742188 98.40625 162.101562 95.699219 C 160.507812 93.070312 158.128906 91.027344 156.601562 88.367188 C 154.855469 85.320312 154.683594 81.984375 154.382812 78.582031 C 153.730469 71.175781 153.617188 64.324219 151.324219 57.160156 C 149.136719 50.359375 144.570312 50.5 143.257812 43.613281 C 143.050781 42.503906 142.964844 41.15625 142.964844 39.671875 C 142.964844 33.542969 144.394531 24.925781 144.394531 19.742188 C 144.394531 19.355469 144.386719 18.988281 144.367188 18.640625 C 144.246094 16.183594 143.257812 12.957031 143.261719 10.386719 C 143.261719 8.140625 144.015625 6.398438 146.746094 6.097656 C 147.53125 6.011719 148.34375 5.96875 149.183594 5.96875 C 153.796875 5.96875 159.074219 7.167969 163.179688 8.3125 C 163.324219 8.351562 163.476562 8.398438 163.625 8.441406 C 163.628906 8.441406 163.628906 8.441406 163.632812 8.445312 C 163.632812 8.445312 163.636719 8.445312 163.636719 8.445312 C 166.097656 9.148438 168.976562 10.09375 171.371094 11.175781 C 170.546875 12.03125 169.773438 13.023438 169.015625 14.175781 C 167.714844 16.15625 166.328125 18.527344 163.84375 18.96875 C 161.84375 19.328125 159.609375 19.765625 158.496094 21.6875 C 156.496094 25.132812 156.824219 30.285156 156.96875 34.109375 C 157.128906 38.296875 157.542969 41.71875 159.996094 45.226562 C 161.652344 47.605469 163.617188 49.914062 164.84375 52.5625 C 165.128906 53.183594 165.402344 53.847656 165.496094 54.53125 C 165.472656 54.691406 165.464844 54.804688 165.46875 54.890625 C 164.773438 55.472656 164.03125 56.003906 163.390625 56.644531 C 159.558594 60.519531 159.777344 66.582031 159.363281 71.683594 C 158.914062 77.226562 158.21875 84.464844 161.46875 89.367188 C 164.457031 93.882812 169.023438 96.582031 173.449219 99.488281 C 173.703125 100.320312 173.9375 101.160156 174.121094 101.992188 C 174.785156 105.074219 174.667969 108.054688 171.804688 110.070312 L 172.417969 110.988281 " fill-opacity="1" fill-rule="nonzero"/><path fill="#7a4b2b" d="M 176.113281 105 C 174.945312 101.671875 174.023438 98.292969 173.785156 94.746094 C 173.546875 91.109375 173.476562 87.199219 173.960938 83.449219 C 174.117188 82.722656 174.222656 82.019531 174.304688 81.3125 C 174.457031 80.535156 174.632812 79.773438 174.84375 79.023438 C 176.371094 73.582031 178.707031 68.496094 180.960938 63.335938 C 183.289062 58 185.347656 52.660156 185.640625 46.773438 C 185.886719 41.9375 185.136719 37.289062 184.066406 32.59375 C 183.046875 28.164062 181.691406 23.527344 181.996094 18.933594 C 181.996094 18.882812 182.003906 18.835938 182.003906 18.789062 C 184.886719 20.910156 188.246094 24.300781 189.25 31.945312 C 189.363281 32.835938 189.449219 33.789062 189.503906 34.804688 C 189.679688 38.53125 189.214844 42.671875 188.359375 47.097656 C 188.359375 47.101562 188.359375 47.105469 188.355469 47.109375 C 188.355469 47.117188 188.355469 47.125 188.351562 47.132812 C 188.351562 47.140625 188.351562 47.148438 188.347656 47.164062 C 188.347656 47.164062 188.347656 47.167969 188.34375 47.171875 C 188.34375 47.183594 188.339844 47.195312 188.339844 47.207031 L 188.339844 47.210938 C 184.949219 64.679688 175.582031 86.578125 176.113281 105 " fill-opacity="1" fill-rule="nonzero"/><path fill="#814f30" d="M 173.960938 83.449219 C 174.054688 82.730469 174.167969 82.015625 174.304688 81.3125 C 174.222656 82.019531 174.117188 82.722656 173.960938 83.449219 " fill-opacity="1" fill-rule="nonzero"/><path fill="#f4f4f4" d="M 141.503906 47.6875 C 141.503906 47.6875 147.730469 58.628906 149.773438 64.625 C 152.34375 72.183594 147.644531 73.398438 152.019531 87.746094 C 154.300781 95.222656 163.464844 103.042969 168.9375 114.515625 C 171.050781 118.945312 174.75 117.972656 177.320312 117.003906 C 179.097656 116.328125 180.332031 115.660156 180.113281 116.78125 C 178.171875 126.914062 163.242188 139.492188 142.207031 129.316406 C 142.855469 102.863281 141.503906 47.6875 141.503906 47.6875 " fill-opacity="1" fill-rule="nonzero"/><path fill="#dad8c6" d="M 150.074219 114.691406 C 150.632812 117.734375 143.257812 124.085938 150.460938 128.941406 C 153.746094 131.160156 156.917969 132.050781 161.171875 132.808594 C 154.25 133.6875 149.8125 132.59375 142.027344 129.648438 C 142.167969 125.207031 141.484375 118.667969 141.488281 111.21875 C 143.765625 114.222656 149.464844 111.371094 150.074219 114.691406 " fill-opacity="1" fill-rule="nonzero"/><path fill="#6b4228" d="M 177.644531 13.144531 C 179.703125 7.578125 199.3125 16.339844 208.027344 28.113281 C 213.886719 36.035156 225.292969 48.109375 227.433594 58.628906 C 229.113281 66.890625 238.226562 73.933594 238.128906 82.410156 C 238.070312 87.363281 232.925781 93.742188 231.097656 99.066406 C 227.660156 109.058594 222.898438 124.265625 216.117188 126.914062 C 205.726562 130.972656 187.496094 130.328125 184.949219 127.738281 C 162.136719 104.585938 190.714844 60.105469 189.503906 34.804688 C 188.613281 16.339844 175.582031 18.714844 177.644531 13.144531 " fill-opacity="1" fill-rule="nonzero"/><path fill="#6b4228" d="M 187.269531 98.699219 C 188.847656 92.15625 191.378906 86.09375 194.234375 80.023438 C 196.9375 74.28125 199.339844 68.613281 200.085938 62.261719 C 201.394531 51.140625 199.660156 39.316406 194.378906 29.359375 C 190.488281 22.019531 185.007812 16.277344 178.171875 12.335938 C 181.917969 8.589844 199.808594 17.011719 208.027344 28.113281 C 213.886719 36.035156 225.292969 48.109375 227.433594 58.628906 C 229.113281 66.890625 238.226562 73.933594 238.128906 82.410156 C 238.070312 87.363281 232.925781 93.742188 231.097656 99.066406 C 227.660156 109.058594 222.898438 124.265625 216.117188 126.914062 C 209.089844 129.660156 198.484375 130.25 191.566406 129.546875 C 186.207031 120.1875 184.648438 109.582031 187.269531 98.699219 " fill-opacity="1" fill-rule="nonzero"/><path fill="#5e301d" d="M 188.339844 47.210938 L 188.339844 47.207031 L 188.339844 47.210938 M 188.34375 47.171875 C 188.347656 47.167969 188.347656 47.164062 188.347656 47.164062 C 188.347656 47.164062 188.347656 47.167969 188.34375 47.171875 M 188.351562 47.132812 C 188.355469 47.125 188.355469 47.117188 188.355469 47.109375 C 188.355469 47.117188 188.355469 47.125 188.351562 47.132812 M 188.359375 47.097656 C 189.214844 42.671875 189.679688 38.53125 189.503906 34.804688 C 189.449219 33.789062 189.363281 32.835938 189.25 31.945312 C 189.367188 32.835938 189.449219 33.789062 189.503906 34.804688 C 189.679688 38.53125 189.214844 42.671875 188.359375 47.097656 " fill-opacity="1" fill-rule="nonzero"/><path fill="#532b1b" d="M 183.832031 126.539062 C 166.238281 106.621094 183.464844 72.332031 188.339844 47.210938 L 188.339844 47.207031 C 188.339844 47.195312 188.34375 47.183594 188.34375 47.171875 C 188.347656 47.167969 188.347656 47.164062 188.347656 47.164062 C 188.351562 47.148438 188.351562 47.140625 188.351562 47.132812 C 188.355469 47.125 188.355469 47.117188 188.355469 47.109375 C 188.359375 47.105469 188.359375 47.101562 188.359375 47.097656 C 189.214844 42.671875 189.679688 38.53125 189.503906 34.804688 C 189.449219 33.789062 189.367188 32.835938 189.25 31.945312 C 189.238281 31.84375 189.222656 31.746094 189.210938 31.644531 C 190.140625 33.382812 190.964844 35.199219 191.648438 37.117188 C 195.308594 47.355469 196.410156 59.582031 192.492188 69.917969 C 190.097656 76.222656 186.707031 82.089844 184.441406 88.449219 C 182.375 94.230469 180.769531 100.261719 180.386719 106.417969 C 179.945312 113.578125 181.214844 120.285156 183.832031 126.539062 " fill-opacity="1" fill-rule="nonzero"/><path fill="#7f4f33" d="M 185.523438 126.257812 C 178.171875 116.925781 183.722656 93.957031 185.785156 88.167969 C 188.054688 81.8125 191.445312 75.945312 193.835938 69.640625 C 197.070312 61.128906 197.171875 48.761719 193.199219 37.292969 C 194.011719 38.859375 200.820312 52.800781 197.484375 69.402344 C 196.148438 76.011719 192.824219 81.878906 190.371094 88.167969 C 182.8125 107.574219 182.90625 120.007812 185.523438 126.257812 " fill-opacity="1" fill-rule="nonzero"/><path fill="#a9a799" d="M 159.796875 121.324219 C 160.429688 121.324219 160.429688 122.3125 159.796875 122.3125 C 159.15625 122.3125 159.15625 121.324219 159.796875 121.324219 " fill-opacity="1" fill-rule="nonzero"/><path fill="#a9a799" d="M 162.035156 119.53125 C 162.613281 119.53125 162.613281 120.4375 162.035156 120.4375 C 161.453125 120.4375 161.453125 119.53125 162.035156 119.53125 " fill-opacity="1" fill-rule="nonzero"/><path fill="#a9a799" d="M 161.625 116.511719 C 162.160156 116.511719 162.160156 117.339844 161.625 117.339844 C 161.09375 117.339844 161.09375 116.511719 161.625 116.511719 " fill-opacity="1" fill-rule="nonzero"/><path fill="#a9a799" d="M 158.773438 117.792969 C 159.234375 117.792969 159.234375 118.507812 158.773438 118.507812 C 158.3125 118.507812 158.3125 117.792969 158.773438 117.792969 " fill-opacity="1" fill-rule="nonzero"/><path fill="#a9a799" d="M 154.902344 120.632812 C 155.117188 120.632812 155.117188 120.964844 154.902344 120.964844 C 154.691406 120.964844 154.691406 120.632812 154.902344 120.632812 " fill-opacity="1" fill-rule="nonzero"/><path fill="#a9a799" d="M 157.140625 124.753906 C 157.828125 124.753906 157.828125 125.8125 157.140625 125.8125 C 156.460938 125.8125 156.460938 124.753906 157.140625 124.753906 " fill-opacity="1" fill-rule="nonzero"/><path fill="#a9a799" d="M 161.21875 126.492188 C 161.765625 126.492188 161.765625 127.335938 161.21875 127.335938 C 160.675781 127.335938 160.675781 126.492188 161.21875 126.492188 " fill-opacity="1" fill-rule="nonzero"/><path fill="#a9a799" d="M 165.089844 122.644531 C 165.601562 122.644531 165.601562 123.433594 165.089844 123.433594 C 164.582031 123.433594 164.582031 122.644531 165.089844 122.644531 " fill-opacity="1" fill-rule="nonzero"/><path fill="#a9a799" d="M 165.90625 120.160156 C 166.472656 120.160156 166.472656 121.03125 165.90625 121.03125 C 165.34375 121.03125 165.34375 120.160156 165.90625 120.160156 " fill-opacity="1" fill-rule="nonzero"/><path fill="#a9a799" d="M 162.035156 122.613281 C 162.585938 122.613281 162.585938 123.472656 162.035156 123.472656 C 161.480469 123.472656 161.480469 122.613281 162.035156 122.613281 " fill-opacity="1" fill-rule="nonzero"/><path fill="#a9a799" d="M 163.464844 113 C 164.050781 113 164.050781 113.917969 163.464844 113.917969 C 162.867188 113.917969 162.867188 113 163.464844 113 " fill-opacity="1" fill-rule="nonzero"/><path fill="#a9a799" d="M 158.363281 115.101562 C 158.878906 115.101562 158.878906 115.890625 158.363281 115.890625 C 157.859375 115.890625 157.859375 115.101562 158.363281 115.101562 " fill-opacity="1" fill-rule="nonzero"/><path fill="#53321e" d="M 161.9375 66.761719 C 162.679688 70.628906 166.410156 73.164062 170.269531 72.425781 C 174.132812 71.6875 176.667969 67.957031 175.929688 64.089844 C 175.191406 60.226562 171.464844 57.691406 167.597656 58.425781 C 163.738281 59.167969 161.203125 62.898438 161.9375 66.761719 " fill-opacity="1" fill-rule="nonzero"/><path fill="#140904" d="M 160.25 66.761719 C 160.988281 70.628906 164.71875 73.164062 168.582031 72.425781 C 172.445312 71.6875 174.980469 67.957031 174.242188 64.089844 C 173.503906 60.226562 169.777344 57.691406 165.910156 58.425781 C 162.046875 59.167969 159.515625 62.898438 160.25 66.761719 " fill-opacity="1" fill-rule="nonzero"/><path fill="#27150e" d="M 163.800781 66.050781 C 163.972656 66.160156 164.132812 66.214844 164.378906 66.132812 C 164.675781 66.035156 164.898438 65.816406 165.195312 65.90625 C 165.488281 66.882812 166.476562 67.503906 167.496094 67.308594 C 168.34375 67.148438 168.957031 66.484375 169.101562 65.6875 C 169.25 65.746094 169.34375 65.847656 169.613281 65.847656 C 169.753906 65.847656 169.929688 65.742188 169.996094 65.628906 C 170.304688 65.121094 170.660156 65.714844 171.019531 65.828125 C 171.601562 66.011719 172.308594 65.289062 172.699219 65.636719 C 172.554688 68.144531 170.742188 70.328125 168.167969 70.816406 C 165.355469 71.359375 162.640625 69.679688 161.796875 67.015625 C 162.605469 66.980469 163.359375 66.75 163.800781 66.050781 " fill-opacity="1" fill-rule="nonzero"/><path fill="#ffffff" d="M 162.476562 60.96875 C 161.527344 61.792969 161.175781 62.941406 161.691406 63.53125 C 162.207031 64.121094 163.386719 63.933594 164.335938 63.109375 C 165.28125 62.285156 165.632812 61.140625 165.117188 60.546875 C 164.605469 59.957031 163.417969 60.144531 162.476562 60.96875 " fill-opacity="1" fill-rule="nonzero"/><path fill="#ffffff" d="M 164.59375 64.078125 C 164.59375 64.785156 165.171875 65.359375 165.878906 65.359375 C 166.589844 65.359375 167.164062 64.785156 167.164062 64.078125 C 167.164062 63.367188 166.589844 62.792969 165.878906 62.792969 C 165.171875 62.792969 164.59375 63.367188 164.59375 64.078125 " fill-opacity="1" fill-rule="nonzero"/><path fill="#875534" d="M 228.039062 84.078125 C 227.640625 90.367188 231.464844 93.15625 228.960938 97.226562 C 226.886719 100.605469 227.84375 103.207031 226.824219 106.902344 C 225.128906 113.03125 221.289062 120.234375 216.222656 124.117188 C 211.382812 127.824219 202.335938 129.46875 196.867188 126.574219 C 190.042969 122.957031 189.851562 114.082031 190.871094 107.308594 C 191.476562 103.242188 191.820312 98.734375 193.792969 95.101562 C 195.792969 91.402344 198.203125 88.148438 199.425781 84.058594 C 201.554688 76.925781 203.082031 68.386719 203.082031 60.738281 C 203.082031 57 203.371094 53.046875 202.777344 49.429688 C 202.035156 44.902344 199.101562 41.796875 197.675781 37.476562 C 196.46875 33.828125 195.300781 29.980469 194.933594 26.171875 C 194.753906 24.332031 195.164062 22.945312 194.21875 21.257812 C 193.816406 20.539062 190.863281 18.726562 190.84375 18.332031 C 190.535156 18.207031 190.417969 17.996094 190.480469 17.699219 C 197.53125 14.675781 201.304688 23.066406 206.027344 26.671875 C 213.136719 32.101562 216.261719 39.242188 220.910156 46.566406 C 224.0625 51.527344 225.242188 57.09375 227.125 62.792969 C 228.140625 65.847656 227.417969 69.707031 229.265625 72.585938 C 230.78125 74.945312 228.039062 84.078125 228.039062 84.078125 " fill-opacity="1" fill-rule="nonzero"/><path fill="#7d4e2f" d="M 193.792969 95.101562 C 195.792969 91.402344 198.203125 88.148438 199.425781 84.058594 C 201.554688 76.925781 203.082031 68.386719 203.082031 60.738281 C 203.082031 57 203.371094 53.046875 202.777344 49.429688 C 202.035156 44.902344 199.101562 41.796875 197.675781 37.476562 C 196.46875 33.828125 195.300781 29.980469 194.933594 26.171875 C 194.753906 24.332031 195.164062 22.945312 194.21875 21.257812 C 193.816406 20.539062 190.863281 18.726562 190.84375 18.332031 C 190.535156 18.207031 190.417969 17.996094 190.480469 17.699219 C 191.207031 17.386719 191.894531 17.207031 192.550781 17.117188 C 192.839844 17.277344 193.128906 17.4375 193.417969 17.601562 C 196.285156 19.191406 198.777344 20.84375 200.273438 23.871094 C 201.753906 26.851562 202.933594 29.941406 204.605469 32.828125 C 206.328125 35.816406 208.542969 38.375 210.050781 41.515625 C 211.71875 44.992188 212.859375 48.71875 213.59375 52.503906 C 215.132812 60.460938 214.390625 68.085938 211.855469 75.761719 C 210.570312 79.664062 208.9375 83.425781 207.585938 87.300781 C 206.449219 90.539062 207.523438 94.421875 204.609375 96.667969 C 199.566406 100.539062 198.410156 106.257812 199.308594 112.371094 C 200.042969 117.386719 202.222656 122.953125 204.996094 127.210938 C 205.160156 127.464844 205.332031 127.71875 205.515625 127.972656 C 202.378906 128.242188 199.277344 127.847656 196.867188 126.574219 C 190.042969 122.957031 189.851562 114.082031 190.871094 107.308594 C 191.476562 103.242188 191.820312 98.734375 193.792969 95.101562 " fill-opacity="1" fill-rule="nonzero"/><path fill="#99673b" d="M 142.9375 6.679688 C 136.664062 -0.0195312 116.460938 5.757812 101.511719 14.363281 C 96.953125 16.988281 83.253906 50.289062 85.855469 67.835938 C 90.15625 96.875 94.285156 89.378906 102.230469 113.109375 C 108.125 130.71875 117.382812 134.265625 137.300781 129.613281 C 136.4375 91.472656 143.402344 9.402344 142.9375 6.679688 " fill-opacity="1" fill-rule="nonzero"/><g clip-path="url(#0677c63835)"><g clip-path="url(#8d6db3b53f)"><path fill="#a36d42" d="M 102.5625 110.058594 L 139.480469 110.058594 L 139.480469 8.378906 L 102.5625 8.378906 Z M 102.5625 110.058594 " fill-opacity="1" fill-rule="nonzero"/></g></g><path fill="#a36d42" d="M 111.90625 110.070312 C 111.902344 110.066406 111.894531 110.0625 111.890625 110.058594 C 111.894531 110.0625 111.902344 110.066406 111.90625 110.070312 M 111.890625 110.058594 C 108.859375 107.917969 108.921875 104.695312 109.71875 101.417969 C 108.925781 104.695312 108.859375 107.921875 111.890625 110.058594 M 120.257812 8.390625 C 120.257812 8.390625 120.261719 8.390625 120.261719 8.390625 C 120.261719 8.390625 120.257812 8.390625 120.257812 8.390625 M 120.285156 8.386719 C 120.289062 8.382812 120.292969 8.382812 120.296875 8.382812 C 120.292969 8.382812 120.289062 8.382812 120.285156 8.386719 M 120.308594 8.378906 C 120.382812 8.351562 120.457031 8.332031 120.527344 8.3125 C 120.457031 8.332031 120.382812 8.351562 120.308594 8.378906 " fill-opacity="1" fill-rule="nonzero"/><path fill="#ab7449" d="M 111.292969 110.988281 L 111.90625 110.070312 C 111.902344 110.066406 111.894531 110.0625 111.890625 110.058594 C 108.859375 107.921875 108.925781 104.695312 109.71875 101.417969 C 109.878906 100.773438 110.0625 100.125 110.261719 99.488281 C 114.6875 96.582031 119.25 93.882812 122.242188 89.367188 C 125.492188 84.464844 124.796875 77.226562 124.347656 71.683594 C 123.933594 66.582031 124.148438 60.519531 120.316406 56.644531 C 119.675781 56.003906 118.9375 55.472656 118.242188 54.890625 C 118.242188 54.804688 118.234375 54.691406 118.214844 54.53125 C 118.304688 53.847656 118.582031 53.183594 118.863281 52.5625 C 120.089844 49.914062 122.054688 47.605469 123.714844 45.226562 C 126.164062 41.71875 126.578125 38.296875 126.738281 34.109375 C 126.882812 30.285156 127.210938 25.132812 125.210938 21.6875 C 124.097656 19.765625 121.863281 19.328125 119.867188 18.96875 C 117.382812 18.527344 115.992188 16.15625 114.691406 14.175781 C 113.933594 13.023438 113.160156 12.03125 112.335938 11.175781 C 114.789062 10.066406 117.757812 9.097656 120.257812 8.390625 C 120.257812 8.390625 120.261719 8.390625 120.261719 8.390625 C 120.269531 8.390625 120.277344 8.386719 120.285156 8.386719 C 120.289062 8.382812 120.292969 8.382812 120.296875 8.382812 C 120.304688 8.378906 120.304688 8.378906 120.308594 8.378906 C 120.382812 8.351562 120.457031 8.332031 120.527344 8.3125 C 124.636719 7.167969 129.910156 5.96875 134.527344 5.96875 C 135.367188 5.96875 136.179688 6.011719 136.964844 6.097656 C 139.703125 6.402344 140.453125 8.152344 140.449219 10.402344 C 140.449219 12.96875 139.464844 16.191406 139.34375 18.640625 C 139.035156 24.753906 139.480469 36.171875 138.339844 42.183594 C 137.03125 49.070312 134.570312 50.359375 132.386719 57.160156 C 130.089844 64.324219 129.976562 71.175781 129.324219 78.582031 C 129.023438 81.984375 128.851562 85.320312 127.109375 88.367188 C 125.582031 91.027344 123.203125 93.070312 121.609375 95.699219 C 119.96875 98.40625 119.761719 101.484375 118.238281 104.195312 C 116.4375 107.394531 113.792969 108.410156 111.292969 110.988281 " fill-opacity="1" fill-rule="nonzero"/><path fill="#7a4b2b" d="M 107.597656 105.003906 C 108.261719 81.867188 93.324219 53.246094 94.207031 34.804688 C 94.261719 33.671875 94.363281 32.625 94.5 31.644531 C 94.5 31.644531 94.5 31.648438 94.5 31.648438 C 95.550781 24.214844 98.859375 20.882812 101.703125 18.789062 C 101.707031 18.835938 101.710938 18.882812 101.710938 18.933594 C 102.019531 23.527344 100.660156 28.164062 99.644531 32.59375 C 98.570312 37.289062 97.824219 41.9375 98.070312 46.773438 C 98.359375 52.660156 100.417969 58 102.75 63.335938 C 105 68.496094 107.339844 73.582031 108.863281 79.023438 C 109.078125 79.777344 109.253906 80.550781 109.410156 81.335938 C 109.492188 82.03125 109.59375 82.726562 109.746094 83.441406 C 110.234375 87.191406 110.160156 91.105469 109.921875 94.746094 C 109.6875 98.292969 108.765625 101.675781 107.597656 105.003906 " fill-opacity="1" fill-rule="nonzero"/><path fill="#814f30" d="M 109.746094 83.441406 C 109.59375 82.726562 109.492188 82.03125 109.410156 81.335938 C 109.542969 82.03125 109.652344 82.730469 109.746094 83.441406 " fill-opacity="1" fill-rule="nonzero"/><path fill="#f4f4f4" d="M 141.503906 47.6875 C 141.503906 47.6875 135.976562 58.628906 133.9375 64.625 C 131.367188 72.183594 136.0625 73.398438 131.6875 87.746094 C 129.40625 95.222656 120.25 103.042969 114.769531 114.515625 C 112.65625 118.945312 108.960938 117.972656 106.390625 117.003906 C 104.613281 116.328125 103.375 115.660156 103.59375 116.78125 C 105.535156 126.914062 121.171875 139.492188 142.207031 129.316406 C 145.691406 91.398438 141.503906 47.6875 141.503906 47.6875 " fill-opacity="1" fill-rule="nonzero"/><path fill="#e2e1ce" d="M 148.222656 96.148438 C 146.347656 91.925781 144.625 88.027344 144.660156 83.316406 C 144.675781 80.832031 142.972656 75.632812 142.027344 73.984375 C 141.785156 75.109375 139.820312 82.632812 139.523438 82.949219 C 139.554688 88.03125 138.117188 90.808594 136.011719 95.496094 C 135.207031 97.289062 127.816406 103.339844 128.738281 104.871094 C 129.441406 106.046875 136.351562 103.207031 137.71875 103.84375 C 138.65625 104.28125 139.769531 104.582031 140.917969 104.742188 L 140.917969 104.75 C 141.039062 104.769531 141.160156 104.78125 141.28125 104.792969 L 141.460938 104.816406 L 141.460938 104.8125 C 143.160156 104.980469 144.890625 104.8125 146.183594 104.199219 C 147.535156 103.5625 153.378906 107.183594 153.78125 105.914062 C 154.386719 104.023438 149.023438 97.957031 148.222656 96.148438 " fill-opacity="1" fill-rule="nonzero"/><path fill="#dad8c6" d="M 133.632812 114.691406 C 133.078125 117.734375 140.449219 124.085938 133.253906 128.941406 C 129.960938 131.160156 126.789062 132.050781 122.535156 132.808594 C 129.460938 133.6875 133.898438 132.59375 141.683594 129.648438 C 143.816406 128.054688 144.660156 120.160156 143.59375 110.988281 C 141.3125 113.992188 134.242188 111.371094 133.632812 114.691406 " fill-opacity="1" fill-rule="nonzero"/><path fill="#6b4228" d="M 106.066406 13.144531 C 104.003906 7.578125 84.398438 16.339844 75.683594 28.113281 C 69.824219 36.035156 58.417969 48.109375 56.277344 58.628906 C 54.601562 66.890625 45.480469 73.933594 45.582031 82.410156 C 45.640625 87.363281 50.78125 93.742188 52.609375 99.066406 C 56.046875 109.058594 60.808594 124.265625 67.59375 126.914062 C 77.984375 130.972656 96.210938 130.328125 98.757812 127.738281 C 121.570312 104.585938 92.996094 60.105469 94.207031 34.804688 C 95.09375 16.339844 108.125 18.714844 106.066406 13.144531 " fill-opacity="1" fill-rule="nonzero"/><path fill="#6b4228" d="M 96.4375 98.699219 C 94.859375 92.15625 92.332031 86.09375 89.472656 80.023438 C 86.773438 74.28125 84.371094 68.613281 83.625 62.261719 C 82.3125 51.140625 84.050781 39.316406 89.328125 29.359375 C 93.21875 22.019531 98.699219 16.277344 105.535156 12.335938 C 101.796875 8.589844 83.898438 17.011719 75.683594 28.113281 C 69.824219 36.035156 58.417969 48.109375 56.277344 58.628906 C 54.601562 66.890625 45.480469 73.933594 45.582031 82.410156 C 45.640625 87.363281 50.78125 93.742188 52.609375 99.066406 C 56.046875 109.058594 60.808594 124.265625 67.59375 126.914062 C 74.621094 129.660156 85.226562 130.25 92.148438 129.546875 C 97.503906 120.1875 99.058594 109.582031 96.4375 98.699219 " fill-opacity="1" fill-rule="nonzero"/><path fill="#5e301d" d="M 94.207031 34.804688 C 94.261719 33.675781 94.363281 32.628906 94.5 31.648438 C 94.5 31.648438 94.5 31.644531 94.5 31.644531 C 94.363281 32.625 94.261719 33.671875 94.207031 34.804688 " fill-opacity="1" fill-rule="nonzero"/><path fill="#532b1b" d="M 99.875 126.539062 C 102.492188 120.285156 103.761719 113.578125 103.324219 106.417969 C 102.9375 100.261719 101.332031 94.230469 99.273438 88.449219 C 97.003906 82.089844 93.613281 76.222656 91.21875 69.917969 C 87.296875 59.582031 88.402344 47.355469 92.058594 37.117188 C 92.742188 35.203125 93.566406 33.386719 94.5 31.648438 C 94.363281 32.628906 94.261719 33.675781 94.207031 34.804688 C 93.015625 59.675781 120.601562 103.078125 99.875 126.539062 " fill-opacity="1" fill-rule="nonzero"/><path fill="#7f4f33" d="M 98.183594 126.257812 C 100.800781 120.007812 100.898438 107.574219 93.339844 88.167969 C 90.890625 81.878906 87.558594 76.011719 86.230469 69.402344 C 82.894531 52.800781 89.695312 38.859375 90.511719 37.292969 C 86.535156 48.761719 86.640625 61.128906 89.871094 69.640625 C 92.265625 75.945312 95.65625 81.8125 97.921875 88.167969 C 99.988281 93.957031 105.535156 116.925781 98.183594 126.257812 " fill-opacity="1" fill-rule="nonzero"/><path fill="#23130c" d="M 155.003906 106.71875 C 155.003906 108.996094 151.144531 114.65625 145.789062 116.84375 C 145.132812 118.089844 143.003906 118.957031 141.503906 118.957031 C 140.210938 118.957031 138.339844 117.851562 137.785156 117.058594 C 132.136719 115.058594 128 109.074219 128 106.71875 C 128 103.867188 133.773438 100.480469 141.226562 100.480469 C 148.679688 100.480469 155.003906 103.867188 155.003906 106.71875 " fill-opacity="1" fill-rule="nonzero"/><path fill="#140904" d="M 136.421875 111.285156 C 136.421875 112.730469 138.339844 115.648438 138.339844 115.648438 C 138.339844 115.648438 130.957031 110.988281 130.957031 109.542969 C 130.957031 108.097656 132.609375 106.925781 134.648438 106.925781 C 136.6875 106.925781 136.421875 109.84375 136.421875 111.285156 " fill-opacity="1" fill-rule="nonzero"/><path fill="#140904" d="M 146.574219 111.285156 C 146.574219 112.730469 144.660156 115.648438 144.660156 115.648438 C 144.660156 115.648438 152.039062 110.988281 152.039062 109.542969 C 152.039062 108.097656 150.386719 106.925781 148.347656 106.925781 C 146.3125 106.925781 146.574219 109.84375 146.574219 111.285156 " fill-opacity="1" fill-rule="nonzero"/><path fill="#392219" d="M 148.347656 103.921875 C 148.347656 105.148438 145.054688 103.53125 140.992188 103.53125 C 136.925781 103.53125 133.632812 105.148438 133.632812 103.921875 C 133.632812 102.695312 136.925781 101.699219 140.992188 101.699219 C 145.054688 101.699219 148.347656 102.695312 148.347656 103.921875 " fill-opacity="1" fill-rule="nonzero"/><path fill="#a9a799" d="M 123.914062 121.324219 C 123.28125 121.324219 123.28125 122.3125 123.914062 122.3125 C 124.554688 122.3125 124.554688 121.324219 123.914062 121.324219 " fill-opacity="1" fill-rule="nonzero"/><path fill="#a9a799" d="M 121.675781 119.53125 C 121.09375 119.53125 121.09375 120.4375 121.675781 120.4375 C 122.253906 120.4375 122.253906 119.53125 121.675781 119.53125 " fill-opacity="1" fill-rule="nonzero"/><path fill="#a9a799" d="M 122.082031 116.511719 C 121.546875 116.511719 121.546875 117.339844 122.082031 117.339844 C 122.613281 117.339844 122.613281 116.511719 122.082031 116.511719 " fill-opacity="1" fill-rule="nonzero"/><path fill="#a9a799" d="M 124.933594 117.792969 C 124.472656 117.792969 124.472656 118.507812 124.933594 118.507812 C 125.398438 118.507812 125.398438 117.792969 124.933594 117.792969 " fill-opacity="1" fill-rule="nonzero"/><path fill="#a9a799" d="M 128.804688 120.632812 C 128.589844 120.632812 128.589844 120.964844 128.804688 120.964844 C 129.015625 120.964844 129.015625 120.632812 128.804688 120.632812 " fill-opacity="1" fill-rule="nonzero"/><path fill="#a9a799" d="M 126.566406 124.753906 C 125.878906 124.753906 125.878906 125.8125 126.566406 125.8125 C 127.246094 125.8125 127.246094 124.753906 126.566406 124.753906 " fill-opacity="1" fill-rule="nonzero"/><path fill="#a9a799" d="M 122.488281 126.492188 C 121.945312 126.492188 121.945312 127.335938 122.488281 127.335938 C 123.03125 127.335938 123.03125 126.492188 122.488281 126.492188 " fill-opacity="1" fill-rule="nonzero"/><path fill="#a9a799" d="M 118.621094 122.644531 C 118.105469 122.644531 118.105469 123.433594 118.621094 123.433594 C 119.128906 123.433594 119.128906 122.644531 118.621094 122.644531 " fill-opacity="1" fill-rule="nonzero"/><path fill="#a9a799" d="M 117.804688 120.160156 C 117.238281 120.160156 117.238281 121.03125 117.804688 121.03125 C 118.367188 121.03125 118.367188 120.160156 117.804688 120.160156 " fill-opacity="1" fill-rule="nonzero"/><path fill="#a9a799" d="M 121.675781 122.613281 C 121.121094 122.613281 121.121094 123.472656 121.675781 123.472656 C 122.226562 123.472656 122.226562 122.613281 121.675781 122.613281 " fill-opacity="1" fill-rule="nonzero"/><path fill="#a9a799" d="M 120.25 113 C 119.65625 113 119.65625 113.917969 120.25 113.917969 C 120.835938 113.917969 120.835938 113 120.25 113 " fill-opacity="1" fill-rule="nonzero"/><path fill="#a9a799" d="M 125.34375 115.101562 C 124.832031 115.101562 124.832031 115.890625 125.34375 115.890625 C 125.847656 115.890625 125.847656 115.101562 125.34375 115.101562 " fill-opacity="1" fill-rule="nonzero"/><path fill="#53321e" d="M 121.769531 66.761719 C 121.03125 70.628906 117.300781 73.164062 113.4375 72.425781 C 109.574219 71.6875 107.039062 67.957031 107.78125 64.089844 C 108.515625 60.226562 112.242188 57.691406 116.109375 58.425781 C 119.972656 59.167969 122.507812 62.898438 121.769531 66.761719 " fill-opacity="1" fill-rule="nonzero"/><path fill="#140904" d="M 123.457031 66.761719 C 122.71875 70.628906 118.992188 73.164062 115.128906 72.425781 C 111.261719 71.6875 108.730469 67.957031 109.46875 64.089844 C 110.207031 60.226562 113.933594 57.691406 117.800781 58.425781 C 121.660156 59.167969 124.195312 62.898438 123.457031 66.761719 " fill-opacity="1" fill-rule="nonzero"/><path fill="#27150e" d="M 119.910156 66.050781 C 119.738281 66.160156 119.574219 66.214844 119.328125 66.132812 C 119.035156 66.035156 118.808594 65.816406 118.511719 65.90625 C 118.21875 66.882812 117.234375 67.503906 116.210938 67.308594 C 115.367188 67.148438 114.75 66.484375 114.605469 65.6875 C 114.457031 65.746094 114.363281 65.847656 114.09375 65.847656 C 113.960938 65.847656 113.78125 65.742188 113.710938 65.628906 C 113.40625 65.121094 113.046875 65.714844 112.691406 65.828125 C 112.109375 66.011719 111.398438 65.289062 111.011719 65.636719 C 111.152344 68.144531 112.96875 70.328125 115.539062 70.816406 C 118.351562 71.359375 121.070312 69.679688 121.914062 67.015625 C 121.105469 66.980469 120.347656 66.75 119.910156 66.050781 " fill-opacity="1" fill-rule="nonzero"/><path fill="#ffffff" d="M 121.234375 60.96875 C 122.179688 61.792969 122.53125 62.941406 122.019531 63.53125 C 121.5 64.121094 120.320312 63.933594 119.371094 63.109375 C 118.425781 62.285156 118.074219 61.140625 118.59375 60.546875 C 119.105469 59.957031 120.285156 60.144531 121.234375 60.96875 " fill-opacity="1" fill-rule="nonzero"/><path fill="#ffffff" d="M 119.117188 64.078125 C 119.117188 64.785156 118.535156 65.359375 117.832031 65.359375 C 117.117188 65.359375 116.542969 64.785156 116.542969 64.078125 C 116.542969 63.367188 117.117188 62.792969 117.832031 62.792969 C 118.535156 62.792969 119.117188 63.367188 119.117188 64.078125 " fill-opacity="1" fill-rule="nonzero"/><path fill="#875534" d="M 55.667969 84.078125 C 56.066406 90.367188 52.246094 93.15625 54.746094 97.226562 C 56.824219 100.605469 55.863281 103.207031 56.886719 106.902344 C 58.585938 113.03125 62.421875 120.234375 67.484375 124.117188 C 72.324219 127.824219 81.375 129.46875 86.84375 126.574219 C 93.667969 122.957031 93.855469 114.082031 92.839844 107.308594 C 92.230469 103.242188 91.886719 98.734375 89.917969 95.101562 C 87.914062 91.402344 85.503906 88.148438 84.285156 84.058594 C 82.15625 76.925781 80.625 68.386719 80.625 60.738281 C 80.625 57 80.339844 53.046875 80.933594 49.429688 C 81.675781 44.902344 84.605469 41.796875 86.035156 37.476562 C 87.238281 33.828125 88.40625 29.980469 88.773438 26.171875 C 88.953125 24.332031 88.546875 22.945312 89.488281 21.257812 C 89.890625 20.539062 92.84375 18.726562 92.867188 18.332031 C 93.171875 18.207031 93.292969 17.996094 93.226562 17.699219 C 86.175781 14.675781 82.402344 23.066406 77.683594 26.671875 C 70.570312 32.101562 67.449219 39.242188 62.796875 46.566406 C 59.648438 51.527344 58.46875 57.09375 56.585938 62.792969 C 55.570312 65.847656 56.292969 69.707031 54.445312 72.585938 C 52.929688 74.945312 55.667969 84.078125 55.667969 84.078125 " fill-opacity="1" fill-rule="nonzero"/><path fill="#7d4e2f" d="M 89.917969 95.101562 C 87.914062 91.402344 85.503906 88.148438 84.285156 84.058594 C 82.15625 76.925781 80.625 68.386719 80.625 60.738281 C 80.625 57 80.339844 53.046875 80.933594 49.429688 C 81.675781 44.902344 84.605469 41.796875 86.035156 37.476562 C 87.238281 33.828125 88.40625 29.980469 88.773438 26.171875 C 88.953125 24.332031 88.546875 22.945312 89.488281 21.257812 C 89.890625 20.539062 92.84375 18.726562 92.867188 18.332031 C 93.171875 18.207031 93.292969 17.996094 93.226562 17.699219 C 92.5 17.386719 91.816406 17.207031 91.152344 17.117188 C 90.867188 17.277344 90.582031 17.4375 90.289062 17.601562 C 87.421875 19.191406 84.929688 20.84375 83.433594 23.871094 C 81.953125 26.851562 80.777344 29.941406 79.105469 32.828125 C 77.375 35.816406 75.171875 38.375 73.660156 41.515625 C 71.988281 44.992188 70.847656 48.71875 70.117188 52.503906 C 68.574219 60.460938 69.320312 68.085938 71.851562 75.761719 C 73.136719 79.664062 74.769531 83.425781 76.128906 87.300781 C 77.261719 90.539062 76.183594 94.421875 79.101562 96.667969 C 84.140625 100.539062 85.296875 106.257812 84.402344 112.371094 C 83.664062 117.386719 81.484375 122.953125 78.71875 127.210938 C 78.546875 127.464844 78.375 127.71875 78.195312 127.972656 C 81.332031 128.242188 84.429688 127.847656 86.84375 126.574219 C 93.667969 122.957031 93.855469 114.082031 92.839844 107.308594 C 92.230469 103.242188 91.886719 98.734375 89.917969 95.101562 " fill-opacity="1" fill-rule="nonzero"/><path fill="#f4f4f4" d="M 124.972656 236.710938 L 112.957031 221.160156 C 112.992188 222.421875 112.46875 225.519531 112.921875 226.6875 C 113.726562 228.75 113.0625 231.167969 113.925781 233.207031 C 115.464844 236.84375 115.527344 238.253906 113.925781 242.128906 C 112.992188 244.390625 115.308594 246.785156 115.117188 249.289062 C 115.050781 250.179688 114.980469 251.070312 114.863281 251.957031 C 114.855469 252 114.363281 254.167969 114.320312 253.902344 C 114.777344 256.558594 115.140625 259.109375 113.515625 261.070312 C 112.863281 265.214844 111.695312 269.132812 109.972656 272.988281 C 109.171875 274.773438 107.714844 276.351562 107.097656 278.203125 C 106.6875 279.429688 106.550781 280.949219 105.765625 282.015625 C 105.605469 282.226562 105.433594 282.410156 105.261719 282.570312 C 103.824219 285.136719 101.152344 286.414062 98.34375 287.207031 C 98.730469 296.367188 98.988281 305.242188 97.816406 309.046875 C 93.945312 321.648438 96.015625 323.804688 94.6875 334.570312 C 93.359375 345.335938 87.25 346.558594 88.746094 354.304688 C 88.894531 354.800781 89.601562 355.179688 90.707031 355.457031 C 91.488281 356.996094 97.382812 356.527344 103.152344 355.820312 C 105.023438 358.691406 115.714844 353.878906 115.8125 352.253906 C 116.03125 348.546875 111.964844 339.257812 110.898438 330.292969 C 109.660156 313.9375 117.683594 308.230469 113.925781 302.117188 C 113.082031 300.75 127.742188 266.242188 129.691406 258.898438 C 131.644531 251.5625 124.972656 236.710938 124.972656 236.710938 " fill-opacity="1" fill-rule="nonzero"/><path fill="#d3d2d2" d="M 117.199219 248.203125 L 117.1875 248.128906 C 116.957031 247.160156 116.652344 246.21875 116.324219 245.292969 C 116.273438 245.398438 116.222656 245.511719 116.171875 245.621094 C 116.535156 246.476562 116.882812 247.335938 117.199219 248.203125 " fill-opacity="1" fill-rule="nonzero"/><path fill="#d3d2d2" d="M 96.414062 314.222656 C 96.042969 315.828125 95.792969 317.242188 95.625 318.53125 C 95.78125 318.515625 95.9375 318.515625 96.089844 318.519531 C 96.183594 317.058594 96.273438 315.621094 96.414062 314.222656 " fill-opacity="1" fill-rule="nonzero"/><path fill="#d3d2d2" d="M 124.972656 236.710938 L 112.957031 221.160156 C 112.96875 221.554688 112.984375 221.945312 113.015625 222.335938 C 115.65625 226.160156 116.171875 230.84375 118.296875 235.359375 C 119.863281 238.671875 121.578125 242.105469 122.433594 245.691406 C 123.265625 249.195312 123.355469 252.761719 123.445312 256.347656 C 123.550781 260.390625 122.386719 263.125 120.949219 266.785156 C 119.355469 270.871094 117.617188 274.894531 115.867188 278.914062 C 114.011719 283.171875 112.109375 287.359375 110.914062 291.863281 C 110.355469 293.980469 109.804688 296.09375 109.132812 298.183594 C 108.902344 298.90625 108.523438 299.59375 108.144531 300.253906 C 108.386719 300.476562 108.625 300.742188 108.847656 301.09375 C 109.800781 302.5625 109.171875 304.90625 108.902344 306.492188 C 108.519531 308.808594 108.292969 311.148438 108.101562 313.492188 C 107.945312 315.351562 107.25 316.832031 106.871094 318.613281 C 106.945312 318.273438 107.191406 319.078125 107.421875 319.441406 C 107.851562 320.117188 107.867188 321.019531 107.957031 321.789062 C 108.195312 323.816406 107.90625 325.542969 107.320312 327.488281 C 106.734375 329.417969 106.300781 331.253906 106.144531 333.242188 C 107.011719 333.652344 107.667969 334.535156 107.8125 335.753906 C 107.980469 337.222656 106.925781 340.527344 107.953125 341.621094 C 109.140625 342.886719 109.621094 344.03125 109.847656 345.746094 C 110.128906 347.886719 107.234375 349.273438 105.582031 348.195312 C 105.34375 348.035156 105.246094 347.9375 105.207031 347.878906 L 105.132812 347.941406 C 104.679688 348.226562 104.339844 348.511719 103.976562 348.917969 C 103.28125 349.695312 102.667969 350.519531 102.078125 351.382812 C 100.9375 353.046875 99.882812 354.710938 98.253906 355.9375 C 97.109375 356.808594 94.964844 356.21875 94.378906 354.921875 C 93.5 352.992188 93.496094 351.273438 94.285156 349.289062 C 94.449219 348.867188 95.640625 344.097656 93.898438 345.195312 C 91.183594 346.910156 89.195312 351.371094 89.066406 354.511719 L 89.035156 354.71875 C 89.363281 355.015625 89.933594 355.265625 90.707031 355.457031 C 91.488281 356.996094 97.382812 356.527344 103.152344 355.820312 C 105.023438 358.691406 115.714844 353.878906 115.8125 352.253906 C 116.03125 348.546875 111.964844 339.257812 110.898438 330.292969 C 109.660156 313.9375 117.683594 308.230469 113.925781 302.117188 C 113.082031 300.75 127.742188 266.242188 129.691406 258.898438 C 131.644531 251.5625 124.972656 236.710938 124.972656 236.710938 " fill-opacity="1" fill-rule="nonzero"/><path fill="#bdbcbd" d="M 128.828125 261.640625 C 129.167969 260.65625 129.4375 259.816406 129.625 259.15625 C 129.625 259.15625 129.625 259.152344 129.625 259.15625 C 129.4375 259.816406 129.167969 260.65625 128.828125 261.640625 " fill-opacity="1" fill-rule="nonzero"/><path fill="#b6b4b5" d="M 129.625 259.15625 C 129.625 259.152344 129.625 259.15625 129.625 259.15625 C 129.648438 259.066406 129.671875 258.984375 129.691406 258.898438 C 129.945312 257.960938 130.050781 256.898438 130.050781 255.761719 C 130.050781 256.898438 129.945312 257.960938 129.691406 258.898438 C 129.671875 258.984375 129.648438 259.066406 129.625 259.15625 M 124.972656 236.710938 L 106.507812 212.808594 C 106.507812 212.804688 106.507812 212.804688 106.503906 212.800781 L 124.972656 236.710938 " fill-opacity="1" fill-rule="nonzero"/><path fill="#734c2b" d="M 124.972656 236.710938 L 112.957031 221.160156 C 112.964844 221.4375 112.949219 221.796875 112.917969 222.203125 C 110.753906 219.089844 108.535156 216.007812 106.507812 212.808594 L 124.972656 236.710938 " fill-opacity="1" fill-rule="nonzero"/><path fill="#b6b4b5" d="M 113.203125 222.613281 C 113.105469 222.472656 113.011719 222.339844 112.917969 222.203125 C 112.949219 221.796875 112.964844 221.4375 112.957031 221.160156 C 112.96875 221.554688 112.984375 221.945312 113.015625 222.335938 C 113.078125 222.425781 113.140625 222.519531 113.203125 222.613281 " fill-opacity="1" fill-rule="nonzero"/><path fill="#9e9d9d" d="M 128.710938 261.988281 C 128.164062 258 127.214844 254.082031 126.054688 250.195312 C 124.371094 244.539062 122.625 238.847656 119.960938 233.566406 C 118.019531 229.722656 115.652344 226.144531 113.203125 222.613281 C 113.140625 222.519531 113.078125 222.425781 113.015625 222.335938 C 112.984375 221.945312 112.96875 221.554688 112.957031 221.160156 L 124.972656 236.710938 C 124.972656 236.710938 130.046875 248.003906 130.050781 255.761719 C 130.050781 256.898438 129.945312 257.960938 129.691406 258.898438 C 129.671875 258.984375 129.648438 259.066406 129.625 259.15625 C 129.4375 259.816406 129.167969 260.65625 128.828125 261.640625 C 128.789062 261.757812 128.75 261.871094 128.710938 261.988281 " fill-opacity="1" fill-rule="nonzero"/><path fill="#f4f4f4" d="M 279.84375 331.519531 C 279.261719 331.492188 273.390625 330.808594 272.796875 330.753906 C 267.816406 330.273438 262.429688 329.414062 257.699219 327.707031 C 253.339844 326.132812 249.96875 323.683594 249.375 318.828125 C 249.320312 318.394531 249.414062 317.984375 249.605469 317.613281 L 249.5 317.425781 C 249.167969 317.71875 248.800781 317.984375 248.375 318.242188 C 247.199219 318.957031 245.929688 318.601562 244.9375 317.796875 C 243.851562 316.921875 243.140625 315.886719 242.675781 314.75 C 241.8125 314.640625 241.011719 314.183594 240.664062 313.390625 C 239.359375 310.417969 237.902344 307.566406 235.925781 304.980469 L 235.800781 304.8125 C 235.054688 304.679688 234.347656 304.21875 233.910156 303.636719 C 232.089844 302.703125 230.453125 301.34375 228.933594 299.882812 C 227.972656 301.1875 225.84375 301.277344 224.628906 300.164062 C 223.800781 299.40625 223.183594 298.546875 222.71875 297.625 C 221.574219 298.09375 220.320312 298.132812 219.011719 297.410156 C 217.8125 296.75 216.980469 295.785156 216.417969 294.660156 C 213.722656 294.722656 211.207031 293.269531 210.101562 290.089844 C 210.066406 289.976562 210.039062 289.859375 210.015625 289.738281 C 209.765625 289.472656 209.570312 289.171875 209.457031 288.855469 C 209.320312 291.347656 210.25 293.226562 210.25 293.226562 C 210.25 293.226562 212.480469 305.652344 219.105469 306.335938 C 235.566406 308.035156 224.445312 337.171875 243.21875 335.339844 C 225.824219 343.332031 207.300781 340.394531 208.179688 350.269531 C 208.292969 350.902344 209.132812 351.46875 210.476562 351.957031 C 211.246094 353.988281 218.675781 354.15625 225.980469 354.023438 C 227.953125 357.847656 281.820312 348.488281 282.144531 346.46875 C 282.839844 342.234375 280.214844 340.707031 279.84375 331.519531 " fill-opacity="1" fill-rule="nonzero"/><path fill="#c9b4b1" d="M 212.691406 353.300781 C 212.601562 353.28125 212.027344 353.148438 211.476562 352.871094 C 211.8125 353.035156 212.222656 353.171875 212.691406 353.300781 " fill-opacity="1" fill-rule="nonzero"/><path fill="#c0aca9" d="M 212.703125 353.300781 C 212.703125 353.300781 212.699219 353.300781 212.691406 353.300781 C 212.222656 353.171875 211.8125 353.035156 211.476562 352.871094 C 211.0625 352.660156 210.65625 352.359375 210.476562 351.957031 C 210.039062 350.976562 210.621094 345.339844 215.164062 344.554688 C 210.253906 347.910156 212.703125 353.300781 212.703125 353.300781 " fill-opacity="1" fill-rule="nonzero"/><path fill="#c9b4b1" d="M 228.398438 355.398438 C 228.398438 355.398438 226.742188 355.210938 226.023438 354.09375 C 226.269531 354.4375 226.976562 354.664062 228.039062 354.796875 C 228.242188 355.183594 228.398438 355.398438 228.398438 355.398438 " fill-opacity="1" fill-rule="nonzero"/><path fill="#c0aca9" d="M 228.039062 354.796875 C 226.976562 354.664062 226.269531 354.4375 226.023438 354.09375 C 226.007812 354.070312 225.996094 354.046875 225.980469 354.023438 C 225.285156 352.84375 225.6875 347.253906 230.234375 346.46875 C 225.996094 349.628906 227.300781 353.359375 228.039062 354.796875 " fill-opacity="1" fill-rule="nonzero"/><path fill="#42a3ab" d="M 173.46875 305.988281 C 159.917969 305.988281 52.660156 305.988281 40.875 305.988281 C 20.25 330.164062 23.789062 363.1875 23.789062 363.1875 C 23.789062 367.746094 61.070312 374.980469 107.351562 374.980469 C 153.632812 374.980469 191.152344 367.746094 191.152344 363.1875 C 191.152344 363.1875 196.453125 321.324219 173.46875 305.988281 " fill-opacity="1" fill-rule="nonzero"/><path fill="#8aaab7" d="M 23.796875 363.296875 L 23.796875 363.292969 C 23.796875 363.292969 23.796875 363.292969 23.796875 363.296875 M 23.792969 363.285156 C 23.792969 363.28125 23.792969 363.28125 23.792969 363.28125 C 23.792969 363.28125 23.792969 363.28125 23.792969 363.285156 M 23.792969 363.257812 C 23.792969 363.253906 23.792969 363.253906 23.792969 363.253906 C 23.792969 363.253906 23.792969 363.253906 23.792969 363.257812 M 23.792969 363.25 C 23.792969 363.25 23.792969 363.25 23.792969 363.246094 C 23.792969 363.25 23.792969 363.25 23.792969 363.25 M 23.789062 363.246094 C 23.789062 363.242188 23.789062 363.242188 23.789062 363.242188 C 23.789062 363.242188 23.789062 363.242188 23.789062 363.246094 M 23.789062 363.238281 C 23.789062 363.238281 23.789062 363.238281 23.789062 363.234375 C 23.789062 363.238281 23.789062 363.238281 23.789062 363.238281 M 23.789062 363.230469 C 23.789062 363.230469 23.789062 363.230469 23.789062 363.226562 C 23.789062 363.230469 23.789062 363.230469 23.789062 363.230469 M 23.789062 363.226562 C 23.789062 363.222656 23.789062 363.222656 23.789062 363.21875 C 23.789062 363.222656 23.789062 363.222656 23.789062 363.226562 M 23.789062 363.21875 C 23.789062 363.214844 23.789062 363.214844 23.789062 363.214844 C 23.789062 363.214844 23.789062 363.214844 23.789062 363.21875 M 23.789062 363.210938 C 23.789062 363.210938 23.789062 363.207031 23.789062 363.207031 C 23.789062 363.207031 23.789062 363.210938 23.789062 363.210938 M 23.789062 363.207031 C 23.789062 363.203125 23.789062 363.203125 23.789062 363.203125 C 23.789062 363.203125 23.789062 363.203125 23.789062 363.207031 M 23.789062 363.199219 C 23.789062 363.199219 23.789062 363.195312 23.789062 363.195312 C 23.789062 363.195312 23.789062 363.199219 23.789062 363.199219 M 23.789062 363.191406 C 23.789062 363.191406 23.789062 363.1875 23.789062 363.1875 C 23.789062 363.1875 23.558594 361.03125 23.558594 357.421875 C 23.558594 361.03125 23.789062 363.1875 23.789062 363.1875 C 23.789062 363.1875 23.789062 363.191406 23.789062 363.191406 " fill-opacity="1" fill-rule="nonzero"/><path fill="#25727d" d="M 87.742188 374.542969 C 51.410156 372.9375 24.425781 367.214844 23.800781 363.324219 C 23.800781 363.320312 23.800781 363.320312 23.800781 363.316406 C 23.796875 363.308594 23.796875 363.300781 23.796875 363.296875 C 23.796875 363.292969 23.796875 363.292969 23.796875 363.292969 C 23.796875 363.292969 23.796875 363.292969 23.796875 363.289062 C 23.792969 363.285156 23.792969 363.285156 23.792969 363.285156 C 23.792969 363.28125 23.792969 363.28125 23.792969 363.28125 C 23.792969 363.28125 23.792969 363.277344 23.792969 363.277344 C 23.792969 363.273438 23.792969 363.273438 23.792969 363.269531 C 23.792969 363.265625 23.792969 363.265625 23.792969 363.261719 C 23.792969 363.257812 23.792969 363.257812 23.792969 363.257812 C 23.792969 363.253906 23.792969 363.253906 23.792969 363.253906 C 23.792969 363.253906 23.792969 363.25 23.792969 363.25 C 23.792969 363.25 23.792969 363.25 23.792969 363.246094 C 23.792969 363.246094 23.789062 363.246094 23.789062 363.246094 C 23.789062 363.242188 23.789062 363.242188 23.789062 363.242188 C 23.789062 363.242188 23.789062 363.238281 23.789062 363.238281 C 23.789062 363.238281 23.789062 363.238281 23.789062 363.234375 C 23.789062 363.234375 23.789062 363.234375 23.789062 363.230469 C 23.789062 363.230469 23.789062 363.230469 23.789062 363.226562 C 23.789062 363.222656 23.789062 363.222656 23.789062 363.21875 C 23.789062 363.214844 23.789062 363.214844 23.789062 363.214844 C 23.789062 363.210938 23.789062 363.210938 23.789062 363.210938 C 23.789062 363.210938 23.789062 363.207031 23.789062 363.207031 C 23.789062 363.203125 23.789062 363.203125 23.789062 363.203125 C 23.789062 363.199219 23.789062 363.199219 23.789062 363.199219 C 23.789062 363.199219 23.789062 363.195312 23.789062 363.195312 C 23.789062 363.195312 23.789062 363.195312 23.789062 363.191406 C 23.789062 363.191406 23.789062 363.1875 23.789062 363.1875 C 23.789062 363.1875 23.558594 361.03125 23.558594 357.421875 C 23.558594 346.898438 25.519531 323.992188 40.875 305.988281 L 110.679688 305.988281 C 108.929688 310.070312 105.824219 313.234375 101.226562 315.382812 C 96.429688 318.4375 91.800781 318.566406 86.351562 318.972656 C 77.230469 319.644531 68.078125 320.117188 59.1875 322.40625 C 44.214844 326.25 46.824219 339.386719 57.542969 347.25 C 70.085938 356.449219 83.269531 360.058594 98.257812 362.96875 C 106.757812 364.621094 96.269531 364.164062 94.125 364.539062 C 91.582031 364.988281 89.949219 365.605469 88 367.222656 C 85.589844 369.222656 86.238281 372.015625 87.742188 374.542969 " fill-opacity="1" fill-rule="nonzero"/><path fill="#b8e8fb" d="M 191.152344 363.230469 C 191.152344 363.230469 191.152344 363.226562 191.152344 363.226562 C 191.152344 363.226562 191.152344 363.230469 191.152344 363.230469 M 191.152344 363.21875 C 191.152344 363.21875 191.152344 363.214844 191.152344 363.214844 C 191.152344 363.214844 191.152344 363.21875 191.152344 363.21875 M 191.152344 363.210938 C 191.152344 363.210938 191.152344 363.207031 191.152344 363.207031 C 191.152344 363.210938 191.152344 363.210938 191.152344 363.210938 M 191.152344 363.207031 C 191.152344 363.203125 191.152344 363.203125 191.152344 363.199219 C 191.152344 363.203125 191.152344 363.203125 191.152344 363.207031 M 191.152344 363.199219 C 191.152344 363.199219 191.152344 363.195312 191.152344 363.195312 C 191.152344 363.195312 191.152344 363.199219 191.152344 363.199219 M 191.152344 363.191406 C 191.152344 363.191406 191.152344 363.1875 191.152344 363.1875 C 191.152344 363.1875 191.683594 359.007812 191.679688 352.808594 C 191.683594 359.007812 191.152344 363.1875 191.152344 363.1875 C 191.152344 363.1875 191.152344 363.191406 191.152344 363.191406 " fill-opacity="1" fill-rule="nonzero"/><path fill="#5cb9cb" d="M 178.667969 368.511719 C 176.472656 359.972656 182.617188 354.839844 183.046875 344.761719 C 183.355469 337.535156 181.78125 331.855469 178.015625 325.695312 C 174.855469 320.53125 169.613281 317.863281 164.097656 316.140625 C 162.996094 315.796875 161.804688 315.675781 160.585938 315.675781 C 158.402344 315.675781 156.136719 316.066406 154.160156 316.292969 C 152.679688 316.464844 150.765625 316.578125 148.664062 316.578125 C 139.765625 316.578125 127.421875 314.527344 129.378906 305.988281 L 173.46875 305.988281 C 189.195312 316.480469 191.679688 339.382812 191.679688 352.808594 C 191.683594 359.007812 191.152344 363.1875 191.152344 363.1875 C 191.152344 363.1875 191.152344 363.191406 191.152344 363.191406 C 191.152344 363.191406 191.152344 363.195312 191.152344 363.195312 C 191.152344 363.195312 191.152344 363.199219 191.152344 363.199219 C 191.152344 363.203125 191.152344 363.203125 191.152344 363.207031 C 191.152344 363.207031 191.152344 363.210938 191.152344 363.210938 C 191.152344 363.210938 191.152344 363.214844 191.152344 363.214844 C 191.152344 363.214844 191.152344 363.21875 191.152344 363.21875 C 191.152344 363.21875 191.152344 363.21875 191.152344 363.222656 C 191.152344 363.226562 191.152344 363.226562 191.152344 363.226562 C 191.152344 363.226562 191.152344 363.230469 191.152344 363.230469 C 191.152344 363.230469 191.152344 363.234375 191.152344 363.238281 C 191.152344 363.238281 191.152344 363.242188 191.152344 363.242188 C 191.042969 364.820312 186.480469 366.714844 178.667969 368.511719 " fill-opacity="1" fill-rule="nonzero"/><path fill="#42a3ab" d="M 173.46875 305.988281 C 173.46875 310.550781 143.789062 314.242188 107.171875 314.242188 C 70.558594 314.242188 40.875 310.550781 40.875 305.988281 C 40.875 301.433594 70.558594 297.734375 107.171875 297.734375 C 143.789062 297.734375 173.46875 301.433594 173.46875 305.988281 " fill-opacity="1" fill-rule="nonzero"/><path fill="#7f2520" d="M 162.359375 298.347656 C 161.472656 293.449219 157.394531 289.710938 152.355469 289.277344 C 150.707031 285.523438 146.964844 282.886719 142.597656 282.886719 C 141.835938 282.886719 141.09375 282.96875 140.375 283.125 C 139.429688 280.148438 136.675781 277.984375 133.390625 277.984375 C 132.261719 277.984375 131.210938 278.257812 130.253906 278.703125 C 129.332031 276.550781 127.191406 275.035156 124.699219 275.035156 C 123.773438 275.035156 122.90625 275.261719 122.121094 275.636719 C 119.84375 272.429688 116.121094 270.316406 111.886719 270.316406 C 109.679688 270.316406 107.636719 270.933594 105.839844 271.933594 C 105.277344 268.835938 102.582031 266.480469 99.328125 266.480469 C 97.605469 266.480469 96.046875 267.160156 94.871094 268.238281 C 92.6875 264.878906 88.925781 262.652344 84.628906 262.652344 C 77.871094 262.652344 72.394531 268.132812 72.394531 274.886719 L 72.414062 275.0625 C 72.3125 275.0625 72.207031 275.035156 72.101562 275.035156 C 67.21875 275.035156 63.265625 278.996094 63.265625 283.878906 C 63.265625 284.296875 63.332031 284.699219 63.386719 285.101562 C 63.25 285.085938 63.109375 285.054688 62.96875 285.054688 C 59.714844 285.054688 57.078125 287.699219 57.078125 290.953125 C 57.078125 291.578125 57.195312 292.160156 57.375 292.726562 C 51.019531 292.726562 45.878906 297.871094 45.878906 304.222656 C 57.671875 316.109375 160.503906 313.160156 169.359375 305.550781 C 169.359375 301.632812 166.242188 298.464844 162.359375 298.347656 " fill-opacity="1" fill-rule="nonzero"/><path fill="#7f2520" d="M 118.371094 292.515625 C 118.371094 285.628906 111.300781 282.425781 107.472656 284.835938 C 104.925781 281.746094 103.058594 280.878906 99.585938 280.878906 C 94.707031 280.878906 90.636719 286.296875 90.898438 290.246094 C 86.992188 288.839844 83.898438 292.136719 83.898438 294.949219 " fill-opacity="1" fill-rule="nonzero"/></svg>