<svg xmlns="http://www.w3.org/2000/svg" xmlns:xlink="http://www.w3.org/1999/xlink" width="500" zoomAndPan="magnify" viewBox="0 0 375 374.999991" height="500" preserveAspectRatio="xMidYMid meet" version="1.0"><defs><clipPath id="3111232d87"><path d="M 45.351562 142.402344 L 374.371094 142.402344 L 374.371094 247.953125 L 45.351562 247.953125 Z M 45.351562 142.402344 " clip-rule="nonzero"/></clipPath><clipPath id="b7dde7112b"><path d="M 4.722656 96.710938 L 279.296875 96.710938 L 279.296875 279.972656 L 4.722656 279.972656 Z M 4.722656 96.710938 " clip-rule="nonzero"/></clipPath></defs><path fill="#75594e" d="M 103.09375 181.816406 C 96.601562 181.425781 64.378906 183.023438 37.660156 193.65625 L 36.894531 194.007812 C 28.296875 193.167969 15.875 193.285156 9.109375 199.792969 C -0.00390625 208.554688 13.976562 211.101562 13.976562 211.101562 C 13.976562 211.101562 3.1875 221.199219 13.0625 225.769531 C 16.128906 227.1875 19.988281 226.828125 24.398438 225 C 24.398438 225 25 229.804688 27.441406 233.605469 C 29.835938 237.335938 38.304688 240.351562 40.300781 227.207031 C 41.242188 221.003906 44.8125 215.324219 47.625 211.152344 C 47.679688 211.070312 47.679688 211.070312 47.828125 211.101562 C 47.828125 211.101562 97.890625 203.273438 107.746094 199.285156 C 110.355469 198.234375 109.585938 182.203125 103.09375 181.816406 Z M 154.863281 207.625 C 149.121094 216.894531 117.96875 241.800781 106.285156 250.945312 C 106.285156 250.945312 106.273438 250.863281 106.242188 250.707031 C 105.972656 252.851562 105.972656 254.96875 106.109375 256.945312 C 106.746094 266.191406 111.230469 272.410156 106.375 276.441406 C 98.6875 282.832031 90.628906 271.910156 90.628906 271.910156 C 84.480469 278.140625 78.324219 279.046875 76.058594 278.421875 C 66.25 275.726562 71.828125 265.007812 70.617188 264.828125 C 64.648438 263.945312 56.445312 264.785156 58.894531 255.421875 C 61.441406 245.675781 73.984375 241.113281 79.441406 239.453125 C 81.996094 238.679688 85.746094 237.851562 86.964844 237.496094 C 87.773438 237.257812 88.550781 237.054688 89.285156 236.878906 L 89.679688 236.570312 C 89.679688 236.570312 124.671875 204.679688 132.617188 203.597656 C 132.617188 203.597656 162.40625 195.441406 154.863281 207.625 " fill-opacity="1" fill-rule="nonzero"/><path fill="#629b62" d="M 368.890625 152.878906 C 359.085938 147.390625 337.179688 144.011719 325.230469 142.628906 C 324.40625 141.8125 323.523438 140.988281 322.578125 140.160156 C 287.046875 108.96875 255.648438 138.566406 244.457031 145.488281 C 235.875 150.792969 211.414062 155.714844 192.109375 156.808594 C 186.121094 151.007812 179.316406 141.800781 175.570312 126.140625 C 171.121094 107.53125 157.195312 92.375 128.667969 100.90625 C 108.886719 106.820312 103.457031 120.113281 119.964844 137.859375 C 107.417969 135.730469 93.773438 136.535156 79.105469 143.921875 C 72.199219 147.398438 63.105469 155.269531 59.285156 169.574219 C 51.046875 200.433594 67.46875 217.429688 98.667969 224.472656 C 130.824219 231.734375 165.328125 206.578125 188.996094 196.207031 C 203.304688 189.9375 224.566406 186.0625 239.917969 185.148438 C 260.890625 183.894531 280.941406 184.554688 297.480469 184.316406 C 308.402344 184.15625 319.746094 180.714844 326.988281 174.878906 C 336.839844 174.386719 348.066406 171.628906 358.621094 167.386719 C 371.515625 162.203125 375.007812 156.304688 368.890625 152.878906 " fill-opacity="1" fill-rule="nonzero"/><g clip-path="url(#3111232d87)"><path fill="#f4b8dc" d="M 247.996094 184.753906 C 245.324219 184.855469 242.628906 184.984375 239.917969 185.148438 C 231.0625 185.675781 220.238281 187.191406 209.917969 189.582031 C 212.457031 181.121094 208.777344 167.257812 204.445312 155.683594 C 216.972656 154.148438 229.8125 151.449219 238.195312 148.371094 C 242.304688 152.492188 251.203125 164.113281 247.996094 184.753906 Z M 369.679688 151.726562 C 363.261719 146.644531 338.179688 143.722656 325.121094 142.519531 C 338.882812 156.050781 336.25 167.503906 326.863281 174.980469 C 336.992188 174.851562 349.195312 173.007812 359.644531 169.28125 C 374.789062 163.882812 378.460938 158.679688 369.679688 151.726562 Z M 55.683594 187.960938 C 54.96875 188.140625 54.257812 188.324219 53.542969 188.511719 C 55.578125 191.011719 57.109375 194.210938 58.101562 197.054688 C 59.964844 202.410156 60.039062 206.328125 59.894531 209.140625 C 60.777344 208.992188 61.695312 208.835938 62.640625 208.675781 C 62.65625 207.410156 62.589844 206 62.414062 204.492188 C 62.359375 204.035156 62.296875 203.582031 62.226562 203.136719 C 59.933594 199.445312 58.386719 195.304688 57.660156 190.691406 C 57.019531 189.683594 56.355469 188.765625 55.683594 187.960938 Z M 47.15625 190.34375 C 46.558594 190.527344 45.957031 190.71875 45.359375 190.914062 C 45.550781 191.152344 45.734375 191.394531 45.90625 191.625 C 51.652344 199.351562 52.460938 205.917969 52.460938 210.363281 C 53.203125 210.242188 54.019531 210.109375 54.90625 209.964844 C 54.847656 209.082031 54.753906 208.113281 54.613281 207.046875 C 53.910156 201.742188 51.082031 194.636719 47.15625 190.34375 Z M 101.0625 226.515625 C 104.414062 227.136719 108.53125 228.398438 111.808594 231.171875 C 115.875 234.613281 117.335938 238.367188 118.195312 241.460938 C 118.804688 240.972656 119.417969 240.46875 120.042969 239.964844 C 117.792969 233.519531 111.34375 227.371094 104.28125 225.414062 C 103.71875 225.351562 103.160156 225.277344 102.597656 225.195312 C 102.078125 225.640625 101.566406 226.082031 101.0625 226.515625 Z M 132.921875 226.355469 C 133.265625 227.191406 133.515625 227.917969 133.699219 228.5625 C 134.417969 227.945312 135.132812 227.328125 135.839844 226.710938 C 135.21875 225.21875 134.371094 223.621094 133.292969 222.035156 C 132.53125 222.269531 131.765625 222.492188 131 222.707031 C 131.75 223.863281 132.398438 225.082031 132.921875 226.355469 Z M 125.550781 235.4375 C 126.195312 234.902344 126.839844 234.367188 127.484375 233.824219 C 125.835938 230.648438 123.488281 227.558594 120.816406 224.949219 C 120.089844 225.0625 119.359375 225.167969 118.628906 225.257812 C 121.492188 228.09375 123.726562 231.636719 125.550781 235.4375 Z M 112.03125 246.410156 C 111.371094 246.9375 110.730469 247.445312 110.117188 247.929688 C 108.316406 236.613281 99.445312 233.582031 94.289062 232.4375 C 94.808594 231.980469 95.359375 231.492188 95.941406 230.976562 C 101.824219 232.15625 109.75 237.410156 112.03125 246.410156 " fill-opacity="1" fill-rule="nonzero"/></g><g clip-path="url(#b7dde7112b)"><path fill="#f9e44e" d="M 192.832031 244.511719 C 213.855469 269.527344 241.40625 261.070312 259.773438 254.097656 C 278.144531 247.125 295.101562 223.757812 252.550781 211.226562 C 227.613281 203.882812 210.539062 185.253906 210.539062 185.253906 C 203.171875 181.308594 170.597656 191.808594 172.03125 198.339844 C 175.3125 213.316406 179.671875 228.851562 192.832031 244.511719 Z M 77.117188 149.839844 C 69.648438 137.636719 68.96875 127.425781 60.90625 129.4375 C 55.25 130.847656 52.8125 145.363281 56.183594 150.625 C 59.554688 155.886719 44.425781 142.585938 34.078125 146.492188 C 18.796875 152.257812 42.289062 168.726562 58.566406 172.519531 C 80.707031 177.679688 85.753906 161.808594 77.117188 149.839844 Z M 193.179688 156.746094 C 187.425781 150.71875 180.730469 141.1875 176.984375 125.121094 C 172.175781 104.492188 156.113281 90.75 127.582031 99.28125 C 108.285156 105.050781 101.757812 119.472656 116.410156 137.34375 C 140.535156 140.273438 160.746094 154.9375 176.507812 156.652344 C 181.097656 157.152344 186.890625 157.144531 193.179688 156.746094 Z M 90.242188 236.574219 C 81.117188 237.917969 62.246094 242.257812 58.011719 255.378906 C 55.042969 264.589844 63.390625 264.953125 69.359375 265.835938 C 70.570312 266.015625 65.058594 277.0625 74.867188 279.761719 C 77.128906 280.382812 84.070312 279.972656 90.214844 273.746094 C 90.214844 273.746094 99.949219 283.984375 107.636719 277.597656 C 113.40625 272.800781 105.390625 262.148438 106.277344 250.890625 C 106.105469 249.949219 103.453125 236.75 90.242188 236.574219 Z M 40.386719 195.152344 C 42.875 196.902344 46.132812 201.101562 47.808594 211.003906 C 45.632812 216.113281 43.042969 222.898438 42.132812 228.890625 C 40.140625 242.03125 28.859375 238.960938 26.46875 235.234375 C 24.027344 231.429688 23.550781 227.445312 23.550781 227.445312 C 18.640625 228.015625 15.007812 228.621094 11.945312 227.203125 C 2.070312 222.628906 12.007812 212.824219 12.007812 212.824219 C 12.007812 212.824219 -1.175781 207.566406 7.933594 198.804688 C 14.84375 192.15625 29.105469 192.984375 37.945312 194.140625 C 38.230469 194.179688 38.578125 194.230469 39.035156 194.363281 C 39.632812 194.609375 39.964844 194.851562 40.386719 195.152344 " fill-opacity="1" fill-rule="nonzero"/></g><path fill="#ffffff" d="M 229.832031 176.6875 C 229.519531 174.355469 229.136719 172.03125 228.671875 169.722656 C 231.714844 169.03125 234.757812 168.335938 237.804688 167.640625 C 238.425781 170.003906 238.898438 172.40625 239.21875 174.828125 C 236.085938 175.417969 232.957031 176.039062 229.832031 176.6875 Z M 226.507812 160.796875 C 229.25 160.164062 231.980469 159.496094 234.703125 158.785156 C 235.621094 160.859375 236.421875 162.988281 237.089844 165.15625 C 234.105469 165.835938 231.121094 166.515625 228.136719 167.199219 C 227.65625 165.070312 227.148438 162.910156 226.507812 160.796875 Z M 220.527344 178.699219 C 220.300781 176.386719 219.980469 174.085938 219.5625 171.800781 C 221.761719 171.300781 223.960938 170.796875 226.164062 170.296875 C 226.625 172.589844 227.003906 174.898438 227.308594 177.214844 C 225.042969 177.695312 222.785156 178.1875 220.527344 178.699219 Z M 218.855469 168.316406 C 218.433594 166.453125 217.953125 164.59375 217.402344 162.753906 C 219.617188 162.316406 221.824219 161.851562 224.027344 161.363281 C 224.6875 163.46875 225.171875 165.652344 225.628906 167.769531 C 223.4375 168.269531 221.25 168.769531 219.0625 169.265625 C 218.992188 168.949219 218.925781 168.632812 218.855469 168.316406 Z M 241.714844 174.363281 C 241.382812 171.90625 240.90625 169.472656 240.28125 167.078125 C 242.664062 166.53125 245.050781 165.988281 247.433594 165.445312 C 247.222656 164.585938 246.992188 163.753906 246.742188 162.953125 L 239.578125 164.589844 C 238.90625 162.390625 238.105469 160.230469 237.183594 158.121094 C 239.4375 157.511719 241.683594 156.867188 243.925781 156.207031 C 243.484375 155.382812 243.03125 154.621094 242.578125 153.910156 C 240.425781 154.542969 238.261719 155.160156 236.09375 155.746094 C 235.148438 153.808594 234.097656 151.917969 232.949219 150.085938 C 232.117188 150.328125 231.261719 150.566406 230.386719 150.804688 C 231.558594 152.609375 232.628906 154.484375 233.589844 156.410156 C 230.964844 157.09375 228.328125 157.742188 225.6875 158.351562 C 225.453125 157.722656 225.210938 157.101562 224.941406 156.492188 C 224.328125 155.101562 223.550781 153.820312 222.628906 152.660156 C 221.671875 152.863281 220.699219 153.0625 219.71875 153.253906 C 221.21875 154.898438 222.3125 156.839844 223.15625 158.921875 C 220.980469 159.402344 218.800781 159.863281 216.617188 160.292969 C 216.296875 159.347656 215.957031 158.40625 215.59375 157.476562 C 215.167969 156.386719 214.703125 155.300781 214.144531 154.273438 C 213.238281 154.425781 212.328125 154.574219 211.414062 154.714844 C 211.824219 155.375 212.1875 156.066406 212.515625 156.773438 C 213.113281 158.070312 213.636719 159.414062 214.101562 160.78125 C 211.632812 161.246094 209.15625 161.675781 206.675781 162.078125 C 206.941406 162.894531 207.199219 163.71875 207.445312 164.542969 C 209.925781 164.140625 212.40625 163.707031 214.875 163.238281 C 215.300781 164.691406 215.679688 166.152344 216.035156 167.597656 C 216.214844 168.34375 216.386719 169.09375 216.546875 169.839844 C 214.125 170.394531 211.703125 170.945312 209.28125 171.5 C 209.46875 172.347656 209.644531 173.191406 209.800781 174.027344 C 212.214844 173.476562 214.632812 172.925781 217.046875 172.375 C 217.460938 174.664062 217.773438 176.96875 217.992188 179.28125 C 215.554688 179.84375 213.121094 180.429688 210.691406 181.027344 C 210.742188 181.933594 210.757812 182.816406 210.742188 183.675781 C 213.222656 183.0625 215.707031 182.460938 218.191406 181.882812 C 218.316406 183.867188 218.367188 185.851562 218.347656 187.839844 C 219.210938 187.679688 220.074219 187.53125 220.933594 187.382812 C 220.941406 185.351562 220.878906 183.324219 220.742188 181.296875 C 223.027344 180.78125 225.320312 180.277344 227.613281 179.789062 C 227.839844 181.953125 228 184.128906 228.09375 186.304688 C 228.957031 186.191406 229.816406 186.082031 230.660156 185.984375 C 230.558594 183.734375 230.386719 181.492188 230.144531 179.257812 C 233.257812 178.609375 236.378906 177.988281 239.503906 177.394531 C 239.730469 179.976562 239.78125 182.574219 239.65625 185.164062 C 239.742188 185.160156 239.832031 185.152344 239.917969 185.148438 C 240.683594 185.101562 241.441406 185.066406 242.199219 185.023438 C 242.316406 182.316406 242.25 179.613281 242.003906 176.929688 C 244.222656 176.519531 246.449219 176.125 248.675781 175.742188 C 248.671875 174.855469 248.640625 173.992188 248.585938 173.148438 C 246.292969 173.539062 244.003906 173.941406 241.714844 174.363281 Z M 304.75 162.613281 C 300.351562 162.675781 296.722656 159.144531 296.65625 154.742188 C 296.59375 150.335938 300.121094 146.703125 304.523438 146.640625 C 308.917969 146.574219 312.550781 150.105469 312.613281 154.507812 C 312.679688 158.914062 309.148438 162.546875 304.75 162.613281 " fill-opacity="1" fill-rule="nonzero"/><path fill="#191c21" d="M 304.546875 148.359375 C 301.09375 148.410156 298.328125 151.261719 298.378906 154.714844 C 298.425781 158.171875 301.277344 160.941406 304.726562 160.890625 C 308.179688 160.839844 310.945312 157.988281 310.898438 154.535156 C 310.84375 151.078125 307.996094 148.308594 304.546875 148.359375 " fill-opacity="1" fill-rule="nonzero"/></svg>