<svg xmlns="http://www.w3.org/2000/svg" xmlns:xlink="http://www.w3.org/1999/xlink" width="500" zoomAndPan="magnify" viewBox="0 0 375 374.999991" height="500" preserveAspectRatio="xMidYMid meet" version="1.0"><defs><clipPath id="8b81cdebb6"><path d="M 48.546875 201 L 156.738281 201 L 156.738281 290.675781 L 48.546875 290.675781 Z M 48.546875 201 " clip-rule="nonzero"/></clipPath><clipPath id="132da22e58"><path d="M 80.050781 201 L 156.738281 201 L 156.738281 290.675781 L 80.050781 290.675781 Z M 80.050781 201 " clip-rule="nonzero"/></clipPath><clipPath id="e7e161aa91"><path d="M 48.546875 265.679688 L 97.886719 265.679688 L 97.886719 290.675781 L 48.546875 290.675781 Z M 48.546875 265.679688 " clip-rule="nonzero"/></clipPath><clipPath id="6ae74cdc54"><path d="M 48 200.316406 L 157.332031 200.316406 L 157.332031 290.675781 L 48 290.675781 Z M 48 200.316406 " clip-rule="nonzero"/></clipPath><clipPath id="ebfeba5897"><path d="M 148.414062 279.34375 L 374 279.34375 L 374 290.675781 L 148.414062 290.675781 Z M 148.414062 279.34375 " clip-rule="nonzero"/></clipPath><clipPath id="1e17896cb2"><path d="M 147.820312 278.15625 L 374.609375 278.15625 L 374.609375 290.675781 L 147.820312 290.675781 Z M 147.820312 278.15625 " clip-rule="nonzero"/></clipPath><clipPath id="b55af34716"><path d="M 1 232.402344 L 22.984375 232.402344 L 22.984375 290.675781 L 1 290.675781 Z M 1 232.402344 " clip-rule="nonzero"/></clipPath><clipPath id="4d06f30b36"><path d="M 0.394531 232 L 23.578125 232 L 23.578125 290.675781 L 0.394531 290.675781 Z M 0.394531 232 " clip-rule="nonzero"/></clipPath><clipPath id="884928f8b7"><path d="M 12.285156 233 L 43.789062 233 L 43.789062 290.675781 L 12.285156 290.675781 Z M 12.285156 233 " clip-rule="nonzero"/></clipPath><clipPath id="77435a8f33"><path d="M 24.175781 244.285156 L 41.414062 244.285156 L 41.414062 290.675781 L 24.175781 290.675781 Z M 24.175781 244.285156 " clip-rule="nonzero"/></clipPath><clipPath id="46e369a4f6"><path d="M 12 232.402344 L 44.386719 232.402344 L 44.386719 290.675781 L 12 290.675781 Z M 12 232.402344 " clip-rule="nonzero"/></clipPath><clipPath id="8cb8f02bb5"><path d="M 250 83.203125 L 268 83.203125 L 268 98 L 250 98 Z M 250 83.203125 " clip-rule="nonzero"/></clipPath></defs><path fill="#5f666a" d="M 253.601562 268.59375 C 253.636719 269.0625 253.160156 269.480469 252.53125 269.53125 L 247.089844 269.949219 C 246.46875 270 245.929688 269.660156 245.894531 269.191406 L 245.644531 265.984375 C 245.609375 265.515625 246.085938 265.09375 246.710938 265.046875 L 252.152344 264.625 C 252.777344 264.578125 253.316406 264.917969 253.351562 265.386719 L 253.601562 268.59375 " fill-opacity="1" fill-rule="nonzero"/><path fill="#272b2a" d="M 252.09375 263.875 L 246.65625 264.296875 C 246.09375 264.339844 245.585938 264.585938 245.257812 264.96875 C 244.996094 265.277344 244.863281 265.660156 244.898438 266.042969 L 245.144531 269.246094 C 245.171875 269.628906 245.363281 269.988281 245.671875 270.253906 C 246.054688 270.582031 246.59375 270.746094 247.152344 270.699219 L 252.589844 270.28125 C 253.648438 270.195312 254.421875 269.433594 254.351562 268.535156 L 254.101562 265.328125 C 254.070312 264.945312 253.886719 264.589844 253.574219 264.324219 C 253.195312 263.996094 252.652344 263.832031 252.09375 263.875 Z M 246.769531 265.796875 L 252.210938 265.375 C 252.449219 265.359375 252.589844 265.449219 252.609375 265.484375 C 252.609375 265.484375 252.84375 268.554688 252.847656 268.617188 C 252.824219 268.660156 252.703125 268.761719 252.476562 268.777344 L 247.035156 269.199219 C 246.800781 269.21875 246.65625 269.125 246.632812 269.09375 L 246.394531 265.925781 C 246.410156 265.925781 246.535156 265.816406 246.769531 265.796875 Z M 246.769531 265.796875 " fill-opacity="1" fill-rule="nonzero"/><path fill="#5f666a" d="M 243.1875 269.09375 C 243.222656 269.5625 242.746094 269.984375 242.121094 270.03125 L 236.679688 270.453125 C 236.054688 270.5 235.515625 270.160156 235.480469 269.691406 L 235.234375 266.484375 C 235.195312 266.015625 235.675781 265.597656 236.296875 265.546875 L 241.742188 265.128906 C 242.367188 265.078125 242.902344 265.421875 242.941406 265.890625 L 243.1875 269.09375 " fill-opacity="1" fill-rule="nonzero"/><path fill="#272b2a" d="M 241.679688 264.378906 L 236.242188 264.796875 C 235.683594 264.84375 235.175781 265.085938 234.84375 265.472656 C 234.582031 265.78125 234.453125 266.160156 234.484375 266.542969 L 234.730469 269.75 C 234.761719 270.132812 234.945312 270.488281 235.257812 270.753906 C 235.640625 271.082031 236.179688 271.246094 236.738281 271.203125 L 242.179688 270.78125 C 243.234375 270.699219 244.007812 269.933594 243.9375 269.035156 L 243.691406 265.832031 C 243.660156 265.445312 243.472656 265.089844 243.164062 264.824219 C 242.78125 264.496094 242.242188 264.332031 241.679688 264.378906 Z M 236.355469 266.296875 L 241.800781 265.878906 C 242.035156 265.859375 242.179688 265.949219 242.199219 265.984375 C 242.199219 265.984375 242.429688 269.058594 242.433594 269.121094 C 242.410156 269.160156 242.289062 269.265625 242.0625 269.28125 L 236.621094 269.703125 C 236.386719 269.722656 236.242188 269.628906 236.222656 269.59375 L 235.984375 266.425781 C 235.996094 266.425781 236.125 266.316406 236.355469 266.296875 Z M 236.355469 266.296875 " fill-opacity="1" fill-rule="nonzero"/><path fill="#5f666a" d="M 232.898438 269.847656 C 232.9375 270.316406 232.460938 270.734375 231.832031 270.785156 L 226.390625 271.203125 C 225.765625 271.253906 225.230469 270.914062 225.195312 270.445312 L 224.945312 267.238281 C 224.910156 266.769531 225.386719 266.347656 226.011719 266.300781 L 231.453125 265.878906 C 232.078125 265.832031 232.617188 266.171875 232.652344 266.640625 L 232.898438 269.847656 " fill-opacity="1" fill-rule="nonzero"/><path fill="#272b2a" d="M 231.398438 265.128906 L 225.953125 265.550781 C 225.394531 265.59375 224.886719 265.839844 224.558594 266.222656 C 224.292969 266.53125 224.164062 266.914062 224.195312 267.296875 L 224.441406 270.5 C 224.472656 270.886719 224.660156 271.242188 224.96875 271.507812 C 225.355469 271.835938 225.894531 271.996094 226.449219 271.953125 L 231.894531 271.535156 C 232.949219 271.453125 233.722656 270.6875 233.652344 269.789062 L 233.402344 266.582031 C 233.371094 266.199219 233.1875 265.84375 232.875 265.578125 C 232.492188 265.25 231.953125 265.085938 231.398438 265.128906 Z M 226.070312 267.050781 L 231.511719 266.628906 C 231.746094 266.609375 231.890625 266.703125 231.914062 266.734375 C 231.914062 266.734375 232.140625 269.808594 232.148438 269.875 C 232.125 269.914062 232.003906 270.015625 231.773438 270.035156 L 226.335938 270.453125 C 226.101562 270.472656 225.957031 270.382812 225.933594 270.347656 L 225.699219 267.179688 C 225.707031 267.183594 225.835938 267.066406 226.070312 267.050781 Z M 232.148438 269.90625 L 232.148438 269.90625 " fill-opacity="1" fill-rule="nonzero"/><path fill="#5f666a" d="M 222.613281 270.601562 C 222.648438 271.070312 222.171875 271.488281 221.546875 271.535156 L 216.101562 271.957031 C 215.480469 272.007812 214.941406 271.667969 214.90625 271.195312 L 214.660156 267.988281 C 214.621094 267.519531 215.101562 267.101562 215.726562 267.050781 L 221.167969 266.632812 C 221.792969 266.582031 222.328125 266.925781 222.363281 267.394531 L 222.613281 270.601562 " fill-opacity="1" fill-rule="nonzero"/><path fill="#272b2a" d="M 221.109375 265.882812 L 215.667969 266.300781 C 215.105469 266.347656 214.601562 266.59375 214.269531 266.976562 C 214.007812 267.285156 213.878906 267.667969 213.910156 268.050781 L 214.15625 271.253906 C 214.1875 271.636719 214.375 271.992188 214.683594 272.261719 C 215.066406 272.585938 215.605469 272.75 216.164062 272.707031 L 221.605469 272.285156 C 222.660156 272.203125 223.433594 271.4375 223.363281 270.542969 L 223.113281 267.335938 C 223.082031 266.953125 222.898438 266.59375 222.585938 266.328125 C 222.207031 266.003906 221.664062 265.839844 221.109375 265.882812 Z M 215.78125 267.804688 L 221.222656 267.382812 C 221.460938 267.363281 221.601562 267.457031 221.621094 267.488281 C 221.621094 267.488281 221.855469 270.5625 221.859375 270.625 C 221.835938 270.664062 221.714844 270.769531 221.488281 270.785156 L 216.046875 271.207031 C 215.8125 271.226562 215.667969 271.132812 215.644531 271.101562 L 215.410156 267.929688 C 215.421875 267.933594 215.546875 267.820312 215.78125 267.804688 Z M 221.863281 270.65625 L 221.863281 270.660156 C 221.863281 270.65625 221.863281 270.660156 221.863281 270.65625 " fill-opacity="1" fill-rule="nonzero"/><path fill="#ffffff" d="M 257.101562 281.480469 L 253.253906 281.480469 L 253.253906 274.289062 L 257.101562 274.289062 L 257.101562 281.480469 " fill-opacity="1" fill-rule="nonzero"/><path fill="#231f20" d="M 253.253906 273.535156 C 252.835938 273.535156 252.5 273.875 252.5 274.289062 L 252.5 281.480469 C 252.5 281.894531 252.835938 282.230469 253.253906 282.230469 L 257.101562 282.230469 C 257.515625 282.230469 257.855469 281.894531 257.855469 281.480469 L 257.855469 274.289062 C 257.855469 273.875 257.515625 273.535156 257.101562 273.535156 Z M 256.347656 275.042969 C 256.347656 276.109375 256.347656 279.660156 256.347656 280.726562 C 255.609375 280.726562 254.742188 280.726562 254.007812 280.726562 C 254.007812 279.660156 254.007812 276.109375 254.007812 275.042969 C 254.742188 275.042969 255.609375 275.042969 256.347656 275.042969 " fill-opacity="1" fill-rule="nonzero"/><path fill="#5f666a" d="M 257.988281 276.527344 L 173.132812 280.984375 L 172.65625 271.96875 L 257.515625 267.511719 L 257.988281 276.527344 " fill-opacity="1" fill-rule="nonzero"/><path fill="#272b2a" d="M 257.476562 266.757812 L 172.617188 271.21875 C 172.203125 271.238281 171.882812 271.59375 171.90625 272.007812 L 172.378906 281.023438 C 172.390625 281.222656 172.476562 281.410156 172.628906 281.542969 C 172.777344 281.679688 172.972656 281.746094 173.171875 281.738281 L 258.027344 277.277344 C 258.445312 277.257812 258.761719 276.902344 258.742188 276.488281 L 258.269531 267.472656 C 258.257812 267.273438 258.167969 267.085938 258.019531 266.953125 C 257.871094 266.816406 257.675781 266.746094 257.476562 266.757812 Z M 256.804688 268.300781 C 256.867188 269.449219 257.136719 274.667969 257.199219 275.816406 C 255.734375 275.894531 175.308594 280.117188 173.84375 280.195312 C 173.785156 279.046875 173.507812 273.828125 173.449219 272.679688 C 174.910156 272.605469 255.339844 268.378906 256.804688 268.300781 " fill-opacity="1" fill-rule="nonzero"/><path fill="#5f666a" d="M 294.636719 213.015625 C 294.636719 213.015625 309.222656 232.738281 308.363281 269.605469 L 326.664062 269.605469 C 326.664062 269.605469 322.375 202.152344 296.925781 177.003906 L 294.636719 213.015625 " fill-opacity="1" fill-rule="nonzero"/><path fill="#82898f" d="M 323.453125 254.152344 C 320.210938 232.230469 312.621094 197.519531 295.925781 181.015625 L 295.140625 193.292969 C 306.101562 204.742188 313.664062 218.378906 317.820312 235 C 319.210938 241.675781 321.375 247.890625 323.453125 254.152344 " fill-opacity="1" fill-rule="nonzero"/><path fill="#272b2a" d="M 296.660156 176.300781 C 296.382812 176.402344 296.195312 176.660156 296.175781 176.953125 L 293.886719 212.96875 C 293.878906 213.144531 293.929688 213.320312 294.035156 213.460938 C 294.179688 213.660156 308.453125 233.4375 307.613281 269.589844 C 307.609375 269.792969 307.6875 269.988281 307.824219 270.132812 C 307.96875 270.277344 308.164062 270.359375 308.363281 270.359375 L 326.664062 270.359375 C 326.875 270.359375 327.070312 270.273438 327.210938 270.121094 C 327.355469 269.972656 327.429688 269.765625 327.417969 269.5625 C 327.40625 269.390625 326.292969 252.414062 322.078125 232.578125 C 318.171875 214.226562 310.734375 189.589844 297.457031 176.464844 C 297.246094 176.257812 296.933594 176.191406 296.660156 176.300781 Z M 297.566406 178.785156 C 320.050781 202.828125 325.277344 261.390625 325.855469 268.855469 C 324.441406 268.855469 310.460938 268.855469 309.128906 268.855469 C 309.140625 268.078125 309.152344 267.296875 309.152344 266.535156 C 309.152344 233.816406 296.949219 215.039062 295.40625 212.800781 C 295.4375 212.304688 297.371094 181.90625 297.566406 178.785156 Z M 309.117188 269.605469 C 309.117188 269.605469 309.117188 269.617188 309.117188 269.625 C 309.117188 269.617188 309.117188 269.613281 309.117188 269.605469 " fill-opacity="1" fill-rule="nonzero"/><path fill="#5f666a" d="M 359.472656 283.902344 C 359.472656 287.691406 263.125 287.691406 263.125 283.902344 C 263.125 274.066406 284.691406 266.09375 311.296875 266.09375 C 337.902344 266.09375 359.472656 274.066406 359.472656 283.902344 " fill-opacity="1" fill-rule="nonzero"/><path fill="#82898f" d="M 347.828125 275.886719 C 340.730469 271.695312 326.953125 268.855469 311.121094 268.855469 C 293.339844 268.855469 278.152344 272.4375 272.109375 277.488281 C 296.339844 269.660156 322.578125 271.050781 347.828125 275.886719 " fill-opacity="1" fill-rule="nonzero"/><path fill="#272b2a" d="M 262.367188 283.902344 C 262.367188 284.820312 262.367188 285.960938 278.136719 286.785156 C 286.886719 287.242188 298.664062 287.496094 311.296875 287.496094 C 323.933594 287.496094 335.703125 287.242188 344.457031 286.785156 C 360.226562 285.960938 360.226562 284.820312 360.226562 283.902344 C 360.226562 273.496094 338.734375 265.34375 311.296875 265.34375 C 283.863281 265.34375 262.367188 273.496094 262.367188 283.902344 Z M 311.296875 266.851562 C 336.765625 266.851562 358.304688 274.515625 358.699219 283.648438 C 356.746094 284.796875 339.761719 285.992188 311.296875 285.992188 C 282.832031 285.992188 265.847656 284.796875 263.894531 283.648438 C 264.289062 274.515625 285.828125 266.851562 311.296875 266.851562 " fill-opacity="1" fill-rule="nonzero"/><path fill="#f0dcc4" d="M 141.847656 248.125 C 141.847656 248.125 164.933594 240.097656 161.746094 230.417969 C 159.96875 225.019531 159.191406 221.964844 163.96875 221.609375 C 168.746094 221.253906 193.6875 214.214844 194.890625 217.753906 C 196.089844 221.292969 191.710938 228.238281 188.351562 233.410156 C 182.234375 242.828125 178.3125 270.109375 167.273438 276.128906 C 138.769531 291.667969 141.847656 248.125 141.847656 248.125 " fill-opacity="1" fill-rule="nonzero"/><path fill="#e4c390" d="M 194.890625 217.753906 C 193.6875 214.214844 168.746094 221.253906 163.96875 221.609375 C 159.191406 221.964844 159.96875 225.019531 161.746094 230.417969 C 164.933594 240.097656 141.847656 248.125 141.847656 248.125 C 141.847656 248.125 138.769531 291.667969 167.273438 276.128906 C 170.472656 274.382812 173.078125 270.847656 175.308594 266.480469 C 168.542969 266.335938 162.25 262.886719 161.25 256.566406 C 160.246094 248.542969 164.765625 236.503906 172.792969 233.992188 C 179.4375 232.042969 186.378906 230.699219 192.210938 227.117188 C 194.210938 223.507812 195.640625 219.96875 194.890625 217.753906 " fill-opacity="1" fill-rule="nonzero"/><path fill="#a97f4a" d="M 172.277344 219.234375 C 168.523438 220.054688 165.28125 220.757812 163.914062 220.859375 C 162.058594 220.996094 160.839844 221.542969 160.183594 222.527344 C 159.042969 224.230469 159.777344 226.847656 161.03125 230.652344 C 163.949219 239.523438 141.824219 247.335938 141.601562 247.414062 C 141.316406 247.511719 141.117188 247.769531 141.097656 248.070312 C 141.03125 249.035156 139.550781 271.734375 149.964844 278.421875 C 154.4375 281.292969 160.378906 280.742188 167.632812 276.789062 C 174.910156 272.820312 179.101562 260.261719 182.800781 249.175781 C 184.859375 243.003906 186.804688 237.171875 188.980469 233.820312 C 193.023438 227.597656 196.859375 221.214844 195.601562 217.511719 C 194.695312 214.839844 187.671875 215.882812 172.277344 219.234375 Z M 162.800781 232.273438 C 162.800781 231.585938 162.691406 230.890625 162.460938 230.183594 C 161.695312 227.855469 161.117188 225.96875 161.117188 224.664062 C 161.117188 224.128906 161.214844 223.691406 161.433594 223.363281 C 161.816406 222.789062 162.664062 222.460938 164.023438 222.359375 C 165.5 222.25 168.628906 221.570312 172.597656 220.707031 C 177.007812 219.746094 182.5 218.550781 186.847656 217.933594 C 193.742188 216.960938 194.171875 217.984375 194.175781 217.996094 C 195.308594 221.316406 190.371094 228.917969 187.71875 233 C 185.4375 236.515625 183.464844 242.433594 181.371094 248.699219 C 177.761719 259.519531 173.667969 271.785156 166.914062 275.46875 C 160.179688 279.140625 154.75 279.707031 150.777344 277.15625 C 143.398438 272.417969 142.507812 258.152344 142.507812 251.570312 C 142.507812 250.203125 142.550781 249.210938 142.574219 248.664062 C 145.710938 247.511719 162.800781 240.871094 162.800781 232.273438 " fill-opacity="1" fill-rule="nonzero"/><g clip-path="url(#8b81cdebb6)"><path fill="#f0dcc4" d="M 143.183594 212.425781 C 116.589844 196.878906 97.523438 202.394531 97.523438 202.394531 C 97.523438 202.394531 48.875 250.0625 48.792969 290.675781 L 148.5 290.675781 C 152.207031 278.582031 166.667969 226.15625 143.183594 212.425781 " fill-opacity="1" fill-rule="nonzero"/></g><g clip-path="url(#132da22e58)"><path fill="#e4c390" d="M 143.183594 212.425781 C 116.589844 196.878906 97.523438 202.394531 97.523438 202.394531 C 97.523438 202.394531 89.75 210.011719 80.417969 221.738281 C 93.445312 234.667969 118.945312 229.542969 135.660156 226.972656 C 136.160156 233.496094 140.175781 239.011719 143.183594 244.527344 C 146.195312 249.542969 146.699219 257.070312 141.179688 259.074219 C 134.65625 260.578125 125.625 262.585938 120.605469 257.070312 C 125.605469 268.136719 123.738281 279.460938 121.347656 290.675781 L 148.5 290.675781 C 152.207031 278.582031 166.667969 226.15625 143.183594 212.425781 " fill-opacity="1" fill-rule="nonzero"/></g><g clip-path="url(#e7e161aa91)"><path fill="#404748" d="M 72.429688 276.628906 C 69.417969 274.625 71.425781 270.613281 69.417969 268.605469 C 64.761719 262.679688 56.890625 267.109375 51.835938 271.949219 C 49.933594 278.226562 48.804688 284.53125 48.792969 290.675781 L 97.324219 290.675781 C 98.089844 277.148438 81.445312 281.371094 72.429688 276.628906 " fill-opacity="1" fill-rule="nonzero"/></g><g clip-path="url(#6ae74cdc54)"><path fill="#a97f4a" d="M 97.90625 203.070312 C 99.882812 202.585938 118.171875 198.675781 142.808594 213.074219 C 152.480469 218.730469 155.507812 231.308594 155.507812 244.84375 C 155.507812 263.515625 149.753906 283.984375 147.707031 290.675781 L 149.285156 290.675781 C 150.933594 285.25 154.511719 272.476562 156.164062 258.726562 C 159.121094 234.1875 154.878906 218.390625 143.566406 211.777344 C 116.996094 196.242188 98.101562 201.441406 97.3125 201.671875 C 97.191406 201.707031 97.082031 201.769531 96.996094 201.855469 C 96.867188 201.980469 84.132812 214.519531 71.816406 231.929688 C 60.863281 247.410156 48.101562 269.902344 48.042969 290.675781 L 49.542969 290.675781 C 49.636719 251.796875 95.25 205.71875 97.90625 203.070312 " fill-opacity="1" fill-rule="nonzero"/></g><path fill="#272b2a" d="M 222.84375 276.632812 C 222.429688 276.660156 222.117188 277.019531 222.140625 277.429688 C 222.167969 277.847656 222.527344 278.160156 222.941406 278.136719 C 223.117188 278.125 236.019531 277.292969 246.785156 278.222656 C 247.398438 277.820312 247.988281 277.378906 248.511719 276.867188 C 237.46875 275.691406 223.597656 276.582031 222.84375 276.632812 " fill-opacity="1" fill-rule="nonzero"/><path fill="#272b2a" d="M 362.585938 279.195312 C 361.480469 278.40625 360.136719 277.855469 358.585938 277.5 C 358.507812 277.980469 358.257812 278.460938 358.097656 278.941406 C 359.523438 279.25 360.742188 279.726562 361.710938 280.417969 C 362.046875 280.660156 362.519531 280.582031 362.757812 280.246094 C 363 279.90625 362.925781 279.4375 362.585938 279.195312 " fill-opacity="1" fill-rule="nonzero"/><path fill="#5f666a" d="M 222.8125 278.804688 L 218.914062 278.804688 C 218.269531 278.804688 217.75 278.203125 217.75 277.464844 C 217.75 276.726562 218.269531 276.128906 218.914062 276.128906 L 222.8125 276.128906 C 223.453125 276.128906 223.453125 278.804688 222.8125 278.804688 " fill-opacity="1" fill-rule="nonzero"/><path fill="#272b2a" d="M 218.914062 275.378906 C 217.855469 275.378906 216.996094 276.316406 216.996094 277.464844 C 216.996094 278.621094 217.855469 279.554688 218.914062 279.554688 L 222.8125 279.554688 C 223.585938 279.554688 224.046875 278.773438 224.046875 277.464844 C 224.046875 276.15625 223.585938 275.378906 222.8125 275.378906 Z M 218.503906 277.464844 C 218.503906 277.121094 218.71875 276.882812 218.914062 276.882812 C 218.914062 276.882812 221.914062 276.882812 222.476562 276.882812 C 222.511719 277.039062 222.539062 277.242188 222.539062 277.464844 C 222.539062 277.695312 222.511719 277.894531 222.476562 278.050781 C 221.914062 278.050781 218.914062 278.050781 218.914062 278.050781 C 218.71875 278.050781 218.503906 277.8125 218.503906 277.464844 " fill-opacity="1" fill-rule="nonzero"/><path fill="#5f666a" d="M 197.289062 263.339844 C 186.402344 263.339844 177.324219 269.320312 175.25 277.261719 L 202.945312 277.261719 L 202.945312 263.898438 C 201.136719 263.53125 199.242188 263.339844 197.289062 263.339844 " fill-opacity="1" fill-rule="nonzero"/><path fill="#272b2a" d="M 174.519531 277.070312 C 174.460938 277.296875 174.511719 277.539062 174.652344 277.722656 C 174.796875 277.90625 175.015625 278.015625 175.25 278.015625 L 202.945312 278.015625 C 203.359375 278.015625 203.695312 277.675781 203.695312 277.261719 L 203.695312 263.898438 C 203.695312 263.539062 203.445312 263.230469 203.09375 263.160156 C 201.195312 262.777344 199.242188 262.585938 197.289062 262.585938 C 186.289062 262.585938 176.714844 268.679688 174.519531 277.070312 Z M 197.289062 264.089844 C 198.9375 264.089844 200.582031 264.257812 202.191406 264.542969 C 202.191406 265.648438 202.191406 275.238281 202.191406 276.511719 C 200.820312 276.511719 178.140625 276.511719 176.28125 276.511719 C 178.761719 269.261719 187.386719 264.089844 197.289062 264.089844 " fill-opacity="1" fill-rule="nonzero"/><path fill="#5f666a" d="M 202.945312 263.898438 L 202.945312 277.261719 L 219.324219 277.261719 C 217.621094 270.746094 211.203125 265.550781 202.945312 263.898438 " fill-opacity="1" fill-rule="nonzero"/><path fill="#272b2a" d="M 202.46875 263.316406 C 202.292969 263.457031 202.191406 263.671875 202.191406 263.898438 L 202.191406 277.261719 C 202.191406 277.675781 202.527344 278.015625 202.945312 278.015625 L 219.324219 278.015625 C 219.558594 278.015625 219.777344 277.90625 219.921875 277.722656 C 220.0625 277.535156 220.113281 277.296875 220.054688 277.070312 C 218.289062 270.332031 211.636719 264.871094 203.09375 263.160156 C 202.871094 263.113281 202.640625 263.171875 202.46875 263.316406 Z M 203.695312 264.867188 C 210.824219 266.5625 216.359375 271 218.257812 276.511719 C 216.480469 276.511719 204.972656 276.511719 203.695312 276.511719 C 203.695312 275.273438 203.695312 266.4375 203.695312 264.867188 " fill-opacity="1" fill-rule="nonzero"/><path fill="#5f666a" d="M 175.25 277.261719 C 174.957031 278.378906 174.804688 279.539062 174.804688 280.726562 C 174.804688 281.929688 219.773438 281.929688 219.773438 280.726562 C 219.773438 279.539062 219.617188 278.378906 219.324219 277.261719 L 175.25 277.261719 " fill-opacity="1" fill-rule="nonzero"/><path fill="#272b2a" d="M 175.25 276.511719 C 174.90625 276.511719 174.609375 276.738281 174.519531 277.070312 C 174.207031 278.269531 174.046875 279.496094 174.046875 280.726562 C 174.046875 281.539062 174.046875 281.878906 181.800781 282.15625 C 185.886719 282.300781 191.386719 282.382812 197.289062 282.382812 C 203.1875 282.382812 208.6875 282.300781 212.773438 282.15625 C 220.523438 281.878906 220.523438 281.539062 220.523438 280.726562 C 220.523438 279.496094 220.367188 278.269531 220.054688 277.070312 C 219.964844 276.738281 219.667969 276.511719 219.324219 276.511719 Z M 218.707031 278.015625 C 218.863281 278.746094 218.960938 279.488281 218.988281 280.230469 C 214.585938 281.050781 179.988281 281.050781 175.585938 280.230469 C 175.617188 279.488281 175.710938 278.746094 175.867188 278.015625 C 177.054688 278.015625 217.519531 278.015625 218.707031 278.015625 " fill-opacity="1" fill-rule="nonzero"/><g clip-path="url(#ebfeba5897)"><path fill="#b77c75" d="M 373.855469 279.472656 L 148.707031 279.472656 L 148.707031 290.675781 L 373.855469 290.675781 L 373.855469 279.472656 " fill-opacity="1" fill-rule="nonzero"/></g><g clip-path="url(#1e17896cb2)"><path fill="#894f46" d="M 149.460938 280.226562 C 150.949219 280.226562 371.617188 280.226562 373.105469 280.226562 C 373.105469 281.226562 373.105469 287.472656 373.105469 290.675781 L 374.609375 290.675781 L 374.609375 279.472656 C 374.609375 279.058594 374.273438 278.71875 373.855469 278.71875 L 148.707031 278.71875 C 148.289062 278.71875 147.953125 279.058594 147.953125 279.472656 L 147.953125 290.675781 L 149.460938 290.675781 C 149.460938 287.472656 149.460938 281.226562 149.460938 280.226562 " fill-opacity="1" fill-rule="nonzero"/></g><path fill="#f0dcc4" d="M 137.222656 230.785156 C 137.222656 230.785156 155.78125 243.992188 168.992188 246.5 C 182.207031 249.003906 191.257812 248.1875 200.539062 249.039062 C 209.820312 249.886719 213.945312 253.988281 212.691406 257.109375 C 212.691406 257.109375 217.132812 260.53125 210.898438 265.925781 C 210.898438 265.925781 211.875 271.957031 206.445312 273.160156 C 199.828125 274.625 198.804688 269.664062 193.453125 270.472656 C 188.101562 271.28125 159.863281 273.425781 152.484375 273.347656 C 119.695312 273.003906 115.070312 251.292969 119.03125 239.734375 C 122.304688 230.179688 137.222656 230.785156 137.222656 230.785156 " fill-opacity="1" fill-rule="nonzero"/><path fill="#e4c390" d="M 207.921875 270.613281 C 199.390625 268.101562 191.863281 262.085938 182.328125 264.089844 C 160.828125 268.761719 134.105469 272.558594 119.183594 255.222656 C 122.410156 264.488281 131.890625 273.132812 152.484375 273.347656 C 159.863281 273.425781 188.101562 271.28125 193.453125 270.472656 C 198.804688 269.664062 199.828125 274.625 206.445312 273.160156 C 207.988281 272.816406 209.015625 272.082031 209.691406 271.210938 C 209.085938 271.035156 208.488281 270.835938 207.921875 270.613281 " fill-opacity="1" fill-rule="nonzero"/><path fill="#a97f4a" d="M 214.976562 260.363281 C 214.976562 260.316406 214.976562 260.265625 214.976562 260.21875 C 214.925781 258.5625 214.0625 257.421875 213.539062 256.878906 C 213.613281 256.585938 213.660156 256.289062 213.660156 255.988281 C 213.660156 255.21875 213.429688 254.429688 212.972656 253.683594 C 211.242188 250.855469 206.621094 248.839844 200.609375 248.289062 C 197.414062 247.996094 194.273438 247.902344 190.953125 247.796875 C 184.472656 247.601562 177.773438 247.398438 169.132812 245.761719 C 156.234375 243.3125 137.84375 230.304688 137.65625 230.171875 C 137.539062 230.089844 137.394531 230.039062 137.253906 230.035156 C 137.160156 230.03125 136.769531 230.015625 136.167969 230.027344 C 136.246094 230.539062 136.363281 231.042969 136.496094 231.53125 C 136.703125 231.53125 136.863281 231.53125 136.976562 231.53125 C 138.863281 232.863281 156.097656 244.820312 168.855469 247.238281 C 177.609375 248.898438 184.675781 249.113281 190.90625 249.304688 C 194.203125 249.40625 197.320312 249.5 200.472656 249.789062 C 206.996094 250.382812 210.542969 252.59375 211.6875 254.46875 C 211.921875 254.855469 212.15625 255.386719 212.15625 255.984375 C 212.15625 256.257812 212.105469 256.539062 211.992188 256.828125 C 211.957031 256.921875 211.9375 257.011719 211.9375 257.105469 C 211.9375 257.332031 212.039062 257.554688 212.226562 257.703125 C 212.277344 257.742188 213.433594 258.675781 213.46875 260.285156 C 213.46875 260.308594 213.46875 260.335938 213.46875 260.363281 C 213.46875 261.914062 212.4375 263.597656 210.40625 265.359375 C 210.238281 265.5 210.148438 265.710938 210.148438 265.929688 C 210.148438 265.964844 210.148438 266.003906 210.152344 266.042969 C 210.164062 266.101562 210.222656 266.480469 210.222656 267.027344 C 210.222656 268.621094 209.75 271.65625 206.285156 272.425781 C 202.996094 273.152344 201.269531 272.195312 199.433594 271.183594 C 197.777344 270.265625 196.0625 269.320312 193.339844 269.730469 C 188.132812 270.515625 159.800781 272.671875 152.488281 272.59375 C 134.824219 272.410156 126.574219 265.945312 122.761719 260.554688 C 121 258.066406 119.882812 255.4375 119.25 252.84375 C 118.660156 252.175781 117.96875 253.242188 118.289062 254.972656 C 119 257.152344 120.054688 259.332031 121.53125 261.421875 C 125.542969 267.101562 134.171875 273.90625 152.472656 274.101562 C 160.066406 274.179688 188.183594 272.03125 193.5625 271.21875 C 195.78125 270.882812 197.140625 271.632812 198.707031 272.5 C 200.613281 273.550781 202.769531 274.742188 206.609375 273.894531 C 210.695312 272.988281 211.734375 269.511719 211.734375 267.046875 C 211.734375 266.742188 211.699219 266.484375 211.671875 266.214844 C 213.84375 264.246094 214.976562 262.28125 214.976562 260.363281 Z M 211.652344 265.929688 C 211.644531 265.890625 211.648438 265.84375 211.640625 265.804688 C 211.648438 265.84375 211.652344 265.886719 211.652344 265.925781 C 211.652344 265.925781 211.652344 265.925781 211.652344 265.929688 " fill-opacity="1" fill-rule="nonzero"/><path fill="#a97f4a" d="M 202.785156 262.53125 C 203.042969 262.488281 209.144531 261.523438 211.554688 265.53125 C 211.769531 265.894531 211.65625 266.363281 211.292969 266.582031 C 210.929688 266.796875 210.460938 266.679688 210.246094 266.320312 C 208.371094 263.203125 203.089844 264.027344 203.035156 264.035156 C 202.617188 264.105469 202.226562 263.824219 202.15625 263.40625 C 202.085938 262.992188 202.371094 262.597656 202.785156 262.53125 " fill-opacity="1" fill-rule="nonzero"/><path fill="#a97f4a" d="M 203.855469 253.777344 C 204.066406 253.738281 209.066406 252.929688 213.195312 256.535156 C 213.507812 256.8125 213.542969 257.292969 213.265625 257.613281 C 212.988281 257.929688 212.503906 257.960938 212.1875 257.683594 C 208.625 254.570312 204.15625 255.273438 204.113281 255.28125 C 203.695312 255.347656 203.300781 255.070312 203.230469 254.65625 C 203.164062 254.238281 203.441406 253.84375 203.855469 253.777344 " fill-opacity="1" fill-rule="nonzero"/><path fill="#404748" d="M 187.964844 135.632812 C 187.964844 135.632812 180.242188 108.300781 172.433594 106.179688 C 164.628906 104.054688 156.800781 108.296875 143.3125 107.964844 C 129.820312 107.632812 123.929688 108.394531 120.203125 112.050781 C 116.472656 115.707031 117.28125 120.582031 117.28125 120.582031 C 117.28125 120.582031 157.730469 116.234375 187.964844 135.632812 " fill-opacity="1" fill-rule="nonzero"/><path fill="#555c5e" d="M 162.082031 114.289062 C 153.472656 110.539062 143.996094 113.878906 134.984375 114.238281 C 131.441406 114.316406 128.0625 113.609375 124.75 112.78125 C 124.824219 112.703125 124.894531 112.617188 124.976562 112.539062 C 128.046875 109.523438 132.90625 108.894531 144.027344 109.171875 C 155.148438 109.445312 161.605469 105.945312 168.039062 107.695312 C 168.820312 107.910156 169.605469 108.433594 170.375 109.1875 C 166.992188 109.3125 163.855469 111.339844 162.082031 114.289062 " fill-opacity="1" fill-rule="nonzero"/><path fill="#272b2a" d="M 158.875 105.8125 C 154.488281 106.535156 149.519531 107.355469 143.328125 107.203125 C 130.589844 106.886719 123.796875 107.453125 119.664062 111.503906 C 115.699219 115.398438 116.492188 120.492188 116.527344 120.707031 C 116.59375 121.105469 116.960938 121.386719 117.363281 121.339844 C 117.761719 121.300781 157.898438 117.25 187.554688 136.273438 C 187.820312 136.445312 188.167969 136.433594 188.421875 136.246094 C 188.675781 136.058594 188.785156 135.730469 188.699219 135.425781 C 188.378906 134.292969 180.765625 107.652344 172.632812 105.441406 C 168.292969 104.261719 163.925781 104.980469 158.875 105.8125 Z M 186.675781 133.960938 C 159.085938 117.257812 123.65625 119.300781 117.980469 119.753906 C 117.972656 119.539062 117.972656 119.296875 117.984375 119 C 118.054688 117.394531 118.542969 114.746094 120.734375 112.597656 C 124.105469 109.289062 129.375 108.382812 143.292969 108.726562 C 149.621094 108.882812 154.671875 108.054688 159.121094 107.316406 C 164.199219 106.480469 168.210938 105.820312 172.234375 106.914062 C 177.84375 108.4375 184.097656 125.492188 186.675781 133.960938 " fill-opacity="1" fill-rule="nonzero"/><path fill="#605255" d="M 170.898438 125.808594 C 170.898438 125.808594 168.488281 118.738281 170.972656 116.300781 C 171.59375 115.691406 172.546875 116.242188 173.625 117.410156 C 176.863281 120.917969 181.25 129.996094 181.25 129.996094 C 181.25 129.996094 174.304688 125.613281 170.898438 125.808594 " fill-opacity="1" fill-rule="nonzero"/><path fill="#272b2a" d="M 174.1875 116.890625 C 174.472656 117.203125 174.453125 117.6875 174.144531 117.972656 C 173.835938 118.257812 173.351562 118.238281 173.066406 117.929688 C 172.09375 116.878906 171.652344 116.816406 171.578125 116.8125 C 171.550781 116.8125 171.542969 116.8125 171.507812 116.84375 C 169.753906 118.566406 170.996094 123.71875 171.621094 125.5625 C 171.757812 125.957031 171.546875 126.394531 171.144531 126.527344 C 170.746094 126.664062 170.3125 126.449219 170.175781 126.054688 C 169.914062 125.28125 167.691406 118.453125 170.4375 115.757812 C 170.761719 115.4375 171.167969 115.277344 171.613281 115.289062 C 172.375 115.308594 173.195312 115.816406 174.1875 116.890625 " fill-opacity="1" fill-rule="nonzero"/><path fill="#f0dcc4" d="M 83.726562 147.898438 C 83.726562 147.898438 90.078125 130.859375 98.816406 123.34375 C 107.550781 115.828125 132.617188 113.609375 152.550781 118.046875 C 172.488281 122.480469 192.199219 131.996094 195.054688 142.566406 C 197.90625 153.128906 200.464844 170.304688 204.632812 174.054688 C 208.804688 177.800781 214.984375 176.289062 214.984375 176.289062 C 214.984375 176.289062 220.84375 190.929688 218.851562 198.613281 C 215.984375 209.671875 204 217.828125 201.667969 218.746094 C 201.667969 218.746094 189.292969 227.886719 161.164062 230.226562 C 133.03125 232.5625 116.914062 228.296875 113.453125 225.851562 C 109.992188 223.410156 83.726562 147.898438 83.726562 147.898438 " fill-opacity="1" fill-rule="nonzero"/><path fill="#e4c390" d="M 120.726562 158.425781 C 124.746094 171.335938 126.292969 194.324219 144.164062 193.574219 C 137.375 197.351562 131.929688 205.265625 136.175781 213.09375 C 139.492188 218.839844 145.019531 220.609375 151.082031 221.890625 C 162.734375 223.417969 174.566406 220.878906 184.984375 215.730469 C 185.003906 215.21875 185.578125 213.714844 184.582031 213.164062 C 184.074219 213.144531 183.058594 213.097656 182.527344 213.585938 C 182.21875 208.988281 187.371094 207.683594 190.511719 205.78125 C 189.890625 208.300781 188.699219 212.324219 192.214844 213.496094 C 199.796875 214.84375 207.140625 210.074219 210.988281 203.617188 C 214.386719 196.445312 216.65625 188.351562 216.429688 180.371094 C 218.019531 185.28125 220.179688 193.492188 218.851562 198.613281 C 215.984375 209.671875 204 217.828125 201.667969 218.746094 C 201.667969 218.746094 189.292969 227.886719 161.164062 230.226562 C 133.03125 232.5625 116.914062 228.296875 113.453125 225.851562 C 111.027344 224.144531 97.441406 186.644531 89.5 164.289062 C 99.035156 158.632812 109.375 153.652344 120.726562 158.425781 " fill-opacity="1" fill-rule="nonzero"/><path fill="#f4e8d6" d="M 100.539062 129.101562 C 101.828125 127.363281 103.230469 125.757812 104.710938 124.484375 C 112.089844 118.136719 133.261719 116.261719 150.101562 120.007812 C 158.398438 121.855469 166.644531 124.746094 173.171875 128.265625 C 149.101562 123.679688 123.933594 122.066406 100.539062 129.101562 " fill-opacity="1" fill-rule="nonzero"/><path fill="#f5eee1" d="M 190.21875 176.589844 C 184.1875 165.660156 189.746094 158.132812 197.832031 165.660156 C 198.351562 167.386719 200.332031 171.976562 203.039062 172.773438 C 203.429688 173.160156 203.816406 173.480469 204.199219 173.707031 C 205.027344 174.207031 205.886719 174.53125 206.734375 174.742188 C 201.84375 179.578125 196.300781 183.832031 190.21875 176.589844 " fill-opacity="1" fill-rule="nonzero"/><path fill="#a97f4a" d="M 98.316406 122.765625 C 89.535156 130.320312 83.277344 146.929688 83.011719 147.632812 C 82.953125 147.800781 82.949219 147.984375 83.007812 148.148438 C 87.40625 160.800781 109.527344 224.015625 113.011719 226.476562 C 117.183594 229.421875 133.964844 233.253906 161.226562 230.984375 C 188.796875 228.695312 201.175781 220.046875 202.058594 219.40625 C 204.6875 218.28125 216.699219 209.957031 219.589844 198.804688 C 219.832031 197.882812 219.960938 196.867188 220.007812 195.796875 C 220.359375 187.78125 215.910156 176.539062 215.695312 176.003906 C 215.554688 175.652344 215.175781 175.457031 214.804688 175.542969 C 214.746094 175.558594 208.957031 176.910156 205.144531 173.484375 C 202.316406 170.941406 200.097656 161.023438 198.140625 152.277344 C 197.339844 148.695312 196.582031 145.3125 195.789062 142.367188 C 192.71875 130.984375 171.945312 121.574219 152.71875 117.300781 C 132.023438 112.695312 107.113281 115.199219 98.316406 122.765625 Z M 214.5 177.15625 C 215.410156 179.582031 218.777344 189.042969 218.484375 195.730469 C 218.445312 196.695312 218.324219 197.601562 218.113281 198.421875 C 215.328125 209.160156 203.675781 217.136719 201.386719 218.035156 C 201.324219 218.0625 201.269531 218.09375 201.210938 218.132812 C 201.089844 218.222656 188.636719 227.175781 161.101562 229.464844 C 133.246094 231.78125 117.265625 227.613281 113.898438 225.234375 C 111.410156 223.222656 94.613281 176.859375 84.542969 147.914062 C 85.359375 145.808594 91.390625 130.738281 99.3125 123.921875 C 107.644531 116.753906 132.449219 114.355469 152.386719 118.789062 C 170.554688 122.832031 191.425781 132.058594 194.316406 142.761719 C 195.101562 145.671875 195.855469 149.042969 196.652344 152.609375 C 198.753906 162.019531 200.929688 171.75 204.125 174.621094 C 207.769531 177.894531 212.722656 177.449219 214.5 177.15625 " fill-opacity="1" fill-rule="nonzero"/><path fill="#404748" d="M 110.367188 123.496094 C 110.367188 123.496094 96.804688 122.902344 90.015625 122.777344 C 83.226562 122.652344 76.652344 121.519531 75.601562 133.867188 C 74.554688 146.214844 76.070312 176.914062 74.507812 185.503906 C 72.941406 194.09375 69.773438 204.484375 76.039062 208.832031 C 82.300781 213.179688 84.953125 210.746094 95.414062 216.296875 C 105.875 221.847656 115.054688 231.84375 122.683594 228.273438 C 130.3125 224.699219 127.75 192.335938 125.40625 175.933594 C 123.066406 159.535156 117.722656 141.8125 118.703125 138.800781 C 119.679688 135.789062 121.4375 134.503906 121.4375 134.503906 C 121.4375 134.503906 117.480469 123.976562 110.367188 123.496094 " fill-opacity="1" fill-rule="nonzero"/><path fill="#343939" d="M 112.546875 154.558594 C 114.246094 173.066406 124.316406 189.84375 122.046875 208.933594 C 121.632812 213.046875 119.527344 219.441406 115.542969 216.476562 C 105.648438 207.789062 95.558594 204.703125 82.558594 202.550781 C 77.882812 202.089844 74.085938 197.707031 73.15625 192.429688 C 71.933594 199.085938 71.402344 205.613281 76.039062 208.832031 C 82.300781 213.179688 84.953125 210.746094 95.414062 216.296875 C 105.875 221.847656 115.054688 231.84375 122.683594 228.273438 C 130.3125 224.699219 127.75 192.335938 125.40625 175.933594 C 123.066406 159.535156 117.722656 141.8125 118.703125 138.800781 C 119.679688 135.789062 121.4375 134.503906 121.4375 134.503906 C 121.4375 134.503906 121.238281 133.980469 120.855469 133.160156 C 115.078125 137.984375 111.78125 145.410156 112.546875 154.558594 " fill-opacity="1" fill-rule="nonzero"/><path fill="#272b2a" d="M 74.851562 133.804688 C 74.371094 139.449219 74.425781 149.023438 74.480469 158.285156 C 74.542969 169.328125 74.605469 180.753906 73.765625 185.371094 L 73.09375 188.820312 C 71.53125 196.589844 69.761719 205.390625 75.609375 209.449219 C 78.796875 211.664062 81.125 212.195312 83.820312 212.8125 C 86.632812 213.453125 89.816406 214.179688 95.0625 216.964844 C 98.144531 218.601562 101.125 220.632812 104.003906 222.597656 C 110.824219 227.25 117.261719 231.640625 123.003906 228.953125 C 132.78125 224.375 126.859375 180.785156 126.152344 175.832031 C 125.050781 168.136719 123.269531 160.042969 121.84375 153.546875 C 120.359375 146.808594 118.960938 140.445312 119.417969 139.03125 C 120.300781 136.316406 121.871094 135.121094 121.886719 135.109375 C 122.152344 134.910156 122.261719 134.554688 122.144531 134.242188 C 121.972656 133.792969 117.929688 123.25 110.417969 122.746094 C 110.410156 122.742188 110.40625 122.742188 110.398438 122.742188 C 110.265625 122.738281 96.75 122.152344 90.027344 122.027344 L 88.601562 121.988281 C 82.347656 121.804688 75.886719 121.617188 74.851562 133.804688 Z M 104.851562 221.351562 C 101.941406 219.367188 98.925781 217.308594 95.769531 215.632812 C 90.347656 212.753906 86.910156 211.972656 84.15625 211.34375 C 81.507812 210.738281 79.417969 210.261719 76.46875 208.214844 C 71.429688 204.71875 73.027344 196.789062 74.570312 189.117188 L 75.25 185.640625 C 76.113281 180.886719 76.050781 169.902344 75.984375 158.273438 C 75.933594 149.046875 75.878906 139.507812 76.351562 133.929688 C 77.265625 123.164062 82.25 123.308594 88.558594 123.496094 L 90 123.53125 C 96.664062 123.652344 110.035156 124.234375 110.320312 124.246094 C 116.035156 124.636719 119.6875 132.304688 120.539062 134.296875 C 119.902344 134.914062 118.734375 136.273438 117.984375 138.566406 C 117.746094 139.300781 117.792969 140.582031 118.074219 142.5 C 118.449219 145.070312 119.253906 148.785156 120.371094 153.867188 C 121.761719 160.1875 123.484375 168.011719 124.582031 175.484375 C 124.605469 175.671875 124.632812 175.855469 124.660156 176.042969 C 127.375 195.058594 129.003906 224.480469 122.363281 227.59375 C 117.402344 229.914062 111.585938 225.949219 104.851562 221.351562 " fill-opacity="1" fill-rule="nonzero"/><path fill="#555c5e" d="M 80.554688 128.597656 C 82.617188 124.539062 86.628906 125.074219 90.742188 125.152344 C 96.15625 125.253906 106.976562 125.726562 106.976562 125.726562 C 110.992188 125.996094 113.746094 130.285156 115.011719 132.769531 C 112.5 131.917969 109.582031 131.84375 107.128906 131.488281 C 98.355469 131.105469 89.078125 131.183594 80.554688 128.597656 " fill-opacity="1" fill-rule="nonzero"/><path fill="#a97f4a" d="M 193.457031 145.976562 C 193.457031 145.976562 192.6875 140.339844 194.066406 139.890625 C 195.445312 139.441406 195.1875 141.46875 195.1875 141.46875 C 195.1875 141.46875 194.503906 141.4375 193.457031 145.976562 " fill-opacity="1" fill-rule="nonzero"/><path fill="#a97f4a" d="M 167.019531 154.640625 C 167.019531 154.640625 165.324219 150.664062 162.246094 151.207031 C 159.160156 151.75 158.328125 155.28125 159.015625 155.144531 C 159.699219 155 162.441406 150.539062 167.019531 154.640625 " fill-opacity="1" fill-rule="nonzero"/><path fill="#202322" d="M 212.257812 186.230469 C 216.054688 184.3125 217.550781 172.960938 213.277344 171.628906 C 209.003906 170.292969 192.632812 177.605469 194.378906 181.371094 C 196.125 185.140625 206.917969 188.925781 212.257812 186.230469 " fill-opacity="1" fill-rule="nonzero"/><path fill="#4e5558" d="M 212.703125 173.3125 C 213 173.410156 213.261719 173.558594 213.496094 173.753906 C 208.363281 176.238281 203.03125 178.199219 197.539062 178.90625 C 201.222656 175.769531 209.902344 172.441406 212.703125 173.3125 " fill-opacity="1" fill-rule="nonzero"/><path fill="#262121" d="M 194.59375 178.390625 C 193.273438 179.894531 193.371094 181.015625 193.6875 181.695312 C 194.546875 183.546875 197.203125 185.398438 200.796875 186.644531 C 204.324219 187.871094 209.28125 188.585938 212.605469 186.910156 C 215.402344 185.496094 216.921875 180.195312 216.585938 176.125 C 216.347656 173.300781 215.257812 171.445312 213.503906 170.898438 C 209.789062 169.742188 198.125 174.359375 194.59375 178.390625 Z M 201.300781 185.203125 C 198.183594 184.125 195.738281 182.492188 195.074219 181.050781 C 194.835938 180.542969 195.390625 179.796875 195.742188 179.394531 C 198.863281 175.835938 209.863281 171.363281 213.050781 172.355469 C 214.152344 172.703125 214.882812 174.121094 215.0625 176.25 C 215.375 180.050781 213.847656 184.570312 211.914062 185.546875 C 209.015625 187.007812 204.53125 186.328125 201.300781 185.203125 " fill-opacity="1" fill-rule="nonzero"/><path fill="#a97f4a" d="M 187.347656 208.925781 C 187.496094 209.347656 191.070312 219.195312 201.582031 217.988281 C 202 217.941406 202.378906 218.242188 202.425781 218.660156 C 202.472656 219.078125 202.171875 219.457031 201.753906 219.503906 C 190.015625 220.851562 185.945312 209.542969 185.90625 209.429688 C 185.769531 209.03125 185.976562 208.597656 186.375 208.457031 C 186.773438 208.320312 187.210938 208.527344 187.347656 208.925781 " fill-opacity="1" fill-rule="nonzero"/><path fill="#a97f4a" d="M 190.242188 207.832031 C 190.285156 208.25 189.976562 208.621094 189.558594 208.660156 C 189.523438 208.667969 186.257812 209.011719 185.296875 211.527344 C 185.144531 211.921875 184.703125 212.117188 184.308594 211.964844 C 183.914062 211.816406 183.71875 211.375 183.867188 210.980469 C 185.175781 207.570312 189.242188 207.15625 189.414062 207.140625 C 189.835938 207.105469 190.207031 207.410156 190.242188 207.832031 " fill-opacity="1" fill-rule="nonzero"/><path fill="#a97f4a" d="M 162.800781 179.554688 C 162.414062 179.839844 162.335938 180.371094 162.609375 180.769531 C 162.882812 181.167969 163.429688 181.273438 163.84375 181.019531 C 163.859375 181.007812 165.578125 179.992188 170.402344 181.808594 C 170.867188 181.984375 171.382812 181.75 171.5625 181.285156 C 171.734375 180.824219 171.5 180.304688 171.035156 180.132812 C 165.234375 177.945312 163.035156 179.382812 162.800781 179.554688 " fill-opacity="1" fill-rule="nonzero"/><path fill="#231f20" d="M 176.242188 175.332031 C 176.570312 178.785156 174.675781 181.792969 172.003906 182.046875 C 169.328125 182.304688 166.890625 179.714844 166.558594 176.257812 C 166.226562 172.804688 168.125 169.796875 170.800781 169.542969 C 173.472656 169.285156 175.910156 171.878906 176.242188 175.332031 " fill-opacity="1" fill-rule="nonzero"/><path fill="#ffffff" d="M 174.683594 172.828125 C 174.761719 173.675781 174.136719 174.429688 173.285156 174.515625 C 172.425781 174.59375 171.671875 173.972656 171.589844 173.125 C 171.507812 172.273438 172.132812 171.519531 172.988281 171.4375 C 173.839844 171.355469 174.597656 171.976562 174.683594 172.828125 " fill-opacity="1" fill-rule="nonzero"/><path fill="#5f666a" d="M 273.480469 91.445312 C 271.671875 94.460938 272.335938 252.269531 273.859375 253.792969 C 274.574219 254.503906 277.941406 255.132812 281.488281 255.367188 L 281.488281 89.546875 C 277.707031 89.746094 274.046875 90.5 273.480469 91.445312 " fill-opacity="1" fill-rule="nonzero"/><path fill="#272b2a" d="M 281.445312 88.796875 C 280.199219 88.859375 273.90625 89.277344 272.835938 91.058594 C 271.507812 93.265625 271.605469 154.472656 271.667969 173.179688 C 271.734375 193.578125 271.910156 213.640625 272.148438 228.222656 C 272.570312 253.566406 272.972656 253.96875 273.328125 254.324219 C 274.609375 255.605469 280.308594 256.042969 281.433594 256.117188 C 281.640625 256.132812 281.847656 256.058594 282 255.917969 C 282.152344 255.773438 282.238281 255.578125 282.238281 255.367188 L 282.238281 89.546875 C 282.238281 89.339844 282.15625 89.144531 282.003906 89 C 281.855469 88.859375 281.652344 88.785156 281.445312 88.796875 Z M 280.734375 90.355469 C 280.734375 91.949219 280.734375 252.941406 280.734375 254.550781 C 277.351562 254.265625 275.066406 253.703125 274.5 253.328125 C 273.652344 249.65625 273.164062 201.511719 273.164062 158.699219 C 273.164062 124.640625 273.46875 93.988281 274.144531 91.820312 C 274.507812 91.363281 276.996094 90.628906 280.734375 90.355469 " fill-opacity="1" fill-rule="nonzero"/><path fill="#6c7378" d="M 290.253906 91.066406 C 289.292969 89.71875 285.328125 89.34375 281.488281 89.546875 L 281.488281 255.367188 C 285.539062 255.636719 289.824219 255.394531 290.636719 254.171875 C 292.160156 251.886719 296.738281 210.347656 297.878906 194.339844 C 299.023438 178.335938 292.160156 93.734375 290.253906 91.066406 " fill-opacity="1" fill-rule="nonzero"/><path fill="#272b2a" d="M 281.445312 88.796875 C 281.046875 88.816406 280.734375 89.144531 280.734375 89.546875 L 280.734375 255.367188 C 280.734375 255.765625 281.039062 256.09375 281.433594 256.117188 C 284.585938 256.328125 290.050781 256.40625 291.261719 254.589844 C 292.988281 252.003906 297.589844 208.96875 298.628906 194.394531 C 298.722656 193.136719 298.761719 191.484375 298.761719 189.503906 C 298.761719 178.179688 297.398438 156.277344 295.960938 137.644531 C 295.824219 135.816406 292.496094 92.90625 290.867188 90.628906 C 289.417969 88.601562 283.796875 88.671875 281.445312 88.796875 Z M 289.632812 91.492188 C 291.40625 94.882812 297.261719 165.621094 297.261719 189.335938 C 297.261719 191.347656 297.21875 193.023438 297.128906 194.289062 C 295.949219 210.832031 291.371094 251.515625 290.007812 253.757812 C 289.675781 254.261719 287.257812 254.914062 282.238281 254.652344 C 282.238281 253.242188 282.238281 91.722656 282.238281 90.277344 C 286.566406 90.132812 289.101562 90.777344 289.632812 91.492188 Z M 290.867188 90.628906 Z M 290.867188 90.628906 " fill-opacity="1" fill-rule="nonzero"/><path fill="#272b2a" d="M 325.902344 281.46875 C 319.386719 282.898438 312.644531 284.375 305.648438 285.585938 C 284.679688 289.21875 271.808594 284.179688 262.414062 280.503906 C 260.632812 279.804688 258.949219 279.148438 257.34375 278.59375 C 254.957031 277.773438 251.867188 277.226562 248.511719 276.867188 C 247.988281 277.378906 247.398438 277.820312 246.785156 278.222656 C 250.644531 278.554688 254.230469 279.113281 256.855469 280.015625 C 258.429688 280.558594 260.101562 281.210938 261.863281 281.902344 C 271.425781 285.648438 284.519531 290.773438 305.90625 287.070312 C 312.9375 285.851562 319.691406 284.371094 326.222656 282.9375 C 339.488281 280.035156 351.242188 277.460938 358.097656 278.941406 C 358.257812 278.460938 358.507812 277.980469 358.585938 277.5 C 351.46875 275.871094 339.894531 278.402344 325.902344 281.46875 " fill-opacity="1" fill-rule="nonzero"/><g clip-path="url(#b55af34716)"><path fill="#887c63" d="M 19.738281 238.519531 C 19.738281 235.757812 11.207031 229.679688 4.683594 235.203125 C -1.011719 240.03125 0.945312 271.390625 5.203125 290.675781 L 22.691406 290.675781 C 20.5 273.550781 19.738281 240.929688 19.738281 238.519531 " fill-opacity="1" fill-rule="nonzero"/></g><path fill="#9a907d" d="M 7.988281 278.464844 C 7.039062 263.113281 3.996094 246.320312 13.351562 234.144531 C 11.308594 233.394531 8.910156 233.15625 6.566406 234.011719 C 3.230469 247.859375 7.695312 278.03125 7.988281 278.464844 " fill-opacity="1" fill-rule="nonzero"/><g clip-path="url(#4d06f30b36)"><path fill="#5f563e" d="M 1.925781 253.363281 C 1.925781 244.625 2.875 237.726562 5.171875 235.777344 C 9.035156 232.503906 13.296875 233.933594 14.945312 234.695312 C 17.546875 235.902344 18.988281 237.722656 18.988281 238.519531 C 18.988281 241.40625 19.757812 273.582031 21.933594 290.675781 L 23.445312 290.675781 C 21.265625 273.765625 20.492188 241.40625 20.492188 238.519531 C 20.492188 236.832031 18.425781 234.648438 15.578125 233.332031 C 13.664062 232.445312 8.722656 230.796875 4.195312 234.632812 C -1.992188 239.875 0.324219 271.695312 4.453125 290.675781 L 5.992188 290.675781 C 3.597656 279.839844 1.925781 264.980469 1.925781 253.363281 " fill-opacity="1" fill-rule="nonzero"/></g><g clip-path="url(#884928f8b7)"><path fill="#9a907d" d="M 36.800781 245.53125 C 31.78125 232.488281 14.21875 233.496094 14.21875 233.496094 C 10.820312 258.980469 14.328125 279.855469 16.945312 290.675781 L 43.476562 290.675781 C 42.703125 279.734375 40.628906 255.480469 36.800781 245.53125 " fill-opacity="1" fill-rule="nonzero"/></g><g clip-path="url(#77435a8f33)"><path fill="#8e8571" d="M 34.542969 245.53125 C 34.464844 245.332031 34.378906 245.148438 34.296875 244.957031 C 30.683594 244.152344 27.164062 246.316406 26.011719 250.546875 C 22.5 264.9375 25.132812 277.855469 29.09375 290.675781 L 41.214844 290.675781 C 40.445312 279.734375 38.371094 255.480469 34.542969 245.53125 " fill-opacity="1" fill-rule="nonzero"/></g><path fill="#afa79c" d="M 21.746094 287.664062 C 21.746094 274.625 18.234375 262.085938 20.742188 248.542969 C 21.746094 245.03125 23.253906 241.519531 27.265625 240.515625 C 29.660156 239.917969 32.046875 240.214844 34.226562 241.078125 C 30.492188 236.480469 24.792969 234.644531 20.429688 233.929688 C 18.976562 235.375 17.945312 237.171875 17.730469 239.511719 C 16.726562 255.5625 14.71875 272.617188 21.746094 287.664062 " fill-opacity="1" fill-rule="nonzero"/><g clip-path="url(#46e369a4f6)"><path fill="#5f563e" d="M 13.578125 254.578125 C 13.578125 248.246094 13.964844 241.414062 14.890625 234.230469 C 17.972656 234.214844 31.851562 234.769531 36.097656 245.800781 C 39.867188 255.59375 41.941406 279.742188 42.714844 290.675781 L 44.230469 290.675781 C 43.46875 279.710938 41.402344 255.394531 37.503906 245.261719 C 32.347656 231.863281 14.355469 232.730469 14.175781 232.742188 C 13.816406 232.761719 13.519531 233.035156 13.472656 233.394531 C 10.09375 258.714844 13.570312 279.691406 16.191406 290.675781 L 17.738281 290.675781 C 15.898438 283.09375 13.578125 270.390625 13.578125 254.578125 " fill-opacity="1" fill-rule="nonzero"/></g><g clip-path="url(#8cb8f02bb5)"><path fill="#bcbfc6" d="M 251.003906 83.535156 C 250.738281 83.855469 250.777344 84.332031 251.097656 84.59375 L 266.152344 97.136719 C 266.472656 97.402344 266.945312 97.359375 267.210938 97.039062 C 267.480469 96.71875 267.4375 96.246094 267.117188 95.980469 L 252.0625 83.4375 C 251.742188 83.175781 251.265625 83.214844 251.003906 83.535156 " fill-opacity="1" fill-rule="nonzero"/></g><path fill="#bcbfc6" d="M 265.585938 250.03125 L 257.554688 258.558594 C 257.269531 258.859375 257.285156 259.335938 257.585938 259.621094 C 257.890625 259.90625 258.367188 259.894531 258.652344 259.589844 L 266.679688 251.0625 C 266.964844 250.761719 266.953125 250.285156 266.648438 250 C 266.347656 249.714844 265.871094 249.726562 265.585938 250.03125 " fill-opacity="1" fill-rule="nonzero"/><path fill="#bcbfc6" d="M 242.800781 179.757812 C 242.765625 180.171875 243.070312 180.539062 243.484375 180.570312 L 266.570312 182.578125 C 266.984375 182.613281 267.347656 182.308594 267.382812 181.894531 C 267.417969 181.480469 267.113281 181.117188 266.699219 181.078125 L 243.617188 179.074219 C 243.203125 179.039062 242.835938 179.34375 242.800781 179.757812 " fill-opacity="1" fill-rule="nonzero"/><path fill="#bcbfc6" d="M 244.324219 132.992188 C 244.226562 133.394531 244.46875 133.804688 244.875 133.902344 L 264.945312 138.921875 C 265.351562 139.019531 265.757812 138.773438 265.859375 138.371094 C 265.957031 137.96875 265.714844 137.5625 265.3125 137.460938 L 245.238281 132.441406 C 244.835938 132.34375 244.429688 132.585938 244.324219 132.992188 " fill-opacity="1" fill-rule="nonzero"/><path fill="#bcbfc6" d="M 261.8125 218.261719 L 247.257812 224.78125 C 246.878906 224.949219 246.707031 225.394531 246.878906 225.773438 C 247.050781 226.15625 247.496094 226.324219 247.875 226.15625 L 262.425781 219.632812 C 262.804688 219.464844 262.976562 219.019531 262.804688 218.640625 C 262.636719 218.261719 262.191406 218.089844 261.8125 218.261719 " fill-opacity="1" fill-rule="nonzero"/></svg>