<svg xmlns="http://www.w3.org/2000/svg" xmlns:xlink="http://www.w3.org/1999/xlink" width="500" zoomAndPan="magnify" viewBox="0 0 375 374.999991" height="500" preserveAspectRatio="xMidYMid meet" version="1.0"><path fill="#fff0db" d="M 361.289062 322.832031 C 353.824219 325.828125 345.964844 326.425781 338.609375 322.753906 C 307.714844 311.511719 274.011719 294.632812 237.496094 305.882812 C 226.265625 308.691406 217.832031 322.753906 215.027344 334.003906 C 212.140625 345.515625 215.9375 354.84375 222.539062 362.3125 C 214.222656 362.609375 204.855469 362.710938 201.375 362.046875 C 194.796875 360.785156 192.011719 358.246094 191.773438 352.164062 C 191.535156 346.082031 198.355469 343.054688 198.355469 343.054688 C 198.355469 343.054688 191.027344 341.019531 185.21875 337.238281 C 179.410156 333.4375 173.851562 324.332031 173.851562 324.332031 C 173.851562 324.332031 172.195312 326.15625 169.648438 328.933594 C 157.347656 313.058594 135.410156 330.035156 114.40625 338.679688 L 102.582031 336.695312 C 102.582031 336.695312 97.765625 334.925781 98.03125 329.359375 C 98.269531 323.792969 106.113281 323.277344 106.113281 323.277344 L 104.585938 290.902344 L 105.84375 235.742188 L 105.089844 230.445312 C 100.789062 217.800781 105.089844 214.507812 105.089844 214.507812 L 91.6875 203.882812 C 91.6875 203.882812 89.417969 205.410156 83.609375 204.121094 C 77.800781 202.859375 71.230469 200.320312 71.230469 200.320312 C 71.230469 200.320312 65.15625 205.378906 56.570312 204.367188 C 47.988281 203.34375 43.167969 200.320312 43.167969 200.320312 C 43.167969 200.320312 37.09375 203.613281 34.070312 203.613281 C 31.046875 203.613281 24.464844 202.085938 19.140625 197.292969 C 13.847656 192.46875 4.246094 182.855469 2.957031 177.320312 C 1.695312 171.753906 7.257812 169.230469 7.257812 169.230469 C 7.257812 169.230469 6.753906 166.445312 7.257812 164.925781 C 7.761719 163.398438 8.785156 157.832031 9.289062 155.546875 C 9.796875 153.265625 11.320312 150.726562 11.320312 150.726562 L 11.320312 143.632812 C 11.320312 143.632812 5.007812 141.597656 4.742188 138.570312 C 4.503906 135.542969 3.480469 130.992188 6 128.449219 C 8.515625 125.929688 13.570312 121.863281 13.570312 121.863281 C 13.570312 121.863281 13.601562 121.167969 13.601562 119.9375 C 23.445312 123.71875 32.890625 131.128906 40.890625 137.152344 C 63.359375 156.839844 108.300781 137.152344 99.875 100.597656 C 90.332031 71.921875 76.742188 45.28125 79.765625 15.503906 C 86.457031 13.28125 92.660156 11.453125 96.0625 11.027344 C 105.664062 9.847656 131.746094 15.898438 131.746094 15.898438 L 134.765625 15.015625 L 133.050781 13.707031 C 133.050781 13.707031 133.101562 12.179688 133.695312 11.800781 C 134.261719 11.425781 137.742188 12.308594 137.742188 12.308594 L 162.371094 17.683594 C 162.371094 17.683594 168.371094 19.324219 168.953125 19.957031 C 169.519531 20.601562 170.53125 24.96875 170.53125 24.96875 L 174.574219 28.769531 C 181.15625 25.742188 205.421875 43.207031 205.421875 43.207031 C 209.21875 44.226562 226.664062 57.128906 226.664062 57.128906 L 238.160156 66.148438 C 239.984375 106.015625 217.5625 147.5 257.152344 176.554688 C 280.585938 193.613281 313.699219 204.1875 339.355469 193.582031 C 340.929688 196.371094 342.109375 198.511719 342.773438 199.714844 C 330.253906 209.785156 326.992188 228.042969 335.765625 241.21875 C 342.960938 250.21875 352.457031 253.433594 362.03125 253.136719 C 364.28125 263.128906 367.496094 278.042969 367.652344 283.101562 C 367.921875 289.980469 367.574219 307.222656 361.289062 322.832031 Z M 361.289062 322.832031 " fill-opacity="1" fill-rule="nonzero"/><path fill="#f94e73" d="M 100.796875 195.445312 C 103.503906 191.914062 109.382812 177.554688 108.878906 178.230469 C 108.371094 178.894531 112.753906 164.738281 118.136719 157.484375 C 123.535156 150.230469 132.953125 131 132.953125 131 L 136.671875 106.046875 C 136.671875 106.046875 144.085938 105.886719 146.941406 100.480469 C 149.804688 95.070312 150.308594 84.621094 150.308594 84.621094 L 153.519531 66.921875 C 153.519531 66.921875 157.050781 54.765625 156.734375 53.078125 C 156.386719 51.390625 143.917969 43.464844 143.917969 43.464844 L 142.738281 29.292969 C 142.738281 29.292969 139.019531 16.980469 137.523438 15.800781 C 135.996094 14.621094 131.289062 14.621094 131.289062 14.621094 C 131.289062 14.621094 130.941406 12.933594 132.308594 11.40625 C 133.648438 9.875 162.402344 17.695312 162.402344 17.695312 C 162.402344 17.695312 168.6875 18.984375 169.550781 19.839844 C 170.402344 20.691406 170.886719 27.609375 170.886719 27.609375 C 170.886719 27.609375 174.257812 57.96875 174.257812 58.488281 C 174.257812 59.003906 171.898438 94.902344 171.898438 94.902344 C 171.898438 94.902344 163.3125 130.496094 163.3125 131 C 163.3125 131.507812 151.675781 160.003906 151.519531 160.699219 C 151.359375 161.363281 126.402344 197.976562 126.402344 197.976562 L 104.335938 214.339844 L 91.015625 204.058594 C 91.015625 204.050781 98.101562 198.988281 100.796875 195.445312 Z M 100.796875 195.445312 " fill-opacity="1" fill-rule="nonzero"/><path fill="#fff0db" d="M 111.15625 197.480469 C 111.15625 199.753906 109.421875 201.609375 107.300781 201.609375 C 105.160156 201.609375 103.445312 199.761719 103.445312 197.480469 C 103.445312 195.207031 105.179688 193.351562 107.300781 193.351562 C 109.441406 193.394531 111.15625 195.207031 111.15625 197.480469 Z M 119.316406 179.332031 C 117.171875 179.332031 115.457031 181.179688 115.457031 183.460938 C 115.457031 185.734375 117.191406 187.589844 119.316406 187.589844 C 121.4375 187.589844 123.171875 185.742188 123.171875 183.460938 C 123.160156 181.179688 121.457031 179.332031 119.316406 179.332031 Z M 132.714844 158.070312 C 130.574219 158.070312 128.859375 159.914062 128.859375 162.195312 C 128.859375 164.46875 130.59375 166.324219 132.714844 166.324219 C 134.835938 166.324219 136.570312 164.480469 136.570312 162.195312 C 136.570312 159.914062 134.828125 158.070312 132.714844 158.070312 Z M 143.847656 137.074219 C 141.707031 137.074219 139.992188 138.917969 139.992188 141.199219 C 139.992188 143.472656 141.726562 145.328125 143.847656 145.328125 C 145.988281 145.328125 147.703125 143.484375 147.703125 141.199219 C 147.691406 138.917969 145.957031 137.074219 143.847656 137.074219 Z M 153.3125 99.507812 C 151.171875 99.507812 149.457031 101.351562 149.457031 103.632812 C 149.457031 105.90625 151.191406 107.761719 153.3125 107.761719 C 155.433594 107.761719 157.167969 105.917969 157.167969 103.632812 C 157.167969 101.351562 155.425781 99.507812 153.3125 99.507812 Z M 157.109375 74.203125 C 154.96875 74.203125 153.253906 76.050781 153.253906 78.332031 C 153.253906 80.605469 154.988281 82.460938 157.109375 82.460938 C 159.230469 82.460938 160.964844 80.613281 160.964844 78.332031 C 160.964844 76.050781 159.21875 74.203125 157.109375 74.203125 Z M 158.101562 37.242188 C 155.960938 37.242188 154.246094 39.089844 154.246094 41.371094 C 154.246094 43.640625 155.980469 45.496094 158.101562 45.496094 C 160.222656 45.496094 161.957031 43.652344 161.957031 41.371094 C 161.957031 39.097656 160.242188 37.242188 158.101562 37.242188 Z M 155.960938 20.941406 C 153.820312 20.941406 152.105469 22.785156 152.105469 25.066406 C 152.105469 27.351562 153.839844 29.195312 155.960938 29.195312 C 158.082031 29.195312 159.816406 27.351562 159.816406 25.066406 C 159.816406 22.785156 158.101562 20.941406 155.960938 20.941406 Z M 155.960938 20.941406 " fill-opacity="1" fill-rule="nonzero"/><path fill="#f29c63" d="M 40.910156 137.183594 C 32.910156 131.160156 23.464844 123.738281 13.621094 119.964844 C 13.75 113.167969 14.234375 90.21875 14.691406 85.773438 C 15.199219 80.554688 20.769531 57.097656 25.824219 52.542969 C 30.878906 47.988281 49.574219 27.242188 52.121094 25.902344 C 53.753906 25.019531 67.613281 19.582031 79.804688 15.511719 C 76.78125 45.289062 90.371094 71.929688 99.917969 100.609375 C 108.320312 137.183594 63.378906 156.867188 40.910156 137.183594 Z M 257.183594 176.542969 C 280.613281 193.601562 313.730469 204.179688 339.382812 193.570312 C 330.472656 177.746094 309.152344 140.527344 298.695312 127.695312 C 285.292969 111.253906 251.183594 76.335938 251.183594 76.335938 L 238.179688 66.136719 C 239.984375 106.035156 217.59375 147.492188 257.183594 176.542969 Z M 335.796875 241.210938 C 342.992188 250.210938 352.488281 253.425781 362.0625 253.125 C 360.804688 247.609375 359.84375 243.621094 359.84375 243.621094 L 343.417969 200.855469 C 343.417969 200.855469 343.199219 200.457031 342.773438 199.703125 C 330.285156 209.773438 327.023438 228.042969 335.796875 241.210938 Z M 338.609375 322.753906 C 307.714844 311.511719 274.011719 294.632812 237.496094 305.882812 C 226.265625 308.691406 217.832031 322.753906 215.027344 334.003906 C 212.140625 345.515625 215.9375 354.84375 222.539062 362.3125 C 229.894531 362.046875 236.425781 361.667969 237.277344 361.539062 C 239.042969 361.300781 281.011719 360.519531 292.113281 359.503906 C 303.242188 358.484375 312.332031 362.027344 322.175781 358.75 C 332.019531 355.457031 349.214844 346.109375 358.316406 329.132812 C 359.414062 327.097656 360.378906 324.984375 361.257812 322.84375 C 353.824219 325.808594 345.964844 326.425781 338.609375 322.753906 Z M 114.386719 338.6875 L 114.707031 338.738281 C 114.707031 338.738281 109.144531 344.550781 109.648438 348.113281 C 110.15625 351.648438 113.445312 354.195312 113.445312 354.195312 L 123.558594 357.492188 C 123.558594 357.492188 136.691406 363.304688 146.5625 353.441406 C 153.414062 346.617188 163.871094 335.265625 169.648438 328.964844 C 157.328125 313.058594 135.390625 330.035156 114.386719 338.6875 Z M 165.515625 123.070312 L 135.6875 116.832031 L 135.34375 125.613281 C 135.34375 125.613281 162.304688 131.179688 163.324219 131.019531 C 164.335938 130.832031 165.515625 123.070312 165.515625 123.070312 Z M 165.515625 123.070312 " fill-opacity="1" fill-rule="nonzero"/><path fill="#ccbaa8" d="M 13.355469 138.253906 C 13.382812 138.472656 13.402344 138.710938 13.433594 138.949219 C 13.542969 139.246094 13.652344 139.515625 13.78125 139.800781 C 14.078125 140.417969 13.78125 141.003906 13.324219 141.25 C 13.195312 141.675781 13.007812 142.023438 12.660156 142.320312 C 12.441406 142.511719 12.175781 142.511719 11.964844 142.320312 C 11.808594 142.191406 11.75 142.003906 11.648438 141.835938 C 11.621094 141.914062 11.597656 141.996094 11.539062 142.054688 C 11.621094 142.273438 11.726562 142.511719 11.808594 142.71875 C 12.074219 143.472656 11.382812 144.1875 10.6875 144.21875 C 8.386719 144.265625 7.097656 141.0625 6.386719 138.402344 C 5.207031 136.339844 4.433594 134.117188 4.164062 131.65625 C 4.136719 131.359375 4.214844 131.148438 4.382812 130.960938 C 4.304688 130.425781 4.679688 129.96875 5.234375 129.96875 C 5.425781 129.570312 5.878906 129.304688 6.304688 129.589844 C 6.355469 129.621094 6.414062 129.671875 6.464844 129.71875 C 6.496094 129.71875 6.496094 129.75 6.496094 129.75 C 6.734375 129.9375 6.921875 130.128906 7.140625 130.335938 C 7.328125 130.496094 7.515625 130.652344 7.675781 130.839844 C 7.992188 130.871094 8.339844 130.96875 8.527344 131.296875 C 8.605469 131.425781 8.714844 131.566406 8.792969 131.722656 C 9.21875 131.378906 9.945312 131.328125 10.371094 131.804688 C 10.746094 131.535156 11.28125 131.488281 11.679688 131.933594 C 12.988281 133.382812 14.195312 134.960938 14.78125 136.863281 C 14.96875 137.449219 14.464844 138.125 13.847656 138.09375 C 13.820312 138.09375 13.769531 138.09375 13.742188 138.09375 C 13.601562 138.144531 13.464844 138.175781 13.355469 138.253906 Z M 40.722656 165.777344 C 36.011719 160.957031 31.253906 156.859375 27.667969 151.023438 C 24.960938 146.65625 22.691406 141.628906 18.675781 138.304688 C 18.546875 138.175781 18.359375 138.113281 18.191406 138.085938 C 18.082031 137.3125 17.894531 136.527344 17.605469 135.703125 C 17.019531 134.175781 14.988281 134.789062 15.199219 136.367188 C 15.734375 140.167969 15.304688 142.46875 13.808594 145.921875 C 13.355469 146.996094 12.847656 148.039062 12.609375 149.21875 C 12.5 149.722656 12.480469 150.238281 12.453125 150.746094 C 11.726562 149.914062 9.964844 150.289062 10.074219 151.597656 C 10.121094 152.105469 10.152344 152.589844 10.203125 153.097656 C 10.171875 153.128906 10.152344 153.128906 10.121094 153.148438 C 8.277344 156.550781 10.417969 161.957031 12.582031 164.746094 C 12.878906 165.125 13.414062 164.71875 13.304688 164.320312 C 13.035156 163.21875 12.796875 162.097656 12.582031 160.976562 C 13.355469 162.097656 14.34375 163.089844 15.714844 163.8125 C 16.089844 164.003906 16.484375 163.515625 16.167969 163.230469 C 13.976562 161.113281 13.570312 157.632812 13.195312 154.476562 C 13.226562 154.527344 13.226562 154.585938 13.273438 154.664062 C 15.734375 159.914062 21.054688 159.882812 26.109375 160.042969 C 26.507812 160.042969 26.726562 159.429688 26.328125 159.238281 C 24.566406 158.40625 22.769531 158.136719 20.925781 157.554688 C 15.554688 155.867188 14.640625 152.144531 16.25 147.542969 C 16.328125 148.15625 16.4375 148.742188 16.515625 149.257812 C 16.832031 151.429688 17.535156 152.820312 19.398438 153.941406 C 19.855469 154.210938 20.28125 153.625 19.9375 153.246094 C 18.519531 151.640625 18.628906 148.769531 18.707031 146.261719 C 19.054688 146.765625 19.480469 147.222656 19.90625 147.710938 C 20.28125 148.136719 20.976562 147.582031 20.679688 147.125 C 20.191406 146.320312 20.09375 145.359375 20.015625 144.367188 C 25.683594 152.828125 30.847656 161.265625 40.394531 166.214844 C 40.671875 166.3125 40.9375 165.996094 40.722656 165.777344 Z M 21.195312 150.011719 C 21.007812 149.851562 20.738281 149.902344 20.660156 150.140625 C 20.3125 151.164062 20.738281 152.175781 21.757812 152.523438 C 22.214844 152.679688 22.59375 152.203125 22.511719 151.769531 C 22.316406 151.054688 21.757812 150.488281 21.195312 150.011719 Z M 15.921875 166.183594 C 15.605469 165.886719 15.625 165.886719 15.226562 165.730469 C 14.769531 165.539062 14.34375 166.15625 14.832031 166.421875 C 15.207031 166.640625 15.207031 166.640625 15.632812 166.722656 C 15.921875 166.800781 16.1875 166.421875 15.921875 166.183594 Z M 22.292969 169.042969 C 21.414062 167.890625 19.617188 167.8125 18.359375 167.167969 C 18.09375 167.039062 17.664062 167.277344 17.792969 167.59375 C 18.4375 169.171875 20.472656 171.105469 22.1875 169.789062 C 22.375 169.609375 22.421875 169.230469 22.292969 169.042969 Z M 11.699219 170.839844 C 10.765625 169.28125 10.359375 167.246094 9.964844 165.511719 C 9.566406 163.773438 9.777344 162.085938 9.457031 160.371094 C 9.21875 159.03125 7.476562 159.378906 7.078125 160.371094 C 6.328125 162.195312 6.863281 164.738281 7.535156 166.53125 C 8.308594 168.597656 9.726562 169.777344 11.363281 171.136719 C 11.539062 171.265625 11.835938 171.085938 11.699219 170.839844 Z M 17.339844 172.398438 C 16.722656 171.730469 16.050781 171.40625 15.148438 171.277344 C 14.832031 171.226562 14.503906 171.542969 14.691406 171.859375 C 15.199219 172.695312 15.792969 173.171875 16.695312 173.5 C 17.339844 173.707031 17.746094 172.824219 17.339844 172.398438 Z M 39.867188 183.082031 C 37.867188 181.695312 35.964844 179.789062 34.199219 178.101562 C 33.851562 177.753906 33.265625 178.183594 33.503906 178.636719 C 34.875 181.097656 36.042969 183.320312 38.242188 185.167969 C 39.800781 186.476562 42.714844 188.539062 44.746094 187.417969 C 45.011719 187.289062 45.230469 186.855469 45.09375 186.566406 C 44.28125 184.582031 41.574219 184.253906 39.867188 183.082031 Z M 42.464844 191.0625 C 41.902344 189.503906 40.621094 187.578125 38.828125 187.339844 C 38.53125 187.308594 38.242188 187.449219 38.242188 187.796875 C 38.292969 189.59375 39.976562 191.089844 41.484375 191.816406 C 41.949219 192.023438 42.675781 191.648438 42.464844 191.0625 Z M 64.5 195.160156 C 61.636719 195.617188 59.039062 197.460938 56.105469 197.382812 C 53.21875 197.300781 50.246094 195.882812 47.570312 194.863281 C 46.847656 194.59375 46.550781 195.636719 47.085938 196.011719 C 52.941406 200.488281 59.257812 201.292969 65.222656 196.390625 C 65.867188 195.875 65.144531 195.050781 64.5 195.160156 Z M 69.128906 191.726562 C 68.40625 192.210938 67.929688 192.878906 67.128906 193.285156 C 66.511719 193.582031 66.9375 194.625 67.582031 194.386719 C 68.625 193.988281 69.613281 193.503906 69.960938 192.378906 C 70.121094 191.914062 69.554688 191.4375 69.128906 191.726562 Z M 40.960938 199.007812 C 37.90625 194.800781 32.664062 191.777344 28.25 189.234375 C 26.03125 187.945312 23.59375 186.964844 21.433594 185.5625 C 19.183594 184.144531 17.417969 182.191406 15.070312 180.929688 C 14.75 180.769531 14.375 181.199219 14.671875 181.4375 C 16.464844 182.886719 17.160156 185.109375 18.796875 186.683594 C 20.429688 188.261719 22.671875 189.253906 24.625 190.328125 C 29.917969 193.214844 34.335938 197.558594 39.582031 200.367188 C 32.464844 198.652344 26.070312 195.605469 19.976562 191.449219 C 19.707031 191.257812 19.410156 191.667969 19.628906 191.90625 C 22.570312 195.230469 25.644531 197.925781 29.609375 200.042969 C 32.632812 201.648438 36.398438 203.652344 39.859375 202.640625 C 40.851562 202.34375 40.960938 200.816406 39.910156 200.527344 C 40.640625 200.617188 41.523438 199.792969 40.960938 199.007812 Z M 10.847656 178.527344 C 9.855469 177.566406 8.46875 177.082031 7.980469 175.660156 C 7.476562 174.164062 7.933594 173.121094 8.515625 171.78125 C 9.050781 170.550781 7.683594 169.371094 6.613281 170.3125 C 5.226562 171.542969 4.898438 173.84375 5.59375 175.53125 C 6.476562 177.597656 8.507812 177.972656 10.082031 179.28125 C 10.628906 179.699219 11.351562 179.003906 10.847656 178.527344 Z M 98.371094 190.070312 C 98.5 189.640625 97.914062 189.453125 97.707031 189.769531 C 94.792969 194.167969 89.0625 196.519531 84.039062 196.757812 C 83.503906 196.785156 82.9375 196.785156 82.382812 196.757812 C 82.601562 196.628906 82.835938 196.539062 83.046875 196.410156 C 86.179688 194.453125 87.804688 192.015625 89.65625 188.90625 C 89.847656 188.589844 89.390625 188.214844 89.152344 188.511719 C 86.265625 191.855469 81.71875 193.382812 77.464844 193.949219 C 74.363281 194.34375 71.152344 195.207031 70.773438 198.769531 C 70.695312 199.652344 71.390625 200.40625 72.222656 200.675781 C 72.460938 201.132812 72.808594 201.53125 73.402344 201.746094 C 74.253906 202.015625 75.136719 202.09375 76.046875 202.125 C 76.207031 202.3125 76.394531 202.472656 76.664062 202.609375 C 78 203.257812 79.46875 203.414062 80.914062 203.683594 C 82.171875 203.921875 83.183594 204.078125 84.207031 203.601562 C 84.660156 203.730469 85.136719 203.820312 85.671875 203.871094 C 87.894531 204.089844 90.867188 203.792969 92.761719 202.582031 C 93.511719 202.09375 93.78125 200.945312 93.058594 200.308594 C 92.601562 199.910156 92.175781 199.644531 91.71875 199.476562 C 95.316406 197.429688 97.03125 194.277344 98.371094 190.070312 Z M 54.816406 167.175781 C 38.789062 165.601562 32.644531 152.375 25.386719 140.1875 C 21.371094 133.410156 16.1875 127.417969 8.191406 125.671875 C 6.535156 125.292969 5.8125 127.84375 7.496094 128.242188 C 21.351562 131.585938 24.238281 146.636719 31.949219 156.601562 C 37.113281 163.269531 46.023438 170.601562 54.925781 167.902344 C 55.332031 167.761719 55.222656 167.226562 54.816406 167.175781 Z M 110.117188 117.683594 C 109.820312 117.632812 109.550781 117.761719 109.453125 118.0625 C 109.054688 119.261719 109.90625 120.820312 109.9375 122.109375 C 109.96875 123.6875 109.214844 124.996094 109.132812 126.523438 C 109.105469 127.191406 109.96875 127.707031 110.503906 127.300781 C 112.109375 126.179688 112.457031 123.957031 112.375 122.078125 C 112.277344 120.691406 111.800781 118.011719 110.117188 117.683594 Z M 104.871094 129.09375 C 104.683594 128.449219 103.800781 128.746094 103.910156 129.363281 C 104.179688 131.160156 103.347656 132.5 102.730469 134.105469 C 102.574219 134.5625 103.15625 135.019531 103.5625 134.75 C 105.347656 133.460938 105.457031 131.019531 104.871094 129.09375 Z M 101.871094 147.601562 C 101.332031 147.066406 100.53125 147.867188 101.035156 148.433594 C 103.605469 151.144531 101.570312 154.058594 100.640625 156.917969 C 100.421875 157.53125 101.253906 157.941406 101.679688 157.53125 C 104.308594 154.933594 104.496094 150.25 101.871094 147.601562 Z M 102.703125 162.007812 C 102.304688 161.632812 101.769531 162.007812 101.847656 162.515625 C 101.957031 163.207031 102.066406 163.933594 101.847656 164.628906 C 101.660156 165.214844 101.265625 165.648438 101.046875 166.207031 C 100.859375 166.710938 101.441406 167.328125 101.957031 167.117188 C 103.820312 166.3125 104.167969 163.347656 102.703125 162.007812 Z M 97.378906 79.742188 C 96.496094 79.253906 95.722656 80.574219 96.605469 81.082031 C 97.488281 81.585938 98.132812 82.390625 98.429688 83.382812 C 98.699219 84.296875 98.378906 85.097656 98.460938 86 C 98.507812 86.566406 99.261719 87.042969 99.71875 86.507812 C 101.503906 84.433594 99.410156 80.871094 97.378906 79.742188 Z M 103.046875 89.355469 C 102.730469 88.691406 101.582031 89.136719 101.820312 89.863281 C 102.324219 91.390625 102.246094 92.886719 102.464844 94.464844 C 102.542969 94.953125 103.316406 95.03125 103.535156 94.59375 C 104.335938 92.917969 103.851562 90.964844 103.046875 89.355469 Z M 126.480469 109.121094 C 125.867188 108.269531 124.5 109.042969 125.0625 109.953125 C 126.699219 112.632812 126.261719 115.472656 125.488281 118.339844 C 125.332031 118.984375 126.183594 119.539062 126.640625 119.003906 C 129.15625 116.1875 128.574219 112.007812 126.480469 109.121094 Z M 126.242188 120.175781 C 126.054688 119.371094 124.824219 119.71875 125.015625 120.523438 C 125.332031 121.910156 124.695312 123.09375 123.972656 124.242188 C 123.734375 124.621094 124.191406 124.9375 124.507812 124.777344 C 126.273438 124.003906 126.667969 121.921875 126.242188 120.175781 Z M 44.121094 159.488281 C 42.921875 158.605469 41.820312 157.769531 42.246094 156.085938 C 42.4375 155.390625 41.394531 155.09375 41.175781 155.785156 C 40.613281 157.613281 41.632812 160.5 43.851562 160.46875 C 44.417969 160.449219 44.519531 159.785156 44.121094 159.488281 Z M 51.019531 159.328125 C 50.1875 159.089844 49.382812 158.933594 48.910156 158.148438 C 48.640625 157.722656 48.054688 158.097656 48.246094 158.523438 C 48.730469 159.625 49.800781 160.507812 51.03125 160.082031 C 51.367188 159.945312 51.398438 159.410156 51.019531 159.328125 Z M 34.921875 146.984375 C 34.625 145.992188 33.773438 145.347656 33.476562 144.335938 C 33.128906 143.214844 33.097656 141.894531 33.554688 140.804688 C 33.683594 140.484375 33.160156 140.269531 32.988281 140.566406 C 32.265625 141.824219 31.917969 143.027344 32.214844 144.476562 C 32.433594 145.597656 33.097656 147.3125 34.359375 147.550781 C 34.675781 147.648438 35.023438 147.351562 34.921875 146.984375 Z M 38.558594 149.980469 C 37.976562 148.832031 37.382812 148.058594 37.648438 146.65625 C 37.777344 146.042969 36.894531 145.804688 36.6875 146.390625 C 36.203125 147.859375 36.390625 149.8125 37.835938 150.675781 C 38.292969 150.972656 38.769531 150.4375 38.558594 149.980469 Z M 140.980469 59.101562 C 140.339844 58.753906 139.804688 59.6875 140.398438 60.09375 C 141.734375 60.976562 142.566406 62.632812 142.398438 64.269531 C 142.269531 65.738281 141.300781 66.652344 140.574219 67.832031 C 140.277344 68.320312 140.765625 68.953125 141.328125 68.796875 C 143.28125 68.210938 144.273438 65.929688 144.214844 64.003906 C 144.195312 61.769531 142.855469 60.113281 140.980469 59.101562 Z M 141.0625 71.683594 C 140.636719 71.066406 139.722656 71.605469 140.039062 72.269531 C 141.109375 74.351562 139.960938 75.878906 138.839844 77.566406 C 138.523438 78.074219 139.058594 78.859375 139.675781 78.640625 C 142.371094 77.578125 142.480469 73.765625 141.0625 71.683594 Z M 138.792969 90.296875 C 138.523438 89.632812 137.484375 89.871094 137.671875 90.617188 C 138.15625 92.441406 138.394531 94.496094 137.402344 96.210938 C 136.492188 97.769531 135.132812 98.007812 133.546875 98.433594 C 132.773438 98.652344 132.902344 99.617188 133.546875 99.882812 C 135.453125 100.65625 137.671875 99.109375 138.652344 97.53125 C 140.019531 95.300781 139.722656 92.601562 138.792969 90.296875 Z M 131.058594 94.070312 C 130.953125 93.421875 129.910156 93.582031 129.941406 94.226562 C 130.019531 95.410156 128.363281 94.890625 127.800781 94.890625 C 127.234375 94.890625 126.964844 95.726562 127.5 95.992188 C 129.046875 96.777344 131.347656 96.164062 131.058594 94.070312 Z M 142.101562 40.4375 C 142.132812 40.199219 142.101562 39.953125 142.101562 39.742188 C 142.289062 39.613281 142.449219 39.425781 142.417969 39.15625 C 142.152344 36.558594 141.695312 33.988281 141.238281 31.417969 C 141.210938 31.339844 141.160156 31.289062 141.109375 31.257812 C 141.0625 29.195312 140.921875 27.160156 140.179688 25.207031 C 138.761719 21.484375 135.847656 18.378906 133.566406 15.164062 C 133.171875 14.597656 132.257812 15.136719 132.636719 15.699219 C 134.90625 18.996094 137.5625 23.121094 138.414062 27.082031 C 139.1875 30.671875 138.367188 34.285156 139.03125 37.847656 C 136.890625 36.132812 134.539062 34.664062 131.863281 34.046875 C 129.800781 33.5625 127.660156 33.917969 125.628906 33.292969 C 124.667969 32.996094 123.785156 32.648438 122.902344 32.359375 C 113.992188 25.832031 101.640625 27.222656 93.046875 33.890625 C 91.441406 34.265625 89.894531 34.742188 88.390625 35.445312 C 87.804688 35.714844 88.152344 36.519531 88.6875 36.546875 C 91.679688 36.765625 94.683594 36.171875 97.597656 35.664062 C 100.996094 35.078125 104.496094 35.019531 107.847656 34.324219 C 108.917969 34.105469 108.699219 32.6875 107.847656 32.371094 C 104.792969 31.21875 101.292969 32.242188 98.210938 32.828125 C 97.785156 32.90625 97.328125 32.984375 96.902344 33.066406 C 106.003906 29.3125 114.824219 30.117188 123.488281 35.902344 C 124.320312 36.4375 125.203125 35.714844 125.28125 34.882812 C 126.242188 35.367188 127.265625 35.765625 128.355469 35.953125 C 133.332031 36.785156 136.480469 38.949219 140.210938 42.273438 C 140.238281 42.304688 140.238281 42.304688 140.257812 42.304688 C 140.574219 42.886719 141.488281 43.058594 141.785156 42.414062 C 142.449219 42.015625 142.824219 41.101562 142.101562 40.4375 Z M 128.058594 23.828125 C 127.628906 23.777344 127.601562 24.414062 127.949219 24.550781 C 128.96875 24.871094 129.742188 25.671875 130.328125 26.554688 C 130.8125 27.28125 130.910156 28.085938 131.347656 28.808594 C 131.664062 29.34375 132.496094 29.234375 132.65625 28.648438 C 133.410156 25.890625 130.257812 24.125 128.058594 23.828125 Z M 122.464844 26.296875 C 121.929688 25.710938 121.097656 26.566406 121.585938 27.152344 C 122.167969 27.875 122.335938 28.679688 122.546875 29.5625 C 122.65625 30.019531 123.320312 30.019531 123.457031 29.5625 C 123.835938 28.332031 123.300781 27.230469 122.464844 26.296875 Z M 105.585938 20.640625 C 105.320312 19.144531 103.523438 18.101562 102.167969 17.855469 C 100.609375 17.585938 99.113281 18.152344 97.964844 19.195312 C 97.507812 19.621094 98.09375 20.394531 98.628906 20.046875 C 100.183594 19.003906 102.214844 19.777344 103.367188 21.070312 C 103.761719 21.523438 104.277344 22.21875 104.972656 22 C 105.535156 21.792969 105.695312 21.179688 105.585938 20.640625 Z M 111.046875 18.636719 C 110.273438 18.828125 110.433594 20.027344 111.234375 20.027344 C 112.8125 20.027344 114.070312 21.417969 115.09375 22.4375 C 115.359375 22.707031 115.945312 22.625 116.003906 22.199219 C 116.527344 19.332031 113.457031 18.070312 111.046875 18.636719 Z M 177.203125 122.050781 C 177.332031 121.355469 176.320312 121.058594 176.128906 121.753906 C 174.394531 128.183594 171.027344 134.285156 167.121094 139.75 C 167.417969 138.820312 167.6875 137.875 167.972656 136.992188 C 172.917969 121.484375 175.832031 105.421875 176.179688 89.136719 C 176.179688 88.632812 175.378906 88.492188 175.269531 89.007812 C 173.15625 98.96875 171.125 110.164062 168.390625 121.277344 C 167.636719 120.503906 166.199219 120.523438 165.683594 121.921875 C 160.925781 134.960938 155.542969 148.007812 151.164062 161.125 C 151.054688 161.441406 151.082031 161.738281 151.164062 162.007812 C 150.546875 162.8125 149.984375 163.617188 149.339844 164.359375 C 148.050781 165.886719 149.65625 168.300781 151.558594 167.226562 C 156.664062 164.359375 159.984375 159.191406 162.441406 153.515625 C 170.035156 144.117188 175.089844 133.996094 177.203125 122.050781 Z M 205.660156 56.898438 C 205.5 56.550781 204.996094 56.820312 205.042969 57.136719 C 209.40625 80.625 195.675781 112.246094 182.921875 131.386719 C 181.929688 132.855469 184.121094 134.492188 185.328125 133.261719 C 201.832031 116.402344 216.207031 79.660156 205.660156 56.898438 Z M 184.824219 51.113281 C 183.136719 43.75 180.253906 33.917969 173.75 29.421875 C 173.644531 29.34375 173.515625 29.472656 173.535156 29.582031 C 176.398438 37.558594 181.027344 44.308594 182.839844 52.851562 C 184.902344 62.625 184.746094 72.585938 185.644531 82.488281 C 185.695312 83.074219 186.5 83.074219 186.558594 82.488281 C 187.421875 72.082031 187.152344 61.324219 184.824219 51.113281 Z M 194.023438 79.421875 C 193.726562 78.859375 192.953125 79.265625 193.0625 79.820312 C 193.277344 81 193.40625 82.09375 193.089844 83.273438 C 192.792969 84.34375 192.128906 85.199219 191.703125 86.191406 C 191.515625 86.585938 191.890625 87.023438 192.316406 86.804688 C 194.746094 85.632812 195.171875 81.617188 194.023438 79.421875 Z M 192.980469 90.03125 C 192.851562 89.386719 191.753906 89.523438 191.832031 90.1875 C 192.097656 92.222656 191.058594 93.402344 190.414062 95.171875 C 190.304688 95.4375 190.632812 95.753906 190.898438 95.65625 C 193.03125 94.84375 193.359375 92.003906 192.980469 90.03125 Z M 195.09375 48.523438 C 194.605469 47.027344 193.40625 45.925781 192.039062 45.230469 C 191.535156 44.960938 191.128906 45.6875 191.582031 45.984375 C 192.683594 46.707031 193.238281 47.890625 193.535156 49.140625 C 193.804688 50.320312 193.347656 51.253906 193.347656 52.382812 C 193.320312 53.027344 194.179688 53.375 194.636719 52.921875 C 195.65625 51.820312 195.519531 49.835938 195.09375 48.523438 Z M 197.828125 56.09375 C 197.75 55.261719 196.441406 55.242188 196.519531 56.09375 C 196.679688 57.734375 196.222656 59.09375 196.015625 60.667969 C 195.933594 61.253906 196.597656 61.582031 196.976562 61.066406 C 197.925781 59.738281 197.988281 57.703125 197.828125 56.09375 Z M 180.78125 72.347656 C 180.480469 71.734375 179.390625 72.160156 179.660156 72.835938 C 180.054688 73.828125 180.164062 74.820312 179.878906 75.859375 C 179.640625 76.742188 179.074219 77.417969 178.757812 78.242188 C 178.539062 78.75 179.214844 79.125 179.640625 78.90625 C 181.878906 77.765625 181.75 74.285156 180.78125 72.347656 Z M 182.820312 145.050781 C 182.582031 146.785156 181.890625 148.5625 180.867188 150.03125 C 179.828125 151.558594 178.300781 152.441406 177.09375 153.78125 C 176.585938 154.347656 177.09375 155.171875 177.816406 155.042969 C 181.878906 154.1875 183.832031 148.859375 183.722656 145.21875 C 183.722656 144.652344 182.902344 144.496094 182.820312 145.050781 Z M 172.703125 157.484375 C 172.402344 159.199219 171.285156 159.753906 170.351562 161.046875 C 169.976562 161.550781 170.589844 162.085938 171.074219 162.007812 C 172.917969 161.691406 173.78125 159.300781 173.960938 157.671875 C 174.019531 156.949219 172.808594 156.777344 172.703125 157.484375 Z M 152.320312 175.097656 C 150.476562 176.136719 149.21875 177.636719 148.386719 179.589844 C 147.554688 181.515625 146.671875 184.144531 147.207031 186.257812 C 147.367188 186.902344 148.308594 187.03125 148.59375 186.445312 C 149.449219 184.871094 149.398438 182.914062 149.855469 181.199219 C 150.390625 179.164062 151.300781 177.289062 152.984375 175.980469 C 153.5 175.550781 152.855469 174.808594 152.320312 175.097656 Z M 149.25 188.324219 C 147.453125 189.472656 145.582031 191.992188 146.464844 194.214844 C 146.683594 194.722656 147.394531 194.800781 147.582031 194.214844 C 148.148438 192.371094 148.246094 190.761719 149.960938 189.554688 C 150.714844 189.046875 150.050781 187.816406 149.25 188.324219 Z M 122.980469 220.054688 C 122.398438 219.835938 121.941406 219.894531 121.328125 219.945312 C 119.878906 220.105469 120.175781 219.675781 120.285156 218.179688 C 120.472656 215.5 121.039062 212.773438 122.367188 210.441406 C 122.742188 209.746094 121.753906 209.179688 121.328125 209.824219 C 120.019531 211.75 118.808594 213.734375 118.253906 216.007812 C 117.855469 217.585938 117.320312 219.996094 118.144531 221.492188 C 118.839844 222.753906 120.046875 222.695312 121.296875 222.515625 C 122.289062 222.355469 123.378906 222.59375 123.816406 221.492188 C 124.074219 220.886719 123.535156 220.273438 122.980469 220.054688 Z M 125.707031 229.917969 C 125.203125 229.808594 124.746094 229.789062 124.320312 229.808594 C 124.269531 228.707031 124.539062 227.726562 125.171875 226.753906 C 125.441406 226.355469 124.855469 225.949219 124.527344 226.265625 C 123.191406 227.496094 122.496094 229.023438 122.546875 230.871094 C 122.574219 231.515625 123.128906 231.890625 123.726562 231.78125 L 124.074219 231.8125 C 123.535156 233.660156 123.378906 235.691406 124.121094 237.410156 C 124.519531 238.292969 125.679688 237.726562 125.757812 236.953125 C 125.945312 234.949219 125.757812 233.152344 126.371094 231.136719 C 126.558594 230.660156 126.242188 230.015625 125.707031 229.917969 Z M 111.664062 226.246094 C 111.445312 224.828125 111.554688 223.4375 111.898438 222.039062 C 112.167969 220.96875 110.613281 220.539062 110.246094 221.582031 C 109.414062 223.992188 108.75 228.199219 110.859375 230.15625 C 111.394531 230.640625 112.199219 230.285156 112.246094 229.589844 C 112.335938 228.410156 111.851562 227.367188 111.664062 226.246094 Z M 148.632812 206.210938 C 149.03125 205.785156 148.445312 205.25 148.019531 205.597656 C 146.097656 207.15625 144.144531 209.160156 143.421875 211.621094 C 142.933594 213.308594 142.914062 215.53125 144.867188 216.144531 C 145.265625 216.273438 145.589844 215.878906 145.511719 215.5 C 145.195312 213.894531 144.738281 212.664062 145.355469 211.023438 C 146.039062 209.210938 147.316406 207.613281 148.632812 206.210938 Z M 144.996094 218.695312 C 144.164062 219.894531 143.421875 221.402344 143.660156 222.902344 C 143.738281 223.386719 144.492188 223.46875 144.699219 223.03125 C 145.285156 221.832031 145.53125 220.570312 146.304688 219.441406 C 146.890625 218.664062 145.550781 217.890625 144.996094 218.695312 Z M 143.015625 264.347656 C 140.714844 266.621094 138.414062 270.878906 139.503906 274.230469 C 139.773438 275.066406 140.8125 274.816406 140.921875 274.042969 C 141.109375 272.515625 140.921875 271.046875 141.378906 269.519531 C 141.863281 267.882812 142.71875 266.460938 143.867188 265.230469 C 144.433594 264.644531 143.578125 263.78125 143.015625 264.347656 Z M 142.855469 277.734375 C 141.300781 278.726562 139.753906 280.710938 140.417969 282.636719 C 140.605469 283.203125 141.328125 283.171875 141.539062 282.636719 C 142.101562 281.21875 142.203125 279.90625 143.519531 278.886719 C 144.164062 278.378906 143.578125 277.257812 142.855469 277.734375 Z M 112.890625 263.890625 C 111.472656 265.183594 110.59375 266.890625 110.355469 268.792969 C 110.164062 270.402344 110.246094 272.84375 111.800781 273.746094 C 112.226562 273.984375 112.921875 273.773438 113 273.257812 C 113.238281 271.949219 112.542969 270.640625 112.605469 269.269531 C 112.652344 267.664062 113.21875 266.164062 114.128906 264.824219 C 114.636719 264.082031 113.535156 263.328125 112.890625 263.890625 Z M 114.605469 274.765625 C 113.378906 275.730469 112.464844 277.824219 113.484375 279.242188 C 113.972656 279.90625 114.984375 279.828125 115.25 279.003906 C 115.628906 277.882812 115.410156 276.59375 115.757812 275.414062 C 115.992188 274.707031 115.113281 274.359375 114.605469 274.765625 Z M 113.585938 296.050781 C 112.21875 296.964844 111.472656 298.351562 111.445312 299.992188 C 111.414062 301.28125 112.027344 303.3125 113.613281 303.285156 C 113.933594 303.285156 114.179688 303.015625 114.179688 302.71875 C 114.210938 301.867188 113.59375 301.0625 113.484375 300.199219 C 113.355469 299.097656 113.785156 298.054688 114.605469 297.332031 C 115.300781 296.726562 114.367188 295.515625 113.585938 296.050781 Z M 115.707031 302.480469 C 114.714844 303.632812 113.972656 306.230469 115.835938 306.957031 C 116.101562 307.066406 116.449219 306.847656 116.5 306.578125 C 116.71875 305.398438 116.101562 304.542969 116.925781 303.421875 C 117.472656 302.71875 116.292969 301.816406 115.707031 302.480469 Z M 137.988281 305.855469 C 135.769531 307.273438 133.6875 309.199219 132.476562 311.589844 C 131.675781 313.148438 131.21875 315.5 133.308594 316.195312 C 133.765625 316.324219 134.082031 315.894531 134.003906 315.5 C 133.359375 311.988281 136.175781 309.179688 138.839844 307.332031 C 139.695312 306.6875 138.890625 305.269531 137.988281 305.855469 Z M 135.769531 316.164062 C 134.320312 316.886719 132.933594 318.355469 133.308594 320.074219 C 133.417969 320.578125 134.082031 320.578125 134.332031 320.203125 C 135.054688 319.160156 135.371094 318.167969 136.550781 317.523438 C 137.472656 317.078125 136.671875 315.738281 135.769531 316.164062 Z M 219.011719 203.671875 C 218.695312 202.789062 217.296875 203.136719 217.5625 204.070312 C 218.179688 206.152344 218.824219 208.355469 218.285156 210.519531 C 217.75 212.691406 216.285156 213.199219 214.679688 214.347656 C 214.300781 214.617188 214.222656 215.203125 214.679688 215.449219 C 216.871094 216.601562 219.039062 214.429688 219.921875 212.5625 C 221.261719 209.664062 220.082031 206.480469 219.011719 203.671875 Z M 213.390625 219.546875 C 213.230469 218.714844 211.863281 218.902344 211.921875 219.738281 C 212.003906 220.859375 211.792969 221.960938 211.171875 222.921875 C 210.585938 223.855469 209.703125 224.339844 209.027344 225.175781 C 208.632812 225.679688 208.8125 226.734375 209.644531 226.644531 C 212.746094 226.246094 213.875 222.148438 213.390625 219.546875 Z M 240.996094 172.070312 C 240.617188 173.140625 239.925781 174.105469 239.09375 174.90625 C 238.449219 175.523438 237.726562 175.980469 237.1875 176.703125 C 236.972656 177.019531 237.269531 177.554688 237.644531 177.507812 C 240.054688 177.191406 241.28125 174.402344 241.867188 172.308594 C 242.066406 171.722656 241.183594 171.515625 240.996094 172.070312 Z M 252.898438 193.492188 C 252.554688 192.578125 251.164062 192.925781 251.433594 193.890625 C 252.363281 197.261719 248.648438 198.285156 247.070312 200.398438 C 246.617188 200.984375 247.371094 201.628906 247.925781 201.519531 C 249.558594 201.222656 251.324219 199.644531 252.226562 198.273438 C 253.167969 196.894531 253.484375 195.097656 252.898438 193.492188 Z M 230.589844 205.894531 C 230.507812 205.140625 229.46875 204.902344 229.199219 205.707031 C 226.496094 214.757812 226.472656 224.878906 221.171875 232.964844 C 220.023438 234.730469 222.617188 236.683594 224.054688 235.214844 C 227.238281 231.921875 228.199219 227.367188 229.140625 223 C 230.410156 217.355469 231.3125 211.648438 230.589844 205.894531 Z M 238.753906 206.449219 C 237.574219 209.964844 236.40625 213.496094 235.089844 216.949219 C 234.769531 217.078125 234.503906 217.324219 234.285156 217.753906 C 229.339844 228.675781 222.808594 239.742188 213.957031 247.957031 C 212.886719 248.949219 213.449219 250.367188 214.519531 250.902344 C 212.171875 255.507812 210.238281 260.222656 208.285156 264.964844 C 207.53125 266.332031 206.789062 267.691406 206.09375 269.113281 C 202.109375 277.246094 198.632812 285.125 193.496094 292.648438 C 193.527344 292.648438 193.546875 292.675781 193.574219 292.675781 C 193.308594 293.183594 193.277344 293.699219 193.417969 294.144531 C 191.117188 297.835938 189.085938 301.746094 187.828125 305.84375 C 186.914062 304.992188 185.210938 304.851562 184.507812 306.191406 C 182.664062 309.753906 180.820312 313.285156 179.214844 316.929688 C 178.441406 316.898438 177.65625 317.277344 177.152344 318.078125 C 170.035156 329.589844 193.148438 343.519531 202.914062 340.007812 C 204.628906 339.394531 205.621094 337.0625 204.0625 335.703125 C 203.578125 335.273438 203.132812 334.847656 202.644531 334.410156 C 203.714844 334.113281 204.488281 332.941406 203.875 331.542969 C 201.890625 327.019531 198.929688 324.828125 197.085938 321.183594 C 195.371094 312.699219 198.125 303.703125 200.863281 294.832031 C 200.890625 294.800781 200.910156 294.78125 200.941406 294.722656 C 200.992188 294.5625 201.019531 294.402344 201.050781 294.234375 C 201.316406 293.324219 201.585938 292.4375 201.882812 291.554688 C 202.277344 290.863281 202.765625 290.214844 203.410156 289.730469 C 204.164062 289.164062 205.125 289.007812 205.847656 288.46875 C 206.066406 288.3125 206.382812 288.042969 206.222656 287.714844 C 205.640625 286.484375 203.816406 287.179688 202.507812 288.015625 C 205.421875 283.351562 207.402344 278.023438 209.671875 273.019531 C 213.46875 264.585938 217.355469 255.992188 221.894531 247.925781 C 226.386719 244.253906 229.816406 238.28125 232.324219 233.789062 C 236.953125 225.5625 240.210938 216.054688 240.132812 206.550781 C 240.113281 205.835938 238.992188 205.738281 238.753906 206.449219 Z M 207.640625 296.320312 C 207.878906 296.050781 207.511719 295.675781 207.246094 295.921875 C 205.511719 297.53125 202.753906 301.628906 204.945312 303.878906 C 205.242188 304.199219 205.71875 304.007812 205.855469 303.640625 C 206.203125 302.621094 205.886719 301.46875 205.984375 300.398438 C 206.085938 298.808594 206.570312 297.5 207.640625 296.320312 Z M 213.5 268.984375 C 212.050781 269.785156 209.21875 273.269531 211.578125 274.609375 C 211.894531 274.796875 212.222656 274.660156 212.410156 274.390625 C 212.863281 273.773438 212.675781 273.050781 212.757812 272.304688 C 212.886719 271.265625 213.320312 270.460938 214.125 269.785156 C 214.601562 269.410156 214.003906 268.714844 213.5 268.984375 Z M 211.25 298.066406 C 211.300781 297.6875 210.851562 297.558594 210.683594 297.90625 C 210.148438 299.246094 209.347656 300.695312 210.019531 302.085938 C 210.316406 302.667969 211.21875 302.511719 211.386719 301.894531 C 211.734375 300.636719 211.0625 299.40625 211.25 298.066406 Z M 206.175781 316.273438 C 205.214844 314.984375 203.765625 313.625 204.539062 311.859375 C 204.855469 311.105469 203.953125 310.566406 203.46875 311.210938 C 202.019531 313.167969 202.507812 317.394531 205.578125 317.316406 C 206.066406 317.316406 206.519531 316.730469 206.175781 316.273438 Z M 230.003906 272.59375 C 228.445312 272.863281 227.117188 273.933594 226.414062 275.351562 C 225.832031 276.582031 225.394531 278.726562 226.574219 279.75 C 227.078125 280.203125 228.019531 280.066406 228.179688 279.320312 C 228.417969 278.300781 227.992188 277.398438 228.398438 276.34375 C 228.824219 275.273438 229.546875 274.519531 230.589844 274.074219 C 231.5 273.695312 230.835938 272.464844 230.003906 272.59375 Z M 241.453125 249.027344 C 234.066406 254.574219 227.890625 259.824219 223.878906 268.359375 C 219.921875 276.761719 217 285.980469 216.097656 295.238281 C 215.988281 296.230469 217.085938 296.65625 217.859375 296.359375 C 217.890625 296.578125 217.890625 296.785156 217.941406 297.003906 C 218.285156 298.472656 220.378906 298.074219 220.457031 296.65625 C 220.617188 293.519531 220.882812 290.921875 222.648438 288.191406 C 223.402344 287.042969 224.730469 285.382812 223.3125 284.175781 C 222.699219 283.636719 221.707031 284.304688 222.132812 285.085938 C 222.183594 285.195312 221.199219 286.128906 220.6875 286.613281 C 222.152344 280.878906 223.867188 275.285156 226.324219 269.777344 C 229.933594 261.796875 235.710938 255.714844 242.136719 249.929688 C 242.679688 249.515625 242.015625 248.601562 241.453125 249.027344 Z M 264.378906 245.605469 C 257.558594 254.605469 249.023438 261.324219 240.945312 269.089844 C 235.246094 274.558594 228.082031 281.671875 227.089844 289.871094 C 226.980469 290.832031 228.316406 290.972656 228.746094 290.324219 C 231.816406 285.722656 233.800781 281.039062 237.488281 276.722656 C 240.640625 273.03125 244.226562 269.738281 247.753906 266.441406 C 254.308594 260.308594 261.046875 254.207031 264.875 245.902344 C 265.023438 245.554688 264.585938 245.308594 264.378906 245.605469 Z M 267.640625 266.917969 C 262.691406 269.648438 258.332031 272.921875 253.039062 275.054688 C 250.5 276.097656 247.636719 276.632812 244.882812 277.308594 C 245.574219 276.742188 246.296875 276.1875 247.050781 275.671875 C 250.847656 273.148438 255.050781 271.304688 258.796875 268.734375 C 259.113281 268.496094 258.925781 267.980469 258.53125 268.070312 C 250.769531 269.867188 239.082031 275.382812 235.394531 282.902344 C 235 283.738281 235.902344 285.015625 236.8125 284.324219 C 238.179688 283.28125 239.429688 282.128906 240.6875 280.980469 C 245.179688 281.324219 250.234375 279.101562 254.140625 277.335938 C 259.222656 275.066406 264.597656 271.769531 267.917969 267.214844 C 268.046875 267.027344 267.796875 266.808594 267.640625 266.917969 Z M 273.6875 222.8125 C 273.121094 222.089844 272.1875 222.921875 272.316406 223.617188 C 272.507812 224.796875 272.476562 225.949219 271.703125 226.960938 C 271.039062 227.84375 270.097656 228.300781 269.265625 228.996094 C 268.996094 229.214844 269.105469 229.660156 269.375 229.828125 C 271.03125 230.742188 272.902344 229.34375 273.734375 227.953125 C 274.675781 226.375 274.867188 224.320312 273.6875 222.8125 Z M 267.589844 231.199219 C 267.511719 230.472656 266.519531 230.445312 266.441406 231.199219 C 266.359375 232.109375 265.796875 233.042969 265.242188 233.71875 C 264.753906 234.304688 264.089844 234.632812 263.605469 235.214844 C 263.179688 235.753906 263.386719 236.746094 264.21875 236.683594 C 266.808594 236.496094 267.796875 233.371094 267.589844 231.199219 Z M 307.226562 213.65625 C 306.910156 213.226562 306.027344 213.464844 306.265625 214.050781 C 306.910156 215.660156 306.425781 217.296875 305.335938 218.578125 C 304.484375 219.539062 303.351562 220.214844 302.660156 221.304688 C 302.34375 221.8125 302.878906 222.484375 303.433594 222.328125 C 306.664062 221.316406 309.480469 216.710938 307.226562 213.65625 Z M 298.484375 227.605469 C 298.21875 228.726562 297.734375 229.75 296.988281 230.660156 C 296.324219 231.4375 295.414062 231.972656 294.769531 232.746094 C 294.285156 233.3125 294.769531 234.035156 295.460938 233.925781 C 298 233.578125 299.714844 230.335938 300.199219 228.09375 C 300.410156 226.96875 298.753906 226.484375 298.484375 227.605469 Z M 277.808594 248.582031 C 277.570312 249.8125 277.054688 250.882812 276.152344 251.738281 C 275.378906 252.492188 274.28125 252.859375 273.585938 253.664062 C 273.320312 253.980469 273.367188 254.59375 273.855469 254.683594 C 276.878906 255.328125 278.9375 251.152344 279.207031 248.742188 C 279.304688 247.957031 277.9375 247.777344 277.808594 248.582031 Z M 292.707031 266.808594 C 292.519531 265.976562 291.339844 266.351562 291.449219 267.15625 C 291.765625 269.351562 290.882812 271.632812 289.039062 272.941406 C 287.355469 274.140625 285.71875 273.773438 283.847656 274.171875 C 283.042969 274.332031 282.992188 275.433594 283.628906 275.828125 C 285.796875 277.199219 289.1875 275.71875 290.824219 274.09375 C 292.757812 272.167969 293.292969 269.378906 292.707031 266.808594 Z M 281.714844 272.671875 C 281.367188 272.109375 280.613281 272.515625 280.722656 273.101562 C 281.179688 276.019531 277.273438 275.78125 275.699219 276.820312 C 275.351562 277.058594 275.210938 277.734375 275.699219 277.941406 C 278.710938 279.242188 283.796875 276.125 281.714844 272.671875 Z M 229.308594 299.234375 C 227.226562 299.851562 224.867188 300.359375 223.3125 302.042969 C 221.84375 303.621094 222.082031 304.910156 221.867188 306.808594 C 221.628906 308.890625 219.347656 310.230469 218.714844 312.433594 C 218.207031 314.167969 218.207031 316.023438 219.644531 317.253906 C 220.179688 317.710938 221.140625 317.445312 221.113281 316.640625 C 221.03125 314.527344 220.84375 312.96875 222.132812 311.152344 C 222.746094 310.269531 223.925781 309.496094 224.273438 308.445312 C 224.511719 307.71875 224.195312 307.371094 224.195312 306.617188 C 224.117188 303.164062 226.839844 301.609375 229.65625 300.515625 C 230.429688 300.230469 230.140625 299 229.308594 299.234375 Z M 213.074219 322.671875 C 211.121094 324.28125 209.8125 326.769531 209.484375 329.261719 C 209.265625 330.839844 209.882812 333.222656 211.941406 332.714844 C 212.714844 332.527344 212.90625 331.535156 212.398438 331 C 210.636719 329.09375 213.171875 325.324219 214.382812 323.683594 C 214.996094 322.863281 213.738281 322.136719 213.074219 322.671875 Z M 212.726562 338.171875 C 213.042969 337.773438 212.777344 336.972656 212.140625 337.179688 C 209.792969 338.035156 209.148438 342.113281 211.714844 343.09375 C 212.300781 343.332031 213.054688 342.609375 212.816406 341.992188 C 212.242188 340.582031 211.625 339.570312 212.726562 338.171875 Z M 353.714844 278.726562 C 353.6875 278.617188 353.527344 278.597656 353.476562 278.695312 C 352.277344 280.460938 353.160156 282.765625 352.644531 284.71875 C 352.25 286.1875 351.417969 286.484375 350.15625 287.050781 C 349.382812 287.398438 348.871094 287.667969 348.441406 288.421875 C 348.175781 288.925781 348.632812 289.679688 349.246094 289.460938 C 351.25 288.769531 353.308594 288.421875 354.140625 286.21875 C 355.003906 284.003906 354.390625 280.898438 353.714844 278.726562 Z M 347.113281 289.460938 C 346.6875 290.535156 346.042969 291.46875 345.210938 292.300781 C 344.519531 292.964844 343.683594 293.453125 343.019531 294.144531 C 342.753906 294.414062 342.914062 295.058594 343.367188 295 C 345.855469 294.683594 347.511719 292.003906 348.15625 289.78125 C 348.375 289.066406 347.382812 288.828125 347.113281 289.460938 Z M 358.058594 305.210938 C 357.761719 304.246094 356.453125 304.671875 356.589844 305.605469 C 357.046875 308.851562 355.253906 311.339844 353.191406 313.5625 C 352.734375 314.070312 353.160156 314.984375 353.886719 314.765625 C 357.761719 313.5625 359.128906 308.800781 358.058594 305.210938 Z M 348.828125 311.292969 C 348.265625 312.980469 346.984375 313.863281 345.589844 314.855469 C 345.242188 315.09375 345.320312 315.707031 345.804688 315.6875 C 347.996094 315.578125 349.523438 313.652344 350.136719 311.667969 C 350.40625 310.804688 349.097656 310.457031 348.828125 311.292969 Z M 218.15625 76.316406 C 217.464844 75.703125 216.441406 76.695312 217.136719 77.339844 C 218.316406 78.460938 218.773438 79.957031 218.632812 81.597656 C 218.503906 83.203125 217.535156 84.117188 216.789062 85.457031 C 216.492188 85.992188 216.980469 86.746094 217.621094 86.527344 C 219.496094 85.914062 220.328125 83.640625 220.457031 81.8125 C 220.585938 79.722656 219.734375 77.675781 218.15625 76.316406 Z M 216.820312 88.503906 C 216.769531 87.964844 215.9375 87.9375 215.96875 88.503906 C 216.015625 89.523438 215.886719 90.507812 215.542969 91.449219 C 215.222656 92.28125 214.609375 92.949219 214.3125 93.78125 C 214.183594 94.15625 214.660156 94.503906 214.976562 94.285156 C 216.679688 93.15625 217.027344 90.378906 216.820312 88.503906 Z M 228.128906 87.808594 C 227.644531 86.925781 226.367188 87.699219 226.792969 88.582031 C 227.296875 89.625 227.515625 90.753906 227.40625 91.925781 C 227.296875 92.949219 226.839844 93.800781 226.652344 94.792969 C 226.523438 95.457031 227.265625 95.894531 227.773438 95.4375 C 229.84375 93.640625 229.28125 89.941406 228.128906 87.808594 Z M 228.128906 87.808594 " fill-opacity="1" fill-rule="nonzero"/><path fill="#000000" d="M 80.179688 186.316406 C 85.453125 178.5 77 165.320312 76.464844 156.351562 C 75.929688 147.679688 78.121094 140.367188 81.519531 132.519531 C 81.628906 132.25 82.054688 132.4375 81.976562 132.707031 C 77.1875 146.628906 79.539062 159.835938 84.324219 173.25 C 86.199219 178.527344 87.617188 185.324219 81.171875 187.578125 C 80.449219 187.816406 79.773438 186.933594 80.179688 186.316406 Z M 143.867188 176.195312 C 136.246094 188.382812 125.757812 206.132812 111.363281 210.5 C 109.710938 211.003906 108.75 208.59375 110.214844 207.769531 C 125.617188 198.960938 136.027344 182.863281 144.777344 167.792969 C 151.570312 156.09375 157.078125 143.722656 161.421875 130.921875 C 157.625 131.03125 153.769531 130.335938 150.050781 129.769531 C 145.453125 129.074219 140.683594 128.667969 136.164062 127.625 C 134.828125 134.832031 132.496094 141.84375 129.34375 146.957031 C 128.917969 147.648438 127.550781 147.441406 127.660156 146.5 C 128.085938 143.285156 128.949219 140.148438 129.832031 137.023438 C 129.265625 137.589844 128.679688 138.144531 128.117188 138.660156 C 123.4375 142.996094 117.976562 146.964844 114.398438 152.3125 C 114.238281 152.550781 113.890625 152.34375 114.019531 152.09375 C 116.054688 147.539062 118.511719 143.851562 121.910156 140.226562 C 125.597656 136.289062 129.1875 133.292969 131.378906 128.230469 C 131.535156 127.855469 131.914062 127.726562 132.289062 127.726562 C 133.65625 121.246094 134.054688 114.578125 135.550781 108.148438 C 133.4375 107.878906 131.328125 107.34375 129.375 106.621094 C 122.101562 103.890625 117.769531 98.535156 113.804688 92.105469 C 107.648438 82.011719 100.621094 72.746094 92.105469 64.519531 C 91.808594 64.222656 92.214844 63.667969 92.5625 63.933594 C 102.542969 71.375 109.976562 80 116.667969 90.445312 C 121 97.195312 128.066406 105.332031 137.15625 104.773438 C 149.296875 104.019531 147.5625 87.210938 148.871094 79.253906 C 149.941406 72.636719 153.34375 66.832031 154.621094 60.429688 C 155.960938 53.792969 149.726562 49.398438 143.757812 46.210938 C 143.441406 46.164062 143.144531 45.992188 142.90625 45.757812 C 140.953125 44.734375 139.078125 43.851562 137.554688 43.078125 C 123.566406 35.792969 106.4375 32.609375 94.089844 44.8125 C 92.699219 46.183594 90.796875 44.167969 92.007812 42.730469 C 96.179688 37.621094 101.53125 34.800781 107.332031 33.621094 C 100.667969 32.738281 93.898438 33.164062 88.289062 36.675781 C 87.804688 36.972656 87.40625 36.25 87.863281 35.921875 C 96.664062 29.523438 110.492188 28.105469 120.394531 33.433594 C 125.636719 34.207031 130.824219 35.875 135.480469 38.007812 C 137.78125 39.078125 140 40.257812 142.191406 41.519531 C 141.875 36.726562 141.605469 31.984375 140.316406 27.300781 C 139.140625 23.042969 136.996094 19.878906 134.757812 16.453125 C 134.707031 16.484375 134.648438 16.535156 134.570312 16.535156 C 127.074219 16.613281 120.128906 14.390625 112.792969 13.210938 C 103.457031 11.683594 94.464844 12.972656 85.375 15.246094 C 69.4375 19.261719 53.894531 26.140625 41.453125 37.0625 C 29.769531 47.324219 20.855469 61.214844 18.070312 76.664062 C 17.753906 78.511719 17.507812 80.355469 17.300781 82.230469 C 21.015625 82.308594 23.820312 84.640625 26.496094 87.558594 C 32.167969 93.800781 38.796875 98.941406 47.628906 99.179688 C 47.789062 99.179688 47.789062 99.417969 47.628906 99.417969 C 42.496094 99.367188 37.707031 98.929688 33.109375 96.441406 C 27.328125 93.335938 23.664062 86.082031 17.0625 85.027344 C 16.574219 90.703125 16.496094 96.441406 16.335938 102.164062 C 21.53125 103.960938 26.179688 106.957031 31.375 108.804688 C 37.261719 110.886719 48.570312 114.160156 54.699219 111.691406 C 54.855469 111.613281 54.933594 111.878906 54.777344 111.957031 C 43.058594 116.800781 26.855469 111.691406 16.226562 105.074219 C 16.039062 110.164062 15.664062 115.273438 14.78125 120.332031 C 15.367188 120.253906 15.960938 120.203125 16.574219 120.222656 C 21.769531 120.382812 28.074219 124.558594 31.898438 127.777344 C 31.898438 127.777344 31.898438 127.777344 31.929688 127.777344 C 36.339844 128.339844 39.976562 131.070312 44.667969 130.078125 C 49.296875 129.085938 51.246094 125.046875 54.003906 121.722656 C 54.222656 121.453125 54.617188 121.753906 54.570312 122.039062 C 53.496094 126.675781 50.820312 131.226562 46.171875 132.886719 C 43.289062 133.90625 39.671875 133.796875 36.488281 132.777344 C 37.957031 134.839844 39.292969 137.03125 40.851562 139.207031 C 47.054688 147.777344 56.3125 150.082031 65.621094 153.773438 C 65.859375 153.882812 65.859375 154.277344 65.570312 154.257812 C 56.125 153.425781 46.261719 150.210938 39.867188 142.847656 C 34.359375 136.496094 31.523438 130.472656 23.683594 126.277344 C 17.792969 123.121094 16.089844 124.195312 10.578125 125.929688 C 9.476562 126.277344 9.003906 126.546875 8.707031 126.734375 C 8.386719 127.050781 8.011719 127.378906 7.714844 127.695312 C 16.40625 128.796875 19.351562 134.898438 24.027344 142.53125 C 31.917969 155.359375 42.890625 172.703125 60.734375 166.980469 C 60.84375 166.949219 60.921875 167.109375 60.8125 167.199219 C 52.546875 171.773438 43.664062 169.957031 36.417969 164.199219 C 28.636719 158.039062 23.683594 144.574219 16.21875 136.695312 C 17.179688 140.476562 16.703125 144.40625 14.046875 145.824219 C 14.019531 145.855469 14.046875 145.875 14.019531 145.902344 C 13.988281 145.953125 13.96875 146.011719 13.9375 146.03125 C 13.75 147.75 12.976562 149.4375 13.273438 151.3125 C 13.730469 154.257812 15.8125 156.90625 18.863281 157.445312 C 19.132812 157.492188 19.132812 157.839844 18.945312 157.980469 C 15.734375 160.09375 12.390625 156.957031 11.085938 154.039062 C 11.035156 153.929688 11.003906 153.800781 10.976562 153.691406 C 10.011719 158.457031 10.65625 163.335938 13.246094 168.179688 C 13.355469 168.367188 13.117188 168.527344 12.949219 168.398438 C 10.699219 166.363281 9.171875 163.734375 8.320312 160.898438 C 8.019531 162.742188 7.8125 164.585938 8.050781 166.175781 C 8.984375 172.148438 12.679688 172.683594 16.902344 175.117188 C 22.304688 178.222656 27.25 181.941406 31.769531 186.230469 C 37.171875 191.339844 41.929688 197.957031 48.699219 201.359375 C 57.503906 205.757812 66.058594 202.324219 72.101562 195.257812 C 73.144531 194.027344 75.078125 195.605469 74.273438 196.945312 C 73.898438 197.558594 73.472656 198.144531 73.042969 198.742188 C 90.488281 210.976562 102.148438 193.976562 106.824219 178.925781 C 110.355469 167.574219 115.03125 158.703125 123.089844 149.902344 C 123.328125 149.632812 123.785156 149.980469 123.597656 150.28125 C 117.628906 159.328125 113.40625 167.980469 110.492188 178.449219 C 109.34375 182.578125 108.035156 186.773438 106.242188 190.714844 C 106.539062 190.683594 106.804688 190.632812 107.121094 190.632812 C 110.917969 190.632812 114.019531 193.710938 114.019531 197.539062 C 114.019531 201.339844 110.949219 204.425781 107.121094 204.425781 C 103.992188 204.425781 101.394531 202.3125 100.539062 199.476562 C 98.460938 201.589844 96.050781 203.226562 93.503906 204.347656 C 95.484375 205.339844 97.359375 206.429688 99.234375 207.769531 C 100.304688 208.542969 101.375 209.296875 102.445312 210.074219 C 103.484375 210.828125 104.933594 212.324219 106.160156 212.671875 C 108.351562 213.289062 107.449219 216.691406 105.230469 216.09375 C 102.878906 215.480469 100.492188 212.832031 98.597656 211.351562 C 96.0625 209.367188 93.761719 207.441406 91.621094 205.0625 C 84.929688 207.285156 77.367188 206.210938 71.023438 201.6875 C 70.894531 201.609375 70.835938 201.5 70.726562 201.390625 C 66.898438 204.953125 61.734375 206.9375 56.304688 206.769531 C 51.8125 206.640625 47.878906 204.941406 44.347656 202.542969 C 44.191406 202.859375 43.894531 203.15625 43.4375 203.34375 C 30.621094 207.898438 17.914062 199.8125 9.734375 190.417969 C 6.792969 187.042969 1.152344 181.664062 0.667969 177.03125 C 0.347656 174.082031 5.214844 170.175781 5.503906 168.644531 C 5.125 165.300781 6.386719 161.472656 7.753906 158.257812 C 7.167969 153.949219 8.070312 149.398438 10.667969 145.753906 C 6.175781 145.4375 2.617188 138.472656 2.164062 134.78125 C 1.675781 130.949219 2.996094 127.875 5.265625 125.574219 C 5.316406 125.523438 5.34375 125.414062 5.425781 125.355469 C 5.453125 125.324219 5.472656 125.304688 5.535156 125.304688 C 6.632812 124.261719 7.914062 123.398438 9.359375 122.707031 C 10.023438 122.277344 10.726562 121.902344 11.421875 121.554688 C 11.261719 121.238281 11.183594 120.890625 11.234375 120.453125 C 13.957031 103.046875 11.203125 84.433594 16.664062 67.59375 C 21.265625 53.347656 30.679688 40.875 42.347656 31.65625 C 55.054688 21.644531 70.269531 15.183594 85.949219 11.464844 C 93.917969 9.558594 102.058594 8.4375 110.234375 9.558594 C 118.09375 10.628906 125.726562 13.070312 133.558594 14.460938 C 133.398438 14.222656 133.242188 13.972656 133.074219 13.734375 C 132.644531 13.042969 133.46875 12.398438 134.113281 12.695312 C 144.363281 17.515625 145.699219 33.394531 145.71875 43.542969 C 146.980469 44.296875 148.257812 45.042969 149.515625 45.796875 C 152.132812 47.402344 157.753906 49.46875 159.359375 52.324219 C 160.699219 54.734375 159.925781 56.453125 159.230469 58.773438 C 157.8125 63.378906 155.75 67.664062 154.285156 72.238281 C 155.117188 71.863281 156.050781 71.652344 157.039062 71.652344 C 160.835938 71.652344 163.9375 74.730469 163.9375 78.558594 C 163.9375 82.359375 160.867188 85.445312 157.039062 85.445312 C 155.195312 85.445312 153.511719 84.691406 152.253906 83.492188 C 151.855469 88.046875 151.5 92.949219 150.328125 97.253906 C 151.210938 96.855469 152.171875 96.609375 153.195312 96.609375 C 156.992188 96.609375 160.09375 99.683594 160.09375 103.515625 C 160.09375 107.316406 157.019531 110.402344 153.195312 110.402344 C 149.855469 110.402344 147.070312 107.988281 146.453125 104.835938 C 143.964844 107.515625 140.625 108.398438 137.144531 108.238281 C 137.382812 110.222656 137.464844 112.386719 137.445312 114.589844 C 142.925781 115.582031 148.386719 116.671875 153.820312 118.011719 C 157.425781 118.925781 161.234375 119.699219 164.464844 121.574219 C 173.800781 89.117188 174.464844 55.945312 169.25 22.707031 C 169.144531 21.953125 170.214844 21.605469 170.429688 22.386719 C 179.5 56.691406 176.902344 94.148438 166.289062 127.816406 C 162.222656 140.722656 156.871094 153.226562 150.398438 165.09375 C 157.011719 157.96875 163.3125 150.824219 168.480469 142.09375 C 175.488281 130.226562 181.53125 116.632812 184.148438 103.046875 C 184.179688 102.859375 184.445312 102.941406 184.417969 103.128906 C 179.550781 130.195312 167.675781 160.023438 143.867188 176.195312 Z M 103.820312 197.570312 C 103.820312 199.414062 105.320312 200.914062 107.164062 200.914062 C 109.007812 200.914062 110.503906 199.414062 110.503906 197.570312 C 110.503906 195.726562 109.007812 194.226562 107.164062 194.226562 C 105.320312 194.226562 103.820312 195.714844 103.820312 197.570312 Z M 7.257812 172.902344 C 6.691406 172.238281 6.328125 171.453125 6.027344 170.679688 C 5.632812 171.105469 5.175781 171.535156 5.097656 171.753906 C 2.5 178.203125 3.949219 178.6875 7.535156 183.082031 C 15.585938 192.996094 24.921875 200.945312 37.441406 200.945312 C 34.953125 199.257812 32.8125 196.609375 30.589844 195.03125 C 26.496094 192.144531 22.085938 189.921875 19.035156 185.820312 C 18.875 185.582031 19.222656 185.367188 19.410156 185.523438 C 23.15625 188.867188 27.726562 190.1875 31.957031 192.679688 C 34.683594 194.285156 36.777344 196.90625 39.394531 198.511719 C 38.003906 197.222656 36.636719 195.941406 35.347656 194.601562 C 30.265625 189.382812 25.269531 184.484375 19.191406 180.355469 C 15.574219 177.914062 10.152344 176.304688 7.257812 172.902344 Z M 5.839844 130.832031 C 5.445312 132.011719 5.335938 133.351562 5.683594 135.039062 C 6.21875 137.421875 7.476562 139.515625 9.347656 141.042969 C 9.804688 141.417969 10.28125 141.6875 10.738281 141.953125 C 10.707031 141.824219 10.6875 141.65625 10.6875 141.527344 C 10.609375 139.890625 11.191406 138.371094 12.53125 137.378906 C 12.75 137.222656 13.015625 137.269531 13.226562 137.410156 C 13.175781 137.09375 13.117188 136.765625 13.035156 136.449219 C 12.609375 134.789062 11.808594 133.449219 10.738281 132.378906 C 9.242188 131.617188 7.605469 131.078125 5.839844 130.832031 Z M 153.691406 78.570312 C 153.691406 80.414062 155.1875 81.914062 157.03125 81.914062 C 158.875 81.914062 160.371094 80.414062 160.371094 78.570312 C 160.371094 76.722656 158.875 75.226562 157.03125 75.226562 C 155.1875 75.246094 153.691406 76.714844 153.691406 78.570312 Z M 149.863281 103.523438 C 149.863281 105.371094 151.359375 106.867188 153.203125 106.867188 C 155.046875 106.867188 156.542969 105.371094 156.542969 103.523438 C 156.542969 101.679688 155.046875 100.179688 153.203125 100.179688 C 151.359375 100.179688 149.863281 101.679688 149.863281 103.523438 Z M 161.957031 129.285156 C 162.621094 127.21875 163.375 125.1875 163.988281 123.101562 C 159.925781 123.050781 155.832031 121.605469 151.925781 120.691406 C 147.109375 119.589844 142.242188 118.65625 137.375 117.804688 C 137.265625 120.054688 136.996094 122.328125 136.679688 124.628906 C 140.773438 124.679688 144.886719 125.652344 148.851562 126.457031 C 153.175781 127.359375 157.722656 128.023438 161.957031 129.285156 Z M 136.699219 141.28125 C 136.699219 137.480469 139.773438 134.375 143.578125 134.375 C 147.375 134.375 150.476562 137.449219 150.476562 141.28125 C 150.476562 145.082031 147.40625 148.167969 143.578125 148.167969 C 139.804688 148.15625 136.699219 145.082031 136.699219 141.28125 Z M 140.257812 141.28125 C 140.257812 143.125 141.753906 144.625 143.597656 144.625 C 145.441406 144.625 146.941406 143.125 146.941406 141.28125 C 146.941406 139.433594 145.441406 137.9375 143.597656 137.9375 C 141.753906 137.9375 140.257812 139.433594 140.257812 141.28125 Z M 151.25 41.527344 C 151.25 38.125 154.324219 35.367188 158.128906 35.367188 C 161.9375 35.367188 165.027344 38.125 165.027344 41.527344 C 165.027344 44.933594 161.957031 47.691406 158.128906 47.691406 C 154.324219 47.71875 151.25 44.933594 151.25 41.527344 Z M 154.808594 41.527344 C 154.808594 43.167969 156.304688 44.527344 158.148438 44.527344 C 159.992188 44.527344 161.492188 43.1875 161.492188 41.527344 C 161.492188 39.871094 159.992188 38.53125 158.148438 38.53125 C 156.304688 38.5625 154.808594 39.902344 154.808594 41.527344 Z M 154.679688 29.421875 C 151.074219 28.273438 148.742188 25.375 149.515625 22.972656 C 150.289062 20.5625 153.847656 19.550781 157.464844 20.703125 C 161.074219 21.851562 163.402344 24.75 162.660156 27.152344 C 161.847656 29.5625 158.289062 30.574219 154.679688 29.421875 Z M 155.394531 27.179688 C 157.160156 27.746094 158.875 27.230469 159.25 26.078125 C 159.628906 24.898438 158.496094 23.511719 156.734375 22.945312 C 155 22.378906 153.253906 22.894531 152.875 24.046875 C 152.511719 25.226562 153.628906 26.617188 155.394531 27.179688 Z M 132.746094 155.171875 C 136.542969 155.171875 139.644531 158.246094 139.644531 162.078125 C 139.644531 165.878906 136.570312 168.964844 132.746094 168.964844 C 128.949219 168.964844 125.867188 165.886719 125.867188 162.078125 C 125.835938 158.257812 128.9375 155.171875 132.746094 155.171875 Z M 132.746094 158.714844 C 130.902344 158.714844 129.40625 160.210938 129.40625 162.058594 C 129.40625 163.902344 130.902344 165.402344 132.746094 165.402344 C 134.589844 165.402344 136.085938 163.902344 136.085938 162.058594 C 136.085938 160.210938 134.589844 158.714844 132.746094 158.714844 Z M 126.214844 183.164062 C 126.214844 186.964844 123.140625 190.050781 119.316406 190.050781 C 115.519531 190.050781 112.433594 186.972656 112.433594 183.164062 C 112.433594 179.363281 115.507812 176.257812 119.316406 176.257812 C 123.109375 176.277344 126.214844 179.351562 126.214844 183.164062 Z M 122.65625 183.164062 C 122.65625 181.316406 121.15625 179.820312 119.316406 179.820312 C 117.472656 179.820312 115.972656 181.316406 115.972656 183.164062 C 115.972656 185.007812 117.472656 186.507812 119.316406 186.507812 C 121.15625 186.507812 122.65625 185.007812 122.65625 183.164062 Z M 151.597656 16.304688 C 156.574219 17.566406 161.5 19.28125 166.527344 20.246094 C 167.359375 20.402344 168.050781 19.144531 167.171875 18.746094 C 162.414062 16.664062 157.21875 15.453125 152.164062 14.332031 C 147.21875 13.210938 141.863281 11.652344 136.761719 11.949219 C 136.382812 11.980469 136.363281 12.4375 136.679688 12.535156 C 141.300781 14.460938 146.703125 15.046875 151.597656 16.304688 Z M 185.753906 68.84375 C 185.726562 69.144531 186.183594 69.144531 186.210938 68.84375 C 187.359375 54.199219 187.769531 38.800781 175.863281 28.003906 C 174.476562 26.746094 172.355469 28.839844 173.78125 30.089844 C 184.398438 39.605469 186.429688 55.402344 185.753906 68.84375 Z M 210.445312 56.34375 C 210.84375 57.386719 212.507812 57.304688 212.476562 56.074219 C 212.210938 41.636719 193.726562 33.015625 182.089844 29.195312 C 181.820312 29.117188 181.660156 29.492188 181.898438 29.652344 C 193.359375 37.242188 205.28125 42.738281 210.445312 56.34375 Z M 360.8125 241.191406 C 344.925781 191.625 318.203125 145.617188 283.558594 106.847656 C 263.953125 84.921875 241.453125 63.308594 215.640625 48.902344 C 215.242188 48.664062 214.730469 49.25 215.105469 49.566406 C 233.324219 64.777344 251.9375 79.15625 268.628906 96.101562 C 285.480469 113.238281 300.675781 132.011719 313.949219 152.066406 C 327.460938 172.496094 338.988281 194.265625 348.214844 216.980469 C 358.167969 241.457031 367.523438 268.386719 366.214844 295.167969 C 364.796875 324.359375 347.195312 352.5 316.8125 357.402344 C 315.316406 357.640625 315.664062 360.191406 317.160156 360.082031 C 339.125 358.632812 356.265625 341.554688 364.242188 321.871094 C 374.75 296 369.019531 266.761719 360.8125 241.191406 Z M 297.496094 358.253906 C 285.023438 358.761719 272.617188 360.101562 260.125 360.339844 C 247.6875 360.558594 235.464844 359.484375 223.074219 358.621094 C 222.726562 358.59375 222.679688 359.128906 222.996094 359.207031 C 246.347656 366.917969 273.953125 364.238281 297.890625 360.945312 C 299.386719 360.746094 299.019531 358.207031 297.496094 358.253906 Z M 304.472656 359.464844 C 304.207031 359.59375 304.253906 360.050781 304.550781 360.109375 C 306.019531 360.378906 307.386719 361.023438 308.914062 361.023438 C 309.84375 361.023438 310.144531 359.792969 309.371094 359.308594 C 307.683594 358.253906 306.136719 358.691406 304.472656 359.464844 Z M 226.316406 292.65625 C 241.214844 281.433594 262.265625 283.371094 272.722656 266.175781 C 272.960938 265.796875 272.40625 265.339844 272.082031 265.6875 C 266.082031 272.058594 259.878906 275.996094 251.511719 278.457031 C 246.617188 279.878906 241.667969 280.808594 236.910156 282.605469 C 251.96875 269.003906 269.097656 256.738281 273.902344 236.070312 C 274.011719 235.582031 273.289062 235.375 273.152344 235.851562 C 266.808594 259.625 240.539062 268.84375 227.199219 287.527344 C 223.589844 289.878906 220.269531 292.667969 217.246094 295.753906 C 218.882812 279.898438 224.820312 265.332031 235.246094 253.066406 C 243.8125 242.996094 252.851562 234.433594 258.945312 222.515625 C 259.027344 222.355469 258.789062 222.199219 258.679688 222.355469 C 250.949219 236.355469 236.585938 245.089844 227.355469 258 C 218.824219 269.945312 214.253906 284.085938 213.390625 298.699219 C 213.359375 299.128906 213.5 299.453125 213.6875 299.691406 C 213.339844 300.089844 212.992188 300.496094 212.667969 300.894531 C 206.886719 308.363281 198.226562 326.652344 200.445312 339.421875 C 194.746094 341.328125 186.558594 336.445312 182.839844 333.023438 C 180.035156 330.453125 177.867188 327.265625 175.40625 324.371094 C 177.308594 321.71875 179.09375 318.992188 180.886719 316.234375 C 182.039062 319.417969 183.863281 322.046875 186.398438 324.480469 C 186.796875 324.875 187.519531 324.371094 187.203125 323.863281 C 185.171875 320.707031 183.941406 316.898438 183.246094 313.238281 C 183.21875 313.078125 183.136719 312.96875 183.089844 312.839844 C 189.246094 303.097656 194.835938 292.976562 200 282.746094 C 206.234375 270.402344 212.945312 257.652344 218.328125 244.484375 C 228.199219 231.84375 236.8125 218.425781 239.507812 202.332031 C 239.617188 201.71875 238.707031 201.421875 238.546875 202.066406 C 235.476562 213.742188 229.347656 223.675781 222.5 233.261719 C 226.167969 222.257812 228.546875 210.925781 228.59375 199.308594 C 228.59375 198.910156 228.011719 198.910156 227.980469 199.308594 C 226.832031 215.320312 220.515625 230.503906 213.886719 244.988281 C 213.855469 245.019531 213.835938 245.070312 213.808594 245.097656 C 213.679688 245.289062 213.589844 245.496094 213.570312 245.714844 C 213.351562 246.199219 213.144531 246.675781 212.925781 247.132812 C 207.285156 259.367188 201.503906 271.582031 195.351562 283.578125 C 182.453125 308.722656 167.238281 333.359375 145.761719 352.074219 C 143.9375 353.652344 146.59375 356.300781 148.40625 354.722656 C 158.21875 346.210938 166.703125 336.4375 174.296875 325.96875 C 176.914062 334.320312 186.25 342.566406 195.320312 343.558594 C 191.066406 346.507812 188.441406 351.777344 190.910156 356.894531 C 195.160156 365.707031 210.59375 365.222656 218.59375 364.230469 C 219.902344 364.070312 220.4375 362.113281 218.941406 361.738281 C 213.003906 360.289062 206.660156 361.3125 200.800781 359.734375 C 199.542969 359.386719 198.363281 358.898438 197.324219 358.285156 C 198.691406 356.628906 200.476562 355.527344 202.882812 355.527344 C 203.546875 355.527344 203.84375 354.5625 203.230469 354.238281 C 201.386719 353.246094 199.703125 353.136719 197.769531 354.019531 C 196.726562 354.503906 195.707031 355.277344 194.964844 356.210938 C 194.347656 355.40625 193.941406 354.445312 193.765625 353.375 C 194.488281 352.757812 195.101562 352.003906 195.875 351.417969 C 196.917969 350.644531 198.046875 349.890625 199.246094 349.382812 C 199.96875 349.085938 199.859375 348.09375 199.058594 348.015625 C 197.421875 347.855469 195.847656 348.066406 194.429688 348.929688 C 194.378906 348.957031 194.320312 349.007812 194.269531 349.039062 C 195.46875 346.386719 198.3125 344.402344 200.929688 343.0625 C 201.121094 343.015625 201.308594 342.953125 201.496094 342.90625 C 202.753906 346.167969 204.945312 348.878906 208.472656 350.613281 C 209.496094 351.121094 210.824219 350.050781 210.128906 348.957031 C 203.65625 338.808594 203.4375 329.171875 207.53125 317.8125 C 211.121094 307.890625 217.800781 299.027344 226.316406 292.65625 Z M 118.671875 355.664062 C 119.097656 356.121094 119.015625 356.894531 118.480469 357.222656 C 115.675781 358.878906 113.109375 355.835938 112.277344 353.074219 C 110.542969 353.183594 108.90625 351.46875 108.214844 349.921875 C 107.035156 347.320312 107.835938 344.273438 109.3125 341.960938 C 109.800781 341.207031 110.382812 340.574219 111 339.957031 C 108.054688 339.847656 105.269531 339.203125 103.40625 337.65625 C 103.375 337.625 103.375 337.625 103.355469 337.605469 C 103.277344 337.636719 103.199219 337.6875 103.117188 337.714844 C 97.496094 338.835938 93.96875 332.574219 96 327.785156 C 97.023438 325.34375 98.976562 323.445312 101.375 322.40625 C 102.304688 321.980469 103.136719 321.820312 103.941406 321.761719 C 102.039062 293.511719 101.292969 264.746094 105.042969 236.636719 C 103.007812 230.851562 102.066406 224.609375 102.582031 218.160156 C 102.632812 217.625 103.355469 217.625 103.414062 218.160156 C 105.050781 232.507812 111.363281 245.664062 122.140625 254.84375 C 118.691406 249.753906 116.738281 243.242188 117.242188 237.835938 C 117.273438 237.4375 117.886719 237.410156 117.886719 237.835938 C 117.730469 242.140625 120.613281 246.410156 122.675781 250.070312 C 124.359375 253.046875 126.3125 255.636719 128.957031 257.730469 C 130.246094 249.882812 131.308594 242.042969 131.335938 234.304688 C 131.335938 233.957031 131.902344 233.847656 131.953125 234.222656 C 134.46875 249.625 130.347656 266.273438 128.613281 281.59375 C 126.578125 299.503906 125.617188 317.535156 123.636719 335.414062 C 123.585938 335.980469 123.289062 336.375 122.914062 336.644531 C 122.882812 336.992188 122.695312 337.339844 122.40625 337.558594 C 122.535156 337.605469 122.703125 337.636719 122.832031 337.714844 C 123.210938 337.902344 122.992188 338.441406 122.613281 338.46875 C 119.464844 338.707031 115.6875 340.027344 113.464844 342.328125 C 112.175781 343.667969 110.710938 345.890625 111.246094 347.847656 C 111.433594 348.542969 111.859375 348.996094 112.347656 349.375 C 113.417969 346.429688 116.738281 344.929688 119.917969 345.496094 C 120.296875 345.574219 120.316406 346.109375 120.027344 346.269531 C 118.234375 347.390625 115.191406 348.867188 115.320312 351.359375 C 115.457031 353.601562 117.363281 354.296875 118.671875 355.664062 Z M 113.1875 336.199219 C 115.628906 336.007812 117.976562 335.34375 120.386719 335.046875 C 120.8125 317.800781 122.921875 300.445312 124.90625 283.3125 C 125.660156 276.75 126.859375 270.082031 128.007812 263.417969 C 127.789062 263.386719 127.582031 263.335938 127.363281 263.199219 C 117.898438 257.570312 110.402344 249.296875 106.199219 239.582031 C 106.070312 267.167969 105.289062 294.613281 107.132812 322.1875 C 107.558594 322.316406 107.984375 322.484375 108.46875 322.671875 C 109.132812 322.941406 109.132812 324.140625 108.28125 324.0625 C 105.636719 323.765625 101.996094 325.351562 100.3125 327.386719 C 98.042969 330.113281 98.816406 332.765625 101.355469 334.023438 C 100.976562 331.691406 101.996094 329.3125 104.804688 328.804688 C 105.554688 328.675781 105.921875 329.578125 105.308594 330.007812 C 100.820312 333.222656 106.695312 335.898438 108.835938 336.21875 C 110.273438 336.40625 111.742188 336.296875 113.1875 336.199219 Z M 136.699219 356.707031 C 133.835938 355.984375 130.683594 356.410156 127.738281 356.09375 C 126.371094 355.933594 124.667969 355.933594 123.40625 355.316406 C 120.386719 353.851562 122.179688 350.953125 124.585938 350.207031 C 125.171875 350.019531 125.074219 349.105469 124.429688 349.105469 C 120.523438 349.078125 116.429688 352.699219 119.722656 356.46875 C 121.277344 358.265625 123.84375 358.820312 126.085938 359.179688 C 129.375 359.664062 133.519531 360.300781 136.699219 359.148438 C 137.800781 358.742188 137.988281 357.023438 136.699219 356.707031 Z M 206.699219 71.632812 C 206.007812 99.695312 190.839844 119.035156 176.984375 141.84375 C 176.179688 143.15625 178.101562 144.714844 179.152344 143.503906 C 195.875 124.273438 209.753906 97.691406 207.453125 71.605469 C 207.402344 71.175781 206.730469 71.148438 206.699219 71.632812 Z M 173.773438 147.066406 C 172.574219 148.941406 170.796875 150.675781 170.261719 152.898438 C 170.074219 153.703125 171.066406 154.347656 171.679688 153.734375 C 173.257812 152.09375 173.851562 149.695312 174.78125 147.679688 C 175.089844 146.957031 174.179688 146.417969 173.773438 147.066406 Z M 62.875 122.585938 C 62.824219 122.535156 62.714844 122.585938 62.765625 122.664062 C 67.257812 129.949219 67.898438 137.183594 68.136719 145.535156 C 68.296875 150.972656 68.457031 156.410156 71.617188 161.015625 C 72.015625 161.601562 72.90625 161.234375 72.765625 160.53125 C 70.417969 148.265625 73.410156 131.535156 62.875 122.585938 Z M 75.363281 171.296875 C 75.472656 169.023438 73.789062 166.988281 73.171875 164.867188 C 73.09375 164.566406 72.609375 164.628906 72.636719 164.945312 C 72.828125 167.21875 72.421875 169.976562 74.195312 171.800781 C 74.609375 172.238281 75.335938 171.882812 75.363281 171.296875 Z M 40.136719 178.46875 C 41.128906 178.597656 41.238281 177.238281 40.59375 176.753906 C 38.589844 175.304688 36.289062 174.402344 34.308594 172.921875 C 32.324219 171.453125 30.71875 169.707031 29.171875 167.8125 C 26.875 165.023438 24.871094 162.78125 21.222656 161.949219 C 21.007812 161.898438 20.878906 162.1875 21.066406 162.296875 C 25.207031 164.359375 27.160156 168.964844 30.136719 172.289062 C 32.703125 175.175781 36.203125 177.992188 40.136719 178.46875 Z M 15.574219 169.53125 C 15.355469 169.398438 15.089844 169.71875 15.304688 169.875 C 16.941406 171.136719 18.410156 172.605469 20.203125 173.675781 C 21.671875 174.558594 23.949219 175.820312 25.683594 175.679688 C 26.378906 175.632812 26.863281 174.769531 26.269531 174.234375 C 25.011719 173.050781 23.007812 172.625 21.433594 171.960938 C 19.507812 171.136719 17.449219 170.601562 15.574219 169.53125 Z M 27.964844 177.050781 C 28.847656 177.902344 29.253906 179.003906 30.234375 179.757812 C 30.53125 179.996094 30.957031 179.679688 30.957031 179.332031 C 30.957031 177.726562 29.777344 177.03125 28.46875 176.386719 C 28.074219 176.195312 27.617188 176.703125 27.964844 177.050781 Z M 27.964844 177.050781 " fill-opacity="1" fill-rule="nonzero"/><path fill="#fff0db" d="M 83.867188 101.429688 C 83.203125 101.003906 82.667969 102.015625 83.253906 102.472656 C 85.523438 104.160156 83.253906 106.867188 82.957031 108.84375 C 82.90625 109.300781 83.332031 109.804688 83.808594 109.507812 C 86.496094 107.671875 86.652344 103.199219 83.867188 101.429688 Z M 82.53125 114.042969 C 82.453125 114.816406 82.042969 115.433594 81.757812 116.15625 C 81.519531 116.769531 82.34375 117.070312 82.75 116.742188 C 83.523438 116.078125 83.710938 115.023438 83.710938 114.0625 C 83.710938 113.269531 82.609375 113.296875 82.53125 114.042969 Z M 50.433594 66.921875 C 50.039062 66.703125 49.554688 67.238281 49.929688 67.566406 C 51.316406 68.765625 50.78125 70.273438 50.59375 71.792969 C 50.542969 72.277344 51.238281 72.675781 51.613281 72.378906 C 53.648438 70.851562 52.308594 67.882812 50.433594 66.921875 Z M 54.527344 74.203125 C 54.289062 73.617188 53.347656 73.855469 53.566406 74.472656 C 53.992188 75.730469 53.675781 76.554688 53.378906 77.765625 C 53.269531 78.222656 53.863281 78.648438 54.210938 78.253906 C 55.113281 77.121094 55.035156 75.484375 54.527344 74.203125 Z M 53.695312 31.753906 C 52.089844 31.515625 50.40625 31.914062 49.394531 33.253906 C 48.375 34.5625 48.054688 36.410156 49.207031 37.730469 C 49.554688 38.125 50.136719 37.777344 50.167969 37.332031 C 50.246094 36.398438 50.136719 35.328125 50.652344 34.492188 C 51.269531 33.453125 52.367188 32.9375 53.539062 32.9375 C 54.183594 32.964844 54.390625 31.863281 53.695312 31.753906 Z M 46.105469 38.503906 C 44.84375 38.988281 43.425781 39.84375 43.160156 41.261719 C 43.082031 41.6875 43.535156 41.957031 43.882812 41.6875 C 44.816406 40.914062 45.378906 40.03125 46.53125 39.515625 C 47.085938 39.257812 46.6875 38.292969 46.105469 38.503906 Z M 31.542969 57.386719 C 31.96875 56.847656 31.414062 55.886719 30.738281 56.34375 C 29.589844 57.117188 28.867188 58 28.519531 59.398438 C 28.222656 60.601562 28.171875 62.109375 29.085938 63.011719 C 29.621094 63.578125 30.394531 63.089844 30.472656 62.445312 C 30.582031 61.59375 30.253906 60.789062 30.421875 59.90625 C 30.5625 59.101562 31.039062 58.050781 31.542969 57.386719 Z M 29.679688 65.976562 C 29.519531 67.207031 29.09375 68.46875 29.628906 69.621094 C 29.867188 70.183594 30.621094 70.015625 30.886719 69.621094 C 31.550781 68.6875 31.394531 67.347656 31.472656 66.214844 C 31.523438 65.234375 29.835938 64.964844 29.679688 65.976562 Z M 230.539062 330.035156 C 228.289062 331.214844 225.703125 332.605469 225.078125 335.285156 C 224.621094 337.160156 225.375 339.808594 227.566406 340.046875 C 228.210938 340.125 228.605469 339.273438 228.289062 338.757812 C 227.515625 337.496094 226.820312 336.566406 227.375 334.976562 C 227.992188 333.261719 229.785156 332.167969 231.253906 331.285156 C 232.066406 330.78125 231.339844 329.578125 230.539062 330.035156 Z M 229.925781 343.847656 C 230.675781 343.339844 230.003906 342.191406 229.199219 342.648438 C 227.246094 343.71875 226.523438 348.460938 229.597656 348.382812 C 230.082031 348.382812 230.351562 347.875 230.132812 347.449219 C 229.546875 346.339844 228.457031 344.871094 229.925781 343.847656 Z M 329.667969 330.382812 C 329.621094 332.984375 328.015625 335.144531 326.300781 336.972656 C 324.476562 338.875 322.769531 339.242188 320.441406 338.074219 C 319.90625 337.804688 319.210938 338.261719 319.371094 338.90625 C 320.28125 342.152344 324.476562 341.347656 326.515625 339.738281 C 329.164062 337.625 331.144531 333.796875 331.007812 330.394531 C 330.957031 329.53125 329.667969 329.53125 329.667969 330.382812 Z M 317.6875 342.0625 C 316.347656 343.53125 314.710938 343.164062 312.949219 343.429688 C 312.523438 343.511719 312.523438 344.015625 312.730469 344.285156 C 314.386719 346.425781 317.597656 344.632812 318.804688 342.914062 C 319.273438 342.25 318.222656 341.464844 317.6875 342.0625 Z M 295.589844 336.355469 C 295.007812 338.261719 293.746094 339.867188 292.082031 340.988281 C 290.617188 341.980469 288.902344 342.03125 287.425781 342.835938 C 286.808594 343.152344 286.996094 344.066406 287.613281 344.253906 C 289.535156 344.898438 291.945312 343.449219 293.363281 342.269531 C 295.097656 340.820312 296.195312 338.867188 296.730469 336.703125 C 296.929688 335.929688 295.839844 335.632812 295.589844 336.355469 Z M 287.652344 347.578125 C 286.691406 347.976562 285.917969 347.6875 284.976562 347.359375 C 284.519531 347.203125 284.125 347.757812 284.359375 348.164062 C 285.164062 349.425781 286.710938 349.582031 288.027344 349.046875 C 288.960938 348.671875 288.554688 347.203125 287.652344 347.578125 Z M 340.484375 214.996094 C 339.730469 214.617188 338.847656 215.578125 339.550781 216.222656 C 340.167969 216.789062 340.652344 217.644531 340.75 218.496094 C 340.859375 219.351562 340.40625 220.023438 340.246094 220.828125 C 340.085938 221.523438 340.832031 222.246094 341.535156 221.820312 C 343.953125 220.222656 342.703125 216.125 340.484375 214.996094 Z M 342.355469 224.53125 C 341.980469 223.429688 340.324219 223.886719 340.621094 225.015625 C 340.96875 226.355469 340.304688 227.238281 339.503906 228.230469 C 339.046875 228.796875 339.453125 229.789062 340.277344 229.539062 C 342.355469 228.945312 342.992188 226.433594 342.355469 224.53125 Z M 308.914062 167.542969 C 308.109375 165.96875 306.535156 164.976562 304.871094 164.390625 C 304.144531 164.121094 303.609375 165.320312 304.335938 165.648438 C 305.644531 166.265625 306.445312 167.335938 307.058594 168.625 C 307.566406 169.746094 307.378906 171.066406 307.972656 172.140625 C 308.191406 172.515625 308.726562 172.566406 309.011719 172.269531 C 310.28125 171.027344 309.605469 168.882812 308.914062 167.542969 Z M 311.480469 174.480469 C 310.894531 173.835938 309.714844 174.699219 310.25 175.441406 C 310.976562 176.433594 311.292969 177.617188 311.164062 178.816406 C 311.035156 180.046875 310.3125 180.851562 309.824219 181.921875 C 309.609375 182.410156 309.984375 183.183594 310.597656 182.945312 C 313.949219 181.683594 313.433594 176.652344 311.480469 174.480469 Z M 263.496094 106.628906 C 263.011719 104.191406 261.246094 102.5625 258.835938 102.234375 C 258.253906 102.15625 258.191406 103.039062 258.707031 103.226562 C 260.789062 103.980469 261.921875 106.144531 261.703125 108.257812 C 261.542969 109.816406 260.660156 111.015625 260.175781 112.464844 C 259.640625 111.878906 258.648438 112.652344 259.074219 113.347656 C 260.175781 115.066406 259.609375 116.484375 258.835938 118.109375 C 258.539062 118.726562 259.183594 119.609375 259.878906 119.152344 C 261.75 117.894531 261.78125 115.292969 260.808594 113.417969 C 260.839844 113.417969 260.890625 113.417969 260.917969 113.386719 C 263.148438 112.195312 263.953125 108.980469 263.496094 106.628906 Z M 249.609375 92.191406 C 249.480469 90.128906 248.378906 88.472656 246.695312 87.292969 C 246.109375 86.894531 245.40625 87.796875 245.941406 88.285156 C 247.171875 89.386719 247.734375 91.011719 247.734375 92.648438 C 247.734375 94.019531 246.960938 95.171875 246.773438 96.507812 C 246.726562 96.828125 247.121094 97.09375 247.417969 96.996094 C 249.292969 96.371094 249.71875 93.910156 249.609375 92.191406 Z M 245.328125 102.3125 C 245.277344 103.277344 244.761719 103.953125 244.445312 104.835938 C 244.257812 105.339844 244.902344 105.746094 245.328125 105.5 C 246.449219 104.882812 246.773438 103.515625 246.824219 102.3125 C 246.855469 101.351562 245.386719 101.382812 245.328125 102.3125 Z M 42.851562 119.757812 C 35.921875 122.933594 27.785156 117.683594 22.363281 113.734375 C 21.867188 113.378906 22.292969 112.613281 22.851562 112.902344 C 25.902344 114.527344 28.996094 116.324219 32.265625 117.476562 C 35.753906 118.707031 38.90625 118.519531 42.515625 118.507812 C 43.128906 118.519531 43.46875 119.46875 42.851562 119.757812 Z M 50.265625 117.425781 C 49.464844 118.714844 47.460938 118.578125 46.171875 118.320312 C 45.6875 118.21875 45.796875 117.425781 46.292969 117.457031 C 46.957031 117.484375 47.5625 117.355469 48.195312 117.179688 C 48.75 117.019531 49.277344 116.730469 49.859375 116.722656 C 50.207031 116.710938 50.453125 117.128906 50.265625 117.425781 Z M 40.195312 105.074219 C 34.328125 104.269531 25.894531 101.203125 23.523438 95.089844 C 23.40625 94.78125 23.820312 94.476562 24.078125 94.664062 C 26.585938 96.441406 28.378906 98.992188 31.027344 100.6875 C 33.8125 102.472656 37.074219 103.933594 40.316406 104.636719 C 40.601562 104.707031 40.472656 105.113281 40.195312 105.074219 Z M 20.601562 93.253906 C 20.28125 92.917969 19.90625 92.667969 19.46875 92.519531 C 19.074219 92.382812 18.597656 92.402344 18.242188 92.171875 C 17.964844 91.996094 17.984375 91.628906 18.242188 91.449219 C 18.726562 91.101562 19.460938 91.320312 19.964844 91.546875 C 20.519531 91.796875 20.964844 92.214844 21.3125 92.699219 C 21.628906 93.125 20.945312 93.621094 20.601562 93.253906 Z M 20.601562 93.253906 " fill-opacity="1" fill-rule="nonzero"/></svg>