<svg xmlns="http://www.w3.org/2000/svg" xmlns:xlink="http://www.w3.org/1999/xlink" width="500" zoomAndPan="magnify" viewBox="0 0 375 374.999991" height="500" preserveAspectRatio="xMidYMid meet" version="1.0"><path fill="#f5d6c3" d="M 333.925781 246.882812 C 337.195312 290.824219 325.382812 309.605469 311.867188 314.875 C 297.976562 320.21875 274.207031 321.035156 260.097656 321.480469 C 246.875 321.925781 241.601562 320.589844 241.898438 317.695312 C 243.160156 309.308594 247.46875 305.523438 247.46875 305.523438 L 242.566406 305.523438 L 237.664062 329.796875 C 236.550781 335.511719 231.945312 339.890625 226.226562 340.855469 C 213.597656 342.933594 200.453125 340.261719 200.453125 340.261719 L 199.488281 333.953125 C 199.488281 333.953125 180.472656 335.066406 175.941406 330.167969 C 171.335938 325.265625 184.558594 320.515625 187.898438 309.308594 C 190.796875 303.742188 183.070312 221.199219 183.070312 221.199219 C 177.722656 205.910156 174.828125 118.246094 176.683594 108.742188 C 178.539062 99.242188 171.484375 85.066406 150.390625 72.964844 C 129.296875 60.867188 134.421875 31.992188 138.953125 29.691406 C 143.480469 27.390625 161.53125 31.101562 168.140625 30.953125 C 174.753906 30.730469 189.011719 10.761719 214.191406 18.929688 C 255.121094 32.214844 245.984375 83.136719 245.984375 83.136719 C 243.308594 93.824219 252.742188 93.082031 252.742188 93.082031 C 278.441406 127.96875 305.554688 204.722656 305.554688 204.722656 C 317.140625 212.960938 322.5625 221.125 325.460938 228.621094 C 328.355469 222.535156 335.785156 204.128906 323.601562 190.765625 C 309.117188 174.808594 328.058594 167.53125 339.570312 181.191406 C 349.96875 193.511719 348.484375 226.691406 333.925781 246.882812 Z M 333.925781 246.882812 " fill-opacity="1" fill-rule="nonzero"/><path fill="#918658" d="M 185.597656 136.058594 L 187.898438 137.691406 L 178.242188 195.441406 C 178.242188 195.441406 192.726562 234.410156 182.625 243.914062 C 172.523438 253.414062 83.839844 281.398438 67.867188 281.546875 C 51.898438 281.769531 39.792969 266.777344 39.792969 266.777344 C 40.609375 246.734375 48.78125 233 48.78125 233 C 25.234375 168.347656 39.71875 141.480469 42.6875 135.09375 L 49.078125 126.039062 L 113.398438 122.625 C 122.089844 118.914062 147.121094 123.144531 160.046875 130.417969 C 159.898438 130.269531 176.757812 121.585938 185.597656 136.058594 Z M 185.597656 136.058594 " fill-opacity="1" fill-rule="nonzero"/><path fill="#d76249" d="M 252.816406 93.082031 C 237.292969 108.890625 191.316406 115.128906 191.316406 115.128906 L 189.980469 103.472656 C 211.222656 100.800781 245.761719 84.324219 245.761719 84.324219 Z M 252.816406 93.082031 " fill-opacity="1" fill-rule="nonzero"/><path fill="#eeaa94" d="M 39.644531 266.777344 C 39.644531 266.480469 48.410156 263.65625 53.832031 264.398438 C 53.832031 264.398438 65.34375 204.871094 90.300781 202.046875 C 90.300781 202.046875 122.757812 217.859375 125.804688 221.199219 C 128.925781 224.539062 138.726562 246.957031 138.726562 246.957031 L 146.75 227.878906 C 146.75 227.878906 157.59375 229.289062 166.0625 222.90625 C 176.535156 214.964844 178.242188 195.441406 178.242188 195.441406 C 178.242188 195.441406 200.898438 199.523438 203.496094 219.863281 C 206.097656 240.203125 196.8125 291.789062 173.933594 318.363281 C 153.957031 341.523438 72.324219 339.074219 57.320312 319.625 C 39.496094 296.761719 39.644531 266.777344 39.644531 266.777344 Z M 159.898438 130.269531 C 159.898438 130.269531 174.308594 131.085938 185.597656 136.058594 C 185.597656 136.058594 187.527344 127.152344 188.492188 125.371094 C 189.460938 123.589844 196.070312 110.527344 195.921875 102.285156 C 196.070312 97.90625 203.867188 77.269531 198.519531 74.300781 C 198.519531 74.300781 201.566406 66.582031 200.082031 64.652344 C 198.445312 62.5 195.550781 65.171875 195.550781 65.171875 C 195.550781 65.171875 197.183594 60.050781 194.957031 58.9375 C 192.726562 57.824219 189.160156 62.871094 189.160156 62.871094 C 189.160156 62.871094 190.128906 59.53125 188.121094 58.34375 C 186.117188 57.15625 178.242188 67.992188 176.683594 71.703125 C 175.125 75.414062 170.59375 87.292969 170.59375 87.292969 C 170.59375 87.292969 170.59375 78.535156 165.839844 79.574219 C 163.164062 80.167969 161.234375 99.167969 162.644531 103.992188 C 164.207031 109.039062 159.898438 130.269531 159.898438 130.269531 Z M 159.898438 130.269531 " fill-opacity="1" fill-rule="nonzero"/><path fill="#f5d6c3" d="M 127.066406 176.441406 C 115.851562 167.457031 81.609375 140.660156 69.28125 135.984375 C 53.90625 130.195312 42.539062 134.945312 42.539062 134.945312 C 26.941406 123.144531 41.351562 112.011719 35.855469 91.152344 C 30.359375 70.292969 40.757812 40.824219 70.691406 34.664062 C 95.128906 29.691406 104.339844 49.882812 104.339844 49.882812 L 102.257812 88.703125 C 109.984375 92.859375 117.707031 97.089844 117.707031 97.089844 C 115.109375 120.25 118.972656 122.847656 122.683594 130.269531 C 126.398438 137.691406 134.792969 133.089844 136.054688 145.042969 C 137.316406 156.992188 138.132812 168.867188 144.226562 170.871094 C 139.398438 183.417969 127.066406 176.441406 127.066406 176.441406 Z M 78.269531 242.355469 C 78.417969 242.578125 91.414062 261.800781 98.097656 270.636719 L 99.214844 269.820312 C 92.601562 260.984375 78.269531 242.355469 78.269531 242.355469 Z M 176.386719 265.960938 L 177.574219 266.703125 C 184.183594 256.457031 195.847656 236.492188 195.996094 236.269531 C 195.921875 236.34375 182.996094 255.789062 176.386719 265.960938 Z M 51.972656 280.730469 L 53.90625 264.398438 L 52.566406 264.25 Z M 234.542969 58.566406 C 241.972656 50.996094 246.726562 40.824219 247.691406 30.210938 C 248.65625 19.597656 245.761719 8.757812 239.746094 0 C 232.242188 8.609375 225.1875 17.59375 218.574219 26.871094 " fill-opacity="1" fill-rule="nonzero"/><path fill="#c7745e" d="M 240.117188 366.6875 C 226.894531 375 198.742188 371.585938 187.304688 369.878906 C 175.867188 368.171875 164.503906 369.507812 160.714844 365.351562 C 156.925781 361.195312 159.230469 351.394531 158.039062 347.757812 C 157.59375 346.347656 147.789062 333.582031 136.277344 318.882812 C 126.101562 331.949219 117.929688 342.636719 117.484375 343.972656 C 116.371094 347.535156 118.597656 357.40625 114.8125 361.566406 C 111.023438 365.722656 99.660156 364.238281 88.21875 366.09375 C 62.074219 370.398438 35.335938 368.988281 30.730469 362.160156 C 26.570312 354.882812 42.988281 352.136719 53.011719 349.019531 C 63.414062 345.828125 81.683594 329.945312 98.023438 309.976562 C 101.144531 306.191406 106.34375 297.730469 111.914062 288.078125 C 103.820312 277.910156 97.949219 270.5625 97.949219 270.5625 C 105.675781 265.140625 138.652344 246.882812 138.652344 246.882812 L 139.546875 244.65625 C 147.714844 249.257812 171.039062 262.320312 177.425781 266.777344 C 177.425781 266.777344 170.074219 275.980469 160.492188 288.078125 C 166.953125 299.511719 173.414062 309.828125 177.425781 313.761719 C 188.195312 324.300781 208.992188 347.3125 232.464844 353.84375 C 239.519531 355.773438 247.097656 361.9375 240.117188 366.6875 Z M 190.648438 37.039062 C 191.242188 37.039062 191.835938 36.964844 192.355469 36.964844 C 192.355469 36.964844 187.230469 35.332031 185.820312 33.921875 C 184.78125 32.882812 182.328125 29.320312 182.328125 29.320312 C 182.328125 29.394531 182.328125 29.46875 182.402344 29.542969 C 183.292969 35.480469 187.082031 37.039062 190.648438 37.039062 Z M 74.628906 72 C 77.597656 90.632812 84.804688 92.117188 85.621094 105.105469 C 85.769531 107.925781 85.546875 110.527344 85.101562 112.976562 C 83.988281 119.285156 86.585938 125.667969 91.710938 129.378906 C 98.320312 134.203125 107.53125 138.582031 112.65625 147.34375 L 100.921875 107.925781 C 100.921875 107.925781 117.78125 105.625 121.496094 97.386719 C 125.210938 89.148438 108.574219 52.851562 99.957031 44.3125 C 91.339844 35.851562 78.714844 40.082031 78.714844 40.082031 C 84.730469 46.390625 71.65625 53.371094 74.628906 72 Z M 148.53125 29.171875 C 144.375 28.875 140.734375 28.875 139.027344 29.691406 C 137.6875 30.359375 136.277344 33.328125 135.535156 37.484375 C 138.28125 38.671875 148.160156 38.300781 148.53125 29.171875 Z M 148.53125 29.171875 " fill-opacity="1" fill-rule="nonzero"/><path fill="#eeaa94" d="M 155.8125 64.652344 C 158.410156 64.800781 164.652344 60.792969 164.652344 60.792969 C 163.238281 64.207031 160.195312 66.0625 156.035156 66.0625 C 155.960938 66.0625 155.886719 66.0625 155.8125 66.0625 C 143.035156 65.246094 135.535156 51.070312 135.535156 51.070312 C 135.535156 51.070312 146.007812 64.058594 155.8125 64.652344 Z M 210.851562 319.773438 C 209.886719 320.144531 208.769531 320.664062 207.730469 321.257812 C 210.40625 313.167969 215.160156 285.851562 215.011719 266.109375 C 216.496094 268.410156 218.054688 270.488281 219.617188 272.195312 L 202.902344 240.203125 C 203.125 242.429688 207.730469 254.230469 213.523438 263.730469 C 214.117188 286.074219 207.65625 319.253906 205.726562 322.371094 C 201.269531 325.191406 197.109375 329.203125 197.109375 332.394531 C 197.109375 332.394531 201.417969 325.191406 211.445312 321.035156 C 215.234375 319.476562 220.433594 298.175781 223.847656 284.664062 C 229.867188 260.761719 233.28125 238.792969 233.28125 224.464844 C 233.28125 224.464844 229.34375 253.488281 226.078125 269.003906 C 220.507812 294.832031 212.78125 318.4375 210.851562 319.773438 Z M 215.679688 337.515625 C 215.53125 339.667969 216.050781 341.078125 217.089844 341.597656 C 217.089844 341.597656 216.496094 338.554688 217.832031 333.878906 C 218.648438 330.910156 221.695312 326.15625 221.695312 326.15625 C 218.277344 327.34375 215.902344 333.582031 215.679688 337.515625 Z M 207.65625 330.761719 C 205.429688 334.695312 205.503906 339.445312 205.503906 339.742188 C 205.503906 339.742188 206.914062 330.910156 212.261719 328.011719 C 212.261719 328.011719 208.546875 329.203125 207.65625 330.761719 Z M 228.675781 336.253906 C 228.675781 336.253906 229.867188 333.285156 230.089844 330.09375 C 230.238281 327.714844 230.089844 322.742188 230.089844 322.742188 C 228.007812 327.34375 228.675781 335.882812 228.675781 336.253906 Z M 258.832031 301.292969 C 253.410156 302.183594 248.878906 304.113281 248.878906 304.113281 C 248.878906 304.113281 253.855469 303.519531 259.054688 302.703125 C 266.410156 301.515625 277.625 299.734375 292.628906 296.167969 C 296.714844 295.203125 301.023438 294.164062 305.628906 292.902344 C 305.628906 292.976562 268.117188 299.808594 258.832031 301.292969 Z M 244.347656 315.097656 C 243.53125 316.730469 244.199219 321.035156 244.199219 321.035156 C 244.125 320.960938 244.496094 317.84375 244.871094 316.582031 C 245.613281 314.207031 249.847656 308.640625 249.847656 308.640625 C 247.46875 310.199219 245.539062 312.722656 244.347656 315.097656 Z M 250.664062 321.035156 L 252.074219 321.035156 C 252.074219 320.960938 252 313.613281 257.941406 310.273438 C 257.941406 310.199219 251.257812 311.757812 250.664062 321.035156 Z M 260.246094 237.902344 C 262.621094 227.433594 268.859375 218.230469 277.773438 212.292969 C 277.996094 212.144531 278.21875 211.996094 278.441406 211.847656 C 286.613281 206.652344 297.53125 205.167969 297.53125 205.167969 C 294.335938 203.757812 285.871094 205.464844 277.699219 210.660156 C 272.425781 214 264.476562 219.863281 260.394531 231.515625 C 255.492188 245.472656 249.695312 276.054688 246.28125 288.894531 C 244.273438 296.464844 242.640625 305.449219 242.640625 305.449219 C 242.640625 305.449219 245.613281 296.835938 247.617188 289.265625 C 250.292969 279.171875 257.570312 249.628906 260.246094 237.902344 Z M 119.640625 161.222656 C 125.65625 168.050781 133.527344 166.566406 133.527344 166.566406 C 121.421875 165.230469 117.632812 156.621094 114.8125 150.3125 C 114.292969 149.125 111.988281 147.714844 111.988281 147.714844 C 112.507812 148.605469 112.953125 149.71875 113.472656 150.90625 C 114.886719 154.023438 116.667969 157.808594 119.640625 161.222656 Z M 69.28125 192.695312 L 90.375 202.046875 C 90.375 202.046875 83.617188 197.371094 79.085938 195.441406 C 73.066406 192.917969 69.28125 192.695312 69.28125 192.695312 Z M 139.25 226.542969 C 144.449219 227.953125 146.972656 227.65625 146.972656 227.65625 L 125.878906 221.125 C 125.878906 221.125 136.5 225.800781 139.25 226.542969 Z M 142.886719 170.351562 L 144.152344 170.945312 L 157.890625 131.753906 Z M 158.410156 287.113281 L 160.566406 288.078125 L 138.726562 246.882812 Z M 135.089844 320.441406 L 136.277344 318.882812 L 111.988281 288.078125 Z M 188.269531 170.796875 C 189.460938 171.910156 190.871094 172.953125 192.429688 173.695312 L 184.558594 165.675781 C 185.449219 167.605469 186.710938 169.3125 188.269531 170.796875 Z M 199.414062 173.621094 C 195.328125 171.019531 191.761719 168.570312 191.761719 168.570312 C 195.179688 172.582031 199.785156 175.699219 204.835938 177.183594 C 204.835938 177.183594 202.382812 175.550781 199.414062 173.621094 Z M 216.941406 175.550781 C 212.261719 173.769531 203.273438 169.164062 203.273438 169.164062 C 204.984375 170.574219 206.765625 171.835938 208.621094 173.027344 C 211.074219 174.585938 216.941406 175.550781 216.941406 175.550781 Z M 216.941406 175.550781 " fill-opacity="1" fill-rule="nonzero"/></svg>